<?xml version="1.0" encoding="UTF-8"?>
<svg width="20px" height="14px" viewBox="0 0 20 14" version="1.1" xmlns="http://www.w3.org/2000/svg" xmlns:xlink="http://www.w3.org/1999/xlink">
    <!-- Generator: Sketch 51.3 (57544) - http://www.bohemiancoding.com/sketch -->
    <title>Bonaire</title>
    <desc>Created with Sketch.</desc>
    <defs>
        <rect id="path-1" x="0" y="0" width="20" height="14" rx="1"></rect>
    </defs>
    <g id="Page-1" stroke="none" stroke-width="1" fill="none" fill-rule="evenodd">
        <g id="Bonaire">
            <mask id="mask-2" fill="white">
                <use xlink:href="#path-1"></use>
            </mask>
            <use id="Mask" fill="#FFFFFF" xlink:href="#path-1"></use>
            <g id="Flag_of_Bonaire" mask="url(#mask-2)">
                <rect id="Rectangle-path" fill="#FFFFFF" fill-rule="nonzero" x="0" y="0" width="22" height="14"></rect>
                <polygon id="Shape" fill="#012A87" fill-rule="nonzero" points="22 14 0 14 22 0"></polygon>
                <polygon id="Shape" fill="#F9D90F" fill-rule="nonzero" points="0 0 0 5.83333335 9.16666667 0"></polygon>
                <ellipse id="Oval" stroke="#000000" stroke-width="0.5" cx="6.05" cy="6.055" rx="2.93333333" ry="2.8"></ellipse>
                <g id="g" transform="translate(5.500000, 2.415000)" fill="#000000" fill-rule="nonzero">
                    <polygon id="a" points="0.55 0.02920659 1.1 0.938533264 0 0.938533264"></polygon>
                    <g id="a-link" transform="translate(0.550000, 6.807500) rotate(180.000000) translate(-0.550000, -6.807500) translate(0.000000, 6.335000)">
                        <polygon id="a" points="0.55 0.02920659 1.1 0.938533264 0 0.938533264"></polygon>
                    </g>
                </g>
                <g id="g-link" transform="translate(6.050000, 6.055000) rotate(90.000000) translate(-6.050000, -6.055000) translate(5.500000, 2.415000)" fill="#000000" fill-rule="nonzero">
                    <g id="g">
                        <polygon id="a" points="0.55 0.02920659 1.1 0.938533264 0 0.938533264"></polygon>
                        <g id="a-link" transform="translate(0.550000, 6.807500) rotate(180.000000) translate(-0.550000, -6.807500) translate(0.000000, 6.335000)">
                            <polygon id="a" points="0.55 0.02920659 1.1 0.938533264 0 0.938533264"></polygon>
                        </g>
                    </g>
                </g>
                <polygon id="b" fill="#DC171D" fill-rule="nonzero" points="6.05 4.27 7.6694675 6.9475 4.4305325 6.9475"></polygon>
                <g id="b-link" transform="translate(6.446928, 5.836250) rotate(60.000000) translate(-6.446928, -5.836250) translate(4.796928, 4.488750)" fill="#DC171D" fill-rule="nonzero">
                    <polygon id="b" points="1.65 0 3.2694675 2.6775 0.030532495 2.6775"></polygon>
                </g>
            </g>
        </g>
    </g>
</svg>