<?xml version="1.0" encoding="UTF-8"?>
<svg width="20px" height="14px" viewBox="0 0 20 14" version="1.1" xmlns="http://www.w3.org/2000/svg" xmlns:xlink="http://www.w3.org/1999/xlink">
    <!-- Generator: Sketch 51.3 (57544) - http://www.bohemiancoding.com/sketch -->
    <title>Kòrsou</title>
    <desc>Created with Sketch.</desc>
    <defs>
        <rect id="path-1" x="0" y="0" width="20" height="14" rx="1"></rect>
    </defs>
    <g id="Page-1" stroke="none" stroke-width="1" fill="none" fill-rule="evenodd">
        <g id="Kòrsou">
            <mask id="mask-2" fill="white">
                <use xlink:href="#path-1"></use>
            </mask>
            <use id="Mask" fill="#FFFFFF" xlink:href="#path-1"></use>
            <g id="Flag_of_Curaçao" mask="url(#mask-2)" fill-rule="nonzero">
                <rect id="Rectangle-path" fill="#002B7F" x="0" y="0" width="21" height="14"></rect>
                <polygon id="Shape" fill="#F9E814" points="0 8.75 21 8.75 21 10.5 0 10.5"></polygon>
                <g id="s" transform="translate(2.333333, 3.111111)" fill="#FFFFFF">
                    <g id="f" transform="translate(1.555556, 0.000000)">
                        <g id="t">
                            <polygon id="o" transform="translate(0.907287, 0.859884) rotate(18.000000) translate(-0.907287, -0.859884) " points="0.51839765 0.0821061216 0.51839765 1.63766168 1.29617543 1.63766168"></polygon>
                            <g id="o-link" transform="translate(0.777778, 0.972222) scale(-1, 1) translate(-0.777778, -0.972222) ">
                                <polygon id="o" transform="translate(0.907287, 0.859884) rotate(18.000000) translate(-0.907287, -0.859884) " points="0.51839765 0.0821061216 0.51839765 1.63766168 1.29617543 1.63766168"></polygon>
                            </g>
                        </g>
                        <g id="t-link" transform="translate(1.332561, 1.375296) rotate(72.000000) translate(-1.332561, -1.375296) translate(0.554783, 0.403073)">
                            <g id="t">
                                <polygon id="o" transform="translate(0.907287, 0.859884) rotate(18.000000) translate(-0.907287, -0.859884) " points="0.51839765 0.0821061216 0.51839765 1.63766168 1.29617543 1.63766168"></polygon>
                                <g id="o-link" transform="translate(0.777778, 0.972222) scale(-1, 1) translate(-0.777778, -0.972222) ">
                                    <polygon id="o" transform="translate(0.907287, 0.859884) rotate(18.000000) translate(-0.907287, -0.859884) " points="0.51839765 0.0821061216 0.51839765 1.63766168 1.29617543 1.63766168"></polygon>
                                </g>
                            </g>
                        </g>
                    </g>
                    <g id="t-link" transform="translate(1.778550, 1.375296) rotate(-72.000000) translate(-1.778550, -1.375296) translate(1.000773, 0.403073)">
                        <g id="t">
                            <polygon id="o" transform="translate(0.907287, 0.859884) rotate(18.000000) translate(-0.907287, -0.859884) " points="0.51839765 0.0821061216 0.51839765 1.63766168 1.29617543 1.63766168"></polygon>
                            <g id="o-link" transform="translate(0.777778, 0.972222) scale(-1, 1) translate(-0.777778, -0.972222) ">
                                <polygon id="o" transform="translate(0.907287, 0.859884) rotate(18.000000) translate(-0.907287, -0.859884) " points="0.51839765 0.0821061216 0.51839765 1.63766168 1.29617543 1.63766168"></polygon>
                            </g>
                        </g>
                    </g>
                    <g id="f-link" transform="translate(1.975698, 2.055739) rotate(144.000000) translate(-1.975698, -2.055739) translate(0.614587, 0.694628)">
                        <g id="f">
                            <g id="t">
                                <polygon id="o" transform="translate(0.907287, 0.859884) rotate(18.000000) translate(-0.907287, -0.859884) " points="0.51839765 0.0821061216 0.51839765 1.63766168 1.29617543 1.63766168"></polygon>
                                <g id="o-link" transform="translate(0.777778, 0.972222) scale(-1, 1) translate(-0.777778, -0.972222) ">
                                    <polygon id="o" transform="translate(0.907287, 0.859884) rotate(18.000000) translate(-0.907287, -0.859884) " points="0.51839765 0.0821061216 0.51839765 1.63766168 1.29617543 1.63766168"></polygon>
                                </g>
                            </g>
                            <g id="t-link" transform="translate(1.332561, 1.375296) rotate(72.000000) translate(-1.332561, -1.375296) translate(0.554783, 0.403073)">
                                <g id="t">
                                    <polygon id="o" transform="translate(0.907287, 0.859884) rotate(18.000000) translate(-0.907287, -0.859884) " points="0.51839765 0.0821061216 0.51839765 1.63766168 1.29617543 1.63766168"></polygon>
                                    <g id="o-link" transform="translate(0.777778, 0.972222) scale(-1, 1) translate(-0.777778, -0.972222) ">
                                        <polygon id="o" transform="translate(0.907287, 0.859884) rotate(18.000000) translate(-0.907287, -0.859884) " points="0.51839765 0.0821061216 0.51839765 1.63766168 1.29617543 1.63766168"></polygon>
                                    </g>
                                </g>
                            </g>
                        </g>
                    </g>
                </g>
                <g id="s-link" transform="translate(0.583333, 1.166667)" fill="#FFFFFF">
                    <g id="s">
                        <g id="f" transform="translate(1.166667, 0.000000)">
                            <g id="t">
                                <polygon id="o" transform="translate(0.680465, 0.644913) rotate(18.000000) translate(-0.680465, -0.644913) " points="0.388798237 0.0615795912 0.388798237 1.22824626 0.972131571 1.22824626"></polygon>
                                <g id="o-link" transform="translate(0.583333, 0.729167) scale(-1, 1) translate(-0.583333, -0.729167) ">
                                    <polygon id="o" transform="translate(0.680465, 0.644913) rotate(18.000000) translate(-0.680465, -0.644913) " points="0.388798237 0.0615795912 0.388798237 1.22824626 0.972131571 1.22824626"></polygon>
                                </g>
                            </g>
                            <g id="t-link" transform="translate(0.999421, 1.031472) rotate(72.000000) translate(-0.999421, -1.031472) translate(0.416087, 0.302305)">
                                <g id="t">
                                    <polygon id="o" transform="translate(0.680465, 0.644913) rotate(18.000000) translate(-0.680465, -0.644913) " points="0.388798237 0.0615795912 0.388798237 1.22824626 0.972131571 1.22824626"></polygon>
                                    <g id="o-link" transform="translate(0.583333, 0.729167) scale(-1, 1) translate(-0.583333, -0.729167) ">
                                        <polygon id="o" transform="translate(0.680465, 0.644913) rotate(18.000000) translate(-0.680465, -0.644913) " points="0.388798237 0.0615795912 0.388798237 1.22824626 0.972131571 1.22824626"></polygon>
                                    </g>
                                </g>
                            </g>
                        </g>
                        <g id="t-link" transform="translate(1.333913, 1.031472) rotate(-72.000000) translate(-1.333913, -1.031472) translate(0.750579, 0.302305)">
                            <g id="t">
                                <polygon id="o" transform="translate(0.680465, 0.644913) rotate(18.000000) translate(-0.680465, -0.644913) " points="0.388798237 0.0615795912 0.388798237 1.22824626 0.972131571 1.22824626"></polygon>
                                <g id="o-link" transform="translate(0.583333, 0.729167) scale(-1, 1) translate(-0.583333, -0.729167) ">
                                    <polygon id="o" transform="translate(0.680465, 0.644913) rotate(18.000000) translate(-0.680465, -0.644913) " points="0.388798237 0.0615795912 0.388798237 1.22824626 0.972131571 1.22824626"></polygon>
                                </g>
                            </g>
                        </g>
                        <g id="f-link" transform="translate(1.481774, 1.541804) rotate(144.000000) translate(-1.481774, -1.541804) translate(0.460940, 0.520971)">
                            <g id="f">
                                <g id="t">
                                    <polygon id="o" transform="translate(0.680465, 0.644913) rotate(18.000000) translate(-0.680465, -0.644913) " points="0.388798237 0.0615795912 0.388798237 1.22824626 0.972131571 1.22824626"></polygon>
                                    <g id="o-link" transform="translate(0.583333, 0.729167) scale(-1, 1) translate(-0.583333, -0.729167) ">
                                        <polygon id="o" transform="translate(0.680465, 0.644913) rotate(18.000000) translate(-0.680465, -0.644913) " points="0.388798237 0.0615795912 0.388798237 1.22824626 0.972131571 1.22824626"></polygon>
                                    </g>
                                </g>
                                <g id="t-link" transform="translate(0.999421, 1.031472) rotate(72.000000) translate(-0.999421, -1.031472) translate(0.416087, 0.302305)">
                                    <g id="t">
                                        <polygon id="o" transform="translate(0.680465, 0.644913) rotate(18.000000) translate(-0.680465, -0.644913) " points="0.388798237 0.0615795912 0.388798237 1.22824626 0.972131571 1.22824626"></polygon>
                                        <g id="o-link" transform="translate(0.583333, 0.729167) scale(-1, 1) translate(-0.583333, -0.729167) ">
                                            <polygon id="o" transform="translate(0.680465, 0.644913) rotate(18.000000) translate(-0.680465, -0.644913) " points="0.388798237 0.0615795912 0.388798237 1.22824626 0.972131571 1.22824626"></polygon>
                                        </g>
                                    </g>
                                </g>
                            </g>
                        </g>
                    </g>
                </g>
            </g>
        </g>
    </g>
</svg>