<?xml version="1.0" encoding="UTF-8"?>
<svg width="20px" height="14px" viewBox="0 0 20 14" version="1.1" xmlns="http://www.w3.org/2000/svg" xmlns:xlink="http://www.w3.org/1999/xlink">
    <!-- Generator: Sketch 50.2 (55047) - http://www.bohemiancoding.com/sketch -->
    <title>EG</title>
    <desc>Created with Sketch.</desc>
    <defs>
        <rect id="path-1" x="0" y="0" width="20" height="14" rx="1"></rect>
    </defs>
    <g id="Page-1" stroke="none" stroke-width="1" fill="none" fill-rule="evenodd">
        <g id="Flags" transform="translate(-76.000000, -220.000000)">
            <g id="EG" transform="translate(76.000000, 220.000000)">
                <mask id="mask-2" fill="white">
                    <use xlink:href="#path-1"></use>
                </mask>
                <rect stroke="#F5F5F5" stroke-width="0.5" x="0.25" y="0.25" width="19.5" height="13.5" rx="1"></rect>
                <rect id="Rectangle-2" fill="#E41D33" mask="url(#mask-2)" x="0" y="0" width="20" height="4.66666667"></rect>
                <rect id="Rectangle-2" fill="#262626" mask="url(#mask-2)" x="0" y="9.33333333" width="20" height="4.66666667"></rect>
                <path d="M8.2568182,5.93498352 C8.26800213,5.93389234 8.27934948,5.93333333 8.29083397,5.93333333 L8.29083397,5.26666667 L8.23833193,5.26666667 L8.23833193,5.93333333 C8.24415375,5.93333333 8.25035011,5.93390428 8.2568182,5.93498352 Z M8.98850856,7.15093131 L9.03379969,7.23970193 L9.0934237,7.13333333 L9.04761905,7.13333333 L8.98850856,7.15093131 Z M10.8842919,7.13333333 L10.952381,7.26678787 L11.0114914,7.15093131 L10.952381,7.13333333 L10.8842919,7.13333333 Z M11.7433472,5.93502518 C11.7497836,5.93391951 11.7559267,5.93333333 11.7616681,5.93333333 L11.7616681,5.26666667 L11.709166,5.26666667 L11.709166,5.93333333 C11.7207027,5.93333333 11.7321056,5.93390675 11.7433472,5.93502518 Z M9.99999711,8.00678553 C9.944905,8.04442039 9.87750274,8.06666667 9.80440412,8.06666667 L9.80440412,8.73333333 L10.1955959,8.73333333 L10.1955959,8.06666667 C10.1224769,8.06666667 10.0550794,8.0444169 9.99999711,8.00678553 Z" id="Rectangle-129" stroke="#C6A846" stroke-width="0.666666667" fill-opacity="0.25" fill="#F4B32E" mask="url(#mask-2)"></path>
            </g>
        </g>
    </g>
</svg>