<?xml version="1.0" encoding="UTF-8"?>
<svg width="20px" height="14px" viewBox="0 0 20 14" version="1.1" xmlns="http://www.w3.org/2000/svg" xmlns:xlink="http://www.w3.org/1999/xlink">
    <!-- Generator: Sketch 51.3 (57544) - http://www.bohemiancoding.com/sketch -->
    <title>Gvadeloupe</title>
    <desc>Created with Sketch.</desc>
    <defs>
        <rect id="path-1" x="0" y="0" width="20" height="14" rx="1"></rect>
    </defs>
    <g id="Page-1" stroke="none" stroke-width="1" fill="none" fill-rule="evenodd">
        <g id="Gvadeloupe">
            <mask id="mask-2" fill="white">
                <use xlink:href="#path-1"></use>
            </mask>
            <use id="Mask" fill="#FFFFFF" xlink:href="#path-1"></use>
            <g id="Flag_of_Guadeloupe_(local)_variant" mask="url(#mask-2)">
                <g transform="translate(-1.000000, 0.000000)">
                    <polygon id="path4" fill="#002488" fill-rule="nonzero" points="0.0365448505 0.0348258707 0.0365448505 4.68381211 21.9629595 4.68381211 21.9629595 0.0348258707"></polygon>
                    <path d="M13.9265073,10.6202873 C13.9265073,10.652572 14.0415533,10.7235981 14.1836689,10.7817105 C14.4205283,10.8785644 14.7047596,10.9754182 16.8026573,11.692137 C17.7027231,12.0020694 18.0546286,12.0924663 18.0546286,12.0085263 C18.0546286,11.9762417 17.2425391,11.692137 16.2477296,11.3822045 C15.2461526,11.0658152 14.3190171,10.7558828 14.1836689,10.6848566 C14.0415533,10.6202873 13.9265073,10.5944596 13.9265073,10.6202873 Z" id="path2271" fill="#008000" fill-rule="nonzero"></path>
                    <path d="M14.8807303,11.1802022 C14.9213347,11.2447715 17.4049749,12.2133103 17.8245545,12.3295349 C17.980205,12.3747334 18.0478791,12.2520518 17.8922286,12.2003964 C17.8448567,12.1874826 17.3779053,12.0260594 16.8568146,11.8452655 C16.05826,11.5676177 15.6589827,11.4255654 14.9348696,11.1479176 C14.8739629,11.1285468 14.8536606,11.1414607 14.8807303,11.1802022 Z" id="path2275" fill="#008000" fill-rule="nonzero"></path>
                    <polygon id="path6" fill="#DA121A" fill-rule="nonzero" points="0.0370308217 4.66720619 0.0370308217 13.9651787 21.9634454 13.9651787 21.9634454 4.66720619"></polygon>
                    <path d="M7.29713257,7.31696285 C7.37339724,7.49778882 7.64394754,7.62139698 8.00703476,7.65182212 C8.25275543,7.66873772 8.14004181,7.56595005 7.79664032,7.44456725 C7.63534345,7.39454701 7.44746419,7.30016095 7.36769231,7.24398747 C7.22722689,7.13838491 7.22722689,7.13838491 7.29713257,7.31696285 Z" id="path2245" fill="#008000" fill-rule="nonzero"></path>
                    <g id="g1319" stroke-width="1" fill="none" fill-rule="evenodd" transform="translate(2.469429, 0.228534)">
                        <path d="M1.4207031,0.326765622 C1.15298137,0.747494683 1.1210406,1.08403525 1.30376073,1.66515853 C1.39173708,1.9363494 1.48837721,2.34132634 1.52898169,2.5608618 C1.58312098,2.87079422 1.5774503,2.90025807 1.58505396,2.9676481 C1.65272808,2.9676481 1.80651988,2.96789346 1.87763361,2.96748668 C1.88785903,2.86018446 1.89612637,2.73633262 1.92013444,2.5660216 C1.94812683,2.36744635 2.03114883,1.95212935 2.12044253,1.66366537 C2.29888165,1.08721871 2.28693183,0.733551921 2.00946794,0.333222548 C1.90795676,0.184713264 1.77260852,0.0620316821 1.71170181,0.0620316821 C1.6507951,0.0620316821 1.51301134,0.175418087 1.4207031,0.326765622 Z" id="path1350" fill="#FCDD09" fill-rule="nonzero"></path>
                        <path d="M2.73547738,1.51716367 C2.35650231,1.67212988 2.12856708,2.10112523 2.00405766,2.69232409 C1.98106355,2.8033364 1.97545634,2.84252451 1.96392589,2.96764403 C2.04595478,2.96796042 2.0781954,2.96849505 2.15815623,2.9680379 C2.17566028,2.88386691 2.18826519,2.83943138 2.2268431,2.71996077 C2.3797793,2.25790034 2.83022115,2.07245887 2.80991891,2.50507287 C2.8031515,2.62452599 2.75031337,2.69122396 2.69149786,2.75526123 C2.76420125,2.73796577 2.91860646,2.66920998 3.04380358,2.60141226 C3.74084701,2.20108289 3.46635787,1.22014472 2.73547738,1.51716329 L2.73547738,1.51716367 Z" id="path1354" fill="#FCDD09" fill-rule="nonzero"></path>
                        <path d="M1.18689172,3.13622342 C1.49274578,3.13780968 2.02134853,3.14065703 2.27523841,3.13907077 C2.27553618,3.06282434 2.27648362,3.10173547 2.2771069,3.04012209 C2.09019375,3.03830165 1.37444432,3.04130645 1.18834049,3.04130645 C1.18876683,3.08116853 1.18791414,3.10046923 1.18689158,3.13622326 L1.18689172,3.13622342 Z" id="path1356" fill="#FCDD09" fill-rule="nonzero"></path>
                        <path d="M1.27684159,3.46015589 C1.16658623,3.57354008 0.994356142,3.65830757 0.994356142,3.65830757 C0.994356142,3.65830757 1.14671393,3.67465244 1.2887992,3.66476449 C1.43088453,3.65487655 1.50972251,3.63795921 1.59369669,3.59903764 C1.57089552,3.76058294 1.56958616,3.91658458 1.56958616,3.91658458 C1.59025235,4.1244795 1.61363497,4.17768495 1.66088552,4.27886698 C1.72499395,4.36327003 1.76227536,4.36373306 1.80940463,4.27460928 C1.86034219,4.17481627 1.89387357,4.07218144 1.90451241,3.91561327 C1.90081335,3.79826885 1.89393664,3.74449835 1.86480781,3.60105375 C1.96312064,3.64164425 2.02521557,3.65216452 2.17188582,3.66476437 C2.32197247,3.67765768 2.45992549,3.67133706 2.45992549,3.67133706 C2.45992549,3.67133706 2.25718986,3.57426165 2.16795619,3.45520369 C2.07987277,3.33768055 2.09865755,3.35766163 2.03460975,3.20626158 C1.95678451,3.20274708 1.56219878,3.20620689 1.43700166,3.20620689 C1.368431,3.34423323 1.36153697,3.37305694 1.27684159,3.46015576 L1.27684159,3.46015589 Z" id="path1358" fill="#FCDD09" fill-rule="nonzero"></path>
                        <path d="M0.719704179,1.51695156 C1.09867925,1.67191777 1.32661448,2.10091312 1.4511239,2.69211198 C1.47411801,2.80312429 1.47972521,2.8423124 1.49125567,2.96743192 C1.40922678,2.96774831 1.37698616,2.96828294 1.29702533,2.96782579 C1.27952128,2.8836548 1.26691637,2.83921927 1.22833846,2.71974866 C1.07540226,2.25768823 0.624960411,2.07224676 0.645262647,2.50486076 C0.652030059,2.62431388 0.704868184,2.69101185 0.763683694,2.75504912 C0.690980304,2.73775366 0.536575101,2.66899787 0.41137798,2.60120015 C-0.285665452,2.20087078 -0.0111763132,1.21993261 0.719704179,1.51695118 L0.719704179,1.51695156 Z" id="path1317" fill="#FCDD09" fill-rule="nonzero"></path>
                    </g>
                    <g id="g1326" stroke-width="1" fill="none" fill-rule="evenodd" transform="translate(9.227454, 0.228545)">
                        <path d="M1.4207031,0.326765622 C1.15298137,0.747494683 1.1210406,1.08403525 1.30376073,1.66515853 C1.39173708,1.9363494 1.48837721,2.34132634 1.52898169,2.5608618 C1.58312098,2.87079422 1.5774503,2.90025807 1.58505396,2.9676481 C1.65272808,2.9676481 1.80651988,2.96789346 1.87763361,2.96748668 C1.88785903,2.86018446 1.89612637,2.73633262 1.92013444,2.5660216 C1.94812683,2.36744635 2.03114883,1.95212935 2.12044253,1.66366537 C2.29888165,1.08721871 2.28693183,0.733551921 2.00946794,0.333222548 C1.90795676,0.184713264 1.77260852,0.0620316821 1.71170181,0.0620316821 C1.6507951,0.0620316821 1.51301134,0.175418087 1.4207031,0.326765622 Z" id="path1328" fill="#FCDD09" fill-rule="nonzero"></path>
                        <path d="M2.73547738,1.51716367 C2.35650231,1.67212988 2.12856708,2.10112523 2.00405766,2.69232409 C1.98106355,2.8033364 1.97545634,2.84252451 1.96392589,2.96764403 C2.04595478,2.96796042 2.0781954,2.96849505 2.15815623,2.9680379 C2.17566028,2.88386691 2.18826519,2.83943138 2.2268431,2.71996077 C2.3797793,2.25790034 2.83022115,2.07245887 2.80991891,2.50507287 C2.8031515,2.62452599 2.75031337,2.69122396 2.69149786,2.75526123 C2.76420125,2.73796577 2.91860646,2.66920998 3.04380358,2.60141226 C3.74084701,2.20108289 3.46635787,1.22014472 2.73547738,1.51716329 L2.73547738,1.51716367 Z" id="path1330" fill="#FCDD09" fill-rule="nonzero"></path>
                        <path d="M1.18689172,3.13622342 C1.49274578,3.13780968 2.02134853,3.14065703 2.27523841,3.13907077 C2.27553618,3.06282434 2.27648362,3.10173547 2.2771069,3.04012209 C2.09019375,3.03830165 1.37444432,3.04130645 1.18834049,3.04130645 C1.18876683,3.08116853 1.18791414,3.10046923 1.18689158,3.13622326 L1.18689172,3.13622342 Z" id="path1332" fill="#FCDD09" fill-rule="nonzero"></path>
                        <path d="M1.27684159,3.46015589 C1.16658623,3.57354008 0.994356142,3.65830757 0.994356142,3.65830757 C0.994356142,3.65830757 1.14671393,3.67465244 1.2887992,3.66476449 C1.43088453,3.65487655 1.50972251,3.63795921 1.59369669,3.59903764 C1.57089552,3.76058294 1.56958616,3.91658458 1.56958616,3.91658458 C1.59025235,4.1244795 1.61363497,4.17768495 1.66088552,4.27886698 C1.72499395,4.36327003 1.76227536,4.36373306 1.80940463,4.27460928 C1.86034219,4.17481627 1.89387357,4.07218144 1.90451241,3.91561327 C1.90081335,3.79826885 1.89393664,3.74449835 1.86480781,3.60105375 C1.96312064,3.64164425 2.02521557,3.65216452 2.17188582,3.66476437 C2.32197247,3.67765768 2.45992549,3.67133706 2.45992549,3.67133706 C2.45992549,3.67133706 2.25718986,3.57426165 2.16795619,3.45520369 C2.07987277,3.33768055 2.09865755,3.35766163 2.03460975,3.20626158 C1.95678451,3.20274708 1.56219878,3.20620689 1.43700166,3.20620689 C1.368431,3.34423323 1.36153697,3.37305694 1.27684159,3.46015576 L1.27684159,3.46015589 Z" id="path1334" fill="#FCDD09" fill-rule="nonzero"></path>
                        <path d="M0.719704179,1.51695156 C1.09867925,1.67191777 1.32661448,2.10091312 1.4511239,2.69211198 C1.47411801,2.80312429 1.47972521,2.8423124 1.49125567,2.96743192 C1.40922678,2.96774831 1.37698616,2.96828294 1.29702533,2.96782579 C1.27952128,2.8836548 1.26691637,2.83921927 1.22833846,2.71974866 C1.07540226,2.25768823 0.624960411,2.07224676 0.645262647,2.50486076 C0.652030059,2.62431388 0.704868184,2.69101185 0.763683694,2.75504912 C0.690980304,2.73775366 0.536575101,2.66899787 0.41137798,2.60120015 C-0.285665452,2.20087078 -0.0111763132,1.21993261 0.719704179,1.51695118 L0.719704179,1.51695156 Z" id="path1336" fill="#FCDD09" fill-rule="nonzero"></path>
                    </g>
                    <g id="g1338" stroke-width="1" fill="none" fill-rule="evenodd" transform="translate(16.211850, 0.205884)">
                        <path d="M1.4207031,0.326765622 C1.15298137,0.747494683 1.1210406,1.08403525 1.30376073,1.66515853 C1.39173708,1.9363494 1.48837721,2.34132634 1.52898169,2.5608618 C1.58312098,2.87079422 1.5774503,2.90025807 1.58505396,2.9676481 C1.65272808,2.9676481 1.80651988,2.96789346 1.87763361,2.96748668 C1.88785903,2.86018446 1.89612637,2.73633262 1.92013444,2.5660216 C1.94812683,2.36744635 2.03114883,1.95212935 2.12044253,1.66366537 C2.29888165,1.08721871 2.28693183,0.733551921 2.00946794,0.333222548 C1.90795676,0.184713264 1.77260852,0.0620316821 1.71170181,0.0620316821 C1.6507951,0.0620316821 1.51301134,0.175418087 1.4207031,0.326765622 Z" id="path1340" fill="#FCDD09" fill-rule="nonzero"></path>
                        <path d="M2.73547738,1.51716367 C2.35650231,1.67212988 2.12856708,2.10112523 2.00405766,2.69232409 C1.98106355,2.8033364 1.97545634,2.84252451 1.96392589,2.96764403 C2.04595478,2.96796042 2.0781954,2.96849505 2.15815623,2.9680379 C2.17566028,2.88386691 2.18826519,2.83943138 2.2268431,2.71996077 C2.3797793,2.25790034 2.83022115,2.07245887 2.80991891,2.50507287 C2.8031515,2.62452599 2.75031337,2.69122396 2.69149786,2.75526123 C2.76420125,2.73796577 2.91860646,2.66920998 3.04380358,2.60141226 C3.74084701,2.20108289 3.46635787,1.22014472 2.73547738,1.51716329 L2.73547738,1.51716367 Z" id="path1342" fill="#FCDD09" fill-rule="nonzero"></path>
                        <path d="M1.18689172,3.13622342 C1.49274578,3.13780968 2.02134853,3.14065703 2.27523841,3.13907077 C2.27553618,3.06282434 2.27648362,3.10173547 2.2771069,3.04012209 C2.09019375,3.03830165 1.37444432,3.04130645 1.18834049,3.04130645 C1.18876683,3.08116853 1.18791414,3.10046923 1.18689158,3.13622326 L1.18689172,3.13622342 Z" id="path1344" fill="#FCDD09" fill-rule="nonzero"></path>
                        <path d="M1.27684159,3.46015589 C1.16658623,3.57354008 0.994356142,3.65830757 0.994356142,3.65830757 C0.994356142,3.65830757 1.14671393,3.67465244 1.2887992,3.66476449 C1.43088453,3.65487655 1.50972251,3.63795921 1.59369669,3.59903764 C1.57089552,3.76058294 1.56958616,3.91658458 1.56958616,3.91658458 C1.59025235,4.1244795 1.61363497,4.17768495 1.66088552,4.27886698 C1.72499395,4.36327003 1.76227536,4.36373306 1.80940463,4.27460928 C1.86034219,4.17481627 1.89387357,4.07218144 1.90451241,3.91561327 C1.90081335,3.79826885 1.89393664,3.74449835 1.86480781,3.60105375 C1.96312064,3.64164425 2.02521557,3.65216452 2.17188582,3.66476437 C2.32197247,3.67765768 2.45992549,3.67133706 2.45992549,3.67133706 C2.45992549,3.67133706 2.25718986,3.57426165 2.16795619,3.45520369 C2.07987277,3.33768055 2.09865755,3.35766163 2.03460975,3.20626158 C1.95678451,3.20274708 1.56219878,3.20620689 1.43700166,3.20620689 C1.368431,3.34423323 1.36153697,3.37305694 1.27684159,3.46015576 L1.27684159,3.46015589 Z" id="path1346" fill="#FCDD09" fill-rule="nonzero"></path>
                        <path d="M0.719704179,1.51695156 C1.09867925,1.67191777 1.32661448,2.10091312 1.4511239,2.69211198 C1.47411801,2.80312429 1.47972521,2.8423124 1.49125567,2.96743192 C1.40922678,2.96774831 1.37698616,2.96828294 1.29702533,2.96782579 C1.27952128,2.8836548 1.26691637,2.83921927 1.22833846,2.71974866 C1.07540226,2.25768823 0.624960411,2.07224676 0.645262647,2.50486076 C0.652030059,2.62431388 0.704868184,2.69101185 0.763683694,2.75504912 C0.690980304,2.73775366 0.536575101,2.66899787 0.41137798,2.60120015 C-0.285665452,2.20087078 -0.0111763132,1.21993261 0.719704179,1.51695118 L0.719704179,1.51695156 Z" id="path1348" fill="#FCDD09" fill-rule="nonzero"></path>
                    </g>
                    <path d="M3.8769367,5.98515925 C4.07319165,6.26280704 4.29651624,6.46297173 4.72963061,6.74061984 C5.04769897,6.94724145 5.32516286,7.10866459 5.33869768,7.09575074 C5.36576733,7.06346611 3.78219293,5.66231298 3.67391434,5.62357143 C3.63330987,5.61065758 3.72128623,5.77208071 3.8769367,5.98515925 Z" id="path2217" fill="#008000" fill-rule="nonzero"></path>
                    <path d="M7.95128245,7.47295561 C8.09821582,7.54037002 8.28583014,7.5934957 8.38044532,7.59663116 C8.49226429,7.60033504 8.46258106,7.57329136 8.25388626,7.49340704 C8.090525,7.43066086 7.89515218,7.3251584 7.80842881,7.25973928 C7.65296106,7.13471078 7.65296106,7.13471078 7.66925326,7.24470432 C7.67856353,7.30755706 7.79574634,7.40525816 7.95128245,7.47295561 Z" id="path1415" fill="#008000" fill-rule="nonzero"></path>
                    <path d="M7.03729981,6.2037675 C7.13204358,6.565355 7.52455348,7.23041831 7.65990171,7.25624601 C7.78171513,7.27561679 7.78171513,7.26915986 7.68020395,7.15939213 C7.51101865,6.97214129 7.14557841,6.28770753 7.14557841,6.15856902 C7.14557841,6.08754284 7.11174135,6.03588744 7.07113687,6.03588744 C7.02376499,6.03588744 7.01023017,6.10045669 7.03729981,6.2037675 Z" id="path2221" fill="#008000" fill-rule="nonzero"></path>
                    <path d="M2.96959422,5.75037737 C2.96724389,5.76309493 3.0942739,5.85658798 3.25345169,5.96204604 C3.41262964,6.0675041 3.5980794,6.21672106 3.65963849,6.29264288 C3.76511334,6.42840555 4.36260949,6.7649618 4.41866295,6.72193996 C4.47354125,6.68527689 3.70390785,6.09028155 3.37850141,5.91751876 C2.99114951,5.70810808 2.97782028,5.70586526 2.96959422,5.75037737 Z" id="path2495" fill="#008000" fill-rule="nonzero"></path>
                    <path d="M3.18761448,6.24712833 C3.18761448,6.26004218 3.32973013,6.33106836 3.50568291,6.40855147 C3.68163562,6.48603457 3.89142539,6.60225955 3.96586692,6.66682881 C4.09444775,6.78305346 4.7441193,7.01550278 4.79149118,6.96384737 C4.83886307,6.9186489 3.97263434,6.46020687 3.62072891,6.34398221 C3.2011493,6.20192986 3.18761448,6.20192986 3.18761448,6.24712833 Z" id="path2223" fill="#008000" fill-rule="nonzero"></path>
                    <path d="M6.20588028,6.47495836 C6.46304194,6.92694282 6.726971,7.22396138 6.83524926,7.19167676 C6.88938855,7.17230598 6.76757547,6.98505514 6.50364641,6.68157965 C6.26678699,6.41684603 6.06376463,6.18439672 6.04346239,6.16502594 C6.02316016,6.14565517 6.09760169,6.28770753 6.20588028,6.47495836 Z" id="path2225" fill="#008000" fill-rule="nonzero"></path>
                    <path d="M6.53845527,6.29878374 C6.53845527,6.36980992 6.80238467,6.86053657 6.95803447,7.06715818 C7.04601083,7.18338284 7.14752201,7.24795209 7.26256801,7.24795209 C7.43175331,7.24795209 7.43175331,7.24795209 7.17459165,6.9703043 C7.02570859,6.82179501 6.82945432,6.59580263 6.7279428,6.47312072 C6.62643162,6.35043914 6.53845527,6.27295604 6.53845527,6.29878374 Z" id="path2227" fill="#008000" fill-rule="nonzero"></path>
                    <path d="M5.91625129,6.5072601 C5.91625129,6.60411398 6.41095384,7.24980652 6.48759783,7.24980652 C6.52243613,7.24980652 6.43882441,7.09484031 6.29250383,6.90758947 C5.96502471,6.4814324 5.91625129,6.43623392 5.91625129,6.5072601 Z" id="path2229" fill="#008000" fill-rule="nonzero"></path>
                    <path d="M5.44891108,8.28910068 C5.00226189,8.4599786 4.90751812,8.51912865 4.90751812,8.61113983 C4.90751812,8.6505732 4.95489001,8.64400097 5.02933154,8.58485092 C5.09023824,8.52570088 5.31356284,8.44683414 5.5165852,8.40082855 C5.71960756,8.35482296 5.96323439,8.27595623 6.05797816,8.22995063 L6.22716345,8.14451167 L6.0241411,8.14451167 C5.9158625,8.1510839 5.65193344,8.21680618 5.44891108,8.28910068 Z" id="path2249" fill="#008000" fill-rule="nonzero"></path>
                    <path d="M4.18066458,7.18971127 C4.51436329,7.47923464 5.6304178,8.02616011 6.19592677,8.18708347 C6.34915722,8.23006916 6.59777739,8.23992889 6.73826649,8.21175539 L7.00016635,8.16203319 L6.74167997,8.03191516 C6.3247492,7.82626661 5.64005054,7.39065401 5.39425949,7.18054373 C5.12649127,6.95057968 5.13518875,7.03001536 5.40760923,7.34769028 C5.51403388,7.47564394 5.82863124,7.69621574 6.1044652,7.83405173 C6.38261395,7.97795464 6.57692259,8.10974436 6.54512624,8.12078699 C6.46245554,8.14949577 5.69913106,7.73431676 5.11851892,7.34501324 C4.48759344,6.91821176 4.46157207,6.90663449 4.69639788,7.18239493 C4.81149633,7.31420725 5.02432196,7.4945382 5.17872148,7.57834521 C5.32907645,7.67042936 5.43201759,7.75149283 5.4002209,7.76253482 C5.33662821,7.78461944 4.9410899,7.57841236 4.42467851,7.26301222 C4.28068287,7.1687198 4.08464414,7.0512735 3.99963529,6.99833898 C3.90595266,6.94154515 3.98981578,7.02923407 4.18066458,7.18971127 Z" id="path2474" fill="#008000" fill-rule="nonzero"></path>
                    <path d="M4.22980479,7.10264096 L3.95910831,7.19013046 L4.16213067,7.22378026 C4.27040926,7.25070011 4.41252491,7.23724018 4.48019903,7.20359038 C4.54110574,7.16994057 4.66291915,7.14302073 4.75089551,7.13629077 C4.89977857,7.13629077 4.89977857,7.12956081 4.77119774,7.07572112 C4.60201244,7.00169155 4.56140797,7.00169155 4.22980479,7.10264096 Z" id="path2237" fill="#008000" fill-rule="nonzero"></path>
                    <path d="M4.56335225,7.2789997 C4.44830625,7.36692664 4.45507366,7.37369025 4.7054679,7.33310859 C4.85435096,7.31281776 5.07090815,7.27223609 5.17918674,7.24518165 C5.35513945,7.19783637 5.34160463,7.19107276 5.03707109,7.18430915 C4.83404873,7.17754554 4.64456119,7.2181272 4.56335225,7.2789997 Z" id="path2241" fill="#008000" fill-rule="nonzero"></path>
                    <path d="M2.88210901,6.59578519 C3.99873184,6.78949295 6.2387452,7.50621167 6.10339696,7.62889325 C6.0695599,7.66117788 5.44019059,7.5126686 5.35221424,7.45455627 C5.31837718,7.42227164 4.98677399,7.43518549 4.62133374,7.48038397 C3.93782514,7.55141015 3.82277913,7.60952248 3.83631396,7.87425642 C3.84308137,8.00339492 3.84308137,8.00339492 3.87691843,7.87425642 C3.93782514,7.63535018 4.03933632,7.58369478 4.4250788,7.58369478 C4.84465834,7.58369478 5.99511837,7.74511791 6.50267427,7.87425642 C7.17941547,8.05505033 7.1997177,8.05505033 6.97639311,7.93882567 C6.68539439,7.78385946 6.24551261,7.49975475 6.16430367,7.41581472 C6.01542061,7.25439158 3.31522337,6.54412979 2.92271348,6.55704364 C2.73999335,6.56995749 2.73322594,6.56995749 2.88210901,6.59578519 Z" id="path2231" fill="#008000" fill-rule="nonzero"></path>
                    <path d="M3.39547845,6.93983988 C3.3142695,6.99795221 3.22629315,7.13354764 3.20599091,7.24331537 C3.16538644,7.43056621 3.16538644,7.43056621 3.27366503,7.30788463 C3.5578962,6.96566758 3.57819844,6.95275373 3.93010386,6.9462968 C4.21433516,6.93983988 4.25493963,6.92692603 4.11959139,6.88818448 C3.83536009,6.80424445 3.55112879,6.82361522 3.39547845,6.93983988 Z" id="path2235" fill="#008000" fill-rule="nonzero"></path>
                    <path d="M6.84493275,7.34031609 C6.89907204,7.43355409 7.42693017,7.69328853 7.46753465,7.65332938 C7.48783688,7.63334981 7.42693017,7.58007095 7.34572123,7.53345195 C7.25774488,7.48683295 7.14269887,7.41357452 7.09532699,7.36029566 C6.9870484,7.2603978 6.78402604,7.24041823 6.84493275,7.34031609 Z" id="path2243" fill="#008000" fill-rule="nonzero"></path>
                    <path d="M6.88564888,7.95377824 C6.93978818,8.04701624 7.46764631,8.30675068 7.50825078,8.26679153 C7.52855302,8.24681196 7.46764631,8.1935331 7.38643736,8.1469141 C7.29846101,8.1002951 7.18341501,8.02703667 7.13604312,7.97375781 C7.02776453,7.87385995 6.82474217,7.85388038 6.88564888,7.95377824 Z" id="path1533" fill="#008000" fill-rule="nonzero"></path>
                    <path d="M6.12906846,7.1829725 C6.13880542,7.17400254 6.29107455,7.22220381 6.47171945,7.28914275 C6.65236468,7.3560817 6.88571825,7.41933116 6.98611145,7.42556887 C7.16305728,7.4330815 7.78960796,7.71750229 7.78356974,7.78589694 C7.78240236,7.84980856 6.83503507,7.57374304 6.50295715,7.41295623 C6.1043911,7.22365952 6.09498879,7.2143722 6.12906846,7.1829725 Z" id="path3304" fill="#008000" fill-rule="nonzero"></path>
                    <path d="M7.24998468,7.65667708 C7.12373692,7.70519808 6.99677486,7.79295543 6.95732694,7.85573587 C6.91070658,7.929931 6.95016059,7.93064068 7.11298993,7.84930102 C7.24067171,7.78579845 7.42502515,7.73370586 7.52616886,7.72513559 C7.71554642,7.71584421 7.71554642,7.71584421 7.59502626,7.64095085 C7.52615701,7.59815469 7.37981884,7.60244874 7.24998468,7.65667708 Z" id="path3302" fill="#008000" fill-rule="nonzero"></path>
                    <path d="M6.47063294,8.11825491 C6.08492768,8.4482929 5.99963291,8.67841288 6.12317912,9.02030708 L6.22999494,9.31307537 L6.20025047,9.0167816 C6.15426388,8.61010765 6.269161,8.42512481 6.73612021,8.10384273 C6.95560057,7.95433069 7.13002723,7.81878497 7.12584497,7.80650325 C7.10284186,7.73895348 6.66678367,7.94202798 6.47063294,8.11825491 Z" id="path3300" fill="#008000" fill-rule="nonzero"></path>
                    <path d="M4.08286566,5.4787455 C4.29265543,5.85970409 5.14534934,6.73784595 5.61906818,7.07360606 C5.74764901,7.16400302 5.97774101,7.25439998 6.11985666,7.27377075 L6.38378573,7.3125123 L6.18753078,7.10589069 C5.86946242,6.7765875 5.38220876,6.14380881 5.22655828,5.86616102 C5.05737299,5.56268553 5.03707075,5.64016863 5.1791864,6.02758415 C5.2333257,6.18255036 5.44988288,6.49248278 5.65967265,6.71201824 C5.86946242,6.93801063 6.00481066,7.12526147 5.9709736,7.12526147 C5.88299724,7.12526147 5.31453464,6.48602586 4.90848992,5.93073027 C4.46860814,5.32377929 4.44830591,5.30440851 4.57011932,5.64016863 C4.63102603,5.80159177 4.76637427,6.04049801 4.88142027,6.16963651 C4.98969887,6.30523195 5.05737299,6.41499968 5.02353593,6.41499968 C4.95586181,6.41499968 4.65809568,6.09215341 4.28588802,5.62725478 C4.18437684,5.49165935 4.04226119,5.31732236 3.98135448,5.23983926 C3.91368036,5.15589923 3.96105225,5.26566696 4.08286566,5.4787455 Z" id="path2215" fill="#008000" fill-rule="nonzero"></path>
                    <path d="M6.26581485,7.28667621 C6.26581485,7.33187469 6.36732603,7.44809934 6.48913945,7.5384963 C6.84781228,7.79677331 7.80201737,8.22938731 7.92383078,8.18418883 C7.99827231,8.15836113 7.88322631,8.08733495 7.55839054,7.9711103 C6.98992793,7.75803176 6.46883721,7.47392704 6.46883721,7.37707316 C6.46883721,7.32541776 6.6921618,7.31896083 7.24708959,7.35124546 C8.07948126,7.39644394 8.3298755,7.30604698 7.57192536,7.24147773 C6.77337075,7.16399463 6.26581485,7.1833654 6.26581485,7.28667621 Z" id="path2239" fill="#008000" fill-rule="nonzero"></path>
                    <path d="M4.47921809,7.97756722 C4.18821938,8.04213648 4.0325689,8.13899036 4.0325689,8.25521501 C4.0325689,8.30041349 4.05963855,8.29395657 4.09347561,8.24230116 C4.14761491,8.15836113 4.70254269,8.00339492 4.75668198,8.05505033 C4.77021681,8.06796418 4.74991457,8.16481806 4.7093101,8.26167194 C4.66870563,8.35852582 4.6551708,8.4553797 4.67547304,8.47475048 C4.69577528,8.50057818 4.72961234,8.44892278 4.74991457,8.3778966 C4.83112352,8.10024881 5.08151776,8.01630878 5.68381742,8.06796418 C5.98835096,8.09379188 6.32672156,8.12607651 6.43500015,8.13253343 C6.55004615,8.13899036 6.70569663,8.17773191 6.78690557,8.22293039 C6.96285828,8.31332734 7.64636689,8.31978427 7.58546018,8.22938731 C7.56515795,8.19710269 7.43657712,8.15190421 7.29446147,8.13253343 C7.15911323,8.11316266 6.87488193,8.0485934 6.66509216,7.996938 C6.24551261,7.89362719 4.90556505,7.88071334 4.47921809,7.97756722 Z" id="path2247" fill="#008000" fill-rule="nonzero"></path>
                    <path d="M6.95046715,8.72289012 C6.44042322,8.63608741 6.19785413,8.71363282 5.99154518,9.01701372 L5.81550923,9.27757003 L6.04190691,9.07278994 C6.34946886,8.7878413 6.57298362,8.76034093 7.12582061,8.91362576 C7.38443015,8.98659515 7.60376434,9.03428923 7.61133268,9.023583 C7.65295869,8.96469971 7.21677598,8.76187348 6.95046715,8.72289012 Z" id="path3298" fill="#008000" fill-rule="nonzero"></path>
                    <path d="M6.2900229,8.54300341 C5.34935264,8.78836657 5.24107404,8.87876353 5.37642228,9.28554982 C5.43056158,9.44051603 5.43056158,9.43405911 5.43732899,9.23389442 C5.4440964,9.12412669 5.50500311,8.96916048 5.57267723,8.90459123 C5.69449065,8.78836657 6.24265101,8.63985729 6.9126248,8.53654648 C7.07504269,8.5171757 7.18332128,8.47197723 7.16301904,8.4396926 C7.10887975,8.35575257 6.89232256,8.38158027 6.2900229,8.54300341 Z" id="path2253" fill="#008000" fill-rule="nonzero"></path>
                    <path d="M7.08950431,8.85847393 C6.61578547,9.05863862 6.46013499,9.25234638 6.46690241,9.6139342 L6.47366982,9.92386662 L6.54134394,9.63330497 C6.62932029,9.2329756 6.79850559,9.09092324 7.34666596,8.92304318 C7.60382762,8.84556008 7.81361739,8.76807697 7.81361739,8.75516312 C7.81361739,8.68413694 7.33313114,8.7487062 7.08950431,8.85847393 Z" id="path2257" fill="#008000" fill-rule="nonzero"></path>
                    <path d="M6.99959315,9.41282486 C6.9183842,9.51613567 6.8574775,9.6517311 6.8574775,9.72275728 C6.8574775,9.80669731 6.89131456,9.78732653 6.98605832,9.63881725 C7.06049986,9.52259259 7.18908068,9.38699716 7.27028963,9.32888483 C7.4259401,9.22557403 7.4259401,9.22557403 7.28382445,9.22557403 C7.20261551,9.22557403 7.08080209,9.30305713 6.99959315,9.41282486 Z" id="path2263" fill="#008000" fill-rule="nonzero"></path>
                    <path d="M14.3162726,10.4650758 C14.5360305,10.5559354 15.6761577,10.830274 16.4828525,11.0556752 C17.2895473,11.2810762 18.2327309,11.54057 18.4415009,11.5685269 C18.7399075,10.947956 18.1968454,12.1086945 18.5067715,11.4052012 C18.1038818,11.3073526 16.5158368,10.9508509 15.8785388,10.7761214 C15.3291437,10.6293483 14.5497578,10.4003993 14.3501445,10.3584642 C14.1505313,10.316529 14.1477915,10.3951841 14.3162726,10.4650758 Z" id="path2267" fill="#008000" fill-rule="nonzero"></path>
                    <path d="M14.4556789,10.3039777 C14.6786266,10.3874648 15.8280935,10.6236717 16.6425421,10.822074 C17.4569896,11.020476 18.4090904,11.2484054 18.6187556,11.2693937 C18.894282,10.6392646 18.3940075,11.817379 18.6780128,11.103994 C18.271789,11.0196204 16.6716714,10.7162153 16.0283707,10.562813 C15.4739416,10.4344235 14.6866565,10.2315662 14.4856308,10.1963033 C14.2846052,10.1610405 14.2847439,10.2397388 14.4556789,10.3039777 Z" id="path2162" fill="#008000" fill-rule="nonzero"></path>
                    <path d="M14.1400293,10.5821405 C14.3545017,10.6838493 15.4780183,11.0147438 16.2712439,11.2801183 C17.0644692,11.5454921 17.9921264,11.8517283 18.1990769,11.8900717 C18.5311142,11.2852522 17.9251267,12.417282 18.273217,11.7302289 C17.8762463,11.6123965 16.3099329,11.1770848 15.6830929,10.9707712 C15.1425016,10.7967651 14.3767418,10.5292114 14.1797025,10.4773665 C13.9826629,10.425521 13.975613,10.5039316 14.1400293,10.5821405 Z" id="path2183" fill="#008000" fill-rule="nonzero"></path>
                    <path d="M14.0031743,10.7143612 C14.211774,10.8266403 15.3156004,11.2131839 16.0931825,11.5178042 C16.8707642,11.8224235 17.7803521,12.1745626 17.9849157,12.2231874 C18.3496738,11.635777 17.6824222,12.7359958 18.0677221,12.0672659 C17.6777588,11.9297721 16.1374698,11.4168437 15.5228057,11.1795116 C14.9924998,10.97875 14.2424659,10.6733248 14.0485403,10.6117116 C13.8546147,10.5500983 13.8432732,10.6280492 14.0031743,10.7143612 Z" id="path2185" fill="#008000" fill-rule="nonzero"></path>
                    <path d="M13.8742869,10.8809205 C14.0786522,11.0000772 15.1676679,11.4231408 15.933634,11.7534681 C16.6995998,12.083794 17.5957527,12.4660059 17.7984137,12.5214128 C18.1844356,11.9465066 17.4773467,13.0238362 17.8868725,12.368344 C17.502176,12.2179486 15.9815869,11.6540437 15.3759786,11.3963888 C14.8533388,11.1780908 14.1149337,10.8478769 13.9233797,10.7798438 C13.7318257,10.7118107 13.7176402,10.7893364 13.8742869,10.8809205 Z" id="path2187" fill="#008000" fill-rule="nonzero"></path>
                    <path d="M13.7288146,11.0327012 C13.9263641,11.1618997 14.9906811,11.6387627 15.7374782,12.0068856 C16.484275,12.3750075 17.3582345,12.8014451 17.5575784,12.8668961 C17.9746066,12.3120531 17.2093923,13.3525983 17.6543124,12.7184536 C17.2783925,12.5490546 15.7908189,11.9099926 15.2001738,11.6224496 C14.6902246,11.3783533 13.9709441,11.0117197 13.7833846,10.9342143 C13.5958248,10.8567096 13.5774062,10.9334201 13.7288146,11.0327012 Z" id="path2189" fill="#008000" fill-rule="nonzero"></path>
                    <g id="g2400" stroke-width="1" fill="none" fill-rule="evenodd" transform="translate(6.393567, 4.902172)">
                        <path d="M4.9786332,7.50314285 L5.19781562,7.65249559 C5.51203685,7.86133698 5.68483078,8.15161388 5.66771782,8.45117443 L5.65611003,8.69857553 L5.75925721,8.45516477 C5.87209178,8.20043447 5.85655782,7.81471514 5.72328159,7.52903935 L5.64552645,7.362463 L5.89244809,7.46503103 C6.24529082,7.60701386 6.47761737,7.85661372 6.52613964,8.15312044 L6.56868732,8.39742699 L6.61652679,8.13878779 C6.67136507,7.86720033 6.57218673,7.49312628 6.37950592,7.24014685 L6.26714078,7.09254497 L6.53104735,7.14389007 C6.90710567,7.21278451 7.18872265,7.41087641 7.30083173,7.69129962 L7.39569983,7.92184357 L7.38609779,7.65933618 C7.38059263,7.38282188 7.2019948,7.03655805 6.95844454,6.82730949 L6.81637712,6.70523765 L7.0857035,6.70316105 C7.46854726,6.695954 7.78720675,6.83382433 7.95795225,7.0859487 L8.10091587,7.2925506 L8.03438444,7.03773887 C7.9687492,6.76847233 7.71862689,6.46516575 7.43479077,6.30880955 L7.26920903,6.21756105 L7.53221941,6.16214418 C7.90511973,6.07903924 8.24686678,6.15078393 8.46878045,6.36345278 L8.65365161,6.53719546 L8.53300739,6.30115461 C8.41014403,6.0507404 8.09937954,5.80362432 7.78767618,5.70700108 L7.605835,5.65072913 L7.85100693,5.54429291 C8.19761902,5.38907682 8.54751713,5.39143845 8.81095426,5.55536814 L9.02970993,5.6887188 L8.86028738,5.48170972 C8.68548768,5.2611009 8.32769457,5.08112841 8.00173753,5.04847276 L7.81165993,5.02945757 L8.02828181,4.87668454 C8.33349846,4.65615716 8.67626973,4.58893214 8.96966521,4.69711922 L9.21270336,4.78409235 L9.00188537,4.61527653 C8.78283097,4.43420465 8.39362853,4.3290714 8.06767149,4.36180848 L7.8775939,4.38082367 L8.05614905,4.18843226 C8.30665544,3.91216227 8.6273207,3.77848587 8.93787181,3.82612564 L9.1945235,3.8629345 L8.95148536,3.73968184 C8.69777829,3.60600544 8.29419414,3.58039397 7.98249078,3.67701721 L7.8006496,3.73332987 L7.93337104,3.50978937 C8.11819953,3.18982923 8.40271846,2.99548336 8.71685433,2.98037707 L8.97593854,2.96555581 L8.71134916,2.89320035 C8.43404243,2.81278278 8.03370163,2.86783319 7.74986551,3.02410795 L7.58428377,3.11531573 L7.66545296,2.87027625 C7.77653783,2.52067358 8.01244913,2.27416827 8.31647086,2.19708955 L8.56667852,2.1311675 L8.29210303,2.11288522 C8.00331653,2.08918749 7.62371612,2.22237528 7.38016587,2.43162384 L7.23809844,2.55369568 L7.26408795,2.29794744 C7.29652149,1.93384924 7.47358299,1.64597468 7.75417576,1.51022167 L7.98453922,1.39617123 L7.71196948,1.43269506 C7.42433523,1.46681654 7.08207606,1.67244123 6.88943793,1.92542066 L6.77707279,2.07302254 L6.74677304,1.81768147 C6.69918963,1.45521198 6.80959168,1.13834638 7.05446488,0.950026749 L7.25491267,0.792734046 L6.99625522,0.882516705 C6.72236254,0.972950847 6.43242379,1.24197308 6.29910489,1.52764888 L6.22134975,1.69434738 L6.13604102,1.45057016 C6.01048909,1.10544643 6.04949468,0.773637418 6.24797939,0.54085399 L6.40980567,0.347241862 L6.17636956,0.486332911 C5.92816765,0.629130092 5.70313866,0.949782442 5.63498555,1.25565425 L5.59525447,1.43412018 L5.45869221,1.21265629 C5.26067694,0.89986247 5.22653637,0.567686993 5.36992674,0.300536963 L5.48600466,0.079074702 L5.28798939,0.261407197 C5.07631789,0.45037913 4.9260994,0.808736126 4.9260994,1.1214078 L4.9260994,1.30378264 L4.74425822,1.11424147 C4.48248544,0.847703021 4.37669237,0.5294123 4.45871507,0.239706261 L4.52392355,0 L4.36999228,0.217759389 C4.20411181,0.444475055 4.1352759,0.824778923 4.203429,1.13073216 L4.24311741,1.30911666 L4.02397766,1.15976392 C3.70975644,0.950922539 3.5369625,0.660645637 3.55407546,0.360962525 L3.56564058,0.113561829 L3.4624934,0.357095559 C3.3497015,0.611825044 3.36523546,0.99742222 3.49846902,1.28309802 L3.57622415,1.44979652 L3.32930252,1.34718777 C2.97645978,1.20524566 2.74413324,0.955605082 2.69561096,0.65913908 L2.65306328,0.414832527 L2.60526649,0.673431013 C2.55042821,0.944937029 2.64956387,1.31913323 2.84228736,1.57211267 L2.95460982,1.71963311 L2.69074593,1.6682473 C2.31468761,1.59939357 2.03307063,1.40134239 1.92096155,1.12087846 L1.82609345,0.890375232 L1.83569549,1.15284191 C1.84120065,1.42935621 2.01979848,1.77562003 2.26334874,1.98482787 L2.40541616,2.10689971 L2.13608978,2.10897632 C1.75324602,2.11622408 1.43458653,1.97831303 1.26384103,1.72631082 L1.12083474,1.51962748 L1.18740884,1.77439849 C1.25304408,2.04378719 1.50316639,2.34709377 1.78700251,2.50344997 L1.95254157,2.59465775 L1.68957387,2.65007461 C1.31667355,2.73309813 0.9749265,2.66147559 0.75301283,2.44880673 L0.568098996,2.27502334 L0.688743217,2.51106419 C0.81164925,2.76151912 1.12241374,3.00851305 1.4341171,3.10513629 L1.61595828,3.16153038 L1.37078635,3.26792589 C1.02413159,3.4231827 0.674233477,3.42078035 0.410796345,3.25680994 L0.192040676,3.1235 L0.361463229,3.33042765 C0.53626292,3.55103646 0.894056038,3.73100896 1.22001308,3.76370532 L1.41013335,3.78280195 L1.19351147,3.93549354 C0.888252142,4.15610236 0.545480872,4.22320523 0.252085395,4.11505886 L0.00904724964,4.02812644 L0.219865237,4.19690155 C0.438919635,4.37805486 0.828122072,4.48310668 1.15407911,4.45041032 L1.34419938,4.43139513 L1.16560155,4.6237051 C0.915095161,4.90005653 0.594429907,5.0336515 0.283878795,4.98609316 L0.0272271003,4.94920287 L0.270265245,5.07253696 C0.524014992,5.20625408 0.927599143,5.23182483 1.2393025,5.13520159 L1.42114368,5.07884821 L1.28837956,5.30247014 C1.10355108,5.62238957 0.819032147,5.81677615 0.504896276,5.83180101 L0.245812066,5.84658155 L0.510401442,5.91901845 C0.787708179,5.99943602 1.18804898,5.94438561 1.4718851,5.78807013 L1.63746683,5.69682164 L1.55634032,5.94186111 C1.44525545,6.29154522 1.20934415,6.53809125 0.905322424,6.61512925 L0.655114761,6.6810513 L0.929690252,6.69937429 C1.21847675,6.72299059 1.59807716,6.58976209 1.84162741,6.38051352 L1.98369484,6.25844168 L1.95770533,6.51431208 C1.92527179,6.87828813 1.74821029,7.16624412 1.46761752,7.30191569 L1.23725406,7.41604757 L1.5098238,7.37956445 C1.79745806,7.34544297 2.13971722,7.13969614 2.33235535,6.8867167 L2.44472049,6.73919626 L2.47506291,6.99457805 C2.52264633,7.35704753 2.4122016,7.67379098 2.1673284,7.86219205 L1.96683793,8.01948475 L2.22549539,7.92970209 C2.49938807,7.83930867 2.78936949,7.57016428 2.92268839,7.28452921 L3.00040085,7.11791214 L3.08570959,7.36156721 C3.21126151,7.70681308 3.17225592,8.03849995 2.97377121,8.27136481 L2.81194494,8.46501847 L3.04538105,8.32584517 C3.29358295,8.18308871 3.51861195,7.86235492 3.58676505,7.55648312 L3.62649613,7.37809862 L3.76305839,7.59960322 C3.96107367,7.91231561 3.99521423,8.24457252 3.85182386,8.51168102 L3.73574594,8.73318563 L3.93376122,8.55072935 C4.14543272,8.36188039 4.2956512,8.00352339 4.2956512,7.690811 L4.2956512,7.50839544 L4.47749238,7.69797733 C4.73926516,7.9645565 4.84505824,8.2828065 4.76307821,8.57251335 L4.69778438,8.8122188 L4.85171565,8.59446022 C5.01759612,8.36766231 5.08643203,7.98743988 5.0183216,7.68152735 L4.97859052,7.50314285" id="path2404" fill="#FCDD09" fill-rule="nonzero"></path>
                    </g>
                </g>
            </g>
        </g>
    </g>
</svg>