<?xml version="1.0" encoding="UTF-8"?>
<svg width="20px" height="14px" viewBox="0 0 20 14" version="1.1" xmlns="http://www.w3.org/2000/svg" xmlns:xlink="http://www.w3.org/1999/xlink">
    <!-- Generator: Sketch 52.5 (67469) - http://www.bohemiancoding.com/sketch -->
    <title>Guam</title>
    <desc>Created with Sketch.</desc>
    <defs>
        <rect id="path-1" x="0" y="0" width="20" height="14" rx="1"></rect>
    </defs>
    <g id="Page-1" stroke="none" stroke-width="1" fill="none" fill-rule="evenodd">
        <g id="Guam">
            <mask id="mask-2" fill="white">
                <use xlink:href="#path-1"></use>
            </mask>
            <use id="path-1" fill="#FFFFFF" xlink:href="#path-1"></use>
            <g id="Group-2" mask="url(#mask-2)">
                <g id="Group-3">
                    <rect id="Rectangle" fill="#C62139" x="0" y="0" width="20" height="14"></rect>
                    <rect id="Rectangle" fill="#00297B" x="1" y="1" width="18" height="12"></rect>
                </g>
                <g id="Group-4" transform="translate(8.000000, 3.000000)">
                    <g id="Group">
                        <path d="M2.40160234,0.78 C2.40160234,0.78 0.393339181,2.22586992 0.393339181,3.93079675 C0.393339181,5.63595122 2.40160234,7.12279675 2.40160234,7.12279675 C2.40160234,7.12279675 4.39703728,5.75865041 4.39703728,3.93079675 C4.39703728,2.10317073 2.40160234,0.78 2.40160234,0.78 Z" id="path794" fill="#92DBFC"></path>
                        <path d="M4.18578363,4.97385366 L0.624129386,4.96930081 C1.15185161,6.19731707 2.40160234,7.12279675 2.40160234,7.12279675 C2.40160234,7.12279675 3.67253728,6.25388618 4.18578363,4.97385366 Z" id="path798" fill="#008CE7"></path>
                        <path d="M4.31383041,4.59813008 C3.98500439,4.82565854 2.13479898,4.71639024 2.13479898,4.71639024 L2.03134942,4.97112195 L4.23438962,4.97772358 C4.24356944,4.94278049 4.26557749,4.90123577 4.27322734,4.86595122 L4.31383041,4.59813008 Z" id="Path" fill="#9C8431"></path>
                        <path d="M1.00320906,5.65245528 C1.09689035,5.65541463 1.19021857,5.67453659 1.27401389,5.71801626 C1.42383333,5.79404878 1.5106886,5.79347967 1.67215936,5.79586992 C1.84116228,5.79837398 1.97379898,5.91868293 2.15645395,5.92369106 C2.49292982,5.93279675 2.63439327,6.09442276 2.37276827,6.09430894 C2.24919371,6.09419512 1.98427339,6.01395122 1.85622661,6.03079675 C1.66156725,6.0499187 1.54905556,6.06426016 1.40500292,6.17500813 C1.26777632,6.01565854 1.13054971,5.84037398 1.00320906,5.65245528 Z M1.66886404,6.46377236 C1.75230629,6.40856911 1.80973904,6.36543089 1.8907098,6.36304065 C2.0480614,6.35837398 2.10172807,6.2642439 2.28355921,6.26435772 C2.49022295,6.30100813 2.77032529,6.24034146 2.93426754,6.20517073 C3.22531506,6.14029268 3.08726462,5.94338211 2.9110826,5.87190244 C2.76867763,5.81294309 2.50175658,5.86894309 2.33616667,5.81043902 C2.21082675,5.76308943 2.31415863,5.68762602 2.38159503,5.67157724 C2.44961988,5.6595122 2.52258772,5.68125203 2.60720687,5.69456911 C2.75832091,5.70743089 2.94815497,5.69377236 3.08090936,5.67385366 C3.35524488,5.63321951 3.34394664,5.55536585 3.47634795,5.55354472 C3.57297149,5.54921951 3.64652778,5.52144715 3.71243421,5.4759187 C3.78987427,5.42595122 3.87049196,5.32339837 3.96417325,5.32749593 L4.01925219,5.32977236 C3.44068787,6.41221138 2.40160234,7.12279675 2.40160234,7.12279675 C2.40160234,7.12279675 2.0658326,6.87421138 1.66886404,6.46377236 Z" id="path799" fill="#FFDE52"></path>
                        <path d="M2.99887939,5.67089431 C3.03477485,5.80520325 3.07278874,5.85084553 3.21872442,5.88533333 C3.36277705,5.91982114 3.58285746,5.78437398 3.44645468,5.65291057 C3.31664254,5.53066667 3.1798867,5.49936585 3.06360892,5.38930081 C2.88319006,5.21629268 2.63568787,4.85866667 2.5181155,4.52050407 C2.38948026,4.15081301 2.41184137,3.11003252 2.41760819,2.58281301 C2.41772588,2.57666667 2.43326096,2.57302439 2.43502632,2.57052033 C2.44338231,2.55891057 2.45138523,2.57427642 2.43832164,2.49699187 C2.43490863,2.47718699 2.4186674,2.45669919 2.41878509,2.43666667 C2.41890278,2.40092683 2.29120906,2.47570732 2.25754971,2.53944715 C2.24989985,2.55401626 2.28202924,2.59556098 2.28202924,2.6037561 C2.28638377,3.10957724 2.23012792,4.1082439 2.36900219,4.56034146 C2.45491594,4.84022764 2.61167909,5.05637398 2.7536133,5.25635772 C2.83870322,5.38452033 2.96180702,5.52281301 2.99887939,5.67089431 Z" id="path804" fill="#8C4200"></path>
                        <path d="M2.40242617,0.386634146 C2.40242617,0.386634146 0.145013158,2.01188618 0.145013158,3.92829268 C0.145013158,5.84492683 2.40242617,7.5161626 2.40242617,7.5161626 C2.40242617,7.5161626 4.6453633,5.98276423 4.6453633,3.92829268 C4.6453633,1.87393496 2.40242617,0.386634146 2.40242617,0.386634146 Z M2.40160234,0.78 C2.40160234,0.78 0.393339181,2.22586992 0.393339181,3.93079675 C0.393339181,5.63595122 2.40160234,7.12279675 2.40160234,7.12279675 C2.40160234,7.12279675 4.39703728,5.75865041 4.39703728,3.93079675 C4.39703728,2.10317073 2.40160234,0.78 2.40160234,0.78 Z" id="Shape" fill="#C62139"></path>
                        <path d="M1.07641228,2.43336585 C1.08547442,2.44543089 1.08417982,2.49744715 1.08417982,2.49744715 C1.0915943,2.50177236 1.21187354,2.39842276 1.21187354,2.40308943 C1.21199123,2.42482927 1.2146981,2.4696748 1.2146981,2.4696748 C1.2146981,2.4696748 1.33921418,2.35517073 1.34439254,2.36723577 C1.35015936,2.38078049 1.34392178,2.44713821 1.34392178,2.44713821 C1.34392178,2.44713821 1.42677558,2.35881301 1.4419576,2.34287805 C1.45290278,2.33149593 1.45113743,2.35721951 1.45219664,2.39876423 C1.45243202,2.4061626 1.58801096,2.30201626 1.59624927,2.30019512 C1.61378509,2.29655285 1.61919883,2.35426016 1.61825731,2.36871545 C1.61755117,2.37941463 1.74336184,2.29928455 1.73783041,2.30986992 C1.73783041,2.30986992 1.74712792,2.37144715 1.74712792,2.37144715 C1.78219956,2.36678049 1.8657595,2.33661789 1.91601316,2.34447154 C1.9321367,2.34697561 1.93131287,2.35482927 1.91695468,2.36052033 C1.67474854,2.45533333 1.48844518,2.59829268 1.37993494,2.79747967 C1.34298026,2.86531707 1.33168202,2.92450407 1.34145029,2.93941463 C1.34145029,2.93941463 1.38499561,2.84881301 1.43407237,2.83458537 C1.44066301,2.83276423 1.44501754,2.89263415 1.45172588,2.88921951 C1.45172588,2.88921951 1.48891594,2.79839024 1.51574927,2.76492683 C1.52292836,2.75593496 1.53493275,2.81261789 1.5425826,2.80419512 C1.5425826,2.80419512 1.56188377,2.74341463 1.59966228,2.70107317 C1.60507602,2.69504065 1.6148443,2.75855285 1.62084649,2.75320325 C1.66003728,2.71826016 1.69687427,2.63061789 1.71158553,2.62413008 C1.72182456,2.61639024 1.72358991,2.69697561 1.73335819,2.69003252 C1.73335819,2.69003252 1.78926096,2.58144715 1.82268494,2.5617561 C1.84410453,2.54900813 1.8432807,2.62105691 1.8432807,2.62105691 C1.8858845,2.58042276 1.93284284,2.51304065 1.95508626,2.48378862 C1.96532529,2.47035772 1.95967617,2.57256911 1.97062135,2.57655285 C1.98462646,2.58178862 2.07642471,2.4982439 2.08678143,2.49653659 C2.09360746,2.49539837 2.10161038,2.5203252 2.08372149,2.54035772 C2.08230921,2.54195122 1.97026827,2.66692683 1.97026827,2.66692683 C1.99204094,2.67091057 2.00051462,2.66499187 2.0161674,2.66897561 C2.06265497,2.68081301 1.92907675,2.75491057 1.93131287,2.76879675 C1.93131287,2.76879675 1.99568933,2.76765854 1.97415205,2.77972358 C1.95861696,2.7884878 1.87352705,2.89445528 1.87352705,2.89069919 C1.87352705,2.88876423 1.91624854,2.89160976 1.91601316,2.90344715 C1.91566009,2.92541463 1.84528143,3.03866667 1.84457529,3.03798374 C1.84069152,3.03422764 1.8823538,3.03308943 1.88800292,3.0442439 C1.89835965,3.06484553 1.81574123,3.15647154 1.83186477,3.17206504 C1.83410088,3.17422764 1.87905848,3.17274797 1.89906579,3.17707317 C1.90871637,3.17912195 1.93578509,3.34347967 1.92895906,3.33687805 C1.92742909,3.33528455 1.95791082,3.18276423 1.97638816,3.1363252 C1.9876864,3.10821138 2.02381725,3.17878049 2.0267595,3.17252033 C2.02522953,3.17252033 2.01946272,3.0722439 2.02452339,3.02660163 C2.02593567,3.01385366 2.05194518,3.0399187 2.05159211,3.02773984 C2.05065058,3.0000813 2.04829678,2.9704878 2.05418129,2.9435122 C2.05865351,2.92313821 2.08077924,2.98027642 2.08937061,2.96491057 C2.08937061,2.96491057 2.06253728,2.86565854 2.07371784,2.83765854 C2.08113231,2.81921951 2.0990212,2.88227642 2.1107902,2.88478049 C2.1107902,2.88478049 2.10419956,2.80760976 2.11655702,2.78769106 C2.11655702,2.78769106 2.15386477,2.82639024 2.15386477,2.82639024 C2.16198538,2.81398374 2.16045541,2.69378862 2.16798757,2.68252033 C2.17422515,2.67307317 2.21294518,2.7275935 2.21871199,2.71905691 C2.22389035,2.71131707 2.20235307,2.6220813 2.20717836,2.61502439 C2.21400439,2.60489431 2.2564905,2.6398374 2.25731433,2.63915447 C2.27461477,2.62230894 2.27402632,2.58030894 2.2813231,2.56471545 C2.30085965,2.5224878 2.41290058,2.51702439 2.42608187,2.54707317 C2.43255482,2.56164228 2.4280826,2.58042276 2.42549342,2.60307317 C2.42655263,2.60398374 2.48163158,2.60785366 2.48210234,2.6037561 C2.48210234,2.6037561 2.4755117,2.65349593 2.47939547,2.7082439 C2.47998392,2.71552846 2.53529825,2.70642276 2.53600439,2.71370732 C2.54106506,2.76526829 2.52882529,2.77004878 2.52882529,2.77004878 C2.52929605,2.77380488 2.56613304,2.76458537 2.56672149,2.76856911 C2.57072295,2.79372358 2.56236696,2.82434146 2.54589035,2.85382114 C2.54341886,2.85803252 2.5986155,2.84972358 2.59943933,2.85461789 C2.60614766,2.89331707 2.60744225,2.92404878 2.60049854,2.97868293 C2.59991009,2.98312195 2.65451827,2.94009756 2.65534211,2.94453659 C2.66358041,2.99052033 2.65404751,3.04014634 2.6589905,3.08772358 C2.6601674,3.09876423 2.69512135,3.05482927 2.69829898,3.06757724 C2.70147661,3.08009756 2.69053143,3.17115447 2.69582749,3.17627642 C2.69582749,3.17627642 2.75431944,3.17343089 2.75949781,3.17821138 C2.80586769,3.2203252 2.79704094,3.29385366 2.79704094,3.29385366 C2.80975146,3.28474797 2.80492617,3.19619512 2.79209795,3.11515447 C2.79068567,3.10661789 2.83705556,3.1099187 2.83564327,3.10195122 C2.83564327,3.10195122 2.78480117,3.07235772 2.76808918,2.98995122 C2.76455848,2.97230894 2.81716594,2.97595122 2.81716594,2.97595122 C2.80257237,2.9435122 2.77691594,2.93736585 2.75514327,2.90617886 C2.74808187,2.89593496 2.80975146,2.89126829 2.80975146,2.88830894 C2.80986915,2.85723577 2.75773246,2.84243902 2.73078143,2.81011382 C2.71924781,2.79634146 2.78703728,2.79565854 2.78703728,2.79565854 C2.76714766,2.76891057 2.7015943,2.75718699 2.66817032,2.72178862 C2.64992836,2.70255285 2.7346652,2.68365854 2.73360599,2.68035772 C2.72430848,2.65201626 2.64463231,2.64313821 2.60602997,2.61115447 C2.59802705,2.60455285 2.65640132,2.5822439 2.65640132,2.5822439 C2.65051681,2.57017886 2.52329386,2.48925203 2.58802339,2.49665041 C2.61532749,2.4998374 2.6707595,2.53739837 2.67511404,2.53170732 C2.67511404,2.53170732 2.67276023,2.48447154 2.67840936,2.47878049 C2.69971126,2.45738211 2.77314985,2.56960976 2.79810015,2.56505691 C2.79810015,2.56505691 2.80727997,2.48469919 2.81857822,2.48253659 C2.84541155,2.47764228 2.87812939,2.59954472 2.90460965,2.59954472 C2.90814035,2.59954472 2.91014108,2.52908943 2.92379313,2.52521951 C2.93921053,2.52089431 2.95651096,2.60421138 2.97604751,2.62265041 C2.99417178,2.63960976 2.99440716,2.55754472 3.00499927,2.57313821 C3.02300585,2.59829268 3.02736038,2.65076423 3.0519576,2.67386992 C3.06796345,2.68889431 3.0709057,2.60147967 3.0886769,2.61320325 C3.10927266,2.62674797 3.10444737,2.67204878 3.12763231,2.69435772 C3.13869518,2.70494309 3.14610965,2.63665041 3.15870249,2.64666667 C3.16988304,2.65543089 3.1774152,2.73897561 3.18941959,2.75217886 C3.2047193,2.76902439 3.22237281,2.70813008 3.23826096,2.71780488 C3.2496769,2.72486179 3.24697003,2.79713821 3.25756213,2.81261789 C3.27921711,2.84471545 3.29051535,2.77380488 3.30487354,2.78473171 C3.31487719,2.79213008 3.33653216,2.87521951 3.3455943,2.88182114 C3.3657193,2.89661789 3.37678216,2.84403252 3.39208187,2.85143089 C3.40314474,2.85666667 3.42550585,2.96365854 3.43468567,2.96092683 C3.44068787,2.95910569 3.45551681,2.71712195 3.35924635,2.61502439 C3.2023655,2.44861789 2.92143933,2.35255285 2.69217909,2.3501626 C2.69217909,2.3501626 2.80739766,2.32796748 2.8104576,2.30952846 C2.81657749,2.27276423 2.87377485,2.27708943 2.91367178,2.2855122 C2.92073319,2.28699187 2.91696711,2.22052033 2.91790863,2.22017886 C2.95356871,2.21938211 2.98546272,2.2397561 3.01959284,2.25978862 C3.03018494,2.26604878 2.99805556,2.19320325 3.0093538,2.19946341 C3.0531345,2.22393496 3.10185819,2.23110569 3.13139839,2.26081301 C3.13916594,2.26866667 3.12245395,2.20469919 3.12245395,2.20469919 C3.1443443,2.19957724 3.18753655,2.2300813 3.20448392,2.25865041 C3.21272222,2.27276423 3.20401316,2.18409756 3.21048611,2.19980488 C3.21048611,2.19980488 3.28674927,2.22484553 3.29498757,2.2559187 C3.29498757,2.2559187 3.30122515,2.19969106 3.31146418,2.20265041 C3.3420636,2.21039024 3.36889693,2.26035772 3.39278801,2.26752846 C3.39278801,2.26752846 3.38290205,2.21744715 3.39066959,2.21938211 C3.44810234,2.23338211 3.51047807,2.2677561 3.51036038,2.26752846 C3.47799561,2.18921951 3.35524488,2.10715447 3.13928363,2.08518699 C3.09962208,2.08120325 2.93873977,2.07482927 2.80233699,2.10544715 C2.69053143,2.1304878 2.60226389,2.14471545 2.62038816,2.12764228 C2.69429751,2.05764228 2.81375292,2.04910569 2.84658845,2.03282927 C2.87012646,2.02121951 2.76738304,1.98286179 2.78774342,1.97739837 C2.80798611,1.97273171 2.89978436,1.96533333 2.89978436,1.96533333 C2.91967398,1.95030894 2.83305409,1.92094309 2.846,1.89908943 C2.87189181,1.85526829 3.02500658,1.89510569 3.03807018,1.8784878 C3.04230702,1.87291057 2.97228143,1.83284553 2.97522368,1.82692683 C2.98640424,1.80473171 3.12268933,1.84331707 3.12586696,1.82396748 C3.12586696,1.82396748 3.08455775,1.79414634 3.05513523,1.7696748 C3.05160453,1.76671545 3.17682675,1.7341626 3.17682675,1.7341626 C3.17447295,1.73188618 3.15540716,1.71891057 3.12669079,1.70809756 C3.10044591,1.69819512 3.2366133,1.66393496 3.2366133,1.66393496 C3.06407968,1.5876748 2.61626901,1.80461789 2.52741301,2.0297561 C2.50434576,2.08347967 2.50363962,2.02508943 2.50846491,1.97956098 C2.51305482,1.93061789 2.51941009,1.88770732 2.51399635,1.84274797 C2.51234868,1.82943089 2.47739474,1.87814634 2.47504094,1.86517073 C2.46609649,1.81736585 2.49257675,1.76489431 2.48045468,1.71185366 C2.47645322,1.69398374 2.43008333,1.76455285 2.42396345,1.74668293 C2.40701608,1.69762602 2.43667398,1.62865041 2.42466959,1.56104065 C2.41996199,1.53463415 2.3760636,1.61760976 2.36135234,1.59393496 C2.34416959,1.56650407 2.35170175,1.46486179 2.34358114,1.44949593 C2.3369905,1.43720325 2.2979174,1.49821138 2.29462208,1.48671545 C2.24166155,1.30039024 2.3120402,1.27717073 2.21035599,1.38222764 C2.20682529,1.38586992 2.1842288,1.27204878 2.18034503,1.2759187 C2.13868275,1.36219512 2.07042251,1.21445528 2.04711988,1.22822764 C2.02970175,1.23869919 2.09466667,1.2958374 2.09537281,1.32156098 C2.09572588,1.33396748 2.03558626,1.33476423 2.03558626,1.33476423 C2.03688085,1.35604878 2.14998099,1.41569106 2.15362939,1.43902439 C2.15657164,1.45826016 2.07360015,1.45347967 2.07360015,1.45347967 C2.07618933,1.47954472 2.17045906,1.50435772 2.17563743,1.53201626 C2.17857968,1.54726829 2.13150365,1.55068293 2.13303363,1.5661626 C2.13550512,1.58995122 2.22412573,1.63695935 2.22706798,1.66120325 C2.22906871,1.67804878 2.17045906,1.68499187 2.16904678,1.70069919 C2.16728143,1.71970732 2.28673684,1.78344715 2.28685453,1.80131707 C2.28697222,1.82658537 2.23930775,1.81360976 2.21765278,1.82635772 C2.18717105,1.84422764 2.31545322,1.91661789 2.32086696,1.93721951 C2.3251038,1.95531707 2.26955409,1.93938211 2.26767105,1.95588618 C2.26531725,1.9775122 2.33051754,2.01017886 2.34546418,2.04728455 C2.36041082,2.08393496 2.34511111,2.09326829 2.32369152,2.07869919 C2.28073465,2.04944715 2.10749488,1.87143089 2.06147807,1.82396748 C1.99463012,1.75499187 1.85775658,1.67770732 1.72123611,1.67315447 C1.70699561,1.67736585 1.79467471,1.73734959 1.79526316,1.75908943 C1.79538085,1.76466667 1.75583699,1.77297561 1.75760234,1.77468293 C1.78184649,1.79813008 1.85728582,1.82601626 1.85728582,1.82601626 C1.85728582,1.82601626 1.83563085,1.86369106 1.83563085,1.86369106 C1.84069152,1.87473171 1.8764693,1.87769106 1.93378436,1.89590244 C1.93378436,1.89590244 1.89082749,1.92162602 1.89400512,1.92401626 C1.92436915,1.94746341 1.98321418,1.96476423 1.98321418,1.96476423 C1.98321418,1.96476423 1.92531067,1.98354472 1.92531067,1.98354472 C1.92189766,1.99435772 2.05559357,2.04614634 2.05559357,2.04614634 C2.05559357,2.04614634 2.0138136,2.08097561 2.01569664,2.08279675 C2.02593567,2.09269919 2.12420687,2.11466667 2.12420687,2.11466667 C2.12585453,2.11626016 2.05476974,2.13765854 2.0552405,2.13811382 C2.08101462,2.16304065 2.15209942,2.17112195 2.16869371,2.2123252 C2.16869371,2.2123252 2.17846199,2.23577236 2.15033406,2.23133333 C2.03970541,2.19252033 1.86834868,2.1121626 1.53610965,2.14369106 C1.19645614,2.1864878 0.937655702,2.47206504 0.942127924,2.50052033 C0.942127924,2.50052033 1.06358406,2.41629268 1.07641228,2.43336585 Z" id="path805" fill="#109421"></path>
                        <circle id="Oval" fill="#8C4200" transform="translate(2.305685, 2.454104) rotate(-32.781768) translate(-2.305685, -2.454104) " cx="2.30568494" cy="2.45410407" r="1"></circle>
                        <circle id="Oval" fill="#8C4200" transform="translate(2.425258, 2.520439) scale(-1, 1) rotate(-32.781869) translate(-2.425258, -2.520439) " cx="2.42525804" cy="2.52043902" r="1"></circle>
                        <circle id="Oval" fill="#8C4200" transform="translate(2.328164, 2.586171) scale(-1, 1) rotate(-32.781792) translate(-2.328164, -2.586171) " cx="2.32816374" cy="2.58617073" r="1"></circle>
                        <rect id="Rectangle" fill="#000000" x="1.65615351" y="5.26011382" width="1" height="1"></rect>
                        <path d="M1.11525,5.35045935 C1.11525,5.35045935 1.82574488,5.45779268 2.26143348,5.27229268 C2.26143348,5.27229268 2.29803509,5.32152602 2.24542763,5.44332602 C2.19282018,5.56489268 2.05971272,5.59102602 1.98662719,5.61715935 C1.98662719,5.61715935 1.96909137,5.69532602 1.97050365,5.73592602 C1.97203363,5.77652602 2.01663816,5.77232602 2.03852851,5.76345935 C2.06041886,5.75482602 2.06041886,5.75482602 2.06041886,5.75482602 C2.06041886,5.75482602 2.05017982,5.90695935 1.78125804,5.92725935 C1.6929905,5.93402602 1.40194298,5.94615935 1.34039108,5.77512602 C1.34039108,5.77512602 1.39370468,5.78375935 1.40759211,5.77512602 C1.42147953,5.76649268 1.41135819,5.65635935 1.40617982,5.64025935 C1.40111915,5.62439268 1.21752266,5.64025935 1.1211345,5.46339268 C1.09724342,5.41299268 1.08582749,5.35932602 1.08582749,5.34019268 C1.08582749,5.33855935 1.11525,5.35045935 1.11525,5.35045935 Z M1.48550292,5.64609268 C1.48550292,5.64609268 1.6799269,5.72162246 1.9036557,5.64609268 C1.9036557,5.64609268 1.9095402,5.77495865 1.89930117,5.82399931 C1.88906213,5.87303997 1.63096784,5.91062588 1.50080263,5.84189736 C1.4798538,5.82149358 1.47914766,5.74345808 1.48550292,5.64609268 Z" id="Shape" fill="#8C4200"></path>
                        <path d="M1.21410965,5.27695935 C1.21410965,5.27695935 1.47773538,5.0058374 1.397,4.44014634 C1.397,4.44014634 1.6716886,4.50855285 1.95167325,4.89930081 C1.95167325,4.89930081 2.03335015,4.97863415 2.12938523,5.2615935 L1.21410965,5.27695935 Z" id="Path" fill="#FDF9FF"></path>
                    </g>
                </g>
            </g>
        </g>
    </g>
</svg>