<?xml version="1.0" encoding="UTF-8"?>
<svg width="20px" height="14px" viewBox="0 0 20 14" version="1.1" xmlns="http://www.w3.org/2000/svg" xmlns:xlink="http://www.w3.org/1999/xlink">
    <!-- Generator: Sketch 51.3 (57544) - http://www.bohemiancoding.com/sketch -->
    <title>Martinique</title>
    <desc>Created with Sketch.</desc>
    <defs>
        <rect id="path-1" x="0" y="0" width="20" height="14" rx="1"></rect>
    </defs>
    <g id="Page-1" stroke="none" stroke-width="1" fill="none" fill-rule="evenodd">
        <g id="Martinique">
            <mask id="mask-2" fill="white">
                <use xlink:href="#path-1"></use>
            </mask>
            <use id="Mask" fill="#FFFFFF" xlink:href="#path-1"></use>
            <g id="Drapeau_aux_serpents_de_la_Martinique" mask="url(#mask-2)">
                <rect id="Rectangle-path" fill="#21428E" fill-rule="nonzero" x="0" y="0" width="20" height="14"></rect>
                <polygon id="Shape" fill="#FFFFFF" fill-rule="nonzero" points="8.66666667 5.6 8.66666667 0 10 0 11.3333333 0 11.3333333 5.6 20 5.6 20 7 20 8.4 11.3333333 8.4 11.3333333 14 10 14 8.66666667 14 8.66666667 8.4 0 8.4 0 7 0 5.6"></polygon>
                <g id="s" transform="translate(4.033107, 2.869824) rotate(-4.999999) translate(-4.033107, -2.869824) translate(2.293107, 0.633324)" fill="#FFFFFF">
                    <path d="M0.846261019,3.93431292 C0.89780582,4.00188735 0.955644621,4.0567698 1.01050502,4.09746465 C1.17269343,4.21777449 1.36784283,4.30099057 1.57851604,4.35492613 C1.83867544,4.42153036 2.14347425,4.45529458 2.37553205,4.45403017 C2.69316846,4.45229893 2.98638487,4.39053877 3.14331307,4.3064659 C3.34120267,4.20044823 3.44398868,4.06385604 3.44398868,3.84144525 C3.44398868,3.61251647 3.27243067,3.45680504 3.07368067,3.37805504 C2.88228246,3.30221815 2.62943526,3.28266673 2.39648405,3.28279777 C2.21796485,3.28289794 1.93801864,3.31508968 1.75670944,3.35693491 C1.60498444,3.39195158 1.35654603,3.4705655 1.17989883,3.55937786 C1.14368703,3.5775836 1.10626082,3.59701658 1.06733342,3.61692584 C1.04648942,3.55060259 1.04652542,3.47515568 1.07580842,3.3893081 C1.17441963,3.10021432 1.60818964,3.05312434 1.96444444,3.03183475 C2.16411905,3.01990255 2.46333665,2.98608226 2.62399326,2.92643953 C2.91424866,2.81868495 3.02024467,2.63260311 3.02638507,2.47074539 C3.03354967,2.28189533 2.92506967,2.09437079 2.69152266,1.95830779 C2.55985986,1.88160151 2.38630565,1.82327296 2.24653445,1.76356723 C2.10855905,1.70462884 2.00350504,1.62453379 2.00416564,1.53301809 C2.00469964,1.45906869 2.05694285,1.3982844 2.11323725,1.35040692 C2.22709685,1.25357025 2.37909665,1.15664349 2.48259426,1.07799554 C2.69640666,0.91551917 2.74467426,0.775342277 2.74884426,0.621245534 C2.75363466,0.44703541 2.68972926,0.309513337 2.56712406,0.211654805 C2.43440825,0.105726602 2.26597265,0.0402985809 2.10491525,0.0491828411 C1.97327404,0.0565677013 1.84618504,0.0828620118 1.73098744,0.121745613 C1.61285884,0.161618314 1.49853723,0.182124814 1.50545103,0.226370975 C1.50875283,0.247498656 1.53968763,0.325699927 1.57152963,0.344032928 C1.60287724,0.362081168 1.65230644,0.354387608 1.68437944,0.351245168 C1.70785324,0.348945668 1.75597504,0.340697708 1.78786084,0.335151817 C1.81709464,0.330067087 1.86509764,0.321133057 1.87723624,0.347307668 C1.87804984,0.349062218 1.69218724,0.43125328 1.50476283,0.488472401 C1.40288043,0.519576132 1.28463843,0.541029522 1.17982143,0.548054022 C1.11948722,0.552097362 1.06279742,0.556082112 0.986776822,0.547858092 C1.03638362,0.578116363 1.09156262,0.584698603 1.10499542,0.609232694 C1.10746262,0.635287604 1.06142522,0.664486215 1.01516462,0.707204626 C1.09418822,0.674530305 1.15617603,0.650130404 1.20093063,0.633137414 C1.29811383,0.596237683 1.41829083,0.570715753 1.52749503,0.535052082 C1.74190444,0.46503136 1.87219504,0.373550318 1.87162324,0.374537528 C1.85921464,0.395965089 1.83172804,0.423930159 1.80045004,0.45319933 C1.77140404,0.480380051 1.73480764,0.510716441 1.71033124,0.531634962 C1.68814444,0.550596702 1.70002864,0.562869103 1.71028564,0.582724183 C1.72868164,0.618333674 1.76193124,0.603179653 1.81509424,0.573151963 C1.86887824,0.542773362 1.92581884,0.519046932 1.97286184,0.493558391 C2.04826685,0.45270226 2.30557445,0.402825159 2.38455845,0.559933302 C2.42863745,0.647611034 2.33377805,0.761811767 2.22491585,0.830495628 C2.14886825,0.8784758 1.96781584,0.996089872 1.88366524,1.04593295 C1.81183684,1.08847811 1.71451504,1.174584 1.63596784,1.28061111 C1.58922244,1.34371065 1.56149583,1.46147844 1.56384423,1.56062091 C1.56697623,1.68910123 1.64309524,1.80731947 1.74491524,1.88799601 C1.85180704,1.97269069 2.00553844,2.03458442 2.09046905,2.0721551 C2.17449425,2.1093251 2.31889445,2.16495977 2.41809785,2.21910827 C2.52069426,2.27510897 2.61427386,2.3609912 2.60990106,2.44366799 C2.60277666,2.57836641 2.39416685,2.62173561 2.22297185,2.64420393 C2.03514425,2.6688552 1.80068404,2.68263708 1.59220264,2.70544182 C1.40034603,2.72642775 1.14140223,2.80535163 0.974601622,2.91965505 C0.795503418,3.04238536 0.693156015,3.21776665 0.682515015,3.41373257 C0.675262215,3.54729761 0.702391816,3.66661835 0.747919217,3.769154 C0.741934817,3.77172881 0.736147816,3.77437355 0.730220416,3.77685764 C0.608070614,3.82804074 0.45737521,3.88177533 0.355808408,3.89330811 C0.284035206,3.90145779 0.142058403,3.90905811 0.0558084012,3.83030811 C0.0558084012,3.95630811 0.309808207,4.02764931 0.494558411,4.00355811 C0.599062813,3.98993058 0.733987816,3.97139283 0.843375019,3.93531273 C0.844258819,3.93502104 0.845374819,3.93460587 0.846261019,3.93431292 Z M1.20559683,3.80931713 C1.33252263,3.91500846 1.51526643,3.98354553 1.66156204,4.02940764 C1.89860884,4.10371929 2.15588525,4.13695557 2.38488965,4.13695557 C2.55753006,4.13695557 2.76546006,4.1201541 2.92580587,4.05104499 C3.04875187,3.99805569 3.11580847,3.95281476 3.11580847,3.84526683 C3.11580847,3.75159023 3.03556687,3.64744871 2.80541286,3.60009602 C2.68490706,3.575303 2.52562386,3.56458292 2.37953525,3.56438699 C2.20023485,3.56417468 1.97392384,3.59750294 1.77615664,3.63736367 C1.62826084,3.66717212 1.44423903,3.71723381 1.31580843,3.7673081 C1.27858983,3.78181952 1.24197903,3.79580804 1.20559683,3.80931713 Z M1.82268707,0.215103486 C1.82487654,0.222128642 1.80178707,0.241069111 1.78737339,0.241768017 C1.77509023,0.242364111 1.74354707,0.224150986 1.7441576,0.218165986 C1.74505128,0.209412705 1.77148918,0.191525517 1.78188602,0.190396767 C1.79982391,0.188449892 1.82027128,0.20735208 1.82268707,0.215103486 Z" id="Shape"></path>
                </g>
                <g id="s-link" transform="translate(13.600000, 0.455000)" fill="#FFFFFF">
                    <g id="s" transform="translate(1.933107, 2.414824) rotate(-4.999999) translate(-1.933107, -2.414824) translate(0.193107, 0.178324)">
                        <path d="M0.846261019,3.93431292 C0.89780582,4.00188735 0.955644621,4.0567698 1.01050502,4.09746465 C1.17269343,4.21777449 1.36784283,4.30099057 1.57851604,4.35492613 C1.83867544,4.42153036 2.14347425,4.45529458 2.37553205,4.45403017 C2.69316846,4.45229893 2.98638487,4.39053877 3.14331307,4.3064659 C3.34120267,4.20044823 3.44398868,4.06385604 3.44398868,3.84144525 C3.44398868,3.61251647 3.27243067,3.45680504 3.07368067,3.37805504 C2.88228246,3.30221815 2.62943526,3.28266673 2.39648405,3.28279777 C2.21796485,3.28289794 1.93801864,3.31508968 1.75670944,3.35693491 C1.60498444,3.39195158 1.35654603,3.4705655 1.17989883,3.55937786 C1.14368703,3.5775836 1.10626082,3.59701658 1.06733342,3.61692584 C1.04648942,3.55060259 1.04652542,3.47515568 1.07580842,3.3893081 C1.17441963,3.10021432 1.60818964,3.05312434 1.96444444,3.03183475 C2.16411905,3.01990255 2.46333665,2.98608226 2.62399326,2.92643953 C2.91424866,2.81868495 3.02024467,2.63260311 3.02638507,2.47074539 C3.03354967,2.28189533 2.92506967,2.09437079 2.69152266,1.95830779 C2.55985986,1.88160151 2.38630565,1.82327296 2.24653445,1.76356723 C2.10855905,1.70462884 2.00350504,1.62453379 2.00416564,1.53301809 C2.00469964,1.45906869 2.05694285,1.3982844 2.11323725,1.35040692 C2.22709685,1.25357025 2.37909665,1.15664349 2.48259426,1.07799554 C2.69640666,0.91551917 2.74467426,0.775342277 2.74884426,0.621245534 C2.75363466,0.44703541 2.68972926,0.309513337 2.56712406,0.211654805 C2.43440825,0.105726602 2.26597265,0.0402985809 2.10491525,0.0491828411 C1.97327404,0.0565677013 1.84618504,0.0828620118 1.73098744,0.121745613 C1.61285884,0.161618314 1.49853723,0.182124814 1.50545103,0.226370975 C1.50875283,0.247498656 1.53968763,0.325699927 1.57152963,0.344032928 C1.60287724,0.362081168 1.65230644,0.354387608 1.68437944,0.351245168 C1.70785324,0.348945668 1.75597504,0.340697708 1.78786084,0.335151817 C1.81709464,0.330067087 1.86509764,0.321133057 1.87723624,0.347307668 C1.87804984,0.349062218 1.69218724,0.43125328 1.50476283,0.488472401 C1.40288043,0.519576132 1.28463843,0.541029522 1.17982143,0.548054022 C1.11948722,0.552097362 1.06279742,0.556082112 0.986776822,0.547858092 C1.03638362,0.578116363 1.09156262,0.584698603 1.10499542,0.609232694 C1.10746262,0.635287604 1.06142522,0.664486215 1.01516462,0.707204626 C1.09418822,0.674530305 1.15617603,0.650130404 1.20093063,0.633137414 C1.29811383,0.596237683 1.41829083,0.570715753 1.52749503,0.535052082 C1.74190444,0.46503136 1.87219504,0.373550318 1.87162324,0.374537528 C1.85921464,0.395965089 1.83172804,0.423930159 1.80045004,0.45319933 C1.77140404,0.480380051 1.73480764,0.510716441 1.71033124,0.531634962 C1.68814444,0.550596702 1.70002864,0.562869103 1.71028564,0.582724183 C1.72868164,0.618333674 1.76193124,0.603179653 1.81509424,0.573151963 C1.86887824,0.542773362 1.92581884,0.519046932 1.97286184,0.493558391 C2.04826685,0.45270226 2.30557445,0.402825159 2.38455845,0.559933302 C2.42863745,0.647611034 2.33377805,0.761811767 2.22491585,0.830495628 C2.14886825,0.8784758 1.96781584,0.996089872 1.88366524,1.04593295 C1.81183684,1.08847811 1.71451504,1.174584 1.63596784,1.28061111 C1.58922244,1.34371065 1.56149583,1.46147844 1.56384423,1.56062091 C1.56697623,1.68910123 1.64309524,1.80731947 1.74491524,1.88799601 C1.85180704,1.97269069 2.00553844,2.03458442 2.09046905,2.0721551 C2.17449425,2.1093251 2.31889445,2.16495977 2.41809785,2.21910827 C2.52069426,2.27510897 2.61427386,2.3609912 2.60990106,2.44366799 C2.60277666,2.57836641 2.39416685,2.62173561 2.22297185,2.64420393 C2.03514425,2.6688552 1.80068404,2.68263708 1.59220264,2.70544182 C1.40034603,2.72642775 1.14140223,2.80535163 0.974601622,2.91965505 C0.795503418,3.04238536 0.693156015,3.21776665 0.682515015,3.41373257 C0.675262215,3.54729761 0.702391816,3.66661835 0.747919217,3.769154 C0.741934817,3.77172881 0.736147816,3.77437355 0.730220416,3.77685764 C0.608070614,3.82804074 0.45737521,3.88177533 0.355808408,3.89330811 C0.284035206,3.90145779 0.142058403,3.90905811 0.0558084012,3.83030811 C0.0558084012,3.95630811 0.309808207,4.02764931 0.494558411,4.00355811 C0.599062813,3.98993058 0.733987816,3.97139283 0.843375019,3.93531273 C0.844258819,3.93502104 0.845374819,3.93460587 0.846261019,3.93431292 Z M1.20559683,3.80931713 C1.33252263,3.91500846 1.51526643,3.98354553 1.66156204,4.02940764 C1.89860884,4.10371929 2.15588525,4.13695557 2.38488965,4.13695557 C2.55753006,4.13695557 2.76546006,4.1201541 2.92580587,4.05104499 C3.04875187,3.99805569 3.11580847,3.95281476 3.11580847,3.84526683 C3.11580847,3.75159023 3.03556687,3.64744871 2.80541286,3.60009602 C2.68490706,3.575303 2.52562386,3.56458292 2.37953525,3.56438699 C2.20023485,3.56417468 1.97392384,3.59750294 1.77615664,3.63736367 C1.62826084,3.66717212 1.44423903,3.71723381 1.31580843,3.7673081 C1.27858983,3.78181952 1.24197903,3.79580804 1.20559683,3.80931713 Z M1.82268707,0.215103486 C1.82487654,0.222128642 1.80178707,0.241069111 1.78737339,0.241768017 C1.77509023,0.242364111 1.74354707,0.224150986 1.7441576,0.218165986 C1.74505128,0.209412705 1.77148918,0.191525517 1.78188602,0.190396767 C1.79982391,0.188449892 1.82027128,0.20735208 1.82268707,0.215103486 Z" id="Shape"></path>
                    </g>
                </g>
                <g id="s-link" transform="translate(2.100000, 8.855000)" fill="#FFFFFF">
                    <g id="s" transform="translate(1.933107, 2.414824) rotate(-4.999999) translate(-1.933107, -2.414824) translate(0.193107, 0.178324)">
                        <path d="M0.846261019,3.93431292 C0.89780582,4.00188735 0.955644621,4.0567698 1.01050502,4.09746465 C1.17269343,4.21777449 1.36784283,4.30099057 1.57851604,4.35492613 C1.83867544,4.42153036 2.14347425,4.45529458 2.37553205,4.45403017 C2.69316846,4.45229893 2.98638487,4.39053877 3.14331307,4.3064659 C3.34120267,4.20044823 3.44398868,4.06385604 3.44398868,3.84144525 C3.44398868,3.61251647 3.27243067,3.45680504 3.07368067,3.37805504 C2.88228246,3.30221815 2.62943526,3.28266673 2.39648405,3.28279777 C2.21796485,3.28289794 1.93801864,3.31508968 1.75670944,3.35693491 C1.60498444,3.39195158 1.35654603,3.4705655 1.17989883,3.55937786 C1.14368703,3.5775836 1.10626082,3.59701658 1.06733342,3.61692584 C1.04648942,3.55060259 1.04652542,3.47515568 1.07580842,3.3893081 C1.17441963,3.10021432 1.60818964,3.05312434 1.96444444,3.03183475 C2.16411905,3.01990255 2.46333665,2.98608226 2.62399326,2.92643953 C2.91424866,2.81868495 3.02024467,2.63260311 3.02638507,2.47074539 C3.03354967,2.28189533 2.92506967,2.09437079 2.69152266,1.95830779 C2.55985986,1.88160151 2.38630565,1.82327296 2.24653445,1.76356723 C2.10855905,1.70462884 2.00350504,1.62453379 2.00416564,1.53301809 C2.00469964,1.45906869 2.05694285,1.3982844 2.11323725,1.35040692 C2.22709685,1.25357025 2.37909665,1.15664349 2.48259426,1.07799554 C2.69640666,0.91551917 2.74467426,0.775342277 2.74884426,0.621245534 C2.75363466,0.44703541 2.68972926,0.309513337 2.56712406,0.211654805 C2.43440825,0.105726602 2.26597265,0.0402985809 2.10491525,0.0491828411 C1.97327404,0.0565677013 1.84618504,0.0828620118 1.73098744,0.121745613 C1.61285884,0.161618314 1.49853723,0.182124814 1.50545103,0.226370975 C1.50875283,0.247498656 1.53968763,0.325699927 1.57152963,0.344032928 C1.60287724,0.362081168 1.65230644,0.354387608 1.68437944,0.351245168 C1.70785324,0.348945668 1.75597504,0.340697708 1.78786084,0.335151817 C1.81709464,0.330067087 1.86509764,0.321133057 1.87723624,0.347307668 C1.87804984,0.349062218 1.69218724,0.43125328 1.50476283,0.488472401 C1.40288043,0.519576132 1.28463843,0.541029522 1.17982143,0.548054022 C1.11948722,0.552097362 1.06279742,0.556082112 0.986776822,0.547858092 C1.03638362,0.578116363 1.09156262,0.584698603 1.10499542,0.609232694 C1.10746262,0.635287604 1.06142522,0.664486215 1.01516462,0.707204626 C1.09418822,0.674530305 1.15617603,0.650130404 1.20093063,0.633137414 C1.29811383,0.596237683 1.41829083,0.570715753 1.52749503,0.535052082 C1.74190444,0.46503136 1.87219504,0.373550318 1.87162324,0.374537528 C1.85921464,0.395965089 1.83172804,0.423930159 1.80045004,0.45319933 C1.77140404,0.480380051 1.73480764,0.510716441 1.71033124,0.531634962 C1.68814444,0.550596702 1.70002864,0.562869103 1.71028564,0.582724183 C1.72868164,0.618333674 1.76193124,0.603179653 1.81509424,0.573151963 C1.86887824,0.542773362 1.92581884,0.519046932 1.97286184,0.493558391 C2.04826685,0.45270226 2.30557445,0.402825159 2.38455845,0.559933302 C2.42863745,0.647611034 2.33377805,0.761811767 2.22491585,0.830495628 C2.14886825,0.8784758 1.96781584,0.996089872 1.88366524,1.04593295 C1.81183684,1.08847811 1.71451504,1.174584 1.63596784,1.28061111 C1.58922244,1.34371065 1.56149583,1.46147844 1.56384423,1.56062091 C1.56697623,1.68910123 1.64309524,1.80731947 1.74491524,1.88799601 C1.85180704,1.97269069 2.00553844,2.03458442 2.09046905,2.0721551 C2.17449425,2.1093251 2.31889445,2.16495977 2.41809785,2.21910827 C2.52069426,2.27510897 2.61427386,2.3609912 2.60990106,2.44366799 C2.60277666,2.57836641 2.39416685,2.62173561 2.22297185,2.64420393 C2.03514425,2.6688552 1.80068404,2.68263708 1.59220264,2.70544182 C1.40034603,2.72642775 1.14140223,2.80535163 0.974601622,2.91965505 C0.795503418,3.04238536 0.693156015,3.21776665 0.682515015,3.41373257 C0.675262215,3.54729761 0.702391816,3.66661835 0.747919217,3.769154 C0.741934817,3.77172881 0.736147816,3.77437355 0.730220416,3.77685764 C0.608070614,3.82804074 0.45737521,3.88177533 0.355808408,3.89330811 C0.284035206,3.90145779 0.142058403,3.90905811 0.0558084012,3.83030811 C0.0558084012,3.95630811 0.309808207,4.02764931 0.494558411,4.00355811 C0.599062813,3.98993058 0.733987816,3.97139283 0.843375019,3.93531273 C0.844258819,3.93502104 0.845374819,3.93460587 0.846261019,3.93431292 Z M1.20559683,3.80931713 C1.33252263,3.91500846 1.51526643,3.98354553 1.66156204,4.02940764 C1.89860884,4.10371929 2.15588525,4.13695557 2.38488965,4.13695557 C2.55753006,4.13695557 2.76546006,4.1201541 2.92580587,4.05104499 C3.04875187,3.99805569 3.11580847,3.95281476 3.11580847,3.84526683 C3.11580847,3.75159023 3.03556687,3.64744871 2.80541286,3.60009602 C2.68490706,3.575303 2.52562386,3.56458292 2.37953525,3.56438699 C2.20023485,3.56417468 1.97392384,3.59750294 1.77615664,3.63736367 C1.62826084,3.66717212 1.44423903,3.71723381 1.31580843,3.7673081 C1.27858983,3.78181952 1.24197903,3.79580804 1.20559683,3.80931713 Z M1.82268707,0.215103486 C1.82487654,0.222128642 1.80178707,0.241069111 1.78737339,0.241768017 C1.77509023,0.242364111 1.74354707,0.224150986 1.7441576,0.218165986 C1.74505128,0.209412705 1.77148918,0.191525517 1.78188602,0.190396767 C1.79982391,0.188449892 1.82027128,0.20735208 1.82268707,0.215103486 Z" id="Shape"></path>
                    </g>
                </g>
                <g id="s-link" transform="translate(13.600000, 8.855000)" fill="#FFFFFF">
                    <g id="s" transform="translate(1.933107, 2.414824) rotate(-4.999999) translate(-1.933107, -2.414824) translate(0.193107, 0.178324)">
                        <path d="M0.846261019,3.93431292 C0.89780582,4.00188735 0.955644621,4.0567698 1.01050502,4.09746465 C1.17269343,4.21777449 1.36784283,4.30099057 1.57851604,4.35492613 C1.83867544,4.42153036 2.14347425,4.45529458 2.37553205,4.45403017 C2.69316846,4.45229893 2.98638487,4.39053877 3.14331307,4.3064659 C3.34120267,4.20044823 3.44398868,4.06385604 3.44398868,3.84144525 C3.44398868,3.61251647 3.27243067,3.45680504 3.07368067,3.37805504 C2.88228246,3.30221815 2.62943526,3.28266673 2.39648405,3.28279777 C2.21796485,3.28289794 1.93801864,3.31508968 1.75670944,3.35693491 C1.60498444,3.39195158 1.35654603,3.4705655 1.17989883,3.55937786 C1.14368703,3.5775836 1.10626082,3.59701658 1.06733342,3.61692584 C1.04648942,3.55060259 1.04652542,3.47515568 1.07580842,3.3893081 C1.17441963,3.10021432 1.60818964,3.05312434 1.96444444,3.03183475 C2.16411905,3.01990255 2.46333665,2.98608226 2.62399326,2.92643953 C2.91424866,2.81868495 3.02024467,2.63260311 3.02638507,2.47074539 C3.03354967,2.28189533 2.92506967,2.09437079 2.69152266,1.95830779 C2.55985986,1.88160151 2.38630565,1.82327296 2.24653445,1.76356723 C2.10855905,1.70462884 2.00350504,1.62453379 2.00416564,1.53301809 C2.00469964,1.45906869 2.05694285,1.3982844 2.11323725,1.35040692 C2.22709685,1.25357025 2.37909665,1.15664349 2.48259426,1.07799554 C2.69640666,0.91551917 2.74467426,0.775342277 2.74884426,0.621245534 C2.75363466,0.44703541 2.68972926,0.309513337 2.56712406,0.211654805 C2.43440825,0.105726602 2.26597265,0.0402985809 2.10491525,0.0491828411 C1.97327404,0.0565677013 1.84618504,0.0828620118 1.73098744,0.121745613 C1.61285884,0.161618314 1.49853723,0.182124814 1.50545103,0.226370975 C1.50875283,0.247498656 1.53968763,0.325699927 1.57152963,0.344032928 C1.60287724,0.362081168 1.65230644,0.354387608 1.68437944,0.351245168 C1.70785324,0.348945668 1.75597504,0.340697708 1.78786084,0.335151817 C1.81709464,0.330067087 1.86509764,0.321133057 1.87723624,0.347307668 C1.87804984,0.349062218 1.69218724,0.43125328 1.50476283,0.488472401 C1.40288043,0.519576132 1.28463843,0.541029522 1.17982143,0.548054022 C1.11948722,0.552097362 1.06279742,0.556082112 0.986776822,0.547858092 C1.03638362,0.578116363 1.09156262,0.584698603 1.10499542,0.609232694 C1.10746262,0.635287604 1.06142522,0.664486215 1.01516462,0.707204626 C1.09418822,0.674530305 1.15617603,0.650130404 1.20093063,0.633137414 C1.29811383,0.596237683 1.41829083,0.570715753 1.52749503,0.535052082 C1.74190444,0.46503136 1.87219504,0.373550318 1.87162324,0.374537528 C1.85921464,0.395965089 1.83172804,0.423930159 1.80045004,0.45319933 C1.77140404,0.480380051 1.73480764,0.510716441 1.71033124,0.531634962 C1.68814444,0.550596702 1.70002864,0.562869103 1.71028564,0.582724183 C1.72868164,0.618333674 1.76193124,0.603179653 1.81509424,0.573151963 C1.86887824,0.542773362 1.92581884,0.519046932 1.97286184,0.493558391 C2.04826685,0.45270226 2.30557445,0.402825159 2.38455845,0.559933302 C2.42863745,0.647611034 2.33377805,0.761811767 2.22491585,0.830495628 C2.14886825,0.8784758 1.96781584,0.996089872 1.88366524,1.04593295 C1.81183684,1.08847811 1.71451504,1.174584 1.63596784,1.28061111 C1.58922244,1.34371065 1.56149583,1.46147844 1.56384423,1.56062091 C1.56697623,1.68910123 1.64309524,1.80731947 1.74491524,1.88799601 C1.85180704,1.97269069 2.00553844,2.03458442 2.09046905,2.0721551 C2.17449425,2.1093251 2.31889445,2.16495977 2.41809785,2.21910827 C2.52069426,2.27510897 2.61427386,2.3609912 2.60990106,2.44366799 C2.60277666,2.57836641 2.39416685,2.62173561 2.22297185,2.64420393 C2.03514425,2.6688552 1.80068404,2.68263708 1.59220264,2.70544182 C1.40034603,2.72642775 1.14140223,2.80535163 0.974601622,2.91965505 C0.795503418,3.04238536 0.693156015,3.21776665 0.682515015,3.41373257 C0.675262215,3.54729761 0.702391816,3.66661835 0.747919217,3.769154 C0.741934817,3.77172881 0.736147816,3.77437355 0.730220416,3.77685764 C0.608070614,3.82804074 0.45737521,3.88177533 0.355808408,3.89330811 C0.284035206,3.90145779 0.142058403,3.90905811 0.0558084012,3.83030811 C0.0558084012,3.95630811 0.309808207,4.02764931 0.494558411,4.00355811 C0.599062813,3.98993058 0.733987816,3.97139283 0.843375019,3.93531273 C0.844258819,3.93502104 0.845374819,3.93460587 0.846261019,3.93431292 Z M1.20559683,3.80931713 C1.33252263,3.91500846 1.51526643,3.98354553 1.66156204,4.02940764 C1.89860884,4.10371929 2.15588525,4.13695557 2.38488965,4.13695557 C2.55753006,4.13695557 2.76546006,4.1201541 2.92580587,4.05104499 C3.04875187,3.99805569 3.11580847,3.95281476 3.11580847,3.84526683 C3.11580847,3.75159023 3.03556687,3.64744871 2.80541286,3.60009602 C2.68490706,3.575303 2.52562386,3.56458292 2.37953525,3.56438699 C2.20023485,3.56417468 1.97392384,3.59750294 1.77615664,3.63736367 C1.62826084,3.66717212 1.44423903,3.71723381 1.31580843,3.7673081 C1.27858983,3.78181952 1.24197903,3.79580804 1.20559683,3.80931713 Z M1.82268707,0.215103486 C1.82487654,0.222128642 1.80178707,0.241069111 1.78737339,0.241768017 C1.77509023,0.242364111 1.74354707,0.224150986 1.7441576,0.218165986 C1.74505128,0.209412705 1.77148918,0.191525517 1.78188602,0.190396767 C1.79982391,0.188449892 1.82027128,0.20735208 1.82268707,0.215103486 Z" id="Shape"></path>
                    </g>
                </g>
            </g>
        </g>
    </g>
</svg>