<?xml version="1.0" encoding="UTF-8"?>
<svg width="20px" height="14px" viewBox="0 0 20 14" version="1.1" xmlns="http://www.w3.org/2000/svg" xmlns:xlink="http://www.w3.org/1999/xlink">
    <!-- Generator: Sketch 50.2 (55047) - http://www.bohemiancoding.com/sketch -->
    <title>MO</title>
    <desc>Created with Sketch.</desc>
    <defs>
        <rect id="path-1" x="0" y="0" width="20" height="14" rx="1"></rect>
    </defs>
    <g id="Page-1" stroke="none" stroke-width="1" fill="none" fill-rule="evenodd">
        <g id="Flags" transform="translate(-844.000000, -604.000000)">
            <g id="MO" transform="translate(844.000000, 604.000000)">
                <mask id="mask-2" fill="white">
                    <use xlink:href="#path-1"></use>
                </mask>
                <use id="Mask" fill="#FFFFFF" xlink:href="#path-1"></use>
                <rect id="Rectangle-2" fill="#079D7B" mask="url(#mask-2)" x="0" y="0" width="20" height="14"></rect>
                <g id="Oval-9" mask="url(#mask-2)">
                    <g transform="translate(5.714286, 1.866667)">
                        <path d="M2.26565623,6.44069157 C2.6864068,6.44564108 3.43381151,6.53333333 4.28571429,6.53333333 C5.12870124,6.53333333 5.86936598,6.44746701 6.29245481,6.44087396 C6.28707112,6.44233213 6.28168099,6.44378423 6.27628449,6.44523022 C6.14926108,6.47926604 6.02360879,6.50860176 5.90023419,6.53333333 L8.0952381,6.53333333 C7.98228092,6.86562708 7.83024751,7.17872791 7.6448787,7.46666667 L0.926549867,7.46666667 C0.741181063,7.17872791 0.589147646,6.86562708 0.476190476,6.53333333 L2.64536247,6.53333333 C2.53882066,6.51096795 2.43069141,6.4851935 2.32154992,6.45594912 C2.30284117,6.45093613 2.28420916,6.4458497 2.26565624,6.44069157 Z M1.9337059,6.33806836 C0.894582718,5.98325004 0.185497214,5.41249864 0.300048846,4.98498613 C0.428358871,4.50612659 1.54144739,4.38831445 2.78620163,4.72184535 C2.85205446,4.73949056 2.91695654,4.75804552 2.98080513,4.77743549 C2.95367612,4.59276773 2.93925704,4.39930193 2.93925704,4.2 C2.93925704,2.91133558 3.54208648,1.86666667 4.28571429,1.86666667 C5.02934209,1.86666667 5.63217153,2.91133558 5.63217153,4.2 C5.63217153,4.39830979 5.61789565,4.59084141 5.59102765,4.77467697 C5.66323522,4.75239238 5.73682046,4.73117234 5.81163278,4.71112644 C7.05638702,4.37759555 8.16947554,4.49540769 8.29778556,4.97426723 C8.41332346,5.40546054 7.69098045,5.98236988 6.63721546,6.33646596 C6.45713129,5.77029883 5.47289071,5.6 4.28571429,5.6 C3.0974186,5.6 2.11244158,5.7706201 1.9337059,6.33806836 Z M6.8248339,8.4 C6.13108251,8.98370661 5.24766672,9.33333333 4.28571429,9.33333333 C3.32376185,9.33333333 2.44034606,8.98370661 1.74659467,8.4 L6.8248339,8.4 Z" id="Mask" fill="#FFFFFF"></path>
                        <path d="M4.28571429,0.933333333 C4.02272155,0.933333333 3.80952381,0.72439955 3.80952381,0.466666667 C3.80952381,0.208933783 4.02272155,0 4.28571429,0 C4.54870702,0 4.76190476,0.208933783 4.76190476,0.466666667 C4.76190476,0.72439955 4.54870702,0.933333333 4.28571429,0.933333333 Z M0.476190476,3.26666667 C0.213197738,3.26666667 0,3.05773288 0,2.8 C0,2.54226712 0.213197738,2.33333333 0.476190476,2.33333333 C0.739183214,2.33333333 0.952380952,2.54226712 0.952380952,2.8 C0.952380952,3.05773288 0.739183214,3.26666667 0.476190476,3.26666667 Z M8.0952381,3.26666667 C7.83224536,3.26666667 7.61904762,3.05773288 7.61904762,2.8 C7.61904762,2.54226712 7.83224536,2.33333333 8.0952381,2.33333333 C8.35823083,2.33333333 8.57142857,2.54226712 8.57142857,2.8 C8.57142857,3.05773288 8.35823083,3.26666667 8.0952381,3.26666667 Z M6.66666667,1.86666667 C6.40367393,1.86666667 6.19047619,1.65773288 6.19047619,1.4 C6.19047619,1.14226712 6.40367393,0.933333333 6.66666667,0.933333333 C6.9296594,0.933333333 7.14285714,1.14226712 7.14285714,1.4 C7.14285714,1.65773288 6.9296594,1.86666667 6.66666667,1.86666667 Z M1.9047619,1.86666667 C1.64176917,1.86666667 1.42857143,1.65773288 1.42857143,1.4 C1.42857143,1.14226712 1.64176917,0.933333333 1.9047619,0.933333333 C2.16775464,0.933333333 2.38095238,1.14226712 2.38095238,1.4 C2.38095238,1.65773288 2.16775464,1.86666667 1.9047619,1.86666667 Z" id="Oval-184" fill="#FCD117"></path>
                    </g>
                </g>
            </g>
        </g>
    </g>
</svg>