<?xml version="1.0" encoding="UTF-8"?>
<svg width="20px" height="14px" viewBox="0 0 20 14" version="1.1" xmlns="http://www.w3.org/2000/svg" xmlns:xlink="http://www.w3.org/1999/xlink">
    <!-- Generator: Sketch 51.3 (57544) - http://www.bohemiancoding.com/sketch -->
    <title>Nouvelle-Calédonie</title>
    <desc>Created with Sketch.</desc>
    <defs>
        <rect id="path-1" x="0" y="0" width="20" height="14" rx="1"></rect>
    </defs>
    <g id="Page-1" stroke="none" stroke-width="1" fill="none" fill-rule="evenodd">
        <g id="Nouvelle-Calédonie">
            <mask id="mask-2" fill="white">
                <use xlink:href="#path-1"></use>
            </mask>
            <use id="Mask" fill="#FFFFFF" xlink:href="#path-1"></use>
            <g id="Group-3" mask="url(#mask-2)">
                <g transform="translate(-3.000000, 0.000000)">
                    <polygon id="path18" fill="#009543" fill-rule="nonzero" transform="translate(14.507344, 6.999290) scale(-1, 1) rotate(-180.000000) translate(-14.507344, -6.999290) " points="0.0323136143 0 28.9823744 0 28.9823744 13.9985795 0.0323136143 13.9985795"></polygon>
                    <polygon id="path20" fill="#ED4135" fill-rule="nonzero" transform="translate(14.507344, 4.666193) scale(-1, 1) rotate(-180.000000) translate(-14.507344, -4.666193) " points="0.0323136143 0 28.9823744 0 28.9823744 9.33238636 0.0323136143 9.33238636"></polygon>
                    <polygon id="path22" fill="#0035AD" fill-rule="nonzero" transform="translate(14.507344, 2.333097) scale(-1, 1) rotate(-180.000000) translate(-14.507344, -2.333097) " points="0.0323136143 0 28.9823744 0 28.9823744 4.66619318 0.0323136143 4.66619318"></polygon>
                    <g id="g26-Clipped" stroke-width="1" fill="none" fill-rule="evenodd" transform="translate(9.682334, 6.982955) scale(-1, 1) rotate(-180.000000) translate(-9.682334, -6.982955) translate(4.888169, 2.323864)">
                        <g id="g26" transform="translate(0.035251, 0.022727)">
                            <g id="g32" transform="translate(0.000000, 0.003244)" fill="#FAE600" fill-rule="nonzero">
                                <path d="M4.7589141,9.20454545 C7.37890194,9.20454545 9.50284643,7.15056818 9.50284643,4.61676136 C9.50284643,2.08301136 7.37890194,0.0289204545 4.7589141,0.0289204545 C2.1388675,0.0289204545 0.0149230146,2.08301136 0.0149230146,4.61676136 C0.0149230146,7.15056818 2.1388675,9.20454545 4.7589141,9.20454545" id="path34"></path>
                            </g>
                            <g id="g36" transform="translate(0.000000, 0.003244)" stroke="#000000" stroke-width="0.5">
                                <path d="M4.7589141,9.20454545 C7.37890194,9.20454545 9.50284643,7.15056818 9.50284643,4.61676136 C9.50284643,2.08301136 7.37890194,0.0289204545 4.7589141,0.0289204545 C2.1388675,0.0289204545 0.0149230146,2.08301136 0.0149230146,4.61676136 C0.0149230146,7.15056818 2.1388675,9.20454545 4.7589141,9.20454545 Z" id="path38"></path>
                            </g>
                            <g id="g40" transform="translate(3.936386, 1.352011)" fill="#000000" fill-rule="nonzero" stroke="#000000" stroke-width="0.5">
                                <path d="M0.822528363,7.84090909 L0.822528363,0.00170454545 M0.0183306321,3.73460227 L1.62672609,3.73460227 M0.0183306321,2.58363636 L1.62672609,2.58363636" id="path42"></path>
                            </g>
                            <g id="g44" transform="translate(2.790145, 0.009653)" fill="#000000" fill-rule="nonzero">
                                <path d="M0.0587520259,0.397727273 C1.99486629,-0.366875 3.80959887,0.350795455 3.80959887,0.350795455 C3.80959887,0.350795455 3.124609,1.06772727 2.77333063,1.34772727 C2.43074757,1.62073864 1.42268031,1.60994318 1.0786872,1.34772727 C0.791624797,1.12875 -0.031667342,0.322045455 0.0587520259,0.397727273" id="path46"></path>
                            </g>
                            <g id="g48" transform="translate(4.171394, 1.717142)" fill="#000000" fill-rule="nonzero">
                                <path d="M0.587520259,1.53409091 C0.880634117,1.53409091 1.11828606,1.19988636 1.11828606,0.7875 C1.11828606,0.375227273 0.880634117,0.0409090909 0.587520259,0.0409090909 C0.294406402,0.0409090909 0.0568132091,0.375227273 0.0568132091,0.7875 C0.0568132091,1.19988636 0.294406402,1.53409091 0.587520259,1.53409091" id="path50"></path>
                            </g>
                            <g id="g52" transform="translate(4.112642, 4.109551)" fill="#000000" fill-rule="nonzero">
                                <path d="M0.646272285,0.795454545 C1.00154579,0.795454545 1.28960697,0.619090909 1.28960697,0.401534091 C1.28960697,0.184090909 1.00154579,0.00778409091 0.646272285,0.00778409091 C0.290940032,0.00778409091 0.0029376013,0.184090909 0.0029376013,0.401534091 C0.0029376013,0.619090909 0.290940032,0.795454545 0.646272285,0.795454545" id="path54"></path>
                            </g>
                            <g id="g56" transform="translate(4.112642, 5.703153)" fill="#000000" fill-rule="nonzero">
                                <path d="M0.646272285,1.25 C1.00154579,1.25 1.28960697,0.971477273 1.28960697,0.627784091 C1.28960697,0.284204545 1.00154579,0.00568181818 0.646272285,0.00568181818 C0.290940032,0.00568181818 0.0029376013,0.284204545 0.0029376013,0.627784091 C0.0029376013,0.971477273 0.290940032,1.25 0.646272285,1.25" id="path58"></path>
                            </g>
                            <g id="g60" transform="translate(4.062150, 7.171244)" fill="#000000" fill-rule="nonzero">
                                <path d="M1.46880065,1.47727273 C1.46856564,1.47772727 1.52455632,1.38801136 1.40722853,1.18369318 C0.846675446,0.2075 0.284183549,0.186363636 0.17748987,0.102272727 C0.0597508104,0.00971590909 0.0101053485,0.0159659091 0.0101053485,0.0159659091 C0.0185068882,0.0996590909 0.0263209076,0.441534091 0.0324898703,0.474488636 C0.117504052,0.930625 0.830107374,0.924375 1.38772285,1.39142045 C1.47485211,1.46431818 1.46856564,1.47772727 1.46856564,1.47772727 L1.46880065,1.47727273 Z" id="path62"></path>
                            </g>
                            <g id="g64" transform="translate(3.649165, 5.241892)" fill="#000000" fill-rule="nonzero">
                                <path d="M0,1.30681818 C0,1.30681818 0.125905592,0.9575 0.14470624,0.606875 C0.174904781,0.0471022727 0.729523906,0.0313636364 1.10976702,0.0313636364 L1.10976702,0.342443182 C0.82476094,0.342443182 0.577297407,0.383409091 0.369961507,0.793522727 C0.26767423,0.995852273 0,1.30681818 0,1.30681818" id="path66"></path>
                            </g>
                            <g id="g68" transform="translate(3.633102, 2.038017)" fill="#000000" fill-rule="nonzero">
                                <path d="M0,0 C0,0 0.202459481,0.241647727 0.439406402,0.808125 C0.563079417,1.10357955 0.856017018,1.27545455 1.12580632,1.27545455 L1.12580632,1.71090909 C0.513786467,1.71090909 0.220261345,1.49153409 0.18935778,1.17085227 C0.125729335,0.512045455 0,0 0,0" id="path70"></path>
                            </g>
                            <g id="g72" transform="translate(4.752375, 5.241892)" fill="#000000" fill-rule="nonzero">
                                <path d="M1.11628849,1.30681818 C1.11628849,1.30681818 0.990324149,0.9575 0.971523501,0.606875 C0.941442464,0.0471022727 0.386764587,0.0313636364 0.00652147488,0.0313636364 L0.00652147488,0.342443182 C0.291468801,0.342443182 0.538991086,0.383409091 0.746385737,0.793522727 C0.848673015,0.995852273 1.11628849,1.30681818 1.11628849,1.30681818" id="path74"></path>
                            </g>
                            <g id="g76" transform="translate(4.709686, 2.038017)" fill="#000000" fill-rule="nonzero">
                                <path d="M1.17504052,0 C1.17504052,0 0.972522285,0.241647727 0.735634117,0.808125 C0.611961102,1.10357955 0.319082253,1.27545455 0.0492341977,1.27545455 L0.0492341977,1.71090909 C0.661312804,1.71090909 0.954720421,1.49153409 0.985682739,1.17085227 C1.04925243,0.512045455 1.17504052,0 1.17504052,0" id="path78"></path>
                            </g>
                        </g>
                    </g>
                </g>
            </g>
        </g>
    </g>
</svg>