<?xml version="1.0" encoding="UTF-8"?>
<svg width="20px" height="14px" viewBox="0 0 20 14" version="1.1" xmlns="http://www.w3.org/2000/svg" xmlns:xlink="http://www.w3.org/1999/xlink">
    <!-- Generator: Sketch 51.3 (57544) - http://www.bohemiancoding.com/sketch -->
    <title>Kosovo</title>
    <desc>Created with Sketch.</desc>
    <defs>
        <rect id="path-1" x="0" y="0" width="20" height="14" rx="1"></rect>
    </defs>
    <g id="Page-1" stroke="none" stroke-width="1" fill="none" fill-rule="evenodd">
        <g id="Kosovo">
            <mask id="mask-2" fill="white">
                <use xlink:href="#path-1"></use>
            </mask>
            <use id="Mask" fill="#FFFFFF" xlink:href="#path-1"></use>
            <g id="Flag_of_Kosovo" mask="url(#mask-2)" fill-rule="nonzero">
                <rect id="Rectangle-path" fill="#244AA5" x="0" y="0" width="20" height="15"></rect>
                <path d="M7.907,7.114875 C7.907,7.114875 7.94409524,7.088625 7.95766667,7.085125 C7.9712381,7.081625 8.01919048,7.065875 8.01919048,7.065875 C8.01919048,7.065875 8.04995238,7.04925 8.0662381,7.04925 C8.08342857,7.04925 8.11690476,7.0685 8.1277619,7.085125 C8.13771429,7.10175 8.192,7.130625 8.192,7.130625 C8.192,7.130625 8.22909524,7.14375 8.23633333,7.130625 C8.24357143,7.1175 8.25985714,7.107875 8.27704762,7.107875 C8.2942381,7.107875 8.29695238,7.09125 8.29695238,7.078125 C8.29695238,7.065 8.30419048,7.048375 8.31685714,7.032625 C8.33042857,7.016 8.35757143,7.006375 8.35757143,7.006375 C8.35757143,7.006375 8.39466667,6.98975 8.39828571,6.967 C8.40190476,6.94425 8.439,6.927625 8.45980952,6.924125 C8.47971429,6.920625 8.45980952,6.911 8.51409524,6.917125 C8.56838095,6.924125 8.57561905,6.904 8.57833333,6.887375 C8.58195238,6.87075 8.57833333,6.854125 8.61271429,6.857625 C8.64709524,6.861125 8.66338095,6.861125 8.66338095,6.841 C8.66338095,6.82175 8.69414286,6.81125 8.63985714,6.7955 C8.58557143,6.778875 8.58919048,6.792 8.58557143,6.76575 C8.58195238,6.7395 8.58557143,6.743 8.54847619,6.7395 C8.51138095,6.736 8.53128571,6.71675 8.52857143,6.696625 C8.52495238,6.677375 8.515,6.666875 8.50866667,6.65375 C8.50142857,6.640625 8.48152381,6.640625 8.48152381,6.621375 C8.48152381,6.602125 8.47790476,6.591625 8.458,6.591625 C8.43809524,6.591625 8.43085714,6.591625 8.43085714,6.572375 C8.43085714,6.553125 8.43447619,6.5365 8.45438095,6.5365 C8.47428571,6.5365 8.48514286,6.519875 8.48152381,6.500625 C8.47790476,6.481375 8.47790476,6.4385 8.47790476,6.4385 L8.50504762,6.40525 C8.50504762,6.40525 8.58647619,6.336125 8.59371429,6.323 C8.60095238,6.309875 8.62809524,6.30025 8.6407619,6.3265 C8.65433333,6.35275 8.66066667,6.35975 8.67152381,6.372 C8.68147619,6.385125 8.7122381,6.3755 8.71857143,6.362375 C8.72580952,6.34925 8.72852381,6.301125 8.74661905,6.274875 C8.76471429,6.2495 8.77738095,6.236375 8.78190476,6.215375 C8.78642857,6.194375 8.79547619,6.176875 8.81719048,6.176875 C8.83890476,6.176875 8.85247619,6.147125 8.85247619,6.129625 C8.85247619,6.112125 8.86152381,6.0955 8.8877619,6.091125 C8.914,6.08675 8.92757143,6.070125 8.93661905,6.0955 C8.94566667,6.120875 8.95471429,6.120875 8.97190476,6.129625 C8.99,6.138375 9.0162381,6.150625 9.02890476,6.138375 C9.04247619,6.12525 9.04880952,6.10425 9.06871429,6.117375 C9.08771429,6.1305 9.10128571,6.117375 9.10580952,6.092 C9.11033333,6.066625 9.11485714,6.0325 9.11485714,6.0325 C9.11485714,6.0325 9.11938095,6.015 9.15014286,6.015 C9.18090476,6.015 9.15919048,5.994 9.17638095,5.980875 C9.19447619,5.96775 9.19447619,5.9555 9.21619048,5.963375 C9.23790476,5.972125 9.27319048,5.952875 9.256,5.931875 C9.23790476,5.910875 9.199,5.87675 9.22071429,5.8505 C9.24242857,5.825125 9.25147619,5.78225 9.2297619,5.777875 C9.20804762,5.7735 9.17638095,5.78225 9.1727619,5.756875 C9.1682381,5.7315 9.15919048,5.714 9.18633333,5.709625 C9.21257143,5.70525 9.25690476,5.70525 9.27047619,5.692125 C9.28404762,5.679 9.32747619,5.671125 9.32747619,5.632625 C9.32747619,5.594125 9.34104762,5.58975 9.34557143,5.56875 C9.35009524,5.54775 9.35009524,5.503125 9.332,5.482125 C9.31390476,5.461125 9.28766667,5.4305 9.28314286,5.41825 C9.27861905,5.405125 9.26142857,5.384125 9.23428571,5.375375 C9.20804762,5.366625 9.18542857,5.36225 9.18542857,5.34125 C9.18542857,5.32025 9.20352381,5.345625 9.20352381,5.289625 C9.20352381,5.2345 9.1682381,5.22575 9.1682381,5.22575 L9.11485714,5.191625 C9.11485714,5.191625 9.0207619,5.165375 8.99542857,5.165375 C8.97009524,5.165375 8.94114286,5.137375 8.97009524,5.119875 C8.99904762,5.102375 9.00628571,5.070875 8.99542857,5.046375 C8.98457143,5.021875 8.97733333,5.004375 8.93752381,4.993875 C8.89771429,4.983375 8.88685714,4.972875 8.90495238,4.948375 C8.92304762,4.923875 8.92666667,4.906375 8.94838095,4.923875 C8.97009524,4.941375 9.00628571,4.948375 9.0352381,4.934375 C9.06419048,4.920375 9.07504762,4.909875 9.08952381,4.923875 C9.104,4.937875 9.12209524,4.951875 9.14380952,4.930875 C9.16552381,4.909875 9.20533333,4.906375 9.22342857,4.916875 C9.24152381,4.927375 9.28495238,4.923875 9.29942857,4.916875 C9.31390476,4.909875 9.34285714,4.885375 9.34285714,4.871375 C9.34285714,4.857375 9.36095238,4.832875 9.37904762,4.822375 C9.39714286,4.811875 9.41885714,4.776875 9.43695238,4.776875 C9.45504762,4.776875 9.46228571,4.755875 9.46228571,4.741875 C9.46228571,4.727875 9.4767619,4.699875 9.48038095,4.689375 C9.484,4.678875 9.52019048,4.664 9.54552381,4.685875 C9.57085714,4.706875 9.60342857,4.713875 9.60342857,4.713875 C9.60342857,4.713875 9.63961905,4.720875 9.65771429,4.713875 C9.67580952,4.706875 9.70114286,4.699875 9.72647619,4.717375 C9.75180952,4.734875 9.788,4.734875 9.788,4.734875 C9.788,4.734875 9.7952381,4.706875 9.7952381,4.692875 C9.7952381,4.678875 9.80247619,4.654375 9.788,4.643875 C9.77352381,4.633375 9.75542857,4.619375 9.78438095,4.598375 C9.81333333,4.577375 9.81333333,4.580875 9.84228571,4.580875 C9.8712381,4.580875 9.88933333,4.584375 9.91104762,4.584375 C9.9327619,4.584375 9.96895238,4.605375 9.96895238,4.626375 C9.96895238,4.647375 9.98342857,4.661375 10.0015238,4.671875 C10.019619,4.682375 10.0413333,4.692875 10.0340952,4.710375 C10.0268571,4.727875 10.0268571,4.741875 10.0485714,4.738375 C10.0702857,4.734875 10.0775238,4.748875 10.0775238,4.766375 C10.0775238,4.783875 10.0847619,4.794375 10.1064762,4.801375 C10.1281905,4.808375 10.1390476,4.822375 10.1390476,4.839875 C10.1390476,4.857375 10.1354286,4.867875 10.1426667,4.885375 C10.1499048,4.902875 10.171619,4.930875 10.171619,4.930875 C10.171619,4.930875 10.2114286,4.979875 10.1607619,4.955375 C10.1100952,4.930875 10.0992381,4.920375 10.0811429,4.923875 C10.0630476,4.927375 10.0521905,4.937875 10.0521905,4.937875 C10.0521905,4.937875 10.0268571,4.944875 10.0087619,4.944875 C9.99066667,4.944875 9.97257143,4.983375 10.0015238,4.990375 C10.0304762,4.997375 10.0413333,5.004375 10.0413333,5.028875 C10.0413333,5.053375 10.0304762,5.046375 10.016,5.063875 C10.0015238,5.081375 9.99066667,5.070875 9.96533333,5.070875 C9.94,5.070875 9.9327619,5.091875 9.9327619,5.112875 C9.9327619,5.133875 9.94361905,5.130375 9.95447619,5.147875 C9.96533333,5.165375 9.98342857,5.168875 10.0015238,5.151375 C10.019619,5.133875 10.0340952,5.123375 10.0449524,5.154875 C10.0558095,5.186375 10.0702857,5.186375 10.092,5.186375 C10.1137143,5.186375 10.1209524,5.186375 10.1390476,5.175875 C10.1571429,5.165375 10.1788571,5.175875 10.1824762,5.203875 C10.1860952,5.231875 10.2041905,5.235375 10.2222857,5.245875 C10.240381,5.256375 10.2512381,5.263375 10.2548571,5.280875 C10.2584762,5.298375 10.2693333,5.305375 10.2874286,5.294875 C10.3055238,5.284375 10.3344762,5.277375 10.3453333,5.291375 C10.3561905,5.305375 10.3742857,5.333375 10.3742857,5.333375 L10.3779048,5.368375 L10.4466667,5.392875 C10.4466667,5.392875 10.4539048,5.410375 10.4539048,5.424375 C10.4539048,5.438375 10.4647619,5.445375 10.4828571,5.441875 C10.5009524,5.438375 10.5335238,5.441875 10.5335238,5.441875 C10.5335238,5.441875 10.5588571,5.431375 10.5588571,5.410375 C10.5588571,5.389375 10.5697143,5.382375 10.5878095,5.382375 C10.6059048,5.382375 10.6457143,5.396375 10.6565714,5.375375 C10.6674286,5.354375 10.7,5.347375 10.7253333,5.357875 C10.7506667,5.368375 10.8158095,5.396375 10.8158095,5.396375 C10.8158095,5.396375 10.8085714,5.399875 10.8302857,5.434875 C10.852,5.469875 10.8918095,5.469875 10.8918095,5.469875 C10.8918095,5.469875 10.8954286,5.501375 10.9026667,5.515375 C10.9099048,5.529375 10.9424762,5.536375 10.9605714,5.522375 C10.9786667,5.508375 11.004,5.490875 11.0257143,5.490875 C11.0474286,5.490875 11.0619048,5.490875 11.0619048,5.476875 C11.0619048,5.462875 11.0401905,5.452375 11.0401905,5.431375 C11.0401905,5.410375 11.0619048,5.410375 11.0655238,5.389375 C11.0691429,5.368375 11.0908571,5.389375 11.1053333,5.399875 C11.1198095,5.410375 11.1379048,5.427875 11.1379048,5.441875 C11.1379048,5.455875 11.1668571,5.504875 11.1849524,5.511875 C11.2030476,5.518875 11.2500952,5.522375 11.2645714,5.504875 C11.2790476,5.487375 11.3152381,5.480375 11.311619,5.522375 C11.308,5.564375 11.3007619,5.567875 11.3260952,5.581875 C11.3514286,5.595875 11.3550476,5.644875 11.3333333,5.658875 C11.311619,5.672875 11.304381,5.676375 11.304381,5.700875 C11.304381,5.725375 11.2971429,5.753375 11.3152381,5.767375 C11.3333333,5.781375 11.3441905,5.791875 11.3441905,5.805875 C11.3441905,5.819875 11.3659048,5.882875 11.3659048,5.882875 C11.3659048,5.882875 11.3767619,5.945875 11.3731429,5.959875 C11.3695238,5.973875 11.3622857,5.998375 11.3948571,5.994875 C11.4274286,5.991375 11.4346667,5.991375 11.4346667,6.019375 C11.4346667,6.047375 11.4455238,6.057875 11.4274286,6.068375 C11.4093333,6.078875 11.3984762,6.113875 11.4165714,6.120875 C11.4346667,6.127875 11.4491429,6.138375 11.4527619,6.152375 C11.456381,6.166375 11.4853333,6.190875 11.5034286,6.176875 C11.5215238,6.162875 11.5251429,6.155875 11.539619,6.152375 C11.5540952,6.148875 11.5649524,6.138375 11.5504762,6.120875 C11.536,6.103375 11.532381,6.085875 11.5468571,6.075375 C11.5613333,6.064875 11.5685714,6.029875 11.5685714,6.029875 C11.5685714,6.029875 11.5902857,5.998375 11.615619,6.029875 C11.6409524,6.061375 11.6445714,6.050875 11.6626667,6.050875 C11.6807619,6.050875 11.688,6.068375 11.688,6.085875 C11.688,6.103375 11.7241905,6.099875 11.7241905,6.127875 C11.7241905,6.155875 11.7314286,6.222375 11.7314286,6.222375 C11.7314286,6.222375 11.7314286,6.260875 11.7531429,6.274875 C11.7748571,6.288875 11.7712381,6.292375 11.760381,6.309875 C11.7495238,6.327375 11.7531429,6.355375 11.7531429,6.369375 C11.7531429,6.383375 11.760381,6.390375 11.7422857,6.404375 C11.7241905,6.418375 11.7169524,6.435875 11.7278095,6.456875 C11.7386667,6.477875 11.7350476,6.491875 11.764,6.516375 C11.7929524,6.540875 11.7893333,6.551375 11.7893333,6.568875 C11.7893333,6.586375 11.8182857,6.610875 11.8182857,6.628375 C11.8182857,6.645875 11.84,6.666875 11.8580952,6.670375 C11.8761905,6.673875 11.8979048,6.705375 11.8979048,6.722875 C11.8979048,6.740375 11.9015238,6.785875 11.9015238,6.785875 C11.9015238,6.785875 11.8979048,6.796375 11.919619,6.796375 C11.9413333,6.796375 11.9558095,6.820875 11.9630476,6.792875 C11.9702857,6.764875 11.992,6.761375 12.0064762,6.754375 C12.0209524,6.747375 12.0499048,6.733375 12.064381,6.743875 C12.0788571,6.754375 12.0969524,6.754375 12.1114286,6.754375 C12.1259048,6.754375 12.1946667,6.757875 12.1946667,6.757875 C12.1946667,6.757875 12.2127619,6.754375 12.223619,6.782375 C12.2344762,6.810375 12.2670476,6.841875 12.2489524,6.855875 C12.2308571,6.869875 12.2308571,6.897875 12.2525714,6.897875 C12.2742857,6.897875 12.296,6.897875 12.296,6.915375 C12.296,6.932875 12.299619,6.946875 12.3177143,6.936375 C12.3358095,6.925875 12.3466667,6.922375 12.3539048,6.936375 C12.3611429,6.950375 12.375619,6.950375 12.3937143,6.960875 C12.4118095,6.971375 12.4190476,6.964375 12.4299048,6.950375 C12.4407619,6.936375 12.4841905,6.922375 12.4841905,6.922375 C12.4841905,6.922375 12.5420952,6.908375 12.5638095,6.915375 C12.5855238,6.922375 12.6144762,6.936375 12.6144762,6.936375 C12.6144762,6.936375 12.6289524,6.971375 12.6217143,6.992375 C12.6144762,7.013375 12.6072381,7.009875 12.6144762,7.041375 C12.6217143,7.072875 12.6072381,7.076375 12.5927619,7.072875 C12.5782857,7.069375 12.5638095,7.069375 12.5638095,7.097375 C12.5638095,7.125375 12.5493333,7.132375 12.5493333,7.156875 C12.5493333,7.181375 12.5493333,7.177875 12.5348571,7.188375 C12.520381,7.198875 12.5167619,7.216375 12.5384762,7.219875 C12.5601905,7.223375 12.5529524,7.247875 12.5529524,7.261875 C12.5529524,7.275875 12.5493333,7.307375 12.5493333,7.307375 C12.5493333,7.307375 12.5529524,7.324875 12.527619,7.324875 C12.5022857,7.324875 12.4805714,7.321375 12.4769524,7.338875 C12.4733333,7.356375 12.444381,7.384375 12.4697143,7.401875 C12.4950476,7.419375 12.4878095,7.429875 12.4733333,7.436875 C12.4588571,7.443875 12.448,7.478875 12.4769524,7.489375 C12.5059048,7.499875 12.5022857,7.510375 12.4841905,7.524375 C12.4660952,7.538375 12.4299048,7.548875 12.4299048,7.569875 C12.4299048,7.590875 12.4226667,7.590875 12.4009524,7.594375 C12.3792381,7.597875 12.368381,7.625875 12.3937143,7.660875 C12.4190476,7.695875 12.4262857,7.688875 12.444381,7.688875 C12.4624762,7.688875 12.4624762,7.660875 12.4624762,7.660875 C12.4624762,7.660875 12.524,7.664375 12.5420952,7.664375 C12.5601905,7.664375 12.5855238,7.664375 12.6,7.653875 C12.6144762,7.643375 12.6542857,7.625875 12.6542857,7.657375 C12.6542857,7.688875 12.6615238,7.685375 12.679619,7.699375 C12.6977143,7.713375 12.7013333,7.702875 12.7158095,7.723875 C12.7302857,7.744875 12.7339048,7.727375 12.7447619,7.702875 C12.755619,7.678375 12.7773333,7.653875 12.7954286,7.681875 C12.8135238,7.709875 12.8135238,7.702875 12.8352381,7.702875 C12.8569524,7.702875 12.8641905,7.713375 12.8641905,7.730875 C12.8641905,7.748375 12.8859048,7.748375 12.9112381,7.744875 C12.9365714,7.741375 12.9401905,7.758875 12.9510476,7.776375 C12.9619048,7.793875 12.9655238,7.790375 12.98,7.790375 C12.9944762,7.790375 13.0089524,7.790375 13.0198095,7.776375 C13.0306667,7.762375 13.0451429,7.744875 13.059619,7.765875 C13.0740952,7.786875 13.1030476,7.783375 13.1102857,7.758875 C13.1175238,7.734375 13.1500952,7.713375 13.1681905,7.741375 C13.1862857,7.769375 13.2007619,7.769375 13.2188571,7.772875 C13.2369524,7.776375 13.2622857,7.776375 13.2731429,7.793875 C13.284,7.811375 13.3201905,7.839375 13.2948571,7.860375 C13.2695238,7.881375 13.2405714,7.909375 13.2622857,7.916375 C13.284,7.923375 13.2984762,7.930375 13.3129524,7.947875 C13.3274286,7.965375 13.3744762,7.972375 13.3961905,7.975875 C13.4179048,7.979375 13.436,7.982875 13.4613333,7.961875 C13.4866667,7.940875 13.512,7.940875 13.508381,7.968875 C13.5047619,7.996875 13.5192381,8.028375 13.5192381,8.028375 C13.5192381,8.028375 13.5373333,8.073875 13.5373333,8.091375 C13.5373333,8.108875 13.5337143,8.112375 13.5662857,8.133375 C13.5988571,8.154375 13.5952381,8.168375 13.6205714,8.147375 C13.6459048,8.126375 13.6531429,8.115875 13.6531429,8.098375 C13.6531429,8.080875 13.6531429,8.042375 13.6531429,8.042375 C13.6531429,8.042375 13.6893333,8.035375 13.7038095,8.024875 C13.7182857,8.014375 13.7761905,7.982875 13.7906667,7.996875 C13.8051429,8.010875 13.8232381,8.007375 13.8377143,8.000375 C13.8521905,7.993375 13.8811429,7.993375 13.895619,7.993375 C13.9100952,7.993375 13.9354286,7.996875 13.964381,7.972375 C13.9933333,7.947875 13.9933333,7.954875 14.0114286,7.972375 C14.0295238,7.989875 14.0295238,8.010875 14.0186667,8.024875 C14.0078095,8.038875 14.0186667,8.070375 14.044,8.070375 C14.0693333,8.070375 14.0765714,8.084375 14.0765714,8.101875 C14.0765714,8.119375 14.0801905,8.143875 14.0838095,8.157875 C14.0874286,8.171875 14.0874286,8.178875 14.1272381,8.189375 C14.1670476,8.199875 14.1598095,8.224375 14.1670476,8.241875 C14.1742857,8.259375 14.1742857,8.273375 14.1525714,8.273375 C14.1308571,8.273375 14.123619,8.283875 14.12,8.301375 C14.116381,8.318875 14.0838095,8.325875 14.0838095,8.325875 L14.0512381,8.318875 C14.0512381,8.318875 14.0295238,8.318875 14.0186667,8.332875 C14.0078095,8.346875 13.9860952,8.374875 14.0005714,8.399375 C14.0150476,8.423875 14.0150476,8.437875 14.0005714,8.448375 C13.9860952,8.458875 13.9788571,8.511375 13.964381,8.500875 C13.9499048,8.490375 13.9318095,8.504375 13.9173333,8.511375 C13.9028571,8.518375 13.9064762,8.567375 13.9354286,8.584875 C13.964381,8.602375 13.971619,8.626875 13.971619,8.626875 L14.0041905,8.679375 C14.0041905,8.679375 13.9933333,8.689875 13.9860952,8.707375 C13.9788571,8.724875 13.9571429,8.759875 13.9788571,8.766875 C14.0005714,8.773875 13.9897143,8.812375 13.968,8.812375 C13.9462857,8.812375 13.9209524,8.801875 13.9173333,8.829875 C13.9137143,8.857875 13.9028571,8.850875 13.8811429,8.847375 C13.8594286,8.843875 13.8051429,8.829875 13.7906667,8.857875 C13.7761905,8.885875 13.7725714,8.896375 13.7472381,8.892875 C13.7219048,8.889375 13.7327619,8.934875 13.74,8.952375 C13.7472381,8.969875 13.7725714,8.994375 13.7725714,8.994375 C13.7725714,8.994375 13.7942857,9.011875 13.7942857,9.046875 C13.7942857,9.081875 13.7798095,9.078375 13.7653333,9.053875 C13.7508571,9.029375 13.7219048,9.032875 13.7182857,9.060875 C13.7146667,9.088875 13.7110476,9.130875 13.6857143,9.130875 C13.660381,9.130875 13.6495238,9.137875 13.6386667,9.151875 C13.6278095,9.165875 13.6097143,9.190375 13.6097143,9.204375 C13.6097143,9.218375 13.6060952,9.232375 13.588,9.235875 C13.5699048,9.239375 13.5662857,9.277875 13.5662857,9.277875 C13.5662857,9.277875 13.5228571,9.284875 13.5192381,9.302375 C13.515619,9.319875 13.5228571,9.347875 13.4866667,9.351375 C13.4504762,9.354875 13.4287619,9.379375 13.4179048,9.396875 C13.4070476,9.414375 13.4034286,9.428375 13.4179048,9.445875 C13.432381,9.463375 13.4432381,9.519375 13.4613333,9.529875 C13.4794286,9.540375 13.4939048,9.543875 13.4902857,9.571875 C13.4866667,9.599875 13.4649524,9.620875 13.4939048,9.620875 C13.5228571,9.620875 13.5409524,9.627875 13.5300952,9.652375 C13.5192381,9.676875 13.5192381,9.680375 13.4975238,9.690875 C13.4758095,9.701375 13.4649524,9.701375 13.4649524,9.729375 C13.4649524,9.757375 13.4721905,9.757375 13.4540952,9.767875 C13.436,9.778375 13.436,9.792375 13.436,9.813375 C13.436,9.834375 13.4287619,9.827375 13.4070476,9.851875 C13.3853333,9.876375 13.356381,9.876375 13.3382857,9.869375 C13.3201905,9.862375 13.3165714,9.862375 13.3129524,9.841375 C13.3093333,9.820375 13.2767619,9.820375 13.2586667,9.823875 C13.2405714,9.827375 13.2152381,9.848375 13.2152381,9.848375 C13.2152381,9.848375 13.1826667,9.869375 13.1971429,9.886875 C13.211619,9.904375 13.204381,9.932375 13.1790476,9.928875 C13.1537143,9.925375 13.0958095,9.956875 13.0777143,9.925375 C13.059619,9.893875 13.0089524,9.872875 13.0017143,9.914875 C12.9944762,9.956875 13.0234286,9.953375 13.0198095,9.995375 C13.0161905,10.037375 13.0089524,10.037375 12.9944762,10.051375 C12.98,10.065375 12.98,10.075875 12.976381,10.093375 C12.9727619,10.110875 12.9691429,10.149375 12.9944762,10.163375 C13.0198095,10.177375 13.0306667,10.215875 13.0306667,10.236875 C13.0306667,10.257875 13.0306667,10.278875 13.056,10.278875 C13.0813333,10.278875 13.1030476,10.275375 13.1066667,10.250875 C13.1102857,10.226375 13.1609524,10.212375 13.1645714,10.261375 C13.1681905,10.310375 13.1681905,10.334875 13.1862857,10.355875 C13.204381,10.376875 13.2188571,10.404875 13.2333333,10.415375 C13.2478095,10.425875 13.2722381,10.515125 13.2722381,10.515125 C13.2369524,10.523 13.2279048,10.571125 13.2052857,10.58075 C13.192619,10.586 13.1790476,10.581625 13.1672857,10.590375 C13.1582381,10.597375 13.1582381,10.6105 13.1455714,10.616625 C13.1193333,10.628875 13.1238571,10.586 13.0921905,10.60175 C13.0632381,10.61575 13.0605238,10.65075 13.0189048,10.635875 C12.9971905,10.628 12.983619,10.53875 12.9772857,10.51775 C12.9736667,10.5055 12.9510476,10.46875 12.9438095,10.457375 C12.919381,10.418875 12.8705238,10.457375 12.8551429,10.446 C12.8307143,10.4285 12.8415714,10.39875 12.8044762,10.39525 C12.729381,10.39 12.7827619,10.443375 12.7510952,10.455625 C12.6904762,10.478375 12.6904762,10.396125 12.6452381,10.43375 C12.6280476,10.44775 12.672381,10.4565 12.6615238,10.481 C12.6524762,10.501125 12.6081429,10.53175 12.6108571,10.555375 C12.6144762,10.58775 12.6479524,10.597375 12.6579048,10.6245 C12.6850476,10.69625 12.6398095,10.746125 12.5719524,10.690125 C12.5339524,10.658625 12.5267143,10.6 12.4679048,10.604375 C12.4543333,10.60525 12.4498095,10.620125 12.4362381,10.621875 C12.4226667,10.62275 12.4118095,10.60875 12.3973333,10.613125 C12.375619,10.621 12.394619,10.63675 12.3900952,10.649875 C12.3900952,10.649875 12.3611429,10.67525 12.356619,10.68225 C12.3403333,10.705 12.3457619,10.725125 12.3222381,10.7435 C12.3023333,10.75925 12.2869524,10.749625 12.2652381,10.774125 C12.242619,10.7995 12.2408095,10.837125 12.2118571,10.861625 C12.197381,10.873875 12.1874286,10.824875 12.1693333,10.85725 C12.166619,10.861625 12.1639048,10.866 12.1620952,10.870375 C12.1575714,10.88 12.1566667,10.884375 12.1611905,10.894875 C12.1991905,10.971875 12.1195714,11.00075 12.0951429,11.055 C12.0842857,11.07775 12.1141429,11.09875 12.102381,11.11625 C12.0942381,11.129375 12.0589524,11.16525 12.0562381,11.173125 C12.0535238,11.181 12.0499048,11.1985 12.0435714,11.204625 C12.0372381,11.211625 12.0155238,11.208125 12.0137143,11.218625 C12.0119048,11.230875 12.0363333,11.2405 12.0426667,11.248375 C12.0508095,11.258 12.0390476,11.271125 12.0417619,11.27375 C12.0824762,11.316625 12.0580476,11.3035 12.0788571,11.341125 C12.0815714,11.346375 12.0942381,11.33675 12.0987619,11.35075 C12.1032857,11.363875 12.0888095,11.363 12.0942381,11.377875 C12.0951429,11.38225 12.1240952,11.421625 12.1240952,11.4225 C12.1259048,11.435625 12.0689048,11.46275 12.0562381,11.46275 C12.0218571,11.463625 12.0860952,11.388375 12.03,11.388375 C12.0055714,11.388375 12.0037619,11.447 11.9974286,11.453125 C11.9947143,11.45575 11.9720952,11.453125 11.9666667,11.453125 C11.9304762,11.453125 11.9069524,11.500375 11.8924762,11.50475 C11.8834286,11.50825 11.8635238,11.4995 11.8481429,11.502125 C11.8336667,11.50475 11.8164762,11.519625 11.8029048,11.519625 C11.7938571,11.519625 11.7893333,11.5135 11.7820952,11.509125 C11.7658095,11.4995 11.7359524,11.495125 11.7178571,11.489 C11.7079048,11.4855 11.6889048,11.502125 11.6825714,11.49775 C11.6708095,11.489875 11.6907143,11.468 11.6635714,11.45225 C11.6599524,11.4505 11.6400476,11.39975 11.6409524,11.397125 C11.65,11.363875 11.6599524,11.328 11.6554286,11.293 C11.65,11.257125 11.596619,11.2265 11.5821429,11.197625 C11.5712857,11.17575 11.5613333,11.118 11.5405238,11.103125 C11.5179048,11.087375 11.4970952,11.05675 11.4853333,11.033125 C11.4817143,11.026125 11.4925714,11.013875 11.4844286,11.001625 C11.475381,10.9885 11.4581905,10.98325 11.4536667,10.96575 C11.4500476,10.95175 11.4536667,10.90625 11.4382857,10.896625 C11.4210952,10.886125 11.3107143,10.872125 11.2835714,10.8695 C11.2690952,10.868625 11.2582381,10.868625 11.247381,10.85725 C11.2428571,10.852875 11.235619,10.8345 11.232,10.8345 C11.2211429,10.833625 11.2084762,10.83975 11.197619,10.840625 C11.1894762,10.8415 11.1759048,10.835375 11.1686667,10.840625 C11.133381,10.866 11.1243333,10.898375 11.0908571,10.9255 C11.0564762,10.952625 11.0184762,10.95175 10.9840952,10.98325 C10.962381,11.003375 10.9479048,11.0515 10.9261905,11.07425 C10.9171429,11.083875 10.9026667,11.07425 10.8990476,11.078625 C10.8809524,11.10225 10.855619,11.11625 10.8375238,11.138125 C10.8339048,11.1425 10.8348095,11.15125 10.8302857,11.15475 L10.791381,11.16525 C10.7814286,11.167 10.7624286,11.164375 10.7542857,11.167 C10.7361905,11.173125 10.7370952,11.19325 10.6755714,11.206375 C10.6710476,11.20725 10.6629048,11.211625 10.6592857,11.21425 C10.6520476,11.2195 10.646619,11.227375 10.639381,11.232625 C10.6348571,11.236125 10.6212857,11.23 10.6131429,11.230875 C10.5977619,11.2335 10.5887143,11.2475 10.5742381,11.24925 C10.5416667,11.253625 10.4891905,11.2335 10.4638571,11.244 C10.4484762,11.250125 10.4059524,11.3 10.3905714,11.30525 C10.380619,11.30875 10.373381,11.304375 10.3625238,11.3 C10.3570952,11.307 10.3444286,11.36125 10.3399048,11.3735 C10.3399048,11.374375 10.2702381,11.435625 10.2648095,11.442625 C10.2557619,11.453125 10.2521429,11.4645 10.2412857,11.475875 C10.2340476,11.48375 10.2222857,11.49075 10.2105238,11.49075 C10.1960476,11.49075 10.1743333,11.479375 10.1607619,11.47675 C10.1345238,11.472375 10.0558095,11.468875 10.0322857,11.474125 C10.0078571,11.479375 10.0150952,11.552875 9.95447619,11.559875 C9.91919048,11.56425 9.88661905,11.57125 9.85042857,11.57475 C9.84680952,11.57475 9.82509524,11.559 9.80338095,11.565125 C9.7952381,11.56775 9.769,11.59575 9.769,11.6045 L9.769,11.62025 C9.769,11.622875 9.7762381,11.6325 9.77533333,11.633375 C9.7617619,11.65 9.731,11.67625 9.72104762,11.6955 C9.71833333,11.70075 9.71471429,11.706875 9.71019048,11.710375 C9.70204762,11.7165 9.66042857,11.733125 9.65680952,11.741 C9.64685714,11.76725 9.6857619,11.79175 9.68214286,11.80225 C9.67128571,11.836375 9.62785714,11.86875 9.61428571,11.90025 C9.60885714,11.913375 9.6287619,11.957125 9.62785714,11.972 C9.62333333,12.013125 9.6097619,12.065625 9.61157143,12.105875 C9.61157143,12.11375 9.617,12.154875 9.61971429,12.15925 C9.6242381,12.167125 9.63419048,12.1715 9.64052381,12.1785 C9.64685714,12.1855 9.69480952,12.2835 9.69661905,12.294 C9.70566667,12.366625 9.6052381,12.34125 9.66314286,12.413875 C9.67219048,12.42525 9.67942857,12.4375 9.68938095,12.447125 C9.70204762,12.46025 9.7762381,12.517125 9.77714286,12.52325 C9.77895238,12.53375 9.71742857,12.54425 9.70657143,12.555625 C9.67761905,12.585375 9.65319048,12.6405 9.62514286,12.671125 C9.60795238,12.690375 9.59257143,12.669375 9.56995238,12.714 C9.56180952,12.730625 9.56995238,12.76825 9.56,12.77875 C9.54552381,12.7945 9.5337619,12.7735 9.51928571,12.7805 C9.51295238,12.783125 9.50933333,12.802375 9.503,12.807625 C9.48671429,12.8225 9.34195238,12.903 9.32838095,12.896 C9.32114286,12.8925 9.313,12.867125 9.31209524,12.85925 C9.31028571,12.8505 9.3012381,12.83125 9.294,12.825125 C9.25690476,12.791875 9.19990476,12.78575 9.16371429,12.826 C9.15466667,12.8365 9.1537619,12.85225 9.142,12.86275 C9.12209524,12.88025 9.09947619,12.896 9.08047619,12.9135 C9.07685714,12.917 9.066,12.930125 9.06147619,12.92925 C9.047,12.9275 9.01171429,12.8855 9.00266667,12.874125 C8.98638095,12.854 8.93933333,12.805875 8.93480952,12.783125 C8.93480952,12.70525 8.87690476,12.623875 8.85247619,12.54775 L8.88866667,12.548625 C8.92938095,12.51975 8.91761905,12.448875 8.99090476,12.476875 C8.99995238,12.46375 8.99904762,12.44975 9.0162381,12.440125 C9.02257143,12.436625 9.03433333,12.433125 9.03795238,12.427 C9.06238095,12.387625 9.09133333,12.237125 9.066,12.198625 C9.04338095,12.163625 9.01985714,12.165375 9.0017619,12.107625 C8.99633333,12.091875 9.00628571,12.0735 9.0017619,12.056 C8.99814286,12.042 8.97371429,11.958875 8.97009524,11.95275 C8.96557143,11.94575 8.95019048,11.937 8.94928571,11.932625 C8.94838095,11.925625 8.94295238,11.8355 8.94566667,11.8285 C8.9212381,11.7585 8.83890476,11.713875 8.83438095,11.706 C8.82442857,11.689375 8.81447619,11.6675 8.80361905,11.649125 C8.79095238,11.62725 8.79095238,11.615875 8.78371429,11.594875 C8.781,11.58525 8.76742857,11.577375 8.76652381,11.566875 C8.76471429,11.5485 8.81447619,11.51 8.81266667,11.477625 C8.8117619,11.467125 8.781,11.435625 8.78733333,11.418125 C8.79366667,11.39975 8.82533333,11.358625 8.82442857,11.3385 C8.82261905,11.311375 8.77466667,11.25275 8.76833333,11.223875 C8.76561905,11.209875 8.78733333,11.1985 8.78190476,11.188875 C8.77557143,11.176625 8.72490476,11.1285 8.7167619,11.1145 C8.71042857,11.104 8.7357619,11.09 8.71766667,11.07075 C8.70138095,11.05325 8.71495238,11.059375 8.71042857,11.0445 C8.705,11.027875 8.68690476,11.013 8.67966667,10.9955 C8.67333333,10.980625 8.62990476,10.816125 8.63080952,10.8065 C8.62357143,10.795125 8.61090476,10.7855 8.60457143,10.774125 C8.5982381,10.76275 8.59552381,10.740875 8.59009524,10.732125 C8.58919048,10.73125 8.5412381,10.716375 8.53219048,10.7015 C8.52495238,10.68925 8.52314286,10.649 8.51047619,10.628875 C8.50414286,10.61925 8.49419048,10.621 8.48695238,10.614 C8.48061905,10.60875 8.48152381,10.599125 8.477,10.593 C8.46252381,10.572 8.43357143,10.59125 8.41366667,10.51425 C8.38742857,10.495 8.363,10.478375 8.34038095,10.45475 C8.33585714,10.450375 8.33314286,10.445125 8.32771429,10.4425 C8.30961905,10.434625 8.28247619,10.432 8.26709524,10.418 C8.25804762,10.418 8.21009524,10.41625 8.20466667,10.41275 C8.1992381,10.40925 8.19380952,10.387375 8.19019048,10.3865 C8.16485714,10.38125 8.1232381,10.383875 8.10152381,10.364625 C8.08433333,10.348875 8.08071429,10.27275 8.04995238,10.28325 C8.04633333,10.2815 8.04180952,10.27975 8.03728571,10.280625 C8.01738095,10.2535 7.94861905,10.25 7.92057143,10.2325 C7.91242857,10.22725 7.88619048,10.231625 7.88619048,10.22375 C7.89252381,10.208875 7.89071429,10.196625 7.89161905,10.18175 C7.8762381,10.166 7.86628571,10.147625 7.85542857,10.13625 C7.82919048,10.130125 7.83914286,10.1275 7.82285714,10.117 C7.77761905,10.1135 7.77309524,10.121375 7.74414286,10.149375 C7.73690476,10.156375 7.72242857,10.158125 7.71338095,10.163375 C7.698,10.172125 7.69347619,10.201 7.6717619,10.187875 C7.66452381,10.1835 7.66,10.1765 7.65457143,10.17125 C7.64190476,10.159875 7.63466667,10.166 7.62833333,10.145 C7.5912381,10.124 7.489,10.196625 7.46457143,10.145875 C7.44738095,10.13625 7.43471429,10.1485 7.4202381,10.13275 C7.413,10.124875 7.44014286,10.037375 7.36595238,10.0015 C7.38314286,9.9875 7.4012381,9.977875 7.41752381,9.96475 C7.42204762,9.955125 7.41661905,9.94025 7.41661905,9.930625 C7.41661905,9.91575 7.42566667,9.886875 7.42295238,9.876375 C7.4202381,9.865875 7.40938095,9.857125 7.4057619,9.844875 C7.4012381,9.832625 7.40666667,9.816875 7.40033333,9.80375 C7.39580952,9.80025 7.3822381,9.7915 7.37680952,9.7915 C7.35780952,9.774875 7.337,9.764375 7.32161905,9.74425 C7.318,9.739875 7.31528571,9.732 7.3107619,9.7285 C7.29719048,9.718 7.25285714,9.704 7.25466667,9.682125 C7.25557143,9.675125 7.26461905,9.67425 7.26733333,9.66725 C7.27004762,9.6585 7.2682381,9.647125 7.27457143,9.63925 C7.29538095,9.6095 7.34152381,9.622625 7.33428571,9.5675 C7.33066667,9.543 7.31438095,9.522 7.30985714,9.49575 C7.30171429,9.489625 7.30080952,9.479125 7.29357143,9.473 C7.24833333,9.468625 7.25466667,9.419625 7.23838095,9.40825 C7.19042857,9.374125 7.15333333,9.395125 7.20671429,9.32775 C7.21395238,9.305875 7.16057143,9.270875 7.14971429,9.258625 C7.13071429,9.239375 7.1397619,9.199125 7.13252381,9.178125 C7.12890476,9.167625 7.0972381,9.14925 7.08728571,9.134375 C7.08457143,9.13 7.07642857,9.10725 7.07190476,9.104625 L7.07280952,9.097625 C7.0827619,9.08975 7.07733333,9.074 7.07461905,9.0635 C7.06828571,9.057375 7.05471429,9.059125 7.05019048,9.05475 C7.0067619,9.013625 6.95428571,8.99525 6.89728571,8.971625 C6.88190476,8.9655 6.88642857,8.952375 6.8737619,8.94625 C6.86290476,8.941 6.786,8.905125 6.78057143,8.906875 C6.77152381,8.90425 6.76519048,8.868375 6.75885714,8.857 C6.75342857,8.8465 6.73171429,8.82725 6.73171429,8.826375 C6.73352381,8.793125 6.71361905,8.78875 6.68919048,8.77125 C6.691,8.766875 6.68647619,8.756375 6.68647619,8.751125 C6.68647619,8.74675 6.7027619,8.689 6.70547619,8.681125 C6.71,8.668875 6.72538095,8.6575 6.72266667,8.6435 C6.71904762,8.621625 6.71633333,8.5875 6.70909524,8.56825 C6.68466667,8.5 6.65571429,8.50875 6.67109524,8.4195 C6.67471429,8.401125 6.66838095,8.390625 6.68195238,8.374 C6.68014286,8.373125 6.68828571,8.364375 6.68919048,8.362625 C6.69733333,8.35475 6.71995238,8.341625 6.72447619,8.3355 C6.73804762,8.31625 6.74619048,8.2725 6.76338095,8.2585 C6.77604762,8.248 6.8122381,8.227875 6.81857143,8.219125 C6.824,8.212125 6.83214286,8.19025 6.82761905,8.1815 C6.81495238,8.173625 6.80228571,8.177125 6.78961905,8.175375 C6.78509524,8.1745 6.76880952,8.16225 6.75614286,8.159625 C6.75252381,8.15525 6.74619048,8.15 6.74619048,8.143875 L6.7407619,8.138625 C6.72628571,8.136875 6.71,8.12725 6.69733333,8.122875 C6.68104762,8.115875 6.65842857,8.115 6.64304762,8.105375 C6.61409524,8.087875 6.58152381,8.03975 6.55347619,8.03275 C6.51547619,8.024 6.49104762,8.03625 6.45485714,8.038 C6.43133333,8.03975 6.43133333,8.024875 6.41233333,8.01875 C6.387,8.010875 6.406,8.03275 6.34809524,8.0135 C6.34085714,8.007375 6.35171429,7.986375 6.35261905,7.9785 C6.34357143,7.975875 6.33271429,7.981125 6.32185714,7.9785 C6.27390476,7.96625 6.292,7.92075 6.27933333,7.891 C6.27390476,7.884 6.254,7.88575 6.24495238,7.884875 C6.2422381,7.884 6.24133333,7.879625 6.2422381,7.877875 L6.2467619,7.874375 C6.25490476,7.86125 6.22595238,7.828 6.22685714,7.823625 C6.22866667,7.813125 6.28747619,7.8035 6.29561905,7.802625 C6.29833333,7.79475 6.29019048,7.78775 6.28928571,7.779875 C6.28747619,7.762375 6.29833333,7.739625 6.3037619,7.723875 L6.30195238,7.718625 C6.28566667,7.709 6.2802381,7.695 6.2657619,7.683625 C6.26666667,7.67575 6.27661905,7.6705 6.27842857,7.662625 C6.30647619,7.58125 6.34990476,7.646 6.38790476,7.57075 C6.39152381,7.56375 6.40238095,7.545375 6.406,7.533125 L6.4132381,7.531375 C6.42047619,7.533125 6.43042857,7.53925 6.43766667,7.536625 C6.44309524,7.52875 6.45485714,7.526125 6.46390476,7.5235 L6.47747619,7.527 C6.54804762,7.51125 6.5317619,7.484125 6.57247619,7.4535 C6.58333333,7.445625 6.615,7.442125 6.62947619,7.436875 C6.64485714,7.443875 6.66657143,7.46925 6.69552381,7.480625 C6.71633333,7.489375 6.78780952,7.505125 6.79957143,7.512125 C6.81495238,7.520875 6.81766667,7.541875 6.8312381,7.54975 C6.87195238,7.5725 6.84842857,7.534 6.88733333,7.541875 C6.92714286,7.550625 6.95971429,7.58475 6.99680952,7.601375 C7.00314286,7.604 7.01852381,7.6005 7.0257619,7.59875 C7.03752381,7.596125 7.10085714,7.583875 7.10719048,7.5865 C7.11442857,7.589125 7.12528571,7.596125 7.13252381,7.597875 C7.14157143,7.599625 7.14880952,7.5795 7.15514286,7.580375 C7.18228571,7.58475 7.18319048,7.596125 7.21938095,7.592625 C7.22119048,7.592625 7.23838095,7.485875 7.25557143,7.480625 C7.26552381,7.478 7.29266667,7.506 7.30080952,7.50775 C7.31438095,7.51125 7.29990476,7.485875 7.299,7.484125 C7.29538095,7.475375 7.27638095,7.40975 7.27728571,7.403625 C7.27819048,7.400125 7.29538095,7.408875 7.30352381,7.40625 C7.32342857,7.39925 7.35057143,7.394 7.36504762,7.377375 C7.36685714,7.375625 7.39761905,7.32925 7.39852381,7.3275 C7.40033333,7.319625 7.39038095,7.30125 7.39490476,7.295125 C7.39942857,7.289875 7.41661905,7.282875 7.4247619,7.274125 C7.43652381,7.261875 7.43833333,7.240875 7.45461905,7.232125 C7.51885714,7.226 7.54147619,7.1735 7.59938095,7.1665 C7.603,7.1665 7.61566667,7.163875 7.61838095,7.16475 L7.63014286,7.184875 C7.6337619,7.190125 7.67266667,7.214625 7.679,7.212875 C7.68442857,7.212 7.68714286,7.202375 7.69257143,7.200625 C7.70433333,7.202375 7.73690476,7.181375 7.74052381,7.170875 C7.74142857,7.169125 7.73328571,7.158625 7.73690476,7.151625 C7.73961905,7.146375 7.78033333,7.114875 7.78666667,7.111375 C7.80114286,7.111375 7.81652381,7.107875 7.83009524,7.113125 C7.8382381,7.116625 7.83914286,7.12975 7.84819048,7.1315 C7.85814286,7.132375 7.8762381,7.128 7.88347619,7.12975 C7.89161905,7.1315 7.8952381,7.114 7.90519048,7.113125 L7.907,7.114875 Z" id="Shape" fill="#D0A650"></path>
                <g id="h" transform="translate(10.142857, 2.125000)" fill="#FFFFFF">
                    <g id="star-link" transform="translate(0.019881, 0.020650)">
                        <polygon id="star" points="0.833333333 0 1.33714926 1.6281153 0.0181420476 0.6218847 1.64852462 0.6218847 0.329517405 1.6281153"></polygon>
                    </g>
                    <g id="star-link" transform="translate(1.981738, 0.383900)">
                        <polygon id="star" points="0.833333333 0 1.33714926 1.6281153 0.0181420476 0.6218847 1.64852462 0.6218847 0.329517405 1.6281153"></polygon>
                    </g>
                    <g id="star-link" transform="translate(3.853738, 1.099300)">
                        <polygon id="star" points="0.833333333 0 1.33714926 1.6281153 0.0181420476 0.6218847 1.64852462 0.6218847 0.329517405 1.6281153"></polygon>
                    </g>
                </g>
                <g id="h-link" transform="translate(7.095238, 3.500000) scale(-1, 1) translate(-7.095238, -3.500000) translate(4.333333, 2.125000)" fill="#FFFFFF">
                    <g id="h">
                        <g id="star-link" transform="translate(0.019881, 0.020650)">
                            <polygon id="star" points="0.833333333 0 1.33714926 1.6281153 0.0181420476 0.6218847 1.64852462 0.6218847 0.329517405 1.6281153"></polygon>
                        </g>
                        <g id="star-link" transform="translate(1.981738, 0.383900)">
                            <polygon id="star" points="0.833333333 0 1.33714926 1.6281153 0.0181420476 0.6218847 1.64852462 0.6218847 0.329517405 1.6281153"></polygon>
                        </g>
                        <g id="star-link" transform="translate(3.853738, 1.099300)">
                            <polygon id="star" points="0.833333333 0 1.33714926 1.6281153 0.0181420476 0.6218847 1.64852462 0.6218847 0.329517405 1.6281153"></polygon>
                        </g>
                    </g>
                </g>
            </g>
        </g>
    </g>
</svg>