<?xml version="1.0" encoding="UTF-8"?>
<svg width="20px" height="14px" viewBox="0 0 20 14" version="1.1" xmlns="http://www.w3.org/2000/svg" xmlns:xlink="http://www.w3.org/1999/xlink">
    <!-- Generator: Sketch 50.2 (55047) - http://www.bohemiancoding.com/sketch -->
    <title>AO</title>
    <desc>Created with Sketch.</desc>
    <defs>
        <linearGradient x1="50%" y1="0%" x2="50%" y2="100%" id="linearGradient-1">
            <stop stop-color="#FFFFFF" offset="0%"></stop>
            <stop stop-color="#F0F0F0" offset="100%"></stop>
        </linearGradient>
        <rect id="path-2" x="0" y="0" width="20" height="14" rx="1"></rect>
        <linearGradient x1="50%" y1="0%" x2="50%" y2="100%" id="linearGradient-4">
            <stop stop-color="#FF323E" offset="0%"></stop>
            <stop stop-color="#FD0D1B" offset="100%"></stop>
        </linearGradient>
        <rect id="path-5" x="0" y="7.46666667" width="20" height="6.53333333"></rect>
        <filter x="-7.5%" y="-23.0%" width="115.0%" height="145.9%" filterUnits="objectBoundingBox" id="filter-6">
            <feMorphology radius="0.5" operator="dilate" in="SourceAlpha" result="shadowSpreadOuter1"></feMorphology>
            <feOffset dx="0" dy="0" in="shadowSpreadOuter1" result="shadowOffsetOuter1"></feOffset>
            <feColorMatrix values="0 0 0 0 0   0 0 0 0 0   0 0 0 0 0  0 0 0 0.06 0" type="matrix" in="shadowOffsetOuter1"></feColorMatrix>
        </filter>
        <rect id="path-7" x="0" y="0" width="20" height="7.46666667"></rect>
        <filter x="-7.5%" y="-20.1%" width="115.0%" height="140.2%" filterUnits="objectBoundingBox" id="filter-8">
            <feMorphology radius="0.5" operator="dilate" in="SourceAlpha" result="shadowSpreadOuter1"></feMorphology>
            <feOffset dx="0" dy="0" in="shadowSpreadOuter1" result="shadowOffsetOuter1"></feOffset>
            <feColorMatrix values="0 0 0 0 0   0 0 0 0 0   0 0 0 0 0  0 0 0 0.06 0" type="matrix" in="shadowOffsetOuter1"></feColorMatrix>
        </filter>
        <path d="M10.1243831,8.26434939 L8.7834761,7.38829014 C8.56465291,7.24532566 8.5055225,6.95558663 8.65140462,6.74113991 C8.79728675,6.52669319 9.09293881,6.46874538 9.311762,6.61170986 L10.7743139,7.56724377 C10.8387297,7.44696549 10.890663,7.31788468 10.9280423,7.18117333 C11.2003124,6.18536994 10.5972981,5.16180762 9.5811722,4.8949829 C9.32714072,4.82827673 9.17638715,4.57238615 9.24445468,4.3234353 C9.31252221,4.07448445 9.57363505,3.92674596 9.82766653,3.99345213 C11.3518554,4.39368921 12.2563768,5.92903268 11.8479716,7.42273777 C11.7829784,7.66044444 11.6886518,7.88277176 11.569831,8.08698162 L12.1689049,8.47837653 C12.387728,8.62134101 12.4468585,8.91108004 12.3009763,9.12552676 C12.1550942,9.33997348 11.8594421,9.39792128 11.640619,9.2549568 L10.9623693,8.81183368 C10.269767,9.400528 9.30094186,9.65268601 8.34870055,9.40263676 C8.09466908,9.33593058 7.94391551,9.08004 8.01198304,8.83108915 C8.08005057,8.58213831 8.34116341,8.43439981 8.59519488,8.50110599 C9.13739997,8.64348374 9.68767014,8.54162678 10.1243831,8.26434939 Z M9.04761905,6.06666667 C8.78462631,6.06666667 8.57142857,5.85773288 8.57142857,5.6 C8.57142857,5.34226712 8.78462631,5.13333333 9.04761905,5.13333333 C9.31061179,5.13333333 9.52380952,5.34226712 9.52380952,5.6 C9.52380952,5.85773288 9.31061179,6.06666667 9.04761905,6.06666667 Z" id="path-9"></path>
        <filter x="-11.4%" y="-9.1%" width="122.8%" height="136.2%" filterUnits="objectBoundingBox" id="filter-10">
            <feOffset dx="0" dy="1" in="SourceAlpha" result="shadowOffsetOuter1"></feOffset>
            <feColorMatrix values="0 0 0 0 0   0 0 0 0 0   0 0 0 0 0  0 0 0 0.06 0" type="matrix" in="shadowOffsetOuter1"></feColorMatrix>
        </filter>
    </defs>
    <g id="Page-1" stroke="none" stroke-width="1" fill="none" fill-rule="evenodd">
        <g id="Flags" transform="translate(-220.000000, -28.000000)">
            <g id="AO" transform="translate(220.000000, 28.000000)">
                <mask id="mask-3" fill="white">
                    <use xlink:href="#path-2"></use>
                </mask>
                <use id="Mask" fill="#FFFFFF" xlink:href="#path-2"></use>
                <rect id="Mask-Copy" fill="url(#linearGradient-4)" mask="url(#mask-3)" x="0" y="0" width="20" height="14"></rect>
                <g id="Rectangle-2" mask="url(#mask-3)">
                    <use fill="black" fill-opacity="1" filter="url(#filter-6)" xlink:href="#path-5"></use>
                    <use fill="#262626" fill-rule="evenodd" xlink:href="#path-5"></use>
                </g>
                <g id="Rectangle-2" mask="url(#mask-3)">
                    <use fill="black" fill-opacity="1" filter="url(#filter-8)" xlink:href="#path-7"></use>
                    <use fill="#DD2137" fill-rule="evenodd" xlink:href="#path-7"></use>
                </g>
                <g id="Shape" mask="url(#mask-3)" fill-rule="nonzero">
                    <use fill="black" fill-opacity="1" filter="url(#filter-10)" xlink:href="#path-9"></use>
                    <use fill="#F8D84B" fill-rule="evenodd" xlink:href="#path-9"></use>
                </g>
            </g>
        </g>
    </g>
</svg>