<?xml version="1.0" encoding="UTF-8"?>
<svg width="20px" height="14px" viewBox="0 0 20 14" version="1.1" xmlns="http://www.w3.org/2000/svg" xmlns:xlink="http://www.w3.org/1999/xlink">
    <!-- Generator: Sketch 50.2 (55047) - http://www.bohemiancoding.com/sketch -->
    <title>CNA</title>
    <desc>Created with Sketch.</desc>
    <defs>
        <rect id="path-1" x="0" y="0" width="20" height="14" rx="1"></rect>
    </defs>
    <g id="Page-1" stroke="none" stroke-width="1" fill="none" fill-rule="evenodd">
        <g id="Flags" transform="translate(-124.000000, -1180.000000)">
            <g id="CNA" transform="translate(124.000000, 1180.000000)">
                <mask id="mask-2" fill="white">
                    <use xlink:href="#path-1"></use>
                </mask>
                <use id="Mask" fill="#FFFFFF" xlink:href="#path-1"></use>
                <rect id="Mask-Copy" fill="#19BFBF" mask="url(#mask-2)" x="0" y="0" width="20" height="14"></rect>
                <path d="M9.67447917,10.5619792 C9.59126662,10.3988826 9.45759728,10.1368907 9.37313988,9.97135416 L9.19828869,9.62864583 C9.11507614,9.46554924 8.8969494,9.33333333 8.72209821,9.33333333 L8.8969494,9.33333333 C8.71716921,9.33333333 8.4690203,9.23297322 8.33786737,9.10444335 L6.90022786,7.69555663 C6.77123558,7.56914419 6.66666667,7.32083333 6.66666667,7.12971191 L6.66666667,6.87028808 C6.66666667,6.68419311 6.56474522,6.43345031 6.42634074,6.29781392 L5.95461164,5.8355194 C5.8218833,5.70544562 5.67691985,5.45352579 5.63133966,5.27485147 L5.32104129,4.05848185 C5.27523145,3.87890728 5.09589559,3.68688144 4.92104894,3.62976487 L4.12657011,3.37023512 C3.95147027,3.31303584 3.67709932,3.20177866 3.50818452,3.11901041 L3.15848214,2.94765624 C2.99205705,2.86610795 2.85714286,2.65416666 2.85714286,2.46304524 L2.85714286,2.20362141 C2.85714286,2.01752644 3.00595238,1.86666666 3.1902395,1.86666666 L3.47642717,1.86666666 C3.66039136,1.86666666 3.91996838,1.97490234 4.04761905,2.09999999 L4.04761905,2.09999999 C4.17911542,2.22886643 4.43452381,2.33333333 4.61881093,2.33333333 L4.9049986,2.33333333 C5.08896279,2.33333333 5.34853981,2.22509765 5.47619048,2.09999999 L5.47619048,2.09999999 C5.60768685,1.97113355 5.86374919,1.86666666 6.04606992,1.86666666 L7.28726342,1.86666666 C7.47050277,1.86666666 7.75147211,1.93155466 7.9203869,2.01432291 L8.27008929,2.18567708 C8.43651438,2.26722537 8.7202381,2.33333333 8.90452521,2.33333333 L9.19071288,2.33333333 C9.37467708,2.33333333 9.65623401,2.26844533 9.82514881,2.18567708 L10.1748512,2.01432291 C10.3412763,1.93277461 10.6256539,1.86666666 10.8079747,1.86666666 L12.0491682,1.86666666 C12.2324075,1.86666666 12.3809524,2.01249999 12.3809524,2.20362141 L12.3809524,2.46304524 C12.3809524,2.64914021 12.2321429,2.79999999 12.0478557,2.8 L11.7616681,2.8 C11.5777039,2.8 11.4285714,2.94982452 11.4285714,3.12470703 L11.4285714,3.87529297 C11.4285714,4.05462371 11.5609959,4.264888 11.7299107,4.34765625 L12.0796131,4.51901042 C12.2460382,4.60055871 12.3809524,4.51684214 12.3809524,4.34195964 L12.3809524,3.5913737 C12.3809524,3.41204296 12.5338345,3.26666667 12.7122861,3.26666667 L13.4781901,3.26666667 C13.6611807,3.26666667 13.8095238,3.41432292 13.8095238,3.60581462 L13.8095238,3.39418538 C13.8095238,3.58149162 13.962406,3.73333333 14.1408575,3.73333333 L14.9067615,3.73333333 C15.0897521,3.73333333 15.2380952,3.87916667 15.2380952,4.07028809 L15.2380952,4.32971191 C15.2380952,4.51580689 15.1871345,4.81649119 15.1276507,4.9913737 L14.8723493,5.74195963 C14.8113525,5.92129037 14.6498072,6.17652231 14.5260052,6.29784819 L13.5692328,7.23548514 C13.4389491,7.36316317 13.2671211,7.59644267 13.1826637,7.76197916 L13.0078125,8.1046875 C12.9246,8.26778408 12.8571429,8.54583333 12.8571429,8.73695475 L12.8571429,8.99637858 C12.8571429,9.18247355 12.7064732,9.33333333 12.531622,9.33333333 L12.7064732,9.33333333 C12.526693,9.33333333 12.3147401,9.20355733 12.2302827,9.03802083 L12.0554315,8.6953125 C11.972219,8.53221591 11.7518797,8.4 11.5734282,8.4 L10.8075242,8.4 C10.6245336,8.4 10.4099782,8.529776 10.3255208,8.6953125 L10.1506696,9.03802083 C10.0674571,9.20111742 10.0662122,9.46310933 10.1506696,9.62864583 L10.3255208,9.97135416 C10.4087334,10.1344508 10.625,10.2666667 10.8092871,10.2666667 L11.0954748,10.2666667 C11.279439,10.2666667 11.5304929,10.3665497 11.6688974,10.5021861 L12.1406265,10.9644806 C12.2733548,11.0945544 12.3809524,11.3458333 12.3809524,11.5369547 L12.3809524,11.7963786 C12.3809524,11.9824736 12.2321429,12.1333333 12.0478557,12.1333333 L11.7616681,12.1333333 C11.5777039,12.1333333 11.3623592,12.0035573 11.2779018,11.8380208 L11.1030506,11.4953125 C11.019838,11.3322159 10.8035714,11.2 10.6192843,11.2 L10.3330966,11.2 C10.1491324,11.2 9.93378775,11.070224 9.84933036,10.9046875 L9.67447917,10.5619792 Z" id="Rectangle-1064" fill="#FFFFFF" mask="url(#mask-2)"></path>
            </g>
        </g>
    </g>
</svg>