<?xml version="1.0" encoding="UTF-8"?>
<svg width="20px" height="14px" viewBox="0 0 20 14" version="1.1" xmlns="http://www.w3.org/2000/svg" xmlns:xlink="http://www.w3.org/1999/xlink">
    <!-- Generator: Sketch 50.2 (55047) - http://www.bohemiancoding.com/sketch -->
    <title>SA</title>
    <desc>Created with Sketch.</desc>
    <defs>
        <linearGradient x1="50%" y1="0%" x2="50%" y2="100%" id="linearGradient-1">
            <stop stop-color="#FFFFFF" offset="0%"></stop>
            <stop stop-color="#F0F0F0" offset="100%"></stop>
        </linearGradient>
        <rect id="path-2" x="0" y="0" width="20" height="14" rx="1"></rect>
    </defs>
    <g id="Page-1" stroke="none" stroke-width="1" fill="none" fill-rule="evenodd">
        <g id="Flags" transform="translate(-220.000000, -508.000000)">
            <g id="SA" transform="translate(220.000000, 508.000000)">
                <mask id="mask-3" fill="white">
                    <use xlink:href="#path-2"></use>
                </mask>
                <use id="Mask" fill="#FFFFFF" xlink:href="#path-2"></use>
                <rect id="Mask-Copy" fill="#128C4B" mask="url(#mask-3)" x="0" y="0" width="20" height="14"></rect>
                <path d="M4.76190476,8.4 L12.3809524,8.4 L12.3809524,7.66719818 C12.3809524,7.2987148 12.6411947,7.12751872 12.9787018,7.29289722 L13.3333333,7.46666667 L13.3333333,8.4 L14.571902,8.4 C14.9398303,8.4 15.2380952,8.69166667 15.2380952,9.07390951 L15.2380952,8.92991867 C15.2380952,9.6681842 14.6321687,10.2666667 13.9098967,10.2666667 L13.0436198,10.2666667 C12.6776387,10.2666667 12.3809524,9.97135417 12.3809524,9.60831604 L12.3809524,9.33333333 L6.37788409,9.33333333 C6.01138883,9.33333333 5.50292151,9.12619642 5.23809524,8.86666667 L4.76190476,8.4 Z" id="Rectangle-455" fill="#FFFFFF" mask="url(#mask-3)"></path>
                <path d="M4.76190476,5.93695475 C4.76190476,5.75085978 4.87234933,5.49176432 5,5.36666667 L5,5.36666667 C5.13149637,5.23780023 5.12765067,5.02509766 5,4.9 L5,4.9 C4.86850363,4.77113356 4.76190476,4.52083333 4.76190476,4.32971191 L4.76190476,4.07028809 C4.76190476,3.88419311 4.91071429,3.73333333 5.0950014,3.73333333 L5.38118907,3.73333333 C5.56515327,3.73333333 5.71428571,3.87916667 5.71428571,4.07028809 L5.71428571,4.32971191 C5.71428571,4.51580689 5.78049796,4.53689067 5.86495536,4.37135417 L6.03980655,4.02864583 C6.12301909,3.86554924 6.34335836,3.73333333 6.5218099,3.73333333 L7.28771391,3.73333333 C7.47070447,3.73333333 7.61904762,3.88098958 7.61904762,4.07248128 L7.61904762,3.86085205 C7.61904762,4.04815829 7.4702381,4.2 7.28595098,4.2 L6.99976331,4.2 C6.81579911,4.2 6.66666667,4.34765625 6.66666667,4.53914795 L6.66666667,4.32751872 C6.66666667,4.51482496 6.81547619,4.66666667 6.99976331,4.66666667 L7.28595098,4.66666667 C7.46991517,4.66666667 7.61904762,4.81314087 7.61904762,4.99181519 L7.61904762,6.20818481 C7.61904762,6.38775938 7.4702381,6.53333333 7.28595098,6.53333333 L6.99976331,6.53333333 C6.81579911,6.53333333 6.66666667,6.3875 6.66666667,6.19637858 L6.66666667,5.93695475 C6.66666667,5.75085978 6.81733631,5.6 6.9921875,5.6 L6.81733631,5.6 C6.9971165,5.6 7.14285714,5.45234375 7.14285714,5.26085205 L7.14285714,5.47248128 C7.14285714,5.28517504 6.99404762,5.13333333 6.8097605,5.13333333 L6.52357283,5.13333333 C6.33960864,5.13333333 6.19047619,5.28315786 6.19047619,5.45804036 L6.19047619,6.2086263 C6.19047619,6.38795704 6.03980655,6.53333333 5.86495536,6.53333333 L6.03980655,6.53333333 C5.86002636,6.53333333 5.71428571,6.3875 5.71428571,6.19637858 L5.71428571,5.93695475 C5.71428571,5.75085978 5.56361607,5.6 5.38876488,5.6 L5.56361607,5.6 C5.38383588,5.6 5.23809524,5.74583333 5.23809524,5.93695475 L5.23809524,6.19637858 C5.23809524,6.38247355 5.0874256,6.53333333 4.9125744,6.53333333 L5.0874256,6.53333333 C4.9076454,6.53333333 4.76190476,6.3875 4.76190476,6.19637858 L4.76190476,5.93695475 Z" id="Rectangle-456" fill="#FFFFFF" mask="url(#mask-3)"></path>
                <path d="M12.3809524,5.93695475 C12.3809524,5.75085978 12.4913969,5.49176432 12.6190476,5.36666667 L12.6190476,5.36666667 C12.750544,5.23780023 12.7466983,5.02509766 12.6190476,4.9 L12.6190476,4.9 C12.4875513,4.77113356 12.3809524,4.52083333 12.3809524,4.32971191 L12.3809524,4.07028809 C12.3809524,3.88419311 12.5297619,3.73333333 12.714049,3.73333333 L13.0002367,3.73333333 C13.1842009,3.73333333 13.3333333,3.87916667 13.3333333,4.07028809 L13.3333333,4.32971191 C13.3333333,4.51580689 13.3995456,4.53689067 13.484003,4.37135417 L13.6588542,4.02864583 C13.7420667,3.86554924 13.962406,3.73333333 14.1408575,3.73333333 L14.9067615,3.73333333 C15.0897521,3.73333333 15.2380952,3.88098958 15.2380952,4.07248128 L15.2380952,3.86085205 C15.2380952,4.04815829 15.0892857,4.2 14.9049986,4.2 L14.6188109,4.2 C14.4348467,4.2 14.2857143,4.34765625 14.2857143,4.53914795 L14.2857143,4.32751872 C14.2857143,4.51482496 14.4345238,4.66666667 14.6188109,4.66666667 L14.9049986,4.66666667 C15.0889628,4.66666667 15.2380952,4.81314087 15.2380952,4.99181519 L15.2380952,6.20818481 C15.2380952,6.38775938 15.0892857,6.53333333 14.9049986,6.53333333 L14.6188109,6.53333333 C14.4348467,6.53333333 14.2857143,6.3875 14.2857143,6.19637858 L14.2857143,5.93695475 C14.2857143,5.75085978 14.4363839,5.6 14.6112351,5.6 L14.4363839,5.6 C14.6161641,5.6 14.7619048,5.45234375 14.7619048,5.26085205 L14.7619048,5.47248128 C14.7619048,5.28517504 14.6130952,5.13333333 14.4288081,5.13333333 L14.1426204,5.13333333 C13.9586563,5.13333333 13.8095238,5.28315786 13.8095238,5.45804036 L13.8095238,6.2086263 C13.8095238,6.38795704 13.6588542,6.53333333 13.484003,6.53333333 L13.6588542,6.53333333 C13.479074,6.53333333 13.3333333,6.3875 13.3333333,6.19637858 L13.3333333,5.93695475 C13.3333333,5.75085978 13.1826637,5.6 13.0078125,5.6 L13.1826637,5.6 C13.0028835,5.6 12.8571429,5.74583333 12.8571429,5.93695475 L12.8571429,6.19637858 C12.8571429,6.38247355 12.7064732,6.53333333 12.531622,6.53333333 L12.7064732,6.53333333 C12.526693,6.53333333 12.3809524,6.3875 12.3809524,6.19637858 L12.3809524,5.93695475 Z" id="Rectangle-456" fill="#FFFFFF" mask="url(#mask-3)"></path>
                <path d="M11.4285714,4.43114726 C11.4285714,4.56122104 11.3541667,4.73958333 11.2566557,4.83514404 L11.1242966,4.96485596 C11.0293502,5.05790344 11.0267857,5.20625 11.1242966,5.30181071 L11.2566557,5.43152262 C11.3516022,5.52457011 11.4285714,5.69988302 11.4285714,5.83551941 L11.4285714,6.29781392 C11.4285714,6.4278877 11.32665,6.53333333 11.1882455,6.53333333 L10.7165164,6.53333333 C10.5837881,6.53333333 10.4761905,6.43345032 10.4761905,6.29781392 L10.4761905,5.83551941 C10.4761905,5.70544563 10.4322452,5.68613281 10.3657459,5.81647135 L10.1104446,6.31686198 C10.0494477,6.43641581 9.8879024,6.53333333 9.76410048,6.53333333 L8.80732809,6.53333333 C8.67704438,6.53333333 8.57142857,6.42509766 8.57142857,6.3 L8.57142857,6.3 C8.57142857,6.17113356 8.67335002,6.06666667 8.8117545,6.06666667 L9.2834836,6.06666667 C9.41621194,6.06666667 9.52380952,5.95843099 9.52380952,5.83333333 L9.52380952,5.83333333 C9.52380952,5.70446689 9.42188808,5.6 9.2834836,5.6 L8.8117545,5.6 C8.67902615,5.6 8.57142857,5.49963989 8.57142857,5.37111003 L8.57142857,3.96222331 C8.57142857,3.83581087 8.67335002,3.73333333 8.8117545,3.73333333 L9.2834836,3.73333333 C9.41621194,3.73333333 9.52380952,3.83321635 9.52380952,3.96885274 L9.52380952,4.43114726 C9.52380952,4.56122104 9.41336496,4.66666667 9.28571429,4.66666667 L9.28571429,4.66666667 C9.15421792,4.66666667 9.04761905,4.77490234 9.04761905,4.9 L9.04761905,4.9 C9.04761905,5.02886644 9.14954049,5.13333333 9.28794498,5.13333333 L9.75967407,5.13333333 C9.89240242,5.13333333 10,5.02347768 10,4.90215181 L10,3.96451486 C10,3.83683683 10.1104446,3.73333333 10.2380952,3.73333333 L10.2380952,3.73333333 C10.3695916,3.73333333 10.4761905,3.83321635 10.4761905,3.96885274 L10.4761905,4.43114726 C10.4761905,4.56122104 10.586635,4.66666667 10.7142857,4.66666667 L10.7142857,4.66666667 C10.8457821,4.66666667 10.952381,4.56678365 10.952381,4.43114726 L10.952381,3.96885274 C10.952381,3.83877896 11.0628255,3.73333333 11.1904762,3.73333333 L11.1904762,3.73333333 C11.3219726,3.73333333 11.4285714,3.83321635 11.4285714,3.96885274 L11.4285714,4.43114726 L11.4285714,4.43114726 Z" id="Rectangle-456" fill="#FFFFFF" mask="url(#mask-3)"></path>
            </g>
        </g>
    </g>
</svg>