<?xml version="1.0" encoding="UTF-8"?>
<svg width="20px" height="14px" viewBox="0 0 20 14" version="1.1" xmlns="http://www.w3.org/2000/svg" xmlns:xlink="http://www.w3.org/1999/xlink">
    <!-- Generator: Sketch 50.2 (55047) - http://www.bohemiancoding.com/sketch -->
    <title>SC</title>
    <desc>Created with Sketch.</desc>
    <defs>
        <rect id="path-1" x="0" y="0" width="20" height="14" rx="1"></rect>
        <linearGradient x1="50%" y1="0%" x2="50%" y2="100%" id="linearGradient-3">
            <stop stop-color="#1DBE4F" offset="0%"></stop>
            <stop stop-color="#159B3F" offset="100%"></stop>
        </linearGradient>
    </defs>
    <g id="Page-1" stroke="none" stroke-width="1" fill="none" fill-rule="evenodd">
        <g id="Flags" transform="translate(-652.000000, -892.000000)">
            <g id="SC" transform="translate(652.000000, 892.000000)">
                <mask id="mask-2" fill="white">
                    <use xlink:href="#path-1"></use>
                </mask>
                <rect stroke="#F5F5F5" stroke-width="0.5" x="0.25" y="0.25" width="19.5" height="13.5" rx="1"></rect>
                <path d="M20,4.66666667 L0,14 L20,9.33333333 L20,14 L0,14 L0,0 L20,0 L20,4.66666667 Z" id="Combined-Shape" fill="url(#linearGradient-3)" mask="url(#mask-2)"></path>
                <polygon id="Rectangle-253" fill="#0858B4" mask="url(#mask-2)" points="0 0 6.66666667 0 0 14"></polygon>
                <polygon id="Rectangle-253" fill="#ED3535" mask="url(#mask-2)" points="13.3333333 0 20 0 20 4.66666667 0 14"></polygon>
                <polygon id="Rectangle-253" fill="#08964F" mask="url(#mask-2)" points="20 14 20 9.33333333 0 14"></polygon>
                <polygon id="Rectangle-253" fill="#FFDD67" mask="url(#mask-2)" points="6.66666667 0 13.3333333 0 0 14"></polygon>
            </g>
        </g>
    </g>
</svg>