<?xml version="1.0" encoding="utf-8"?>
<!-- Generator: Adobe Illustrator 21.1.0, SVG Export Plug-In . SVG Version: 6.00 Build 0)  -->
<svg version="1.1" id="Layer_1" xmlns="http://www.w3.org/2000/svg" xmlns:xlink="http://www.w3.org/1999/xlink" x="0px" y="0px"
	 viewBox="0 0 136 32" style="enable-background:new 0 0 136 32;" xml:space="preserve">
<style type="text/css">
	.st0{enable-background:new    ;}
	.st1{fill:#FFFFFF;}
	.st2{opacity:0.8;}
</style>
<title>Group 6</title>
<desc>Created with Sketch.</desc>
<g id="Group-8" transform="translate(829.000000, 533.000000)">
	<g id="Group-6" transform="translate(15.000000, 7.000000)">
		<g class="st0">
			<path class="st1" d="M-801.1-539.9c2.5,0,4,1.6,4,4.2c0,2.7-1.5,4.2-4,4.2h-2.7v-8.5H-801.1z M-803-532.2h1.9
				c2.1,0,3.2-1.3,3.2-3.5c0-2.2-1.2-3.5-3.2-3.5h-1.9V-532.2z"/>
			<path class="st1" d="M-795.3-534.5c0-1.9,1.1-3.1,2.8-3.1c1.7,0,2.8,1.2,2.8,3.1c0,1.9-1.1,3.1-2.8,3.1S-795.3-532.6-795.3-534.5
				z M-790.5-534.5c0-1.5-0.8-2.5-2-2.5s-2,0.9-2,2.5s0.8,2.5,2,2.5S-790.5-533-790.5-534.5z"/>
			<path class="st1" d="M-781.9-531.5h-0.8l-1.5-5.1h0l-1.5,5.1h-0.8l-1.7-6.1h0.8l1.4,5.2h0l1.5-5.2h0.8l1.5,5.2h0l1.4-5.2h0.8
				L-781.9-531.5z"/>
			<path class="st1" d="M-778.4-537.6h0.7v1.1h0c0.3-0.7,1-1.2,2-1.2c1.3,0,2.2,0.9,2.2,2.2v3.9h-0.8v-3.8c0-1.1-0.6-1.7-1.6-1.7
				c-1.1,0-1.8,0.8-1.8,1.9v3.6h-0.8V-537.6z"/>
			<path class="st1" d="M-771.2-539.9h0.8v8.5h-0.8V-539.9z"/>
			<path class="st1" d="M-768.3-534.5c0-1.9,1.1-3.1,2.8-3.1c1.7,0,2.8,1.2,2.8,3.1c0,1.9-1.1,3.1-2.8,3.1S-768.3-532.6-768.3-534.5
				z M-763.6-534.5c0-1.5-0.8-2.5-2-2.5s-2,0.9-2,2.5s0.8,2.5,2,2.5S-763.6-533-763.6-534.5z"/>
			<path class="st1" d="M-761-533.2c0-1,0.8-1.7,2.2-1.8l1.9-0.1v-0.5c0-0.9-0.6-1.4-1.5-1.4c-0.9,0-1.5,0.4-1.6,1.2h-0.8
				c0.1-1.1,1-1.9,2.4-1.9s2.3,0.8,2.3,2v4.2h-0.7v-1.2h0c-0.3,0.8-1.2,1.3-2.1,1.3C-760.2-531.4-761-532.1-761-533.2z
				 M-756.9-533.8v-0.7l-1.8,0.1c-1,0.1-1.5,0.5-1.5,1.2c0,0.7,0.6,1.1,1.4,1.1C-757.8-532-756.9-532.8-756.9-533.8z"/>
			<path class="st1" d="M-754.2-534.5c0-1.9,1.1-3.1,2.6-3.1c1,0,1.8,0.6,2.1,1.4h0v-3.6h0.8v8.5h-0.7v-1.3h0
				c-0.3,0.8-1.1,1.4-2.1,1.4C-753.1-531.4-754.2-532.6-754.2-534.5z M-753.4-534.5c0,1.5,0.8,2.5,1.9,2.5c1.2,0,2-1,2-2.5
				c0-1.5-0.8-2.5-2-2.5C-752.6-537-753.4-536-753.4-534.5z"/>
			<path class="st1" d="M-743.3-534.5c0-1.9,1.1-3.1,2.8-3.1c1.7,0,2.8,1.2,2.8,3.1c0,1.9-1.1,3.1-2.8,3.1S-743.3-532.6-743.3-534.5
				z M-738.5-534.5c0-1.5-0.8-2.5-2-2.5s-2,0.9-2,2.5s0.8,2.5,2,2.5S-738.5-533-738.5-534.5z"/>
			<path class="st1" d="M-735.7-537.6h0.7v1.1h0c0.3-0.7,1-1.2,2-1.2c1.3,0,2.2,0.9,2.2,2.2v3.9h-0.8v-3.8c0-1.1-0.6-1.7-1.6-1.7
				c-1.1,0-1.8,0.8-1.8,1.9v3.6h-0.8V-537.6z"/>
			<path class="st1" d="M-724-539.1v1.5h1.2v0.6h-1.2v3.9c0,0.6,0.2,0.9,0.8,0.9c0.1,0,0.4,0,0.4,0v0.7c-0.1,0-0.4,0-0.6,0
				c-1,0-1.4-0.4-1.4-1.5v-3.9h-0.9v-0.6h0.9v-1.5H-724z"/>
			<path class="st1" d="M-720.7-539.9h0.8v3.5h0c0.3-0.8,1-1.2,2-1.2c1.3,0,2.2,0.9,2.2,2.3v3.9h-0.8v-3.8c0-1.1-0.6-1.7-1.6-1.7
				c-1.1,0-1.8,0.8-1.8,1.9v3.6h-0.8V-539.9z"/>
			<path class="st1" d="M-708.5-533.2c-0.2,1.1-1.2,1.8-2.5,1.8c-1.7,0-2.8-1.2-2.8-3.1c0-1.9,1.1-3.2,2.7-3.2c1.6,0,2.6,1.2,2.6,3
				v0.3h-4.6v0c0,1.4,0.8,2.2,2,2.2c0.9,0,1.6-0.5,1.7-1.1H-708.5z M-713-534.9h3.8c0-1.2-0.8-2-1.9-2
				C-712.1-537-712.9-536.1-713-534.9z"/>
		</g>
		<g class="st0">
			<path class="st1" d="M-796.5-515.5h-5.6l-1.4,4h-1.8l5.2-14.1h1.7l5.2,14.1h-1.8L-796.5-515.5z M-801.6-517h4.6l-2.3-6.4h-0.1
				L-801.6-517z"/>
			<path class="st1" d="M-782.6-516.5c0,3.2-1.7,5.3-4.3,5.3c-1.5,0-2.6-0.7-3.2-1.8h0v5h-1.7v-13.5h1.6v1.7h0
				c0.6-1.1,1.8-1.9,3.3-1.9C-784.4-521.8-782.6-519.7-782.6-516.5z M-784.3-516.5c0-2.3-1.1-3.8-2.9-3.8c-1.7,0-2.9,1.5-2.9,3.8
				c0,2.3,1.2,3.8,2.9,3.8C-785.5-512.8-784.3-514.2-784.3-516.5z"/>
			<path class="st1" d="M-771.6-516.5c0,3.2-1.7,5.3-4.3,5.3c-1.5,0-2.6-0.7-3.2-1.8h0v5h-1.7v-13.5h1.6v1.7h0
				c0.6-1.1,1.8-1.9,3.3-1.9C-773.4-521.8-771.6-519.7-771.6-516.5z M-773.3-516.5c0-2.3-1.1-3.8-2.9-3.8c-1.7,0-2.9,1.5-2.9,3.8
				c0,2.3,1.2,3.8,2.9,3.8C-774.5-512.8-773.3-514.2-773.3-516.5z"/>
			<path class="st1" d="M-764.4-515.3c0.2,1.5,1.6,2.5,3.6,2.5c1.9,0,3.3-1,3.3-2.4c0-1.2-0.8-1.9-2.7-2.4l-1.8-0.5
				c-2.6-0.7-3.8-1.8-3.8-3.7c0-2.3,2.1-4,5-4c2.8,0,4.8,1.7,4.9,4h-1.8c-0.2-1.5-1.4-2.4-3.2-2.4c-1.8,0-3.1,0.9-3.1,2.3
				c0,1.1,0.8,1.7,2.7,2.2l1.5,0.4c2.9,0.7,4.1,1.9,4.1,3.9c0,2.6-2,4.2-5.3,4.2c-3,0-5.1-1.6-5.2-4.1H-764.4z"/>
			<path class="st1" d="M-751.7-524.1v2.5h2v1.4h-2v6c0,0.9,0.4,1.3,1.3,1.3c0.2,0,0.6,0,0.7,0v1.4c-0.2,0-0.7,0.1-1.1,0.1
				c-1.9,0-2.6-0.8-2.6-2.7v-6.1h-1.5v-1.4h1.5v-2.5H-751.7z"/>
			<path class="st1" d="M-748.7-516.5c0-3.2,1.9-5.3,4.7-5.3c2.8,0,4.7,2,4.7,5.3c0,3.2-1.9,5.3-4.7,5.3
				C-746.8-511.3-748.7-513.3-748.7-516.5z M-741-516.5c0-2.4-1.2-3.8-3-3.8s-3,1.4-3,3.8s1.2,3.8,3,3.8S-741-514.2-741-516.5z"/>
			<path class="st1" d="M-737.6-521.6h1.6v1.7h0c0.3-1.1,1.3-1.8,2.5-1.8c0.3,0,0.5,0,0.7,0.1v1.7c-0.1,0-0.5-0.1-0.9-0.1
				c-1.3,0-2.2,0.9-2.2,2.4v6.3h-1.7V-521.6z"/>
			<path class="st1" d="M-723.5-514.4c-0.3,1.8-2,3.1-4.2,3.1c-2.9,0-4.7-2-4.7-5.2c0-3.2,1.8-5.3,4.6-5.3c2.7,0,4.4,2,4.4,5.1v0.6
				h-7.3v0.1c0,1.9,1.1,3.2,3,3.2c1.3,0,2.2-0.7,2.5-1.6H-723.5z M-730.6-517.4h5.5c0-1.7-1.1-2.9-2.7-2.9
				C-729.4-520.3-730.5-519.1-730.6-517.4z"/>
		</g>
		<g id="logo" class="st2">
			<path class="st1" d="M-820.7-513.2c-1.3,1.8-2.6,3.6-4.7,3.7c-2.1,0-2.7-1.2-5.1-1.2c-2.4,0-3.1,1.2-5,1.2c-2,0.1-3.6-2-4.8-3.8
				c-2.6-3.7-4.7-10.5-1.9-15.1c1.3-2.3,3.7-3.7,6.3-3.8c2,0,3.9,1.3,5.1,1.3c1.2,0,3.5-1.6,5.9-1.4c1,0,3.8,0.4,5.6,3
				c-0.1,0.1-3.4,1.9-3.3,5.7c0,4.5,4.1,6,4.1,6.1C-818.6-517.4-819.2-515.3-820.7-513.2z M-829.5-537.2c1.1-1.3,3-2.2,4.5-2.3
				c0.2,1.8-0.5,3.5-1.6,4.8c-1.1,1.3-2.8,2.3-4.6,2.1C-831.4-534.3-830.5-536.1-829.5-537.2z"/>
		</g>
	</g>
</g>
</svg>
