<svg xmlns="http://www.w3.org/2000/svg" xmlns:xlink="http://www.w3.org/1999/xlink" width="13" height="14" viewBox="0 0 13 14"><defs><path id="wh05a" d="M779 337v-1h1v1z"/><path id="wh05b" d="M779 340v-1h1v1z"/><path id="wh05c" d="M782 337v-1h1v1z"/><path id="wh05d" d="M782 340v-1h1v1z"/><path id="wh05e" d="M785 337v-1h1v1z"/><path id="wh05f" d="M785 340v-1h1v1z"/><path id="wh05g" d="M776 332c0-1.1.9-2 2-2h9a2 2 0 0 1 2 2v9a2 2 0 0 1-2 2h-9a2 2 0 0 1-2-2z"/><path id="wh05h" d="M779 329.5a.5.5 0 0 1 1 0v2a.5.5 0 0 1-1 0z"/><path id="wh05i" d="M785 329.5a.5.5 0 0 1 1 0v2a.5.5 0 0 1-1 0z"/><path id="wh05q" d="M776 334h13"/><clipPath id="wh05j"><use fill="#fff" xlink:href="#wh05a"/></clipPath><clipPath id="wh05k"><use fill="#fff" xlink:href="#wh05b"/></clipPath><clipPath id="wh05l"><use fill="#fff" xlink:href="#wh05c"/></clipPath><clipPath id="wh05m"><use fill="#fff" xlink:href="#wh05d"/></clipPath><clipPath id="wh05n"><use fill="#fff" xlink:href="#wh05e"/></clipPath><clipPath id="wh05o"><use fill="#fff" xlink:href="#wh05f"/></clipPath><clipPath id="wh05p"><use fill="#fff" xlink:href="#wh05g"/></clipPath><clipPath id="wh05r"><use fill="#fff" xlink:href="#wh05h"/></clipPath><clipPath id="wh05s"><use fill="#fff" xlink:href="#wh05i"/></clipPath></defs><g><g opacity=".4" transform="translate(-776 -329)"><g opacity=".4"><use fill="#fff" fill-opacity="0" stroke="#000" stroke-miterlimit="50" stroke-width="2" clip-path="url(&quot;#wh05j&quot;)" xlink:href="#wh05a"/></g><g opacity=".4"><use fill="#fff" fill-opacity="0" stroke="#000" stroke-miterlimit="50" stroke-width="2" clip-path="url(&quot;#wh05k&quot;)" xlink:href="#wh05b"/></g><g opacity=".4"><use fill="#fff" fill-opacity="0" stroke="#000" stroke-miterlimit="50" stroke-width="2" clip-path="url(&quot;#wh05l&quot;)" xlink:href="#wh05c"/></g><g opacity=".4"><use fill="#fff" fill-opacity="0" stroke="#000" stroke-miterlimit="50" stroke-width="2" clip-path="url(&quot;#wh05m&quot;)" xlink:href="#wh05d"/></g><g opacity=".4"><use fill="#fff" fill-opacity="0" stroke="#000" stroke-miterlimit="50" stroke-width="2" clip-path="url(&quot;#wh05n&quot;)" xlink:href="#wh05e"/></g><g opacity=".4"><use fill="#fff" fill-opacity="0" stroke="#000" stroke-miterlimit="50" stroke-width="2" clip-path="url(&quot;#wh05o&quot;)" xlink:href="#wh05f"/></g><g opacity=".4"><use fill="#fff" fill-opacity="0" stroke="#000" stroke-miterlimit="50" stroke-width="2" clip-path="url(&quot;#wh05p&quot;)" xlink:href="#wh05g"/></g><g opacity=".4"><use fill="#fff" fill-opacity="0" stroke="#000" stroke-miterlimit="50" xlink:href="#wh05q"/></g><g opacity=".4"><use fill="#fff" fill-opacity="0" stroke="#000" stroke-miterlimit="50" stroke-width="2" clip-path="url(&quot;#wh05r&quot;)" xlink:href="#wh05h"/></g><g opacity=".4"><use fill="#fff" fill-opacity="0" stroke="#000" stroke-miterlimit="50" stroke-width="2" clip-path="url(&quot;#wh05s&quot;)" xlink:href="#wh05i"/></g></g></g></svg>