<svg xmlns="http://www.w3.org/2000/svg" xmlns:xlink="http://www.w3.org/1999/xlink" width="27" height="18" viewBox="0 0 27 18"><defs><path id="2i3ta" d="M924 80V27h53v53z"/><path id="2i3tc" d="M955.4 63h-16.8c-.89 0-1.6-.75-1.6-1.68V46.68c0-.93.71-1.68 1.6-1.68h16.76c.9 0 1.64.75 1.64 1.68v3.6l4.63-2.97c.7-.44 1.65-.25 2.11.43.17.25.26.53.26.83V59.4a1.54 1.54 0 0 1-2.39 1.24L957 57.6v3.72c0 .93-.71 1.68-1.6 1.68zm-16.8-17c-.33 0-.6.3-.6.68v14.64c0 .38.27.68.6.68h16.8c.34 0 .6-.3.6-.68v-5.58l6.16 4.06c.33.22.84-.03.84-.4V48.57c0-.1-.03-.19-.08-.27a.55.55 0 0 0-.75-.14L956 52.1v-5.42c0-.38-.29-.68-.64-.68z"/><clipPath id="2i3tb"><use xlink:href="#2i3ta"/></clipPath></defs><g><g transform="translate(-937 -45)"><g/><g clip-path="url(#2i3tb)"><use xlink:href="#2i3tc"/></g></g></g></svg>