<svg xmlns="http://www.w3.org/2000/svg" xmlns:xlink="http://www.w3.org/1999/xlink" width="17" height="12" viewBox="0 0 17 12"><defs><path id="qstua" d="M17 362v-24h24v24z"/><path id="qstuc" d="M36 344H23c-1.36 0-2 .7-2 2v8c0 1.3.64 2 2 2h13c1.36 0 2-.7 2-2v-8c0-1.3-.64-2-2-2zm1 10c0 .74-.19 1-1 1H23c-.81 0-1-.26-1-1v-4h12v-1H22v-3c0-.74.19-1 1-1h13c.81 0 1 .26 1 1z"/><clipPath id="qstub"><use xlink:href="#qstua"/></clipPath></defs><g><g opacity="1" fill="currentColor" transform="translate(-21 -344)"><g opacity="1" fill="currentColor"/><g clip-path="url(#qstub)" opacity="1" fill="currentColor"><use xlink:href="#qstuc"/></g></g></g></svg>