<svg xmlns="http://www.w3.org/2000/svg" xmlns:xlink="http://www.w3.org/1999/xlink" width="16" height="21" viewBox="0 0 16 21"><defs><path id="jvo1b" d="M31 476H21c-1.31 0-2 .62-2 2v3h1v-3c0-.83.24-1 1-1h10c.76 0 1 .17 1 1v17c0 .83-.24 1-1 1H21c-.76 0-1-.17-1-1v-3h-1v3c0 1.38.69 2 2 2h10c1.31 0 2-.62 2-2v-17c0-1.38-.69-2-2-2"/><path id="jvo1a" d="M17 482.88h9.97v7.24H17z"/><path id="jvo1d" d="M22.64 489.42l.7.7 3.54-3.53.09-.09-.09-.09-3.53-3.53-.7.7 2.4 2.42H17v1h8.05z"/><clipPath id="jvo1c"><use xlink:href="#jvo1a"/></clipPath></defs><g><g clip-path="url(#clip-25ED5FE6-6558-4BE7-9586-B9D5CF8901EE)" opacity=".5" transform="translate(-17 -476)"><g opacity=".5"><use xlink:href="#jvo1b"/></g><g opacity=".5"><g opacity=".5"/><g clip-path="url(#jvo1c)" opacity=".5"><use xlink:href="#jvo1d"/></g></g></g></g></svg>