<svg xmlns="http://www.w3.org/2000/svg" xmlns:xlink="http://www.w3.org/1999/xlink" width="15" height="24" viewBox="0 0 15 24"><defs><path id="pw8pa" d="M924 736v-53h53v53z"/><path id="pw8pc" d="M950.5 713.94c2.75 0 4.5-2.21 4.5-5v-7c0-2.79-1.75-4.94-4.5-4.94s-4.5 2.15-4.5 4.94v7c0 2.79 1.75 5 4.5 5zm-3.5-12c0-2.24 1.3-4 3.5-4s3.5 1.76 3.5 4v7c0 2.23-1.3 4-3.5 4s-3.5-1.77-3.5-4z"/><path id="pw8pd" d="M957.5 707a.5.5 0 0 0-.5.5v2.36a6.5 6.5 0 0 1-13 0v-2.36a.5.5 0 0 0-1 0v2.36c0 3.96 3.1 7.2 7 7.45V720h-2.5a.5.5 0 0 0 0 1h6a.5.5 0 0 0 0-1H951v-2.69c3.9-.26 7-3.5 7-7.45v-2.36a.5.5 0 0 0-.5-.5"/><clipPath id="pw8pb"><use xlink:href="#pw8pa" fill="currentColor"/></clipPath></defs><g><g transform="translate(-943 -697)"><g/><g clip-path="url(#pw8pb)"><g><use xlink:href="#pw8pc" fill="currentColor" /></g><g><use xlink:href="#pw8pd" fill="currentColor"/></g></g></g></g></svg>