<svg xmlns="http://www.w3.org/2000/svg" xmlns:xlink="http://www.w3.org/1999/xlink" width="21" height="21" viewBox="0 0 21 21"><defs><path id="2qw7a" d="M902.4 63.98c-.47 0-1.02-.05-1.63-.19-2.52-.56-5.34-2.3-8.37-5.2-2.9-3.06-4.65-5.87-5.2-8.4-.62-2.73.39-4.05.7-4.4.38-.38.7-.74.99-1.05.43-.46.77-.83 1.06-1.1.3-.3.53-.47.76-.58 1.2-.31 1.65.64 1.95 1.28l.19.38a106.13 106.13 0 0 1 1.45 3.07c.3.53.3 1.4-.29 1.98-.24.27-.57.5-.85.7l-.1.07.01.09c.02.14.1.44.38.96a15.8 15.8 0 0 0 2.4 3.18c1.13 1.06 2.35 2 3.34 2.57a4.75 4.75 0 0 0 1.28.53l.17-.23c.17-.22.35-.47.57-.68.48-.48 1.05-.58 1.62-.27.95.42 1.77.75 2.44 1.03l.92.39c.88.38 1.44.64 1.7 1.14l.04.1c.06.22.14.51-.04.91-.1.23-.28.46-.57.77-.28.29-.65.64-1.12 1.07l-1.05.97c-.26.25-1.1.91-2.75.91m-11.24-20c-.04 0-.07 0-.1.02-.05.03-.2.15-.42.36-.28.26-.6.62-1.01 1.06l-1 1.07c-.48.51-.86 1.7-.46 3.48.51 2.32 2.22 5.05 4.93 7.91 2.85 2.71 5.58 4.42 7.89 4.93 1.78.4 2.96.03 3.47-.46l1.06-.99c.45-.41.8-.74 1.07-1.02.21-.22.33-.38.4-.5.02-.05.02-.06 0-.16-.15-.2-.6-.4-1.2-.65l-.9-.38c-.68-.28-1.51-.63-2.5-1.07-.16-.08-.27-.12-.48.1-.17.16-.32.37-.47.56l-.28.36a.76.76 0 0 1-.51.26c-.17.02-.36 0-.58-.05a5.6 5.6 0 0 1-1.37-.6 19.8 19.8 0 0 1-3.55-2.73 16.9 16.9 0 0 1-2.59-3.42 4.31 4.31 0 0 1-.48-1.27c-.09-.58.12-.87.31-1l.2-.14c.24-.17.52-.37.7-.57.24-.24.25-.6.12-.84l-.81-1.71-.64-1.35a7.54 7.54 0 0 1-.2-.41c-.3-.62-.43-.79-.6-.79"/></defs><g><g clip-path="url(#clip-1E420B49-00BF-447B-93DF-429D96DBE554)" transform="translate(-887 -43)"><use xlink:href="#2qw7a"/></g></g></svg>