<svg xmlns="http://www.w3.org/2000/svg" xmlns:xlink="http://www.w3.org/1999/xlink" width="22" height="20" viewBox="0 0 22 20"><defs><path id="lequa" d="M36.1 207.97a9.38 9.38 0 0 1-9.64 9.08 10 10 0 0 1-5.58-1.62.46.46 0 0 0-.56 0c-1.47 1.32-2.77 1.84-3.94 1.6.46-.4.88-.84 1.26-1.31a7.5 7.5 0 0 0 1.01-2.06.46.46 0 0 0-.06-.42 8.66 8.66 0 0 1-1.77-5.24 9.38 9.38 0 0 1 9.64-9.09 9.38 9.38 0 0 1 9.64 9.06zm-20.23.02c0 1.8.52 3.57 1.48 5.1.1.17.22.33.33.5a6.22 6.22 0 0 1-.8 1.56c-.5.63-1.07 1.2-1.7 1.69a.45.45 0 0 0-.18.4c.02.16.12.3.26.36.51.26 1.08.4 1.66.4 1.41-.1 2.74-.68 3.75-1.66a10.9 10.9 0 0 0 5.78 1.63A10.3 10.3 0 0 0 37 208a10.3 10.3 0 0 0-10.55-10h-.26a10.3 10.3 0 0 0-10.32 10z"/></defs><g><g clip-path="url(#clip-2D492793-4358-4A00-80EA-41F5A1EC0AC3)" opacity=".5" transform="translate(-15 -198)"><use xlink:href="#lequa"/></g></g></svg>