<?xml version="1.0" encoding="UTF-8"?>
<svg width="14px" height="22px" viewBox="0 0 14 22" version="1.1" xmlns="http://www.w3.org/2000/svg" xmlns:xlink="http://www.w3.org/1999/xlink">
    <g id="Page-1" stroke="none" stroke-width="1" fill="none" fill-rule="evenodd">
        <g id="icon/enter-registration/gray-copy" transform="translate(-16.000000, -12.000000)" fill="currentColor" fill-rule="nonzero">
            <g id="Group" transform="translate(16.000000, 12.000000)">
                <path d="M7.5,18 L6.5,18 C6.5,15.8695179 7.21774977,14.0751434 8.64644661,12.6464466 C8.95267367,12.3402195 9.26642832,12.0545359 9.6647939,11.7120746 C9.71889226,11.665568 10.4089108,11.0806288 10.5958916,10.9163326 C11.9849423,9.695802 12.5,8.76869811 12.5,7 C12.5,3.96243388 10.0375661,1.5 7,1.5 C3.96243388,1.5 1.5,3.96243388 1.5,7 L0.5,7 C0.5,3.41014913 3.41014913,0.5 7,0.5 C10.5898509,0.5 13.5,3.41014913 13.5,7 C13.5,9.090978 12.8435858,10.2725236 11.2559603,11.6675378 C11.0610352,11.8388145 10.3648499,12.4289814 10.3166876,12.4703849 C9.93579148,12.7978284 9.63945022,13.0676566 9.35355339,13.3535534 C8.11558356,14.5915232 7.5,16.1304821 7.5,18 Z" id="Shape"></path>
                <circle id="Oval" cx="7" cy="21" r="1"></circle>
            </g>
        </g>
    </g>
</svg>