<svg xmlns="http://www.w3.org/2000/svg" xmlns:xlink="http://www.w3.org/1999/xlink" width="17" height="21" viewBox="0 0 17 21"><defs><path id="94d9a" d="M21 144c-1.31 0-2 .62-2 2v2h1v-2c0-.83.24-1 1-1h10c.76 0 1 .17 1 1v17c0 .83-.24 1-1 1H21c-.76 0-1-.17-1-1v-2h-1v2c0 1.38.69 2 2 2h10c1.31 0 2-.62 2-2v-17c0-1.38-.69-2-2-2z"/><path id="s94d9b" d="M19 158v-7h1v7z"/><path id="ss94d9c" d="M16 154h7v1h-7z"/></defs><g><g clip-path="url(#clip-28710908-EE37-413E-BC26-CD0D10CD810A)" transform="translate(-16 -144)"><use xlink:href="#94d9a"/></g><g clip-path="url(#clip-28710908-EE37-413E-BC26-CD0D10CD810A)" transform="translate(-16 -144)"><use xlink:href="#s94d9b"/></g><g clip-path="url(#clip-28710908-EE37-413E-BC26-CD0D10CD810A)" transform="translate(-16 -144)"><use xlink:href="#ss94d9c"/></g></g></svg>
