<?xml version="1.0" encoding="UTF-8"?>
<svg width="20px" height="14px" viewBox="0 0 20 14" version="1.1" xmlns="http://www.w3.org/2000/svg" xmlns:xlink="http://www.w3.org/1999/xlink">
    <!-- Generator: Sketch 50.2 (55047) - http://www.bohemiancoding.com/sketch -->
    <title>CEU</title>
    <desc>Created with Sketch.</desc>
    <defs>
        <rect id="path-1" x="0" y="0" width="20" height="14" rx="1"></rect>
    </defs>
    <g id="Page-1" stroke="none" stroke-width="1" fill="none" fill-rule="evenodd">
        <g id="Flags" transform="translate(-268.000000, -1180.000000)">
            <g id="CEU" transform="translate(268.000000, 1180.000000)">
                <mask id="mask-2" fill="white">
                    <use xlink:href="#path-1"></use>
                </mask>
                <use id="Mask" fill="#FFFFFF" xlink:href="#path-1"></use>
                <rect id="Mask-Copy" fill="#19BFBF" mask="url(#mask-2)" x="0" y="0" width="20" height="14"></rect>
                <path d="M12.6212783,12.3644806 C12.48855,12.4945544 12.2790309,12.500117 12.1406265,12.3644806 L11.6688974,11.9021861 C11.536169,11.7721123 11.3776107,11.5168421 11.3181269,11.3419596 L11.0628255,10.5913737 C11.0018287,10.412043 10.8017113,10.2666667 10.6268601,10.2666667 L10.8017113,10.2666667 C10.6219311,10.2666667 10.5135564,10.4131409 10.5591365,10.5918152 L10.8694349,11.8081848 C10.9152447,11.9877594 10.8419364,12.241569 10.7142857,12.3666667 C10.5827894,12.4955331 10.3657459,12.4917643 10.2380952,12.3666667 C10.1065989,12.2378002 10,11.9875 10,11.7963786 L10,11.5369547 C10,11.3508598 9.93378776,11.070224 9.84933037,10.9046875 L9.67447918,10.5619792 C9.59126663,10.3988826 9.37092737,10.2666667 9.19247583,10.2666667 L8.42657181,10.2666667 C8.24358126,10.2666667 7.96281361,10.3315547 7.79389882,10.4143229 L7.44419644,10.5856771 C7.27777135,10.6672254 7.09189643,10.8831579 7.03241258,11.0580404 L6.77711124,11.8086263 C6.71611439,11.987957 6.53424218,12.1982213 6.36532739,12.2809896 L6.01562501,12.4523437 C5.84919992,12.533892 5.58186123,12.535112 5.41294644,12.4523437 L5.06324406,12.2809896 C4.89681896,12.1994413 4.76190477,11.9868591 4.76190477,11.8081848 L4.76190477,10.5918152 C4.76190477,10.4122406 4.91478694,10.2666667 5.09323848,10.2666667 L5.85914249,10.2666667 C6.04213305,10.2666667 6.1904762,10.1208333 6.1904762,9.92971191 L6.1904762,9.67028808 C6.1904762,9.48419311 6.24143692,9.1835088 6.30092077,9.0086263 L6.55622211,8.25804036 C6.61721896,8.07870962 6.8154762,7.93333333 6.99976332,7.93333333 L7.28595099,7.93333333 C7.46991518,7.93333333 7.75147212,7.86844533 7.92038691,7.78567708 L8.27008929,7.61432291 C8.43651439,7.53277462 8.72023812,7.46666666 8.90452525,7.46666666 L9.19071295,7.46666666 C9.37467716,7.46666666 9.52380962,7.31901041 9.52380962,7.12751871 L9.52380962,7.33914794 C9.52380962,7.1518417 9.63425419,6.89176432 9.76190486,6.76666666 C9.89340122,6.63780022 10.0662123,6.66310933 10.1506697,6.82864583 L10.3255209,7.17135416 C10.4087334,7.33445075 10.6290726,7.46666666 10.8075242,7.46666666 L11.5734282,7.46666666 C11.7564187,7.46666666 11.9557226,7.31684214 12.0152065,7.14195963 L12.2705078,6.39137369 C12.3315047,6.21204295 12.5297619,6.06666666 12.714049,6.06666666 L13.0002367,6.06666666 C13.1842009,6.06666666 13.3333333,5.91901041 13.3333333,5.72751871 L13.3333333,5.93914794 C13.3333333,5.7518417 13.1845238,5.59999999 13.0002367,5.59999999 L12.714049,5.59999999 C12.5300848,5.59999999 12.3809524,5.45416666 12.3809524,5.26304524 L12.3809524,5.00362141 C12.3809524,4.81752644 12.4471646,4.53689066 12.531622,4.37135416 L12.7064732,4.02864583 C12.7896858,3.86554924 12.7466983,3.62509765 12.6190476,3.49999999 C12.4875513,3.37113355 12.279031,3.36654968 12.1406265,3.50218607 L11.6688974,3.96448059 C11.5361691,4.09455436 11.4285715,4.34583333 11.4285715,4.53695475 L11.4285715,4.79637858 C11.4285715,4.98247355 11.3776108,5.28315785 11.318127,5.45804036 L11.0628256,6.2086263 C11.0018288,6.38795704 10.8017114,6.53333333 10.6268602,6.53333333 L10.8017114,6.53333333 C10.6219312,6.53333333 10.365746,6.42509765 10.2380953,6.29999999 C10.106599,6.17113355 10.0000001,5.91901041 10,5.72751871 L10.0000001,5.93914794 C10,5.7518417 9.86757552,5.664888 9.69866072,5.74765624 L9.34895834,5.91901041 C9.18253325,6.00055871 8.93717451,5.95843098 8.80952386,5.83333333 C8.67802752,5.70446688 8.57142867,5.45416666 8.57142867,5.26304524 L8.57142867,5.00362141 C8.57142867,4.81752644 8.67335011,4.56678364 8.81175459,4.43114724 L9.28348368,3.96885271 C9.41621202,3.83877893 9.63590719,3.62347765 9.7597091,3.50215178 L10.7164814,2.56451485 C10.8467651,2.43683682 11.0945806,2.28688144 11.2694272,2.22976487 L12.063906,1.97023512 C12.2390058,1.91303584 12.5297618,1.86666666 12.714049,1.86666666 L13.0002367,1.86666666 C13.1842009,1.86666666 13.3995456,1.99644266 13.484003,2.16197916 L13.6588542,2.50468749 C13.7420667,2.66778409 13.8095238,2.94982452 13.8095238,3.12470703 L13.8095238,3.87529296 C13.8095238,4.05462371 13.9199684,4.30823567 14.0476191,4.43333333 C14.1791154,4.56219977 14.2347536,4.81649119 14.1752697,4.99137369 L13.9199684,5.74195963 C13.8589715,5.92129037 13.9413598,6.15279947 14.0849668,6.24662272 L14.9626523,6.82004394 C15.1147752,6.91943092 15.3705197,7.064888 15.5394345,7.14765624 L15.8891369,7.31901041 C16.055562,7.40055871 16.1025856,7.59586588 16.0068476,7.73660074 L15.4217239,8.59673258 C15.3203086,8.74581306 15.2380952,9.01649119 15.2380952,9.19137369 L15.2380952,9.94195963 C15.2380952,10.1212904 15.0958956,10.3131185 14.9210489,10.3702351 L14.1265701,10.6297649 C13.9514703,10.6869641 13.7433116,10.8631093 13.6588542,11.0286458 L13.484003,11.3713542 C13.4007904,11.5344508 13.2314119,11.7665497 13.0930074,11.9021861 L12.6212783,12.3644806 Z M8.0952381,12.1333333 C7.83224536,12.1333333 7.61904762,11.9243995 7.61904762,11.6666667 C7.61904762,11.4089338 7.83224536,11.2 8.0952381,11.2 C8.35823083,11.2 8.57142857,11.4089338 8.57142857,11.6666667 C8.57142857,11.9243995 8.35823083,12.1333333 8.0952381,12.1333333 Z M6.19047619,6.53333333 C5.92748345,6.53333333 5.71428571,6.32439955 5.71428571,6.06666667 C5.71428571,5.80893378 5.92748345,5.6 6.19047619,5.6 C6.45346893,5.6 6.66666667,5.80893378 6.66666667,6.06666667 C6.66666667,6.32439955 6.45346893,6.53333333 6.19047619,6.53333333 Z" id="Rectangle-1073" fill="#FFFFFF" mask="url(#mask-2)"></path>
                <path d="M6.9921875,6.36197917 C7.07540005,6.19888258 7.14285714,5.91901042 7.14285714,5.72751872 L7.14285714,5.93914795 C7.14285714,5.75184171 7.0766449,5.470224 6.9921875,5.3046875 L6.81733631,4.96197917 C6.73412376,4.79888258 6.81547619,4.66666667 6.99976331,4.66666667 L7.28595098,4.66666667 C7.46991517,4.66666667 7.61904762,4.81649119 7.61904762,4.9913737 L7.61904762,5.74195964 C7.61904762,5.92129038 7.68525986,6.19644267 7.76971726,6.36197917 L7.94456845,6.7046875 C8.027781,6.86778409 7.94235593,7 7.76390439,7 L6.99800037,7 C6.81500982,7 6.73287891,6.870224 6.81733631,6.7046875 L6.9921875,6.36197917 Z" id="Rectangle-1078" fill="#FFFFFF" mask="url(#mask-2)"></path>
            </g>
        </g>
    </g>
</svg>