<?xml version="1.0" encoding="UTF-8"?>
<svg width="20px" height="14px" viewBox="0 0 20 14" version="1.1" xmlns="http://www.w3.org/2000/svg" xmlns:xlink="http://www.w3.org/1999/xlink">
    <!-- Generator: Sketch 50.2 (55047) - http://www.bohemiancoding.com/sketch -->
    <title>FK</title>
    <desc>Created with Sketch.</desc>
    <defs>
        <rect id="path-1" x="0" y="0" width="20" height="14" rx="1"></rect>
        <path d="M0,3.26666667 L2.99629431e-17,1.3247791 C1.34148665e-17,0.593123805 0.603098529,0 1.32645596,0 L3.43544881,0 C4.1680302,0 4.76190476,0.590751171 4.76190476,1.3247791 L4.76190476,3.26666667 C4.76190476,5.6 2.38095238,6.53333333 2.38095238,6.53333333 C2.38095238,6.53333333 0,5.6 0,3.26666667 Z" id="path-3"></path>
        <path d="M0,3.26666667 L2.99629431e-17,1.3247791 C1.34148665e-17,0.593123805 0.603098529,0 1.32645596,0 L3.43544881,0 C4.1680302,0 4.76190476,0.590751171 4.76190476,1.3247791 L4.76190476,3.26666667 C4.76190476,5.6 2.38095238,6.53333333 2.38095238,6.53333333 C2.38095238,6.53333333 0,5.6 0,3.26666667 Z" id="path-5"></path>
    </defs>
    <g id="Page-1" stroke="none" stroke-width="1" fill="none" fill-rule="evenodd">
        <g id="Flags" transform="translate(-220.000000, -268.000000)">
            <g id="FK" transform="translate(220.000000, 268.000000)">
                <mask id="mask-2" fill="white">
                    <use xlink:href="#path-1"></use>
                </mask>
                <use id="Mask" fill="#FFFFFF" xlink:href="#path-1"></use>
                <rect id="Mask-Copy" fill="#07319C" mask="url(#mask-2)" x="0" y="0" width="20" height="14"></rect>
                <g id="Rectangle-1105" mask="url(#mask-2)">
                    <g transform="translate(12.380952, 3.733333)">
                        <g id="Rectangle-1238" stroke="none" stroke-width="1" fill="none" fill-rule="evenodd">
                            <mask id="mask-4" fill="white">
                                <use xlink:href="#path-3"></use>
                            </mask>
                            <use id="Mask" fill="#0072C4" xlink:href="#path-3"></use>
                            <path d="M1.09700521,2.75405267 C0.609014607,3.23709914 1.56538441,3.17583423 1.56538441,3.17583423 L2.24653673,2.96210461 C2.24653673,2.96210461 2.5527741,2.99841312 2.75948659,3.05948078 C2.8964191,3.09993382 3.27747173,3.26666671 3.27747173,3.26666671 C3.27747173,3.26666671 4.08226371,3.10921559 3.7992931,2.75405264 C3.51632249,2.3988897 1.58499581,2.27100621 1.09700521,2.75405267 Z" id="Path-66" fill="#005121" mask="url(#mask-4)"></path>
                            <g id="Group-2" mask="url(#mask-4)">
                                <g transform="translate(0.000000, 0.933333)" id="Group">
                                    <g transform="translate(0.761905, 0.000000)">
                                        <path d="M2.3642328,1.31893333 C2.38380952,1.31457778 2.42952381,1.31555556 2.44656085,1.33591111 C2.47333333,1.36773333 2.52814815,1.35715556 2.55492063,1.38782222 C2.5815873,1.41857778 2.61259259,1.44693333 2.61259259,1.49066667 C2.61259259,1.5344 2.60740741,1.64284444 2.60835979,1.66666667 C2.60973545,1.70337778 2.61619048,1.70906667 2.65470899,1.70808889 C2.70116402,1.70693333 2.76529101,1.70337778 2.76730159,1.62186667 C2.76867725,1.56506667 2.71100529,1.5296 2.69417989,1.32755556 C2.7194709,1.30631111 2.74201058,1.28737778 2.73354497,1.25911111 C2.72507937,1.23075556 2.78137566,1.21653333 2.7757672,1.17395556 C2.77005291,1.13146667 2.83195767,1.10542222 2.80666667,1.05822222 C2.78137566,1.01093333 2.83756614,1.00862222 2.81513228,0.970755556 C2.79259259,0.932977778 2.85164021,0.899822222 2.82634921,0.866844444 C2.8010582,0.833688889 2.86010582,0.803022222 2.82920635,0.762844444 C2.79820106,0.722666667 2.84603175,0.699022222 2.81513228,0.668266667 C2.83481481,0.6376 2.8178836,0.550133333 2.75597884,0.500533333 C2.69417989,0.450844444 2.60698413,0.424888889 2.5562963,0.405955556 C2.46201058,0.370755556 2.28624339,0.387022222 2.16243386,0.401244444 C2.03862434,0.415377778 1.80793651,0.4296 1.73756614,0.420177778 C1.66730159,0.410755556 1.50137566,0.401244444 1.37047619,0.422488889 C1.32571429,0.429777778 1.27481481,0.416622222 1.24814815,0.391822222 C1.22677249,0.372 1.21439153,0.374133333 1.19470899,0.375288889 C1.17502646,0.376444444 1.1637037,0.370488889 1.15386243,0.346844444 C1.13650794,0.305244444 1.09767196,0.333866667 1.07936508,0.281866667 C1.06708995,0.247111111 1.00328042,0.277155556 0.983703704,0.247644444 C0.963915344,0.218133333 0.94010582,0.214577778 0.886560847,0.218133333 C0.883809524,0.200355556 0.854285714,0.187377778 0.827513228,0.192088889 C0.831746032,0.162577778 0.802222222,0.138933333 0.753015873,0.140088889 C0.758624339,0.103466667 0.68973545,0.0751111111 0.654497354,0.0976 C0.632063492,0.0704 0.586984127,0.0762666667 0.575767196,0.0976 C0.551851852,0.0704 0.475873016,0.0786666667 0.457566138,0.108177778 C0.425291005,0.0904888889 0.362433862,0.133955556 0.367619048,0.202755556 C0.368994709,0.221688889 0.37026455,0.241333333 0.337989418,0.247644444 C0.277566138,0.259466667 0.242433862,0.3256 0.19026455,0.335022222 C0.138306878,0.344533333 0.0862433862,0.361066667 0.0764021164,0.389422222 C0.0665608466,0.417777778 0.0848677249,0.447377778 0.0651851852,0.461511111 C0.0455026455,0.475733333 0.0777777778,0.488711111 0.0876190476,0.495733333 C0.0974603175,0.502844444 0.112910053,0.514666667 0.115767196,0.5312 C0.11978836,0.554666667 0.159259259,0.561688889 0.20021164,0.535911111 C0.217037037,0.525333333 0.246560847,0.557244444 0.294391534,0.534755556 C0.342222222,0.512355556 0.41015873,0.524177778 0.398518519,0.5608 C0.392910053,0.578488889 0.405502646,0.597422222 0.421058201,0.615111111 C0.436507937,0.6328 0.45968254,0.686222222 0.446349206,0.716711111 C0.426666667,0.7616 0.466031746,0.786488889 0.456190476,0.826577778 C0.446349206,0.866844444 0.461798942,0.903466667 0.440740741,0.957777778 C0.41957672,1.01208889 0.419259259,1.08008889 0.450582011,1.09955556 C0.494179894,1.12675556 0.467830688,1.18062222 0.505396825,1.20355556 C0.536296296,1.2224 0.518095238,1.26853333 0.575767196,1.28266667 C0.633439153,1.29688889 0.59968254,1.33466667 0.66010582,1.34293333 C0.720634921,1.3512 0.741693122,1.39377778 0.804973545,1.38426667 C0.851640212,1.37733333 0.876190476,1.38844444 0.903386243,1.39893333 C0.908994709,1.4368 0.896507937,1.57573333 0.893650794,1.6112 C0.891111111,1.64257778 0.873968254,1.69262222 0.873968254,1.72346667 C0.873968254,1.74231111 0.913333333,1.74702222 0.958412698,1.74702222 C1.00328042,1.74702222 1.02306878,1.72933333 1.01174603,1.67973333 C1.0005291,1.63004444 0.997777778,1.50906667 1.00063492,1.43342222 C1.03968254,1.45182222 1.0768254,1.4776 1.07513228,1.50604444 C1.07227513,1.55208889 1.07301587,1.63475556 1.06518519,1.67733333 C1.05968254,1.70808889 1.06804233,1.75653333 1.07089947,1.78844444 C1.07375661,1.80017778 1.14962963,1.79902222 1.18063492,1.78844444 C1.21153439,1.77777778 1.21153439,1.74942222 1.20867725,1.62062222 C1.20730159,1.55688889 1.13830688,1.49173333 1.22560847,1.45991111 C1.26783069,1.44453333 1.32687831,1.40906667 1.34941799,1.37608889 C1.37185185,1.34293333 1.42116402,1.35591111 1.4562963,1.37253333 C1.49142857,1.38906667 1.54772487,1.41431111 1.58296296,1.4032 C1.62793651,1.38906667 1.6757672,1.42444444 1.71513228,1.4032 C1.75449735,1.38195556 1.80518519,1.41857778 1.83746032,1.39262222 C1.86984127,1.36657778 1.92613757,1.39137778 1.95005291,1.36657778 C1.97396825,1.34177778 2.07238095,1.3808 2.10761905,1.34773333 C2.14275132,1.31457778 2.19058201,1.35715556 2.22296296,1.33235556 C2.23142857,1.32577778 2.24148148,1.32435556 2.25248677,1.32515556 C2.25121693,1.38106667 2.2405291,1.47004444 2.2384127,1.49777778 C2.23587302,1.52924444 2.21873016,1.5792 2.21873016,1.60995556 C2.21873016,1.62888889 2.25809524,1.6336 2.30306878,1.6336 C2.34814815,1.6336 2.36783069,1.61591111 2.35661376,1.56631111 C2.34529101,1.51671111 2.36148148,1.39466667 2.3642328,1.31893333" id="Fill-41" fill="#A3A3A3"></path>
                                        <path d="M0.088042328,0.551909868 C0.106878307,0.534972605 0.0894179894,0.499752071 0.0988359788,0.465877545 C0.108253968,0.432115185 0.158095238,0.41237374 0.207936508,0.401157009 C0.257777778,0.389828111 0.291428571,0.310974495 0.349417989,0.296841415 C0.38031746,0.289326205 0.379047619,0.265883238 0.377671958,0.24333761 C0.372804233,0.161343309 0.432910053,0.109522014 0.463915344,0.130721635 C0.481375661,0.0953889332 0.554179894,0.0855182103 0.577037037,0.117934562 C0.587830688,0.0925847505 0.630899471,0.0855182103 0.652486772,0.117934562 C0.686137566,0.0912387429 0.752169312,0.125001102 0.746772487,0.168634184 C0.793968254,0.167288176 0.822222222,0.19544217 0.818201058,0.230662704 C0.843809524,0.225054339 0.872063492,0.240533427 0.874814815,0.261620881 C0.87047619,0.296280578 0.934497354,0.305141795 0.904867725,0.327575256 C0.878941799,0.347204535 0.854285714,0.339464991 0.824761905,0.312657005 C0.795238095,0.285736851 0.696719577,0.309628487 0.682645503,0.323088564 C0.668571429,0.336548641 0.653121693,0.342493508 0.641798942,0.332061949 C0.630582011,0.321630389 0.603915344,0.305141795 0.591216931,0.306712137 C0.578518519,0.308170312 0.551851852,0.308170312 0.536296296,0.276875634 C0.520846561,0.245580956 0.481481481,0.241094264 0.474497354,0.252983998 C0.467513228,0.264873732 0.48994709,0.308170312 0.512486772,0.324546739 C0.534920635,0.341035333 0.523703704,0.372330011 0.55047619,0.390164613 C0.567936508,0.40194218 0.551851852,0.44232241 0.542010582,0.466214046 C0.532169312,0.490105683 0.494179894,0.482590473 0.491322751,0.464755872 C0.488571429,0.44692127 0.478624339,0.434919368 0.456190476,0.461727354 C0.433650794,0.488647508 0.385925926,0.481132298 0.374603175,0.473729256 C0.363386243,0.466214046 0.332380952,0.452866137 0.311322751,0.460269179 C0.29015873,0.467784389 0.321164021,0.479674123 0.324021164,0.490105683 C0.326772487,0.500537242 0.29015873,0.505023934 0.269100529,0.505023934 C0.248042328,0.505023934 0.240952381,0.519830019 0.253650794,0.522858536 C0.266349206,0.525887053 0.315449735,0.52891557 0.335238095,0.516913669 C0.354920635,0.505023934 0.415343915,0.516913669 0.421058201,0.53934713 C0.426666667,0.561668424 0.385925926,0.570641808 0.361904762,0.567613291 C0.326560847,0.563238766 0.274708995,0.587018235 0.249417989,0.594421277 C0.224126984,0.601936487 0.156613757,0.582531543 0.12984127,0.591504927 C0.103174603,0.600366144 0.0768253968,0.565257778 0.088042328,0.551909868" id="Fill-43" fill="#A3A3A3"></path>
                                        <path d="M0.540529101,0.602133333 C0.515238095,0.611555556 0.523703704,0.639911111 0.546243386,0.651733333 C0.568783069,0.663555556 0.619365079,0.668266667 0.651746032,0.6624 C0.684021164,0.656444444 0.691111111,0.665955556 0.67005291,0.677777778 C0.648888889,0.689511111 0.702328042,0.691911111 0.698095238,0.710844444 C0.693968254,0.729688889 0.717777778,0.726133333 0.74031746,0.724977778 C0.762857143,0.723822222 0.792380952,0.7096 0.817671958,0.696622222 C0.842962963,0.683644444 0.861269841,0.693066667 0.837354497,0.715555556 C0.813544974,0.737955556 0.733333333,0.7664 0.67005291,0.762844444 C0.606666667,0.759288889 0.572910053,0.773422222 0.586984127,0.793511111 C0.601058201,0.8136 0.668571429,0.817155556 0.703703704,0.806488889 C0.738941799,0.795911111 0.733333333,0.814844444 0.706560847,0.827733333 C0.67978836,0.8408 0.641798942,0.841955556 0.60952381,0.8408 C0.577142857,0.839644444 0.548994709,0.866844444 0.591216931,0.882133333 C0.633439153,0.897511111 0.68973545,0.888088889 0.710793651,0.901066667 C0.731957672,0.914044444 0.796613757,0.893955556 0.797989418,0.916444444 C0.799365079,0.938844444 0.77968254,0.947111111 0.741693122,0.9448 C0.703703704,0.9424 0.714920635,0.9592 0.743174603,0.968355556 C0.768465608,0.976711111 0.813544974,0.976711111 0.837354497,0.974311111 C0.861269841,0.972 0.854285714,0.995555556 0.83037037,1.00382222 C0.806455026,1.01208889 0.729100529,1.02391111 0.691111111,1.02275556 C0.653121693,1.0216 0.671322751,1.04524444 0.720634921,1.04524444 C0.871111111,1.04524444 0.921798942,0.975466667 0.95978836,0.927022222 C0.978412698,0.903288889 1.01460317,0.8904 1.02306878,0.904622222 C1.03153439,0.918755556 1.03291005,0.922311111 1.01608466,0.934133333 C0.999153439,0.945955556 1.00328042,0.953066667 1.03428571,0.954222222 C1.06518519,0.955377778 1.11026455,0.947111111 1.13703704,0.940088889 C1.1637037,0.932977778 1.24243386,0.977688889 1.17777778,0.979022222 C1.06380952,0.981422222 0.923174603,1.0216 0.876825397,1.03813333 C0.83037037,1.05466667 0.752910053,1.08577778 0.705185185,1.08417778 C0.67005291,1.08302222 0.655873016,1.096 0.67005291,1.11137778 C0.684021164,1.12675556 0.729100529,1.12675556 0.754391534,1.11964444 C0.77968254,1.11253333 0.785291005,1.11964444 0.768465608,1.13377778 C0.751640212,1.148 0.709417989,1.15386667 0.67978836,1.15866667 C0.65037037,1.16337778 0.635767196,1.18186667 0.658730159,1.18933333 C0.702328042,1.20355556 0.662962963,1.21653333 0.693968254,1.22364444 C0.724867725,1.23075556 0.691111111,1.25315556 0.724867725,1.26026667 C0.758624339,1.26737778 0.778306878,1.26382222 0.803597884,1.24728889 C0.828994709,1.23075556 0.842962963,1.22124444 0.86973545,1.22364444 C0.896507937,1.22604444 0.914814815,1.21413333 0.93026455,1.19644444 C0.945714286,1.17875556 0.997777778,1.14684444 1.01460317,1.16222222 C1.03153439,1.1776 1.06666667,1.14915556 1.07375661,1.16453333 C1.08074074,1.17991111 1.11026455,1.17048889 1.1173545,1.19173333 C1.12507937,1.21537778 1.15809524,1.22008889 1.18063492,1.21182222 C1.20306878,1.20355556 1.22137566,1.18346667 1.22137566,1.15386667 C1.22137566,1.12435556 1.22984127,1.11253333 1.23830688,1.14444444 C1.24666667,1.17635556 1.27767196,1.18577778 1.29312169,1.17048889 C1.30857143,1.15511111 1.31417989,1.10195556 1.30296296,1.07715556 C1.29174603,1.05226667 1.29026455,1.02035556 1.3015873,1.01448889 C1.31280423,1.00862222 1.33957672,1.06293333 1.35079365,1.08657778 C1.3621164,1.11022222 1.39153439,1.10311111 1.39301587,1.07946667 C1.39439153,1.05582222 1.42116402,1.044 1.44084656,1.06177778 C1.4605291,1.07946667 1.44931217,1.13857778 1.45492063,1.16693333 C1.4605291,1.19528889 1.51534392,1.15982222 1.5210582,1.16924444 C1.52666667,1.17875556 1.54772487,1.18106667 1.55619048,1.16097778 C1.56465608,1.14088889 1.58433862,1.1232 1.59555556,1.13502222 C1.60687831,1.14684444 1.6237037,1.16693333 1.63068783,1.18933333 C1.63777778,1.21182222 1.66306878,1.22364444 1.67851852,1.2 C1.69396825,1.17635556 1.70529101,1.13031111 1.69968254,1.09831111 C1.69396825,1.06648889 1.70391534,1.0464 1.7178836,1.06293333 C1.73195767,1.07946667 1.73058201,1.12435556 1.73195767,1.16097778 C1.73343915,1.1976 1.77978836,1.19413333 1.77978836,1.13973333 C1.77978836,1.11493333 1.79386243,1.11022222 1.79809524,1.12435556 C1.80232804,1.13857778 1.80232804,1.16222222 1.80656085,1.1728 C1.81693122,1.19902222 1.85301587,1.18462222 1.85714286,1.16693333 C1.86137566,1.14915556 1.85439153,1.08533333 1.84592593,1.05706667 C1.83746032,1.02862222 1.85439153,1.00862222 1.86846561,1.02391111 C1.88253968,1.03928889 1.88529101,1.07946667 1.88814815,1.12435556 C1.89089947,1.16924444 1.92042328,1.17164444 1.93597884,1.15866667 C1.95142857,1.1456 1.95142857,1.10782222 1.94444444,1.08062222 C1.9373545,1.05351111 1.95989418,1.05351111 1.96973545,1.07004444 C1.97957672,1.08657778 1.99650794,1.07591111 1.99365079,1.06293333 C1.99089947,1.04995556 2.00486772,1.03813333 2.0189418,1.05582222 C2.03301587,1.0736 2.02878307,1.11377778 2.02179894,1.1456 C2.01470899,1.1776 2.05693122,1.17395556 2.07661376,1.14684444 C2.0962963,1.11964444 2.08645503,1.04524444 2.06962963,1.0216 C2.05269841,0.997955556 2.05417989,0.9672 2.06391534,0.940088889 C2.07386243,0.912888889 2.09216931,0.911644444 2.09354497,0.923555556 C2.09492063,0.935288889 2.10338624,0.955377778 2.11883598,0.970755556 C2.13428571,0.986133333 2.14275132,0.988533333 2.14550265,0.9648 C2.14835979,0.941244444 2.16243386,0.947111111 2.16804233,0.9648 C2.17375661,0.982577778 2.18349206,0.996711111 2.19756614,0.981422222 C2.21164021,0.966044444 2.22994709,0.977866667 2.21873016,1.00151111 C2.20740741,1.02515556 2.20740741,1.0464 2.21587302,1.07004444 C2.22433862,1.09368889 2.25386243,1.09013333 2.25671958,1.06293333 C2.26253968,1.0064 2.27079365,1.044 2.27777778,1.0688 C2.2847619,1.09368889 2.30592593,1.09244444 2.31015873,1.07831111 C2.31439153,1.06408889 2.31862434,1.06062222 2.31862434,1.07591111 C2.31862434,1.09128889 2.32560847,1.10426667 2.34391534,1.10426667 C2.36222222,1.10426667 2.35798942,1.0736 2.36634921,1.05466667 C2.37481481,1.03573333 2.39026455,1.06177778 2.41142857,1.10542222 C2.43248677,1.14915556 2.44793651,1.10782222 2.49724868,1.20711111 C2.5173545,1.24755556 2.54645503,1.21297778 2.54507937,1.19884444 C2.54359788,1.18462222 2.54783069,1.1752 2.57174603,1.1752 C2.59566138,1.1752 2.61534392,1.17048889 2.60698413,1.15511111 C2.59851852,1.13973333 2.60412698,1.11137778 2.60275132,1.07946667 C2.60137566,1.04755556 2.60550265,1.02986667 2.60973545,1.04755556 C2.61396825,1.06524444 2.62804233,1.09013333 2.65047619,1.10311111 C2.67301587,1.11608889 2.68846561,1.08062222 2.67015873,1.05822222 C2.65195767,1.03573333 2.62666667,0.982577778 2.62804233,0.937688889 C2.62910053,0.904622222 2.64486772,0.9152 2.64486772,0.938844444 C2.64486772,0.962488889 2.6589418,1.00506667 2.68010582,1.01448889 C2.70116402,1.02391111 2.70962963,0.980177778 2.69978836,0.957777778 C2.68994709,0.935288889 2.68433862,0.904622222 2.70539683,0.898666667 C2.72645503,0.8928 2.69978836,0.868 2.68148148,0.850222222 C2.6631746,0.832533333 2.65195767,0.814844444 2.68433862,0.816 C2.71661376,0.817155556 2.68994709,0.797066667 2.67439153,0.784088889 C2.6589418,0.771111111 2.63227513,0.745066667 2.67439153,0.748622222 C2.71661376,0.752177778 2.7026455,0.730933333 2.68571429,0.719111111 C2.66878307,0.707288889 2.6589418,0.6848 2.68846561,0.686044444 C2.71809524,0.6872 2.7362963,0.672977778 2.73354497,0.6624 C2.72275132,0.621422222 2.65195767,0.573777778 2.60835979,0.537155556 C2.5647619,0.500533333 2.49439153,0.463911111 2.45640212,0.457955556 C2.4184127,0.452 2.41703704,0.475733333 2.42687831,0.489866667 C2.43671958,0.504 2.45640212,0.513511111 2.45925926,0.499288889 C2.46201058,0.485155556 2.49153439,0.500533333 2.50560847,0.519377778 C2.51968254,0.538311111 2.56751323,0.561955556 2.59714286,0.5832 C2.62666667,0.604444444 2.55767196,0.593866667 2.52391534,0.565511111 C2.50465608,0.549244444 2.50698413,0.568977778 2.53238095,0.591466667 C2.55767196,0.613955556 2.52529101,0.623377778 2.49862434,0.604444444 C2.47185185,0.5856 2.40296296,0.532444444 2.35936508,0.498133333 C2.3157672,0.463911111 2.30867725,0.472177778 2.30730159,0.494577778 C2.30592593,0.517066667 2.32137566,0.532444444 2.34952381,0.551288889 C2.37767196,0.570222222 2.41280423,0.599733333 2.43957672,0.619822222 C2.46624339,0.639911111 2.44380952,0.652888889 2.42687831,0.638666667 C2.40994709,0.624533333 2.35238095,0.5856 2.31862434,0.5584 C2.2847619,0.5312 2.25386243,0.518222222 2.23280423,0.521777778 C2.21164021,0.525333333 2.21312169,0.545422222 2.2384127,0.566666667 C2.2637037,0.587911111 2.29470899,0.628088889 2.29470899,0.651733333 C2.29470899,0.675377778 2.27216931,0.691911111 2.26084656,0.649422222 C2.24962963,0.606844444 2.19619048,0.557244444 2.1568254,0.519377778 C2.11746032,0.4816 2.07798942,0.474488889 2.04846561,0.476888889 C2.0189418,0.4792 2.02031746,0.507555556 2.02031746,0.530044444 C2.02031746,0.552444444 2.00063492,0.539466667 1.99925926,0.522933333 C1.9978836,0.5064 1.97534392,0.492266667 1.9626455,0.493422222 C1.95005291,0.494577778 1.95428571,0.528888889 1.95005291,0.544266667 C1.94582011,0.559555556 1.92613757,0.573777778 1.92613757,0.538311111 C1.92613757,0.502844444 1.87968254,0.485155556 1.86,0.483911111 C1.84031746,0.482755556 1.82201058,0.489866667 1.83185185,0.505244444 C1.84169312,0.520533333 1.83746032,0.561955556 1.83047619,0.5856 C1.82338624,0.609155556 1.80232804,0.567822222 1.79809524,0.524088889 C1.79386243,0.480444444 1.72783069,0.449688889 1.68137566,0.462666667 C1.63492063,0.475733333 1.67015873,0.504 1.66169312,0.5312 C1.65322751,0.5584 1.6405291,0.5336 1.6362963,0.505244444 C1.63216931,0.476888889 1.60962963,0.459111111 1.57873016,0.466222222 C1.54772487,0.473333333 1.52666667,0.487466667 1.52804233,0.5064 C1.52941799,0.525333333 1.52941799,0.541866667 1.52243386,0.572533333 C1.51534392,0.603288889 1.50275132,0.587911111 1.50412698,0.567822222 C1.50560847,0.547733333 1.49851852,0.514666667 1.49142857,0.495733333 C1.48444444,0.476888889 1.47312169,0.494577778 1.47597884,0.518222222 C1.47883598,0.541866667 1.47174603,0.596177778 1.4605291,0.629333333 C1.44931217,0.6624 1.43238095,0.663555556 1.44084656,0.618666667 C1.44931217,0.573777778 1.42814815,0.507555556 1.40708995,0.476888889 C1.39195767,0.454933333 1.3578836,0.447377778 1.3578836,0.478044444 C1.3578836,0.5088 1.36772487,0.5312 1.39301587,0.553688889 C1.41830688,0.576088889 1.39862434,0.631644444 1.37333333,0.661244444 C1.34793651,0.690755556 1.34941799,0.648177778 1.3578836,0.616266667 C1.36624339,0.584355556 1.31989418,0.573777778 1.3015873,0.567822222 C1.28328042,0.561955556 1.32126984,0.530044444 1.32973545,0.487466667 C1.33386243,0.466488889 1.32825397,0.453244444 1.31142857,0.452 C1.29449735,0.450844444 1.24952381,0.491022222 1.22984127,0.520533333 C1.23544974,0.489866667 1.22984127,0.462666667 1.21291005,0.462666667 C1.19608466,0.462666667 1.17777778,0.492266667 1.16518519,0.513511111 C1.15248677,0.534755556 1.13978836,0.522933333 1.15248677,0.500533333 C1.16518519,0.478044444 1.1847619,0.417777778 1.1594709,0.4048 C1.13417989,0.391822222 1.11164021,0.444977778 1.08497354,0.435466667 C1.06984127,0.430133333 1.09058201,0.396533333 1.09904762,0.381155556 C1.10740741,0.365777778 1.09058201,0.353955556 1.05259259,0.382311111 C1.01460317,0.410755556 0.997777778,0.4568 0.987830688,0.485155556 C0.978095238,0.513511111 0.910582011,0.559555556 0.873968254,0.584355556 C0.837354497,0.609155556 0.821904762,0.599733333 0.84021164,0.589066667 C0.858518519,0.578488889 0.895026455,0.545422222 0.913333333,0.532444444 C0.931640212,0.519377778 0.923174603,0.511733333 0.888042328,0.534133333 C0.852910053,0.556622222 0.788888889,0.597422222 0.723386243,0.611555556 C0.684973545,0.619911111 0.67978836,0.6128 0.717777778,0.602133333 C0.755767196,0.591466667 0.842962963,0.540622222 0.864126984,0.517066667 C0.877354497,0.502222222 0.842962963,0.514666667 0.826137566,0.518222222 C0.809312169,0.521777778 0.795238095,0.517066667 0.828994709,0.505244444 C0.862645503,0.493422222 0.96962963,0.400088889 0.992169312,0.365777778 C1.01460317,0.331555556 0.994920635,0.318488889 0.980846561,0.319733333 C0.966772487,0.320888889 0.947089947,0.329155556 0.951322751,0.315022222 C0.955555556,0.3008 0.945714286,0.281866667 0.927407407,0.287822222 C0.909100529,0.293688889 0.910582011,0.328 0.903492063,0.346844444 C0.896507937,0.365777778 0.857037037,0.390666667 0.831746032,0.390666667 C0.806455026,0.390666667 0.771322751,0.395377778 0.744550265,0.413066667 C0.717777778,0.430755556 0.705185185,0.414222222 0.717777778,0.400088889 C0.73047619,0.385866667 0.758624339,0.382311111 0.786772487,0.381155556 C0.814920635,0.38 0.845820106,0.376444444 0.86973545,0.353955556 C0.893650794,0.331555556 0.895026455,0.313777778 0.876825397,0.312622222 C0.858518519,0.311466667 0.827513228,0.291377778 0.817671958,0.283111111 C0.767724868,0.241066667 0.676190476,0.299644444 0.64042328,0.333866667 C0.620740741,0.3528 0.553227513,0.4072 0.532169312,0.421333333 C0.511005291,0.435466667 0.519470899,0.455555556 0.554603175,0.428444444 C0.58984127,0.401244444 0.601058201,0.420177778 0.568783069,0.440266667 C0.536296296,0.460355556 0.512486772,0.489866667 0.523703704,0.500533333 C0.534920635,0.511111111 0.578518519,0.498133333 0.602433862,0.485155556 C0.626349206,0.472177778 0.637671958,0.504 0.578518519,0.514666667 C0.538835979,0.521866667 0.524973545,0.535555556 0.556084656,0.537155556 C0.58,0.538311111 0.616507937,0.528888889 0.65037037,0.512355556 C0.684021164,0.495733333 0.710793651,0.505244444 0.682645503,0.521777778 C0.654497354,0.538311111 0.592592593,0.5608 0.561693122,0.5608 C0.535767196,0.5608 0.565925926,0.592711111 0.540529101,0.602133333 Z" id="Fill-44" fill="#FFFFFF"></path>
                                        <path d="M0.710854299,0.353934969 C0.758261706,0.304601636 0.79959504,0.283001636 0.842854299,0.318468303 C0.882113558,0.350601636 0.886261706,0.364601636 0.836928373,0.353934969 C0.787743188,0.343268303 0.754261706,0.353934969 0.724780225,0.385801636 C0.695150595,0.417801636 0.661669114,0.405268303 0.710854299,0.353934969" id="Fill-45" fill="#A3A3A3"></path>
                                        <path d="M0.149064829,0.455040494 C0.184472236,0.419573827 0.241509273,0.419573827 0.267138903,0.380640494 C0.292768532,0.341573827 0.320324088,0.355840494 0.288768532,0.393040494 C0.257361125,0.430240494 0.196324088,0.437440494 0.170694458,0.463973827 C0.145064829,0.49050716 0.131287051,0.472773827 0.149064829,0.455040494" id="Fill-46" fill="#A3A3A3"></path>
                                        <path d="M0.310826111,0.356720007 C0.332159444,0.353786674 0.373789074,0.328320007 0.399418704,0.298186674 C0.425048333,0.268053341 0.480159444,0.257386674 0.513492778,0.292853341 C0.546974259,0.328320007 0.564752037,0.340720007 0.582529815,0.347920007 C0.600159444,0.354986674 0.600159444,0.378053341 0.572603889,0.384986674 C0.545048333,0.392186674 0.507715,0.397520007 0.488011296,0.388586674 C0.468307592,0.379786674 0.438677963,0.372720007 0.415122407,0.378053341 C0.391418704,0.383253341 0.381640926,0.372720007 0.401344629,0.363786674 C0.421048333,0.354986674 0.444603889,0.328320007 0.456455741,0.317653341 C0.468307592,0.307120007 0.499715,0.315920007 0.48208537,0.326586674 C0.464307592,0.337253341 0.472159444,0.360186674 0.489937222,0.369120007 C0.507715,0.378053341 0.543122407,0.378053341 0.558826111,0.362053341 C0.535270555,0.338986674 0.495863148,0.308853341 0.480159444,0.300053341 C0.464307592,0.291120007 0.450529815,0.287520007 0.430826111,0.308853341 C0.411122407,0.330186674 0.363863148,0.381520007 0.318677963,0.379786674 C0.273344629,0.378053341 0.285196481,0.360186674 0.310826111,0.356720007" id="Fill-47" fill="#A3A3A3"></path>
                                        <path d="M1.20337704,0.557234001 C1.18589556,0.581634001 1.16989556,0.613100668 1.16796963,0.637900668 C1.16604371,0.662700668 1.18871037,0.679634001 1.19152519,0.648567335 C1.19448815,0.617500668 1.19745112,0.598967335 1.22204371,0.575900668 C1.24678445,0.552834001 1.22308074,0.529767335 1.20337704,0.557234001" id="Fill-48" fill="#A3A3A3"></path>
                                        <path d="M1.02411451,0.569256284 C1.04455895,0.560989617 1.07922562,0.541789617 1.09596636,0.524056284 C1.1127071,0.506456284 1.12352192,0.517922951 1.10678118,0.537389617 C1.09004044,0.556856284 1.05167007,0.579922951 1.03389229,0.585256284 C1.01626266,0.590589617 1.00248488,0.578189617 1.02411451,0.569256284" id="Fill-49" fill="#A3A3A3"></path>
                                        <path d="M1.1332048,0.625930402 C1.1049085,0.659962148 0.993352944,0.740851037 0.959871463,0.755962148 C0.926389981,0.771200243 0.938241833,0.793168497 0.975723315,0.781358973 C0.948167759,0.803200243 0.886982574,0.838755799 0.847723315,0.848787545 C0.808315907,0.858946275 0.800315907,0.889295481 0.859427018,0.870755799 C0.91853813,0.852216116 1.0012048,0.803200243 1.02283443,0.781358973 C1.0446122,0.759390719 1.01705665,0.749231989 1.05053813,0.725612941 C1.08401961,0.701993894 1.14594554,0.658819291 1.15483443,0.641168497 C1.1686122,0.614247862 1.1529085,0.602311354 1.1332048,0.625930402" id="Fill-50" fill="#A3A3A3"></path>
                                        <path d="M0.960700578,0.860238556 C1.0029228,0.839667127 1.08173762,0.766905223 1.10440428,0.725127445 C1.11818206,0.699857604 1.14573762,0.703159191 1.12410799,0.742016334 C1.10247836,0.780873477 1.02173762,0.850079826 0.99418206,0.868619508 C0.966626504,0.887159191 0.915367245,0.882079826 0.960700578,0.860238556" id="Fill-51" fill="#A3A3A3"></path>
                                        <path d="M1.59887378,0.539488317 C1.58731823,0.563234349 1.58509601,0.618853396 1.58909601,0.645774031 C1.59294786,0.67282165 1.61665156,0.69313911 1.61265156,0.652631174 C1.60879971,0.612123237 1.60879971,0.571615301 1.62242934,0.559805777 C1.63635526,0.547869269 1.61857749,0.49898038 1.59887378,0.539488317" id="Fill-52" fill="#A3A3A3"></path>
                                        <path d="M1.76975198,0.612528708 C1.78975198,0.630941407 1.79923346,0.717290613 1.79730754,0.749290613 C1.79538161,0.781417597 1.82886309,0.781417597 1.82678902,0.735830296 C1.82486309,0.690242994 1.82086309,0.632846169 1.80323346,0.602496962 C1.78545568,0.572020772 1.74219642,0.587258867 1.76975198,0.612528708" id="Fill-53" fill="#A3A3A3"></path>
                                        <path d="M1.91891667,0.651927954 C1.93106482,0.674023192 1.94647222,0.716054938 1.94647222,0.746404144 C1.94647222,0.776880335 1.97210185,0.763293033 1.97402778,0.727864462 C1.9759537,0.69243589 1.97017593,0.662086684 1.95639815,0.638467636 C1.94262037,0.614848589 1.90113889,0.61980097 1.91891667,0.651927954" id="Fill-54" fill="#A3A3A3"></path>
                                        <path d="M2.02348739,0.639451944 C2.01267258,0.612251944 1.99593184,0.587985278 1.98393184,0.591585278 C1.97222813,0.595185278 1.98007999,0.619985278 1.99593184,0.646518611 C2.01148739,0.673185278 2.0351911,0.669585278 2.02348739,0.639451944" id="Fill-55" fill="#A3A3A3"></path>
                                        <path d="M1.45626796,0.764836017 C1.45034203,0.835566175 1.41286055,0.89816935 1.36767537,0.920137604 C1.32234203,0.942105858 1.33019389,0.977534429 1.385305,0.942105858 C1.44056426,0.906677286 1.48189759,0.84585189 1.49374944,0.791883636 C1.50545315,0.737788398 1.46026796,0.717597921 1.45626796,0.764836017" id="Fill-56" fill="#A3A3A3"></path>
                                        <path d="M1.36283598,0.736310832 C1.33928042,0.759929879 1.32550265,0.810596546 1.32550265,0.849326705 C1.32550265,0.888183847 1.34120635,0.859485435 1.34520635,0.837517181 C1.34920635,0.815548927 1.35691005,0.78519972 1.3767619,0.77504099 C1.39631746,0.76488226 1.38653968,0.712691784 1.36283598,0.736310832" id="Fill-57" fill="#A3A3A3"></path>
                                        <path d="M2.57780271,0.77391074 C2.59854345,0.80806947 2.62906197,0.86343455 2.63883975,0.89543455 C2.64876568,0.927561534 2.62506197,0.935942486 2.61721012,0.907244074 C2.60921012,0.878545661 2.57187679,0.814418677 2.55809901,0.792450423 C2.54432123,0.770609153 2.55409901,0.735053597 2.57780271,0.77391074" id="Fill-58" fill="#A3A3A3"></path>
                                    </g>
                                </g>
                            </g>
                            <path d="M-0.952380952,2.8 C-0.952380952,2.8 0.667557035,3.29274268 0.940988291,3.29274268 C1.01782717,3.29274268 2.06711905,3.04637134 2.38170079,3.04637134 C2.49935064,3.04637134 3.58548619,3.21513961 3.86907532,3.29274268 C4.15266445,3.37034575 5.71578273,2.8 5.71578273,2.8" id="Path-63" stroke="#FFFFFF" stroke-width="0.666666667" stroke-linecap="round" stroke-linejoin="round" mask="url(#mask-4)"></path>
                            <path d="M-0.952380952,3.73333333 C-0.952380952,3.73333333 0.667557035,4.22607601 0.940988291,4.22607601 C1.01782717,4.22607601 2.06711905,3.97970467 2.38170079,3.97970467 C2.49935064,3.97970467 3.58548619,4.14847294 3.86907532,4.22607601 C4.15266445,4.30367909 5.71578273,3.73333333 5.71578273,3.73333333" id="Path-63" stroke="#FFFFFF" stroke-width="0.666666667" stroke-linecap="round" stroke-linejoin="round" mask="url(#mask-4)"></path>
                            <path d="M-0.952380952,5.6 C-0.952380952,5.6 0.667557035,6.07165788 0.940988291,6.07165788 C1.01782717,6.07165788 1.6433361,5.69000651 2.38170079,5.69000651 C3.12006547,5.69000651 3.58548619,5.9973755 3.86907532,6.07165788 C4.15266445,6.14594026 5.71578273,5.6 5.71578273,5.6 L10.8424595,6.40356445" id="Path-63" stroke="#FFFFFF" stroke-width="1.33333333" stroke-linecap="round" stroke-linejoin="round" mask="url(#mask-4)"></path>
                        </g>
                        <mask id="mask-6" fill="white">
                            <use xlink:href="#path-5"></use>
                        </mask>
                        <path stroke="#FFFFFF" stroke-width="0.666666667" d="M2.38095238,6.16894451 C2.4388725,6.1411372 2.50986817,6.10476399 2.5911447,6.05962842 C2.850312,5.91570418 3.10979115,5.73770148 3.35093764,5.52501028 C4.02838177,4.92750456 4.42857143,4.18235141 4.42857143,3.26666667 L4.42857143,1.3247791 C4.42857143,0.775852546 3.98494328,0.333333333 3.43544881,0.333333333 L1.32645596,0.333333333 C0.783557314,0.333333333 0.333333333,0.780838644 0.333333333,1.3247791 L0.333333333,3.26666667 C0.333333333,4.18235141 0.733522995,4.92750456 1.41096712,5.52501028 C1.65211361,5.73770148 1.91159276,5.91570418 2.17076006,6.05962842 C2.25203659,6.10476399 2.32303226,6.1411372 2.38095238,6.16894451 Z"></path>
                    </g>
                </g>
                <path d="M3,2.95532874 L-0.915073896,-0.333333333 L0.476190476,-0.333333333 L0.667344591,-0.273077307 L3.91459789,2 L4.66793439,2 L8.9047619,-0.595056854 L8.9047619,0.127518717 C8.9047619,0.421467598 8.72682548,0.764774019 8.48980203,0.930690433 L5.57142857,2.97355185 L5.57142857,3.57800459 L8.52426486,6.05838707 C8.84929214,6.33141 8.77573053,6.74252531 8.42075893,6.84361001 L8.42075893,6.86666667 C8.39087827,6.86666667 8.35964744,6.86507231 8.32747058,6.86201742 C8.30142189,6.86507582 8.27422353,6.86666667 8.24590774,6.86666667 L8.24590774,6.85151409 C8.03044514,6.8168783 7.78962448,6.72628899 7.63130332,6.61546418 L4.65683068,4.53333333 L3.90349418,4.53333333 L-0.333333333,7.12839019 L-0.333333333,5.89311481 L3,3.55978148 L3,2.95532874 Z" id="Rectangle-36" stroke="#FFFFFF" stroke-width="0.666666667" fill="#DB1E36" mask="url(#mask-2)"></path>
                <path d="M0,2.33333333 L0,4.2 L3.33333333,4.2 L3.33333333,6.33643909 C3.33333333,6.70291366 3.63095238,7 3.99952661,7 L4.57190196,7 C4.93983035,7 5.23809524,6.70035095 5.23809524,6.33643909 L5.23809524,4.2 L8.38405064,4.2 C8.75052935,4.2 9.04761905,3.90833333 9.04761905,3.52609049 L9.04761905,3.00724284 C9.04761905,2.6350529 8.7486921,2.33333333 8.38405064,2.33333333 L5.23809524,2.33333333 L5.23809524,0 L3.33333333,0 L3.33333333,2.33333333 L0,2.33333333 Z" id="Rectangle-2" fill="#FFFFFF" mask="url(#mask-2)"></path>
                <polygon id="Rectangle-36" fill="#DB1E36" mask="url(#mask-2)" points="0 2.8 3.80952381 2.8 3.80952381 2.33333333 3.80952381 0 4.76190476 0 4.76190476 2.33333333 4.76190476 2.8 8.57142857 2.8 8.57142857 3.73333333 4.76190476 3.73333333 4.76190476 4.2 4.76190476 6.53333333 3.80952381 6.53333333 3.80952381 4.2 3.80952381 3.73333333 0 3.73333333"></polygon>
            </g>
        </g>
    </g>
</svg>