<?xml version="1.0" encoding="UTF-8"?>
<svg width="20px" height="14px" viewBox="0 0 20 14" version="1.1" xmlns="http://www.w3.org/2000/svg" xmlns:xlink="http://www.w3.org/1999/xlink">
    <!-- Generator: Sketch 50.2 (55047) - http://www.bohemiancoding.com/sketch -->
    <title>GQ</title>
    <desc>Created with Sketch.</desc>
    <defs>
        <rect id="path-1" x="0" y="0" width="20" height="14" rx="1"></rect>
    </defs>
    <g id="Page-1" stroke="none" stroke-width="1" fill="none" fill-rule="evenodd">
        <g id="Flags" transform="translate(-268.000000, -316.000000)">
            <g id="GQ" transform="translate(268.000000, 316.000000)">
                <mask id="mask-2" fill="white">
                    <use xlink:href="#path-1"></use>
                </mask>
                <rect stroke="#F5F5F5" stroke-width="0.5" x="0.25" y="0.25" width="19.5" height="13.5" rx="1"></rect>
                <rect id="Rectangle-2" fill="#EC3938" mask="url(#mask-2)" x="0" y="9.33333333" width="20" height="4.66666667"></rect>
                <rect id="Rectangle-2" fill="#51B422" mask="url(#mask-2)" x="0" y="0" width="20" height="4.66666667"></rect>
                <path d="M9.52380952,8.4 C9.65004491,8.27113356 9.75325801,8.01593424 9.75430661,7.83613729 L9.75997707,6.86386271 C9.7610417,6.68131637 9.61042313,6.53333333 9.43820045,6.53333333 L9.37132336,6.53333333 C9.1925464,6.53333333 9.14954049,6.43345032 9.28794498,6.29781392 L9.75967407,5.83551941 C9.89240242,5.70544563 10.1019214,5.69988302 10.2403259,5.83551941 L10.712055,6.29781392 C10.8447834,6.4278877 10.8008993,6.53333333 10.6286766,6.53333333 L10.5617995,6.53333333 C10.3830226,6.53333333 10.2380952,6.68406576 10.2380952,6.86386271 L10.2380952,7.83613729 C10.2380952,8.01868363 10.3459967,8.27241007 10.4735166,8.39737956 L10.2407692,8.16928711 C10.3707888,8.29670632 10.327381,8.4 10.1430938,8.4 L9.85690616,8.4 C9.67294197,8.4 9.62739398,8.29425659 9.75237892,8.16666667 L9.52380952,8.4 Z" id="Rectangle-721" fill="#159940" mask="url(#mask-2)"></path>
                <polygon id="Rectangle-83" fill="#258DE7" mask="url(#mask-2)" points="0 0 6.66666667 7 0 14"></polygon>
            </g>
        </g>
    </g>
</svg>