<?xml version="1.0" encoding="UTF-8"?>
<svg width="20px" height="14px" viewBox="0 0 20 14" version="1.1" xmlns="http://www.w3.org/2000/svg" xmlns:xlink="http://www.w3.org/1999/xlink">
    <!-- Generator: Sketch 50.2 (55047) - http://www.bohemiancoding.com/sketch -->
    <title>GY</title>
    <desc>Created with Sketch.</desc>
    <defs>
        <rect id="path-1" x="0" y="0" width="20" height="14" rx="1"></rect>
    </defs>
    <g id="Page-1" stroke="none" stroke-width="1" fill="none" fill-rule="evenodd">
        <g id="Flags" transform="translate(-556.000000, -316.000000)">
            <g id="GY" transform="translate(556.000000, 316.000000)">
                <mask id="mask-2" fill="white">
                    <use xlink:href="#path-1"></use>
                </mask>
                <use id="Mask" fill="#FFFFFF" xlink:href="#path-1"></use>
                <rect id="Mask" fill="#08C55F" mask="url(#mask-2)" x="0" y="0" width="20" height="14"></rect>
                <path d="M-0.285714286,13.3333333 L-0.106129347,13.3333333 L19.2816258,7 L-0.106129347,0.666666667 L-0.285714286,0.666666667 L-0.285714286,13.3333333 Z M19.3333333,6.98310886 L19.5970792,6.89695187 L19.6718238,7 L19.5970792,7.10304813 L19.3333333,7.01689114 L19.3333333,6.98310886 Z" id="Rectangle-1134" stroke="#FFFFFF" stroke-width="1.33333333" fill="#FFD831" mask="url(#mask-2)"></path>
                <path d="M-0.285714286,13.3333333 L-0.194845204,13.3333333 L9.71445185,7 L-0.194845204,0.666666667 L-0.285714286,0.666666667 L-0.285714286,13.3333333 Z M-0.285714286,13.4168384 L-0.359022534,13.4382641 L-0.285714286,13.3914105 L-0.285714286,13.4168384 Z M-0.285714286,0.608589471 L-0.359022534,0.561735938 L-0.285714286,0.583161579 L-0.285714286,0.608589471 Z" id="Rectangle-1134" stroke="#262626" stroke-width="1.33333333" fill="#E92034" mask="url(#mask-2)"></path>
            </g>
        </g>
    </g>
</svg>