<?xml version="1.0" encoding="UTF-8"?>
<svg width="20px" height="14px" viewBox="0 0 20 14" version="1.1" xmlns="http://www.w3.org/2000/svg" xmlns:xlink="http://www.w3.org/1999/xlink">
    <!-- Generator: Sketch 50.2 (55047) - http://www.bohemiancoding.com/sketch -->
    <title>IR</title>
    <desc>Created with Sketch.</desc>
    <defs>
        <rect id="path-1" x="0" y="0" width="20" height="14" rx="1"></rect>
    </defs>
    <g id="Page-1" stroke="none" stroke-width="1" fill="none" fill-rule="evenodd">
        <g id="Flags" transform="translate(-124.000000, -412.000000)">
            <g id="IR" transform="translate(124.000000, 412.000000)">
                <mask id="mask-2" fill="white">
                    <use xlink:href="#path-1"></use>
                </mask>
                <rect stroke="#F5F5F5" stroke-width="0.5" x="0.25" y="0.25" width="19.5" height="13.5" rx="1"></rect>
                <rect id="Rectangle-2" fill="#38BB56" mask="url(#mask-2)" x="0" y="0" width="20" height="4.66666667"></rect>
                <rect id="Rectangle-2" fill="#DE1B27" mask="url(#mask-2)" x="0" y="9.33333333" width="20" height="4.66666667"></rect>
                <path d="M0.952380952,4.07028809 C0.952380952,3.88419311 1.10119048,3.73333333 1.28547759,3.73333333 L1.57166526,3.73333333 C1.75562946,3.73333333 1.9047619,3.87916667 1.9047619,4.07028809 L1.9047619,4.32971191 C1.9047619,4.51580689 1.75595238,4.66666667 1.57166526,4.66666667 L1.28547759,4.66666667 C1.1015134,4.66666667 0.952380952,4.52083333 0.952380952,4.32971191 L0.952380952,4.07028809 Z M2.85714286,4.07028809 C2.85714286,3.88419311 3.00595238,3.73333333 3.1902395,3.73333333 L3.47642717,3.73333333 C3.66039136,3.73333333 3.80952381,3.87916667 3.80952381,4.07028809 L3.80952381,4.32971191 C3.80952381,4.51580689 3.66071429,4.66666667 3.47642717,4.66666667 L3.1902395,4.66666667 C3.0062753,4.66666667 2.85714286,4.52083333 2.85714286,4.32971191 L2.85714286,4.07028809 Z M4.76190476,4.07028809 C4.76190476,3.88419311 4.91071429,3.73333333 5.0950014,3.73333333 L5.38118907,3.73333333 C5.56515327,3.73333333 5.71428571,3.87916667 5.71428571,4.07028809 L5.71428571,4.32971191 C5.71428571,4.51580689 5.56547619,4.66666667 5.38118907,4.66666667 L5.0950014,4.66666667 C4.91103721,4.66666667 4.76190476,4.52083333 4.76190476,4.32971191 L4.76190476,4.07028809 Z M6.66666667,4.07028809 C6.66666667,3.88419311 6.81547619,3.73333333 6.99976331,3.73333333 L7.28595098,3.73333333 C7.46991517,3.73333333 7.61904762,3.87916667 7.61904762,4.07028809 L7.61904762,4.32971191 C7.61904762,4.51580689 7.4702381,4.66666667 7.28595098,4.66666667 L6.99976331,4.66666667 C6.81579911,4.66666667 6.66666667,4.52083333 6.66666667,4.32971191 L6.66666667,4.07028809 Z M8.57142857,4.07028809 C8.57142857,3.88419311 8.7202381,3.73333333 8.90452521,3.73333333 L9.19071288,3.73333333 C9.37467708,3.73333333 9.52380952,3.87916667 9.52380952,4.07028809 L9.52380952,4.32971191 C9.52380952,4.51580689 9.375,4.66666667 9.19071288,4.66666667 L8.90452521,4.66666667 C8.72056102,4.66666667 8.57142857,4.52083333 8.57142857,4.32971191 L8.57142857,4.07028809 Z M10.4761905,4.07028809 C10.4761905,3.88419311 10.625,3.73333333 10.8092871,3.73333333 L11.0954748,3.73333333 C11.279439,3.73333333 11.4285714,3.87916667 11.4285714,4.07028809 L11.4285714,4.32971191 C11.4285714,4.51580689 11.2797619,4.66666667 11.0954748,4.66666667 L10.8092871,4.66666667 C10.6253229,4.66666667 10.4761905,4.52083333 10.4761905,4.32971191 L10.4761905,4.07028809 Z M12.3809524,4.07028809 C12.3809524,3.88419311 12.5297619,3.73333333 12.714049,3.73333333 L13.0002367,3.73333333 C13.1842009,3.73333333 13.3333333,3.87916667 13.3333333,4.07028809 L13.3333333,4.32971191 C13.3333333,4.51580689 13.1845238,4.66666667 13.0002367,4.66666667 L12.714049,4.66666667 C12.5300848,4.66666667 12.3809524,4.52083333 12.3809524,4.32971191 L12.3809524,4.07028809 Z M14.2857143,4.07028809 C14.2857143,3.88419311 14.4345238,3.73333333 14.6188109,3.73333333 L14.9049986,3.73333333 C15.0889628,3.73333333 15.2380952,3.87916667 15.2380952,4.07028809 L15.2380952,4.32971191 C15.2380952,4.51580689 15.0892857,4.66666667 14.9049986,4.66666667 L14.6188109,4.66666667 C14.4348467,4.66666667 14.2857143,4.52083333 14.2857143,4.32971191 L14.2857143,4.07028809 Z M16.1904762,4.07028809 C16.1904762,3.88419311 16.3392857,3.73333333 16.5235728,3.73333333 L16.8097605,3.73333333 C16.9937247,3.73333333 17.1428571,3.87916667 17.1428571,4.07028809 L17.1428571,4.32971191 C17.1428571,4.51580689 16.9940476,4.66666667 16.8097605,4.66666667 L16.5235728,4.66666667 C16.3396086,4.66666667 16.1904762,4.52083333 16.1904762,4.32971191 L16.1904762,4.07028809 Z M18.0952381,4.07028809 C18.0952381,3.88419311 18.2440476,3.73333333 18.4283347,3.73333333 L18.7145224,3.73333333 C18.8984866,3.73333333 19.047619,3.87916667 19.047619,4.07028809 L19.047619,4.32971191 C19.047619,4.51580689 18.8988095,4.66666667 18.7145224,4.66666667 L18.4283347,4.66666667 C18.2443705,4.66666667 18.0952381,4.52083333 18.0952381,4.32971191 L18.0952381,4.07028809 Z M0.952380952,9.67028809 C0.952380952,9.48419311 1.10119048,9.33333333 1.28547759,9.33333333 L1.57166526,9.33333333 C1.75562946,9.33333333 1.9047619,9.47916667 1.9047619,9.67028809 L1.9047619,9.92971191 C1.9047619,10.1158069 1.75595238,10.2666667 1.57166526,10.2666667 L1.28547759,10.2666667 C1.1015134,10.2666667 0.952380952,10.1208333 0.952380952,9.92971191 L0.952380952,9.67028809 Z M2.85714286,9.67028809 C2.85714286,9.48419311 3.00595238,9.33333333 3.1902395,9.33333333 L3.47642717,9.33333333 C3.66039136,9.33333333 3.80952381,9.47916667 3.80952381,9.67028809 L3.80952381,9.92971191 C3.80952381,10.1158069 3.66071429,10.2666667 3.47642717,10.2666667 L3.1902395,10.2666667 C3.0062753,10.2666667 2.85714286,10.1208333 2.85714286,9.92971191 L2.85714286,9.67028809 Z M4.76190476,9.67028809 C4.76190476,9.48419311 4.91071429,9.33333333 5.0950014,9.33333333 L5.38118907,9.33333333 C5.56515327,9.33333333 5.71428571,9.47916667 5.71428571,9.67028809 L5.71428571,9.92971191 C5.71428571,10.1158069 5.56547619,10.2666667 5.38118907,10.2666667 L5.0950014,10.2666667 C4.91103721,10.2666667 4.76190476,10.1208333 4.76190476,9.92971191 L4.76190476,9.67028809 Z M6.66666667,9.67028809 C6.66666667,9.48419311 6.81547619,9.33333333 6.99976331,9.33333333 L7.28595098,9.33333333 C7.46991517,9.33333333 7.61904762,9.47916667 7.61904762,9.67028809 L7.61904762,9.92971191 C7.61904762,10.1158069 7.4702381,10.2666667 7.28595098,10.2666667 L6.99976331,10.2666667 C6.81579911,10.2666667 6.66666667,10.1208333 6.66666667,9.92971191 L6.66666667,9.67028809 Z M8.57142857,9.67028809 C8.57142857,9.48419311 8.7202381,9.33333333 8.90452521,9.33333333 L9.19071288,9.33333333 C9.37467708,9.33333333 9.52380952,9.47916667 9.52380952,9.67028809 L9.52380952,9.92971191 C9.52380952,10.1158069 9.375,10.2666667 9.19071288,10.2666667 L8.90452521,10.2666667 C8.72056102,10.2666667 8.57142857,10.1208333 8.57142857,9.92971191 L8.57142857,9.67028809 Z M10.4761905,9.67028809 C10.4761905,9.48419311 10.625,9.33333333 10.8092871,9.33333333 L11.0954748,9.33333333 C11.279439,9.33333333 11.4285714,9.47916667 11.4285714,9.67028809 L11.4285714,9.92971191 C11.4285714,10.1158069 11.2797619,10.2666667 11.0954748,10.2666667 L10.8092871,10.2666667 C10.6253229,10.2666667 10.4761905,10.1208333 10.4761905,9.92971191 L10.4761905,9.67028809 Z M12.3809524,9.67028809 C12.3809524,9.48419311 12.5297619,9.33333333 12.714049,9.33333333 L13.0002367,9.33333333 C13.1842009,9.33333333 13.3333333,9.47916667 13.3333333,9.67028809 L13.3333333,9.92971191 C13.3333333,10.1158069 13.1845238,10.2666667 13.0002367,10.2666667 L12.714049,10.2666667 C12.5300848,10.2666667 12.3809524,10.1208333 12.3809524,9.92971191 L12.3809524,9.67028809 Z M14.2857143,9.67028809 C14.2857143,9.48419311 14.4345238,9.33333333 14.6188109,9.33333333 L14.9049986,9.33333333 C15.0889628,9.33333333 15.2380952,9.47916667 15.2380952,9.67028809 L15.2380952,9.92971191 C15.2380952,10.1158069 15.0892857,10.2666667 14.9049986,10.2666667 L14.6188109,10.2666667 C14.4348467,10.2666667 14.2857143,10.1208333 14.2857143,9.92971191 L14.2857143,9.67028809 Z M16.1904762,9.67028809 C16.1904762,9.48419311 16.3392857,9.33333333 16.5235728,9.33333333 L16.8097605,9.33333333 C16.9937247,9.33333333 17.1428571,9.47916667 17.1428571,9.67028809 L17.1428571,9.92971191 C17.1428571,10.1158069 16.9940476,10.2666667 16.8097605,10.2666667 L16.5235728,10.2666667 C16.3396086,10.2666667 16.1904762,10.1208333 16.1904762,9.92971191 L16.1904762,9.67028809 Z M18.0952381,9.67028809 C18.0952381,9.48419311 18.2440476,9.33333333 18.4283347,9.33333333 L18.7145224,9.33333333 C18.8984866,9.33333333 19.047619,9.47916667 19.047619,9.67028809 L19.047619,9.92971191 C19.047619,10.1158069 18.8988095,10.2666667 18.7145224,10.2666667 L18.4283347,10.2666667 C18.2443705,10.2666667 18.0952381,10.1208333 18.0952381,9.92971191 L18.0952381,9.67028809 Z" id="Rectangle-223" fill-opacity="0.5" fill="#FFFFFF" mask="url(#mask-2)"></path>
                <path d="M9.17429151,6.29916765 C9.00207793,6.49124468 8.9047619,6.73787436 8.9047619,7 C8.9047619,7.58757961 9.39362625,8.06666667 10,8.06666667 C10.6063737,8.06666667 11.0952381,7.58757961 11.0952381,7 C11.0952381,6.74362725 11.0021857,6.50204189 10.8367559,6.31169574 L9.17429151,6.29916765 Z" id="Oval-1" stroke="#D80915" stroke-width="0.666666667" mask="url(#mask-2)"></path>
                <rect id="Rectangle-243" fill="#D80915" mask="url(#mask-2)" x="9.52380952" y="6.53333333" width="1" height="1.86666667" rx="0.5"></rect>
            </g>
        </g>
    </g>
</svg>