<?xml version="1.0" encoding="UTF-8"?>
<svg width="20px" height="14px" viewBox="0 0 20 14" version="1.1" xmlns="http://www.w3.org/2000/svg" xmlns:xlink="http://www.w3.org/1999/xlink">
    <!-- Generator: Sketch 50.2 (55047) - http://www.bohemiancoding.com/sketch -->
    <title>KE</title>
    <desc>Created with Sketch.</desc>
    <defs>
        <rect id="path-1" x="0" y="0" width="20" height="14" rx="1"></rect>
        <path d="M2.38095238,9.8 C3.33333333,9.8 4.76190476,7.96839505 4.76190476,5.13333333 C4.76190476,2.29827162 3.33333333,0.466666667 2.38095238,0.466666667 C1.42857143,0.466666667 0,2.29827162 0,5.13333333 C0,7.96839505 1.42857143,9.8 2.38095238,9.8 Z" id="path-3"></path>
        <linearGradient x1="50%" y1="0%" x2="50%" y2="100%" id="linearGradient-5">
            <stop stop-color="#FFFFFF" offset="0%"></stop>
            <stop stop-color="#F0F0F0" offset="100%"></stop>
        </linearGradient>
        <path d="M2.38095238,6.53333333 C2.11795964,6.53333333 1.9047619,5.90653198 1.9047619,5.13333333 C1.9047619,4.36013468 2.11795964,3.73333333 2.38095238,3.73333333 C2.64394512,3.73333333 2.85714286,4.36013468 2.85714286,5.13333333 C2.85714286,5.90653198 2.64394512,6.53333333 2.38095238,6.53333333 Z M2.38095238,3.73333333 C2.11795964,3.73333333 1.9047619,2.8975982 1.9047619,1.86666667 C1.9047619,0.835735134 2.11795964,0 2.38095238,0 C2.64394512,0 2.85714286,0.835735134 2.85714286,1.86666667 C2.85714286,2.8975982 2.64394512,3.73333333 2.38095238,3.73333333 Z M2.38095238,10.2666667 C2.11795964,10.2666667 1.9047619,9.43093153 1.9047619,8.4 C1.9047619,7.36906847 2.11795964,6.53333333 2.38095238,6.53333333 C2.64394512,6.53333333 2.85714286,7.36906847 2.85714286,8.4 C2.85714286,9.43093153 2.64394512,10.2666667 2.38095238,10.2666667 Z" id="path-6"></path>
        <filter x="-52.5%" y="-4.9%" width="205.0%" height="119.5%" filterUnits="objectBoundingBox" id="filter-7">
            <feOffset dx="0" dy="1" in="SourceAlpha" result="shadowOffsetOuter1"></feOffset>
            <feColorMatrix values="0 0 0 0 0   0 0 0 0 0   0 0 0 0 0  0 0 0 0.06 0" type="matrix" in="shadowOffsetOuter1"></feColorMatrix>
        </filter>
    </defs>
    <g id="Page-1" stroke="none" stroke-width="1" fill="none" fill-rule="evenodd">
        <g id="Flags" transform="translate(-76.000000, -508.000000)">
            <g id="KE" transform="translate(76.000000, 508.000000)">
                <mask id="mask-2" fill="white">
                    <use xlink:href="#path-1"></use>
                </mask>
                <use id="Mask" fill="#FFFFFF" xlink:href="#path-1"></use>
                <rect id="Rectangle-2" fill="#262626" mask="url(#mask-2)" x="0" y="0" width="20" height="3.73333333"></rect>
                <rect id="Rectangle-2" fill="#018301" mask="url(#mask-2)" x="0" y="10.2666667" width="20" height="3.73333333"></rect>
                <rect id="Rectangle-2" fill="#FFFFFF" mask="url(#mask-2)" x="0" y="3.73333333" width="20" height="6.53333333"></rect>
                <rect id="Rectangle-2-Copy-4" fill="#DC0808" mask="url(#mask-2)" x="0" y="4.66666667" width="20" height="4.66666667"></rect>
                <g id="Oval-225" mask="url(#mask-2)">
                    <g transform="translate(7.619048, 1.866667)">
                        <mask id="mask-4" fill="white">
                            <use xlink:href="#path-3"></use>
                        </mask>
                        <use id="Mask" stroke="none" fill="#BC0000" fill-rule="evenodd" xlink:href="#path-3"></use>
                        <ellipse id="Mask-Copy" stroke="none" fill="#262626" fill-rule="evenodd" mask="url(#mask-4)" cx="-1.42857143" cy="5.13333333" rx="2.38095238" ry="5.13333333"></ellipse>
                        <ellipse id="Mask-Copy-2" stroke="none" fill="#262626" fill-rule="evenodd" mask="url(#mask-4)" cx="6.19047619" cy="5.13333333" rx="2.38095238" ry="5.13333333"></ellipse>
                        <g id="Oval-228" stroke="none" fill="none" mask="url(#mask-4)">
                            <use fill="black" fill-opacity="1" filter="url(#filter-7)" xlink:href="#path-6"></use>
                            <use fill="url(#linearGradient-5)" fill-rule="evenodd" xlink:href="#path-6"></use>
                        </g>
                    </g>
                </g>
            </g>
        </g>
    </g>
</svg>