<?xml version="1.0" encoding="UTF-8"?>
<svg width="20px" height="14px" viewBox="0 0 20 14" version="1.1" xmlns="http://www.w3.org/2000/svg" xmlns:xlink="http://www.w3.org/1999/xlink">
    <!-- Generator: Sketch 50.2 (55047) - http://www.bohemiancoding.com/sketch -->
    <title>PF</title>
    <desc>Created with Sketch.</desc>
    <defs>
        <rect id="path-1" x="0" y="0" width="20" height="14" rx="1"></rect>
        <ellipse id="path-3" cx="2.38095238" cy="2.33333333" rx="2.38095238" ry="2.33333333"></ellipse>
    </defs>
    <g id="Page-1" stroke="none" stroke-width="1" fill="none" fill-rule="evenodd">
        <g id="Flags" transform="translate(-508.000000, -748.000000)">
            <g id="PF" transform="translate(508.000000, 748.000000)">
                <mask id="mask-2" fill="white">
                    <use xlink:href="#path-1"></use>
                </mask>
                <rect stroke="#F5F5F5" stroke-width="0.5" x="0.25" y="0.25" width="19.5" height="13.5" rx="1"></rect>
                <rect id="Rectangle-2" fill="#D82332" mask="url(#mask-2)" x="0" y="0" width="20" height="3.73333333"></rect>
                <rect id="Rectangle-2" fill="#D82332" mask="url(#mask-2)" x="0" y="10.2666667" width="20" height="3.73333333"></rect>
                <g id="Group-5" mask="url(#mask-2)">
                    <g transform="translate(7.619048, 4.666667)">
                        <g id="Group-3">
                            <path d="M1.7148904,2.86021505 L1.5117158,3.12548387 C1.69538927,3.19763441 1.95018896,3.11365591 2.05162509,2.86021505 L1.7148904,2.86021505" id="Fill-7" fill="#064A89"></path>
                            <path d="M0.0755857899,3.00867039 C0.213076342,3.20114351 0.440816327,3.17867039 0.578306878,3.05684243 C0.715873016,2.93490695 0.816931217,2.92716502 0.902645503,2.93996071 C0.911715797,3.04856286 0.931972789,3.18781018 0.966742252,3.32544459 L0.151095994,3.32544459 C0.130839002,3.25490695 0.0913076342,3.09049835 0.0755857899,3.00867039" id="Fill-8" fill="#064A89"></path>
                            <path d="M0.22675737,3.36176998 C0.386848073,3.255856 0.550491308,3.33983449 0.621315193,3.41617858 C0.752078609,3.55736138 0.968102797,3.51908181 1.07407407,3.43897428 C1.11451247,3.53133987 1.16364324,3.62220009 1.22290249,3.69155492 L0.350188964,3.69155492 C0.314739229,3.6114474 0.238095238,3.41456568 0.22675737,3.36176998" id="Fill-9" fill="#064A89"></path>
                            <path d="M4.02244898,4.07758271 C4.06077098,4.02306659 4.11262283,3.93328164 4.14648526,3.86919562 C4.09009826,3.8595182 4.02456538,3.80242142 3.95487528,3.75371175 C3.82630385,3.66381927 3.70347695,3.66381927 3.59410431,3.76973325 C3.43182162,3.92683003 3.22887377,3.96532465 3.07105064,3.80822788 C2.8978836,3.63575476 2.73741497,3.67349669 2.6021164,3.78263648 C2.46681784,3.89156121 2.38117914,3.89801282 2.3,3.89801282 C2.21882086,3.89801282 2.13318216,3.89156121 1.9978836,3.78263648 C1.86258503,3.67349669 1.7021164,3.63575476 1.52894936,3.80822788 C1.37112623,3.96532465 1.16817838,3.92683003 1.00589569,3.76973325 C0.896523054,3.66381927 0.773696145,3.66381927 0.645124717,3.75371175 C0.575359033,3.80242142 0.509901738,3.8595182 0.453514739,3.86919562 C0.487377173,3.93328164 0.539229025,4.02306659 0.57755102,4.07758271 L4.02244898,4.07758271" id="Fill-10" fill="#064A89"></path>
                            <path d="M3.6,4.45258065 C3.63605442,4.42053763 3.73529856,4.31473118 3.78488284,4.26021505 C3.73076342,4.27623656 3.60740741,4.22 3.54368859,4.17354839 C3.35873016,4.0388172 3.23703704,4.05172043 3.09954649,4.15430108 C2.96198035,4.25698925 2.7681028,4.31150538 2.6260771,4.20247312 C2.4840514,4.09344086 2.38253968,4.06451613 2.30816327,4.06451613 C2.23378685,4.06451613 2.13227513,4.09344086 1.99024943,4.20247312 C1.84822373,4.31150538 1.65434618,4.25698925 1.51678005,4.15430108 C1.37928949,4.05172043 1.25759637,4.0388172 1.07263794,4.17354839 C1.00891912,4.22 0.885563114,4.27623656 0.831443689,4.26021505 C0.881027967,4.31473118 0.980272109,4.42053763 1.01632653,4.45258065 L3.6,4.45258065" id="Fill-11" fill="#064A89"></path>
                            <path d="M2.78692366,3.70903226 C2.74860166,3.68021505 2.70377929,3.61301075 2.66288738,3.52677419 C2.59750567,3.3888172 2.49380197,3.31182796 2.33824641,3.31182796 C2.18269085,3.31182796 2.07898715,3.3888172 2.01360544,3.52677419 C1.97271353,3.61301075 1.92789116,3.68021505 1.88964475,3.70903226 L2.78692366,3.70903226" id="Fill-12" fill="#064A89"></path>
                            <path d="M2.61640212,3.31064516 C2.59736057,3.27215054 2.55663535,3.15021505 2.54306028,3.08602151 C2.49951072,3.10215054 2.41532704,3.10849462 2.36640212,3.10849462 C2.31747719,3.10849462 2.23329352,3.10215054 2.18974395,3.08602151 C2.17616888,3.15021505 2.13544366,3.27215054 2.11640212,3.31064516 L2.61640212,3.31064516" id="Fill-13" fill="#064A89"></path>
                            <path d="M2.90665155,2.86021505 L3.10982615,3.12548387 C2.92615268,3.19763441 2.67135299,3.11365591 2.56991686,2.86021505 L2.90665155,2.86021505" id="Fill-14" fill="#064A89"></path>
                            <path d="M4.59486017,3.00867039 C4.45736961,3.20114351 4.22962963,3.17867039 4.09213908,3.05684243 C3.95457294,2.93490695 3.85351474,2.92716502 3.76780045,2.93996071 C3.75865457,3.04856286 3.73847317,3.18781018 3.7037037,3.32544459 L4.51934996,3.32544459 C4.53960695,3.25490695 4.57906274,3.09049835 4.59486017,3.00867039" id="Fill-15" fill="#064A89"></path>
                            <path d="M4.47309146,3.36176998 C4.31300076,3.255856 4.14935752,3.33983449 4.07853364,3.41617858 C3.94777022,3.55736138 3.73174603,3.51908181 3.62577475,3.43897428 C3.58533636,3.53133987 3.53620559,3.62220009 3.47694633,3.69155492 L4.34965986,3.69155492 C4.3851096,3.6114474 4.46182918,3.41456568 4.47309146,3.36176998" id="Fill-16" fill="#064A89"></path>
                            <path d="M3.20869237,4.5339294 C2.93529856,4.69263908 2.63613001,4.78027349 2.32260015,4.78027349 C2.00876795,4.78027349 1.70975057,4.69274661 1.43613001,4.53371435 C1.49470899,4.52414446 1.5723356,4.4839294 1.63492063,4.43435951 C1.73643235,4.35414446 1.92123961,4.33812295 2.00922147,4.41833801 C2.09712774,4.49855306 2.20309902,4.57866059 2.32260015,4.57866059 C2.44210128,4.57866059 2.54807256,4.49855306 2.63597884,4.41833801 C2.72388511,4.33812295 2.90876795,4.35414446 3.01027967,4.43435951 C3.07278912,4.4839294 3.15003779,4.52435951 3.20869237,4.5339294" id="Fill-17" fill="#064A89"></path>
                            <path d="M2.82751323,0.0421785308 C2.33378685,-0.0588322219 1.88964475,-0.000498888604 1.88964475,0.462027993 L1.88964475,1.7282753 C1.88964475,1.86744735 1.89244142,1.88506025 2.05873016,1.92359789 C2.41942555,2.00722154 2.4532124,2.01565165 2.84550265,2.10537208 L2.84550265,0.80329681 C2.53892668,0.76957638 2.42169312,0.598264552 2.42169312,0.399178531 C2.42169312,0.206114015 2.5569161,0.0803398211 2.82751323,0.0421785308" id="Fill-18" fill="#514537"></path>
                            <path d="M1.56228994,3.61327957 C1.28723325,3.61327957 0.998646707,3.37527957 0.998646707,2.92178495 L0.998646707,1.79470968 C0.998646707,1.69256989 1.01021133,1.67819355 0.986250638,1.6544086 C0.972191681,1.6404086 1.00204807,1.61963441 1.02230506,1.5993871 C1.05276613,1.56905376 1.07362781,1.54383871 1.03250914,1.5028172 C0.991314886,1.46187097 1.00885079,1.4511828 1.03477671,1.42544086 C1.06070264,1.39954839 1.07083114,1.37380645 1.046039,1.34904301 C1.02124686,1.32435484 1.01557792,1.31652688 1.04263764,1.28958065 C1.06969735,1.26263441 1.05843507,1.25141935 1.0359105,1.22891398 C1.01331035,1.20648387 1.00265275,1.19022581 1.03137535,1.16162366 C1.05956885,1.13354839 1.06176084,1.12903226 1.09448949,1.12903226 L1.22978805,1.12903226 C1.26138291,1.12903226 1.26191201,1.1385914 1.2353814,1.16501075 C1.20098987,1.1991828 1.19086137,1.21265591 1.22978805,1.25141935 C1.26863915,1.29010753 1.26697626,1.30305376 1.24218412,1.32774194 C1.20492033,1.36477419 1.1885938,1.39006452 1.22638669,1.42769892 C1.26417959,1.46525806 1.26750536,1.48211828 1.23878276,1.51072043 C1.21006016,1.53932258 1.2071879,1.5646129 1.23878276,1.596 C1.2630458,1.62016129 1.26470869,1.63423656 1.26470869,1.67683871 L1.26470869,2.82747312 C1.26470869,3.02053763 1.40446681,3.13727957 1.67052879,3.13727957 C1.93659077,3.13727957 2.02676462,3.02949462 2.10340861,2.95768817 C2.05382433,3.30339785 1.90953106,3.61327957 1.56228994,3.61327957" id="Fill-19" fill="#514537"></path>
                            <path d="M2.39720655,2.59442452 C2.44927004,2.60919204 2.49974623,2.68063486 2.49974623,2.75806452 L2.60239174,2.75806452 C2.60239174,2.69260852 2.57233883,2.59143111 2.51794729,2.52886875 C2.51710073,2.51250475 2.51477269,2.4984357 2.51085734,2.48426687 C2.54874094,2.43956521 2.60397904,2.36812239 2.60239174,2.29967298 C2.60133353,2.25646803 2.54715364,2.25806452 2.54080443,2.29228922 C2.53561925,2.32042732 2.51561925,2.36373205 2.47773565,2.37859934 C2.47773565,2.32352051 2.44450814,2.25806452 2.39720655,2.25806452 C2.34990496,2.25806452 2.31667745,2.32352051 2.31667745,2.37859934 C2.27879385,2.36373205 2.25879385,2.32042732 2.25360867,2.29228922 C2.24725946,2.25806452 2.19297375,2.25646803 2.19202136,2.29967298 C2.19043406,2.36812239 2.24567216,2.43956521 2.28355576,2.48426687 C2.27964041,2.4984357 2.27731237,2.51250475 2.27646581,2.52886875 C2.22207427,2.59143111 2.19202136,2.69260852 2.19202136,2.75806452 L2.29466687,2.75806452 C2.29466687,2.68063486 2.34514306,2.60919204 2.39720655,2.59442452" id="Fill-20" fill="#514537"></path>
                            <path d="M2.0192776,2.59442452 C2.07134109,2.60919204 2.1219231,2.68063486 2.1219231,2.75806452 L2.22446279,2.75806452 C2.22446279,2.69260852 2.1945157,2.59143111 2.14001834,2.52886875 C2.1392776,2.51250475 2.13684374,2.4984357 2.13292839,2.48426687 C2.17081199,2.43956521 2.22605009,2.36812239 2.22446279,2.29967298 C2.2235104,2.25646803 2.16922469,2.25806452 2.16287548,2.29228922 C2.1576903,2.32042732 2.13758448,2.36373205 2.0998067,2.37859934 C2.0998067,2.32352051 2.06668501,2.25806452 2.0192776,2.25806452 C1.97197601,2.25806452 1.93885432,2.32352051 1.93885432,2.37859934 C1.90097072,2.36373205 1.8808649,2.32042732 1.87567972,2.29228922 C1.86933051,2.25806452 1.81515062,2.25646803 1.81409242,2.29967298 C1.81250511,2.36812239 1.86774321,2.43956521 1.90562681,2.48426687 C1.90171146,2.4984357 1.89938342,2.51250475 1.89853686,2.52886875 C1.84414533,2.59143111 1.81409242,2.69260852 1.81409242,2.75806452 L1.91673792,2.75806452 C1.91673792,2.68063486 1.96721411,2.60919204 2.0192776,2.59442452" id="Fill-21" fill="#514537"></path>
                            <path d="M1.64134865,2.59442452 C1.69341214,2.60919204 1.74388833,2.68063486 1.74388833,2.75806452 L1.84653384,2.75806452 C1.84653384,2.69260852 1.81648093,2.59143111 1.76208939,2.52886875 C1.76124283,2.51250475 1.75891479,2.4984357 1.75499944,2.48426687 C1.79288304,2.43956521 1.84812114,2.36812239 1.84653384,2.29967298 C1.84547564,2.25646803 1.79129574,2.25806452 1.78494653,2.29228922 C1.77976135,2.32042732 1.75965553,2.36373205 1.72177193,2.37859934 C1.72177193,2.32352051 1.68865024,2.25806452 1.64134865,2.25806452 C1.59394124,2.25806452 1.56081955,2.32352051 1.56081955,2.37859934 C1.52293595,2.36373205 1.50293595,2.32042732 1.49775077,2.29228922 C1.49140156,2.25806452 1.43711585,2.25646803 1.43616347,2.29967298 C1.43457616,2.36812239 1.48981426,2.43956521 1.52769786,2.48426687 C1.52378251,2.4984357 1.52134865,2.51250475 1.52060791,2.52886875 C1.46611056,2.59143111 1.43616347,2.69260852 1.43616347,2.75806452 L1.53870315,2.75806452 C1.53870315,2.68063486 1.58928516,2.60919204 1.64134865,2.59442452" id="Fill-22" fill="#514537"></path>
                            <path d="M2.7751355,2.59442452 C2.72307201,2.60919204 2.67259582,2.68063486 2.67259582,2.75806452 L2.56995031,2.75806452 C2.56995031,2.69260852 2.5998974,2.59143111 2.65439476,2.52886875 C2.6551355,2.51250475 2.65756936,2.4984357 2.66159053,2.48426687 C2.62360111,2.43956521 2.56836301,2.36812239 2.56995031,2.29967298 C2.57100851,2.25646803 2.62518841,2.25806452 2.63153762,2.29228922 C2.6367228,2.32042732 2.65682862,2.36373205 2.6946064,2.37859934 C2.6946064,2.32352051 2.72783391,2.25806452 2.7751355,2.25806452 C2.82254291,2.25806452 2.8556646,2.32352051 2.8556646,2.37859934 C2.89344238,2.36373205 2.9135482,2.32042732 2.91873338,2.29228922 C2.92508259,2.25806452 2.97926248,2.25646803 2.98032068,2.29967298 C2.98190799,2.36812239 2.92666989,2.43956521 2.88878629,2.48426687 C2.89270164,2.4984357 2.8951355,2.51250475 2.89587624,2.52886875 C2.95037359,2.59143111 2.98032068,2.69260852 2.98032068,2.75806452 L2.87767518,2.75806452 C2.87767518,2.68063486 2.82719899,2.60919204 2.7751355,2.59442452" id="Fill-23" fill="#514537"></path>
                            <path d="M3.15306445,2.59442452 C3.10100096,2.60919204 3.05052477,2.68063486 3.05052477,2.75806452 L2.94787926,2.75806452 C2.94787926,2.69260852 2.97793217,2.59143111 3.03232371,2.52886875 C3.03317027,2.51250475 3.03549831,2.4984357 3.03941365,2.48426687 C3.00153006,2.43956521 2.94629196,2.36812239 2.94787926,2.29967298 C2.94883164,2.25646803 3.00311736,2.25806452 3.00946657,2.29228922 C3.01465175,2.32042732 3.03465175,2.36373205 3.07253535,2.37859934 C3.07253535,2.32352051 3.10576286,2.25806452 3.15306445,2.25806452 C3.20047186,2.25806452 3.23359355,2.32352051 3.23359355,2.37859934 C3.27147715,2.36373205 3.29147715,2.32042732 3.29666233,2.29228922 C3.30301154,2.25806452 3.35719143,2.25646803 3.35824963,2.29967298 C3.35983694,2.36812239 3.30459884,2.43956521 3.26671524,2.48426687 C3.27063059,2.4984357 3.27295863,2.51250475 3.27380519,2.52886875 C3.32830254,2.59143111 3.35824963,2.69260852 3.35824963,2.75806452 L3.25570995,2.75806452 C3.25570995,2.68063486 3.20512794,2.60919204 3.15306445,2.59442452" id="Fill-24" fill="#514537"></path>
                            <polygon id="Fill-25" fill="#514537" points="1.36054422 2.70967742 3.34452003 2.70967742 3.34452003 2.84301075 1.36054422 2.84301075"></polygon>
                            <path d="M3.11103553,3.61327957 C3.38609221,3.61327957 3.67467876,3.37527957 3.67467876,2.92178495 L3.67467876,1.79470968 C3.67467876,1.69256989 3.66311413,1.67819355 3.68707483,1.6544086 C3.70113379,1.6404086 3.6712774,1.61963441 3.65102041,1.5993871 C3.62055933,1.56905376 3.59969766,1.54383871 3.64081633,1.5028172 C3.68201058,1.46187097 3.66447468,1.4511828 3.63862434,1.42544086 C3.61262283,1.39954839 3.60249433,1.37380645 3.62728647,1.34904301 C3.65207861,1.32435484 3.65774754,1.31652688 3.63068783,1.28958065 C3.60362812,1.26263441 3.6148904,1.25141935 3.63741497,1.22891398 C3.66001512,1.20648387 3.67067271,1.19022581 3.64195011,1.16162366 C3.61375661,1.13354839 3.61156463,1.12903226 3.57883598,1.12903226 L3.44353741,1.12903226 C3.41201814,1.12903226 3.41141345,1.1385914 3.43794407,1.16501075 C3.4723356,1.1991828 3.4824641,1.21265591 3.44353741,1.25141935 C3.40468632,1.29010753 3.40634921,1.30305376 3.43114135,1.32774194 C3.46840514,1.36477419 3.48465608,1.39006452 3.44693878,1.42769892 C3.40914588,1.46525806 3.40574452,1.48211828 3.43454271,1.51072043 C3.46326531,1.53932258 3.46613757,1.5646129 3.43454271,1.596 C3.41027967,1.62016129 3.40861678,1.63423656 3.40861678,1.67683871 L3.40861678,2.82747312 C3.40861678,3.02053763 3.26878307,3.13727957 3.00279667,3.13727957 C2.73673469,3.13727957 2.64663643,3.02949462 2.56991686,2.95768817 C2.61950113,3.30339785 2.76379441,3.61327957 3.11103553,3.61327957" id="Fill-26" fill="#514537"></path>
                            <path d="M1.36054422,2.16892473 C1.36054422,2.16892473 1.36063949,2.07430108 1.36063949,1.95698925 L1.86054422,2.16903226 L1.36054422,2.16892473" id="Fill-29" fill="#EEA339"></path>
                            <path d="M0.887452759,2.17429032 L0,2.05513978 C0.0257747543,1.86576344 0.0745275888,1.68112903 0.144671202,1.50537634 L0.887452759,1.799 L0.887452759,2.17429032" id="Fill-31" fill="#EEA339"></path>
                            <path d="M2.72108844,0.720473118 L2.87883598,0.0752688172 C3.06341648,0.119827957 3.24285714,0.186967742 3.41292517,0.275483871 L2.90415722,1.24524731 L2.90597128,0.758333333 C2.84724112,0.758634409 2.75714286,0.749677419 2.72108844,0.720473118" id="Fill-33" fill="#EEA339"></path>
                            <path d="M0.908385345,2.23744086 L0.00437929786,2.1827957 C-0.00726091378,2.37156989 0.00430371207,2.56207527 0.0390731754,2.75002151 C0.0390731754,2.75002151 0.908385345,2.75544086 0.908385345,2.75002151 L0.908385345,2.23744086" id="Fill-35" fill="#EEA339"></path>
                            <path d="M0.899395314,1.63024731 C0.870143613,1.59208602 0.888208617,1.57176344 0.919727891,1.55151613 C0.951322751,1.53134409 0.946787604,1.5156129 0.93106576,1.48648387 C0.91526833,1.45727957 0.899470899,1.4258172 0.928798186,1.39443011 C0.958125472,1.36296774 0.946787604,1.34949462 0.924263039,1.32706452 C0.901738473,1.30463441 0.899470899,1.27994624 0.919727891,1.26195699 C0.940060469,1.24396774 0.935525321,1.23049462 0.922071051,1.21258065 C0.908465608,1.1945914 0.881934996,1.15816129 0.905668934,1.13460215 L0.536885865,0.827956989 C0.415041572,0.973075269 0.310733182,1.13324731 0.22675737,1.30501075 L0.899395314,1.63024731" id="Fill-37" fill="#EEA339"></path>
                            <path d="M1.78291761,1.79741935 L1.34338624,1.37297849 C1.40536659,1.31125806 1.41156463,1.30117204 1.36764928,1.25736559 C1.31972789,1.20964516 1.31798942,1.20467742 1.41549509,1.10750538 C1.44875283,1.07446237 1.43015873,1.05135484 1.38284203,1.05135484 L1.09312169,1.05135484 C1.06832955,1.05135484 1.04882842,1.05263441 1.03068783,1.07069892 L0.680272109,0.732892473 C0.813983371,0.595827957 0.963340892,0.476225806 1.12464097,0.376344086 L1.78291761,1.43048387 L1.78291761,1.79741935" id="Fill-39" fill="#EEA339"></path>
                            <path d="M1.33161205,1.862 C1.33161205,1.75654839 1.33169842,1.65215054 1.33169842,1.63732258 C1.33169842,1.60586022 1.32910738,1.59351613 1.30077863,1.56882796 C1.27244988,1.54413978 1.28661425,1.53232258 1.30855176,1.50537634 L1.78495843,1.85123656 L1.78495843,2.05431183 L1.33161205,1.862" id="Fill-41" fill="#EEA339"></path>
                            <path d="M1.71632653,1.24577419 L1.71632653,0.747946237 C1.71632653,0.424666667 1.73454271,0.262989247 1.78185941,0.230473118 L1.74399093,0.0752688172 C1.55888133,0.124870968 1.37944067,0.192010753 1.20937264,0.280526882 L1.71632653,1.24577419" id="Fill-43" fill="#EEA339"></path>
                            <path d="M3.4478458,2.16892473 C3.4478458,2.16892473 3.44775053,2.07430108 3.44775053,1.95698925 L2.9478458,2.16903226 L3.4478458,2.16892473" id="Fill-45" fill="#EEA339"></path>
                            <path d="M3.77928949,2.17429032 L4.66674225,2.05513978 C4.6409675,1.86576344 4.59221466,1.68112903 4.52207105,1.50537634 L3.77928949,1.799 L3.77928949,2.17429032" id="Fill-47" fill="#EEA339"></path>
                            <path d="M3.77928949,2.23744086 L4.68321995,2.1827957 C4.69486017,2.37156989 4.68337113,2.56207527 4.64852608,2.75002151 C4.64852608,2.75002151 3.77928949,2.75544086 3.77928949,2.75002151 L3.77928949,2.23744086" id="Fill-49" fill="#EEA339"></path>
                            <path d="M3.75072657,1.63024731 C3.78005385,1.59208602 3.76191326,1.57176344 3.73039399,1.55151613 C3.69879913,1.53134409 3.70333428,1.5156129 3.71905612,1.48648387 C3.73485355,1.45727957 3.75065098,1.4258172 3.72132369,1.39443011 C3.69199641,1.36296774 3.70333428,1.34949462 3.72585884,1.32706452 C3.74838341,1.30463441 3.75065098,1.27994624 3.73039399,1.26195699 C3.71006141,1.24396774 3.71459656,1.23049462 3.72805083,1.21258065 C3.74165627,1.1945914 3.7681113,1.15816129 3.74445295,1.13460215 L4.11323602,0.827956989 C4.23508031,0.973075269 4.33931311,1.13324731 4.42328893,1.30501075 L3.75072657,1.63024731" id="Fill-51" fill="#EEA339"></path>
                            <path d="M2.9478458,1.79741935 L3.38737717,1.37297849 C3.32532124,1.31125806 3.3191232,1.30117204 3.36311413,1.25736559 C3.41103553,1.20964516 3.412774,1.20467742 3.31526833,1.10750538 C3.281935,1.07446237 3.30060469,1.05135484 3.34792139,1.05135484 L3.63764172,1.05135484 C3.66243386,1.05135484 3.681935,1.05263441 3.70007559,1.07069892 L4.05049131,0.732892473 C3.91678005,0.595827957 3.76742252,0.476225806 3.60612245,0.376344086 L2.9478458,1.43048387 L2.9478458,1.79741935" id="Fill-53" fill="#EEA339"></path>
                            <path d="M3.40119218,1.862 C3.40119218,1.75654839 3.40110581,1.65215054 3.40110581,1.63732258 C3.40110581,1.60586022 3.40369685,1.59351613 3.43202561,1.56882796 C3.46035436,1.54413978 3.44618998,1.53232258 3.42425247,1.50537634 L2.9478458,1.85123656 L2.9478458,2.05431183 L3.40119218,1.862" id="Fill-55" fill="#EEA339"></path>
                            <path d="M1.05820106,1.65591398 C1.07399849,1.67164516 1.08080121,1.68730108 1.08080121,1.72546237 L1.08080121,2.92660215 C1.08080121,3.3262043 1.32426304,3.54847312 1.57452759,3.54847312 C1.80445956,3.54847312 1.95555556,3.33967742 2.03446712,3.09723656 C1.93303099,3.1758172 1.78420257,3.20050538 1.64210128,3.20050538 C1.47755102,3.20050538 1.21156463,3.09053763 1.21156463,2.85253763 L1.21156463,1.68730108 C1.21156463,1.65591398 1.17996977,1.65591398 1.05820106,1.65591398" id="Fill-57" fill="#D82332"></path>
                            <path d="M2.49598297,0.082160731 C2.18162167,0.050472559 1.89001169,0.115580086 1.89001169,0.542655355 L1.89001169,1.67733277 C1.89001169,1.86678439 1.8750457,1.84427901 2.03627019,1.88409621 C2.3287872,1.95635428 2.36196936,1.96553708 2.71676906,2.04622525 L2.71676906,0.891752129 C2.41382121,0.858709118 2.2825287,0.661128473 2.2825287,0.442322021 C2.2825287,0.268225247 2.35977737,0.104365032 2.49598297,0.082160731" id="Fill-58" fill="#D82332"></path>
                            <path d="M3.62176871,1.65591398 C3.60597128,1.67164516 3.59916856,1.68730108 3.59916856,1.72546237 L3.59916856,2.92660215 C3.59916856,3.3262043 3.35570673,3.54847312 3.10544218,3.54847312 C2.8755102,3.54847312 2.72441421,3.33967742 2.64550265,3.09723656 C2.74701436,3.1758172 2.8957672,3.20050538 3.03786848,3.20050538 C3.20241875,3.20050538 3.46840514,3.09053763 3.46840514,2.85253763 L3.46840514,1.68730108 C3.46840514,1.65591398 3.5,1.65591398 3.62176871,1.65591398" id="Fill-59" fill="#D82332"></path>
                        </g>
                        <g id="Oval-210">
                            <mask id="mask-4" fill="white">
                                <use xlink:href="#path-3"></use>
                            </mask>
                            <g id="Mask"></g>
                            <ellipse fill="#064A89" mask="url(#mask-4)" cx="2.38095238" cy="6.06666667" rx="2.38095238" ry="2.33333333"></ellipse>
                        </g>
                    </g>
                </g>
            </g>
        </g>
    </g>
</svg>