<?xml version="1.0" encoding="UTF-8"?>
<svg width="20px" height="14px" viewBox="0 0 20 14" version="1.1" xmlns="http://www.w3.org/2000/svg" xmlns:xlink="http://www.w3.org/1999/xlink">
    <!-- Generator: Sketch 50.2 (55047) - http://www.bohemiancoding.com/sketch -->
    <title>SH</title>
    <desc>Created with Sketch.</desc>
    <defs>
        <rect id="path-1" x="0" y="0" width="20" height="14" rx="1"></rect>
        <linearGradient x1="50%" y1="0%" x2="50%" y2="100%" id="linearGradient-3">
            <stop stop-color="#07319C" offset="0%"></stop>
            <stop stop-color="#00247E" offset="100%"></stop>
        </linearGradient>
        <path d="M0,3.26666667 L2.99629431e-17,1.3247791 C1.34148665e-17,0.593123805 0.603098529,0 1.32645596,0 L3.43544881,0 C4.1680302,0 4.76190476,0.590751171 4.76190476,1.3247791 L4.76190476,3.26666667 C4.76190476,5.6 2.38095238,6.53333333 2.38095238,6.53333333 C2.38095238,6.53333333 0,5.6 0,3.26666667 Z" id="path-4"></path>
        <path d="M0,3.26666667 L2.99629431e-17,1.3247791 C1.34148665e-17,0.593123805 0.603098529,0 1.32645596,0 L3.43544881,0 C4.1680302,0 4.76190476,0.590751171 4.76190476,1.3247791 L4.76190476,3.26666667 C4.76190476,5.6 2.38095238,6.53333333 2.38095238,6.53333333 C2.38095238,6.53333333 0,5.6 0,3.26666667 Z" id="path-6"></path>
    </defs>
    <g id="Page-1" stroke="none" stroke-width="1" fill="none" fill-rule="evenodd">
        <g id="Flags" transform="translate(-748.000000, -892.000000)">
            <g id="SH" transform="translate(748.000000, 892.000000)">
                <mask id="mask-2" fill="white">
                    <use xlink:href="#path-1"></use>
                </mask>
                <use id="Mask" fill="#FFFFFF" xlink:href="#path-1"></use>
                <rect id="Mask-Copy" fill="url(#linearGradient-3)" mask="url(#mask-2)" x="0" y="0" width="20" height="14"></rect>
                <g id="Rectangle-1105" mask="url(#mask-2)">
                    <g transform="translate(12.380952, 3.733333)">
                        <g id="Rectangle-1238" stroke="none" stroke-width="1" fill="none" fill-rule="evenodd">
                            <mask id="mask-5" fill="white">
                                <use xlink:href="#path-4"></use>
                            </mask>
                            <use id="Mask" fill="#8FC5FF" xlink:href="#path-4"></use>
                            <path d="M1.96895239,4.58515953 C1.96895239,4.58515953 2.44560449,3.98029007 2.72596453,3.98029007 C3.00632457,3.98029007 3.05782117,4.3819303 3.48893577,4.3819303 C3.92005038,4.3819303 4.14741542,3.74183345 4.56267655,3.74183344 C4.97793768,3.74183344 4.56267641,5.84186246 4.56267641,5.84186246 L3.999968,6.41064836 L0.706154761,6.78347831 L1.96895239,4.58515953 Z" id="Path-61" fill="#366CC9" mask="url(#mask-5)"></path>
                            <polygon id="Path-61" fill="#CF6200" mask="url(#mask-5)" points="0.566327329 3.65250753 0.986693246 3.26666667 1.3997389 4.25765464 1.95423421 3.26666667 2.43109362 6.09143426 1.63807165 5.93331804 -0.952380952 4.77261562"></polygon>
                            <rect fill="#FFFF00" mask="url(#mask-5)" x="0" y="0" width="4.76190476" height="2.8"></rect>
                        </g>
                        <mask id="mask-7" fill="white">
                            <use xlink:href="#path-6"></use>
                        </mask>
                        <path stroke="#FFFFFF" stroke-width="0.666666667" d="M2.38095238,6.16894451 C2.4388725,6.1411372 2.50986817,6.10476399 2.5911447,6.05962842 C2.850312,5.91570418 3.10979115,5.73770148 3.35093764,5.52501028 C4.02838177,4.92750456 4.42857143,4.18235141 4.42857143,3.26666667 L4.42857143,1.3247791 C4.42857143,0.775852546 3.98494328,0.333333333 3.43544881,0.333333333 L1.32645596,0.333333333 C0.783557314,0.333333333 0.333333333,0.780838644 0.333333333,1.3247791 L0.333333333,3.26666667 C0.333333333,4.18235141 0.733522995,4.92750456 1.41096712,5.52501028 C1.65211361,5.73770148 1.91159276,5.91570418 2.17076006,6.05962842 C2.25203659,6.10476399 2.32303226,6.1411372 2.38095238,6.16894451 Z"></path>
                    </g>
                </g>
                <path d="M3,2.95532874 L-0.915073896,-0.333333333 L0.476190476,-0.333333333 L0.667344591,-0.273077307 L3.91459789,2 L4.66793439,2 L8.9047619,-0.595056854 L8.9047619,0.127518717 C8.9047619,0.421467598 8.72682548,0.764774019 8.48980203,0.930690433 L5.57142857,2.97355185 L5.57142857,3.57800459 L8.52426486,6.05838707 C8.84929214,6.33141 8.77573053,6.74252531 8.42075893,6.84361001 L8.42075893,6.86666667 C8.39087827,6.86666667 8.35964744,6.86507231 8.32747058,6.86201742 C8.30142189,6.86507582 8.27422353,6.86666667 8.24590774,6.86666667 L8.24590774,6.85151409 C8.03044514,6.8168783 7.78962448,6.72628899 7.63130332,6.61546418 L4.65683068,4.53333333 L3.90349418,4.53333333 L-0.333333333,7.12839019 L-0.333333333,5.89311481 L3,3.55978148 L3,2.95532874 Z" id="Rectangle-36" stroke="#FFFFFF" stroke-width="0.666666667" fill="#DB1E36" mask="url(#mask-2)"></path>
                <path d="M0,2.33333333 L0,4.2 L3.33333333,4.2 L3.33333333,6.33643909 C3.33333333,6.70291366 3.63095238,7 3.99952661,7 L4.57190196,7 C4.93983035,7 5.23809524,6.70035095 5.23809524,6.33643909 L5.23809524,4.2 L8.38405064,4.2 C8.75052935,4.2 9.04761905,3.90833333 9.04761905,3.52609049 L9.04761905,3.00724284 C9.04761905,2.6350529 8.7486921,2.33333333 8.38405064,2.33333333 L5.23809524,2.33333333 L5.23809524,0 L3.33333333,0 L3.33333333,2.33333333 L0,2.33333333 Z" id="Rectangle-2" fill="#FFFFFF" mask="url(#mask-2)"></path>
                <polygon id="Rectangle-36" fill="#DB1E36" mask="url(#mask-2)" points="0 2.8 3.80952381 2.8 3.80952381 2.33333333 3.80952381 0 4.76190476 0 4.76190476 2.33333333 4.76190476 2.8 8.57142857 2.8 8.57142857 3.73333333 4.76190476 3.73333333 4.76190476 4.2 4.76190476 6.53333333 3.80952381 6.53333333 3.80952381 4.2 3.80952381 3.73333333 0 3.73333333"></polygon>
            </g>
        </g>
    </g>
</svg>