<?xml version="1.0" encoding="UTF-8"?>
<svg width="20px" height="14px" viewBox="0 0 20 14" version="1.1" xmlns="http://www.w3.org/2000/svg" xmlns:xlink="http://www.w3.org/1999/xlink">
    <!-- Generator: Sketch 50.2 (55047) - http://www.bohemiancoding.com/sketch -->
    <title>TO</title>
    <desc>Created with Sketch.</desc>
    <defs>
        <linearGradient x1="50%" y1="0%" x2="50%" y2="100%" id="linearGradient-1">
            <stop stop-color="#FFFFFF" offset="0%"></stop>
            <stop stop-color="#F0F0F0" offset="100%"></stop>
        </linearGradient>
        <rect id="path-2" x="0" y="0" width="20" height="14" rx="1"></rect>
        <linearGradient x1="50%" y1="0%" x2="50%" y2="100%" id="linearGradient-4">
            <stop stop-color="#DF101B" offset="0%"></stop>
            <stop stop-color="#C00711" offset="100%"></stop>
        </linearGradient>
    </defs>
    <g id="Page-1" stroke="none" stroke-width="1" fill="none" fill-rule="evenodd">
        <g id="Flags" transform="translate(-76.000000, -940.000000)">
            <g id="TO" transform="translate(76.000000, 940.000000)">
                <mask id="mask-3" fill="white">
                    <use xlink:href="#path-2"></use>
                </mask>
                <rect stroke="#F5F5F5" stroke-width="0.5" x="0.25" y="0.25" width="19.5" height="13.5" rx="1"></rect>
                <path d="M5.71428571,0 L11.4285714,0 L11.4285714,7.46666667 L0,7.46666667 L0,0 L5.71428571,0 L20,0 L20,14 L0,14 L0,0 L5.71428571,0 Z" id="Combined-Shape" fill="#E20F1B" mask="url(#mask-3)"></path>
                <path d="M6.66666667,2.8 L8.23108673,2.8 C8.41905234,2.8 8.57142857,2.9464742 8.57142857,3.12514852 L8.57142857,4.34151815 C8.57142857,4.52109272 8.43017578,4.66666667 8.23108673,4.66666667 L6.66666667,4.66666667 L6.66666667,6.19979833 C6.66666667,6.38400463 6.51720319,6.53333333 6.33488246,6.53333333 L5.09368896,6.53333333 C4.91044961,6.53333333 4.76190476,6.38354686 4.76190476,6.19979833 L4.76190476,4.66666667 L3.1974847,4.66666667 C3.00951909,4.66666667 2.85714286,4.52019246 2.85714286,4.34151815 L2.85714286,3.12514852 C2.85714286,2.94557395 2.99839565,2.8 3.1974847,2.8 L4.76190476,2.8 L4.76190476,1.26686834 C4.76190476,1.08266204 4.91136823,0.933333333 5.09368896,0.933333333 L6.33488246,0.933333333 C6.51812182,0.933333333 6.66666667,1.08311981 6.66666667,1.26686834 L6.66666667,2.8 Z" id="Rectangle-1703" fill="url(#linearGradient-4)" mask="url(#mask-3)"></path>
            </g>
        </g>
    </g>
</svg>