<?xml version="1.0" encoding="UTF-8"?>
<svg width="20px" height="14px" viewBox="0 0 20 14" version="1.1" xmlns="http://www.w3.org/2000/svg" xmlns:xlink="http://www.w3.org/1999/xlink">
    <!-- Generator: Sketch 50.2 (55047) - http://www.bohemiancoding.com/sketch -->
    <title>UG</title>
    <desc>Created with Sketch.</desc>
    <defs>
        <rect id="path-1" x="0" y="0" width="20" height="14" rx="1"></rect>
    </defs>
    <g id="Page-1" stroke="none" stroke-width="1" fill="none" fill-rule="evenodd">
        <g id="Flags" transform="translate(-28.000000, -988.000000)">
            <g id="UG" transform="translate(28.000000, 988.000000)">
                <mask id="mask-2" fill="white">
                    <use xlink:href="#path-1"></use>
                </mask>
                <use id="Mask" fill="#FFFFFF" xlink:href="#path-1"></use>
                <rect id="Rectangle-2" fill="#262626" mask="url(#mask-2)" x="0" y="0" width="20" height="1.86666667"></rect>
                <rect id="Rectangle-2" fill="#262626" mask="url(#mask-2)" x="0" y="7.46666667" width="20" height="1.86666667"></rect>
                <rect id="Rectangle-2" fill="#ED1623" mask="url(#mask-2)" x="0" y="4.66666667" width="20" height="2.8"></rect>
                <rect id="Rectangle-2" fill="#FEE044" mask="url(#mask-2)" x="0" y="1.86666667" width="20" height="2.8"></rect>
                <rect id="Rectangle-2" fill="#ED1623" mask="url(#mask-2)" x="0" y="12.1333333" width="20" height="1.86666667"></rect>
                <rect id="Rectangle-2" fill="#FEE044" mask="url(#mask-2)" x="0" y="9.33333333" width="20" height="2.8"></rect>
                <ellipse id="Oval-220" fill="#FFFFFF" mask="url(#mask-2)" cx="10" cy="7" rx="3.33333333" ry="3.26666667"></ellipse>
                <path d="M9.28571429,5.36666667 C9.15421792,5.23780023 9.15806362,5.02509766 9.28571429,4.9 L9.28571429,4.9 C9.41721065,4.77113356 9.62283723,4.54862569 9.75080947,4.43133952 L9.71178327,4.4625 C9.87096098,4.44639169 10.1320113,4.3684845 10.2887508,4.44647115 L10.2508879,4.41731873 C10.3753191,4.55502979 10.4099782,4.79644267 10.3255208,4.96197918 L10.1506696,5.30468753 C10.0674571,5.46778413 10,5.7476563 10,5.939148 L10,5.72751877 C10,5.91482501 10.1324245,6.1315547 10.3013393,6.21432293 L10.6510417,6.38567706 C10.8174668,6.46722533 11.0543024,6.63321629 11.1927069,6.76885268 L11.664436,7.2311472 C11.7971643,7.36122097 11.8385497,7.59644264 11.7540923,7.76197917 L11.5792411,8.10468759 C11.4960285,8.26778422 11.3181269,8.29176443 11.1904762,8.16666672 L11.1904762,8.16666672 C11.0589798,8.03780021 10.8419364,8.041569 10.7142857,8.16666672 L10.7142857,8.16666672 C10.5827893,8.29553322 10.4761905,8.54765641 10.4761905,8.73914811 L10.4761905,8.52751888 C10.4761905,8.71482512 10.586635,8.97490247 10.7142857,9.10000008 L10.7142857,9.10000008 C10.8457821,9.22886648 10.7994988,9.33333333 10.6210472,9.33333333 L9.85514323,9.33333333 C9.67215268,9.33333333 9.63425409,9.22509766 9.76190476,9.1 L9.76190476,9.1 C9.89340113,8.97113356 10,8.71901042 10,8.52751872 L10,8.73914795 C10,8.55184171 9.84933036,8.4 9.67447917,8.4 L9.84933036,8.4 C9.66955017,8.4 9.41336496,8.50823568 9.28571429,8.63333333 L9.28571429,8.63333333 C9.15421792,8.76219977 8.93717448,8.75843099 8.80952381,8.63333333 L8.80952381,8.63333333 C8.67802744,8.50446689 8.68187314,8.29176432 8.80952381,8.16666667 L8.80952381,8.16666667 C8.94102018,8.03780023 9.19642857,7.93333333 9.38071569,7.93333333 L9.66690336,7.93333333 C9.85086755,7.93333333 9.8879024,7.82347768 9.76410048,7.70215181 L8.80732809,6.76451486 C8.67704438,6.63683683 8.67335002,6.43345032 8.8117545,6.29781392 L9.2834836,5.83551941 C9.41621194,5.70544563 9.41336496,5.49176432 9.28571429,5.36666667 L9.28571429,5.36666667 Z" id="Rectangle-1723" fill="#262626" mask="url(#mask-2)"></path>
            </g>
        </g>
    </g>
</svg>