<?xml version="1.0" encoding="UTF-8"?>
<svg width="20px" height="14px" viewBox="0 0 20 14" version="1.1" xmlns="http://www.w3.org/2000/svg" xmlns:xlink="http://www.w3.org/1999/xlink">
    <!-- Generator: Sketch 50.2 (55047) - http://www.bohemiancoding.com/sketch -->
    <title>VG</title>
    <desc>Created with Sketch.</desc>
    <defs>
        <rect id="path-1" x="0" y="0" width="20" height="14" rx="1"></rect>
        <path d="M0,3.26666667 L2.99629431e-17,1.3247791 C1.34148665e-17,0.593123805 0.603098529,0 1.32645596,0 L3.43544881,0 C4.1680302,0 4.76190476,0.590751171 4.76190476,1.3247791 L4.76190476,3.26666667 C4.76190476,5.6 2.38095238,6.53333333 2.38095238,6.53333333 C2.38095238,6.53333333 0,5.6 0,3.26666667 Z" id="path-3"></path>
    </defs>
    <g id="Page-1" stroke="none" stroke-width="1" fill="none" fill-rule="evenodd">
        <g id="Flags" transform="translate(-220.000000, -1036.000000)">
            <g id="VG" transform="translate(220.000000, 1036.000000)">
                <mask id="mask-2" fill="white">
                    <use xlink:href="#path-1"></use>
                </mask>
                <use id="Mask" fill="#FFFFFF" xlink:href="#path-1"></use>
                <rect id="Mask-Copy" fill="#07319C" mask="url(#mask-2)" x="0" y="0" width="20" height="14"></rect>
                <g id="Rectangle-1105" mask="url(#mask-2)">
                    <g transform="translate(12.380952, 3.733333)">
                        <mask id="mask-4" fill="white">
                            <use xlink:href="#path-3"></use>
                        </mask>
                        <use id="Mask" stroke="none" fill="#008339" fill-rule="evenodd" xlink:href="#path-3"></use>
                        <path d="M1.42857143,1.86666667 C1.16557869,1.86666667 0.952380952,1.65773288 0.952380952,1.4 C0.952380952,1.14226712 1.16557869,0.933333333 1.42857143,0.933333333 C1.69156417,0.933333333 1.9047619,1.14226712 1.9047619,1.4 C1.9047619,1.65773288 1.69156417,1.86666667 1.42857143,1.86666667 Z M1.42857143,2.8 C1.16557869,2.8 0.952380952,2.59106622 0.952380952,2.33333333 C0.952380952,2.07560045 1.16557869,1.86666667 1.42857143,1.86666667 C1.69156417,1.86666667 1.9047619,2.07560045 1.9047619,2.33333333 C1.9047619,2.59106622 1.69156417,2.8 1.42857143,2.8 Z M1.42857143,3.73333333 C1.16557869,3.73333333 0.952380952,3.52439955 0.952380952,3.26666667 C0.952380952,3.00893378 1.16557869,2.8 1.42857143,2.8 C1.69156417,2.8 1.9047619,3.00893378 1.9047619,3.26666667 C1.9047619,3.52439955 1.69156417,3.73333333 1.42857143,3.73333333 Z M1.42857143,4.66666667 C1.16557869,4.66666667 0.952380952,4.45773288 0.952380952,4.2 C0.952380952,3.94226712 1.16557869,3.73333333 1.42857143,3.73333333 C1.69156417,3.73333333 1.9047619,3.94226712 1.9047619,4.2 C1.9047619,4.45773288 1.69156417,4.66666667 1.42857143,4.66666667 Z M3.33333333,4.66666667 C3.0703406,4.66666667 2.85714286,4.45773288 2.85714286,4.2 C2.85714286,3.94226712 3.0703406,3.73333333 3.33333333,3.73333333 C3.59632607,3.73333333 3.80952381,3.94226712 3.80952381,4.2 C3.80952381,4.45773288 3.59632607,4.66666667 3.33333333,4.66666667 Z M3.33333333,3.73333333 C3.0703406,3.73333333 2.85714286,3.52439955 2.85714286,3.26666667 C2.85714286,3.00893378 3.0703406,2.8 3.33333333,2.8 C3.59632607,2.8 3.80952381,3.00893378 3.80952381,3.26666667 C3.80952381,3.52439955 3.59632607,3.73333333 3.33333333,3.73333333 Z M3.33333333,2.8 C3.0703406,2.8 2.85714286,2.59106622 2.85714286,2.33333333 C2.85714286,2.07560045 3.0703406,1.86666667 3.33333333,1.86666667 C3.59632607,1.86666667 3.80952381,2.07560045 3.80952381,2.33333333 C3.80952381,2.59106622 3.59632607,2.8 3.33333333,2.8 Z M3.33333333,1.86666667 C3.0703406,1.86666667 2.85714286,1.65773288 2.85714286,1.4 C2.85714286,1.14226712 3.0703406,0.933333333 3.33333333,0.933333333 C3.59632607,0.933333333 3.80952381,1.14226712 3.80952381,1.4 C3.80952381,1.65773288 3.59632607,1.86666667 3.33333333,1.86666667 Z" id="Oval-197" stroke="none" fill="#FFD033" fill-rule="evenodd" mask="url(#mask-4)"></path>
                        <ellipse id="Oval-193" stroke="none" fill="#FFFFFF" fill-rule="evenodd" mask="url(#mask-4)" cx="2.38095238" cy="2.8" rx="1" ry="1.4"></ellipse>
                    </g>
                </g>
                <path d="M11.9047619,9.33333333 C11.9047619,10.2233974 13.2056189,10.7333333 14.7619048,10.7333333 C16.3181906,10.7333333 17.6190476,10.2233974 17.6190476,9.33333333 C17.6190476,9.07560045 17.4058499,8.86666667 17.1428571,8.86666667 C16.8798644,8.86666667 16.6666667,9.07560045 16.6666667,9.33333333 C16.6666667,9.34225583 16.5512422,9.44923035 16.2686396,9.56001054 C15.885012,9.71039257 15.3445636,9.8 14.7619048,9.8 C14.1792459,9.8 13.6387975,9.71039257 13.2551699,9.56001054 C12.9725674,9.44923035 12.8571429,9.34225583 12.8571429,9.33333333 C12.8571429,9.07560045 12.6439451,8.86666667 12.3809524,8.86666667 C12.1179596,8.86666667 11.9047619,9.07560045 11.9047619,9.33333333 L11.9047619,9.33333333 Z" id="Shape" fill="#FFD033" fill-rule="nonzero" mask="url(#mask-2)"></path>
                <path d="M3,2.95532874 L-0.915073896,-0.333333333 L0.476190476,-0.333333333 L0.667344591,-0.273077307 L3.91459789,2 L4.66793439,2 L8.9047619,-0.595056854 L8.9047619,0.127518717 C8.9047619,0.421467598 8.72682548,0.764774019 8.48980203,0.930690433 L5.57142857,2.97355185 L5.57142857,3.57800459 L8.52426486,6.05838707 C8.84929214,6.33141 8.77573053,6.74252531 8.42075893,6.84361001 L8.42075893,6.86666667 C8.39087827,6.86666667 8.35964744,6.86507231 8.32747058,6.86201742 C8.30142189,6.86507582 8.27422353,6.86666667 8.24590774,6.86666667 L8.24590774,6.85151409 C8.03044514,6.8168783 7.78962448,6.72628899 7.63130332,6.61546418 L4.65683068,4.53333333 L3.90349418,4.53333333 L-0.333333333,7.12839019 L-0.333333333,5.89311481 L3,3.55978148 L3,2.95532874 Z" id="Rectangle-36" stroke="#FFFFFF" stroke-width="0.666666667" fill="#DB1E36" mask="url(#mask-2)"></path>
                <path d="M0,2.33333333 L0,4.2 L3.33333333,4.2 L3.33333333,6.33643909 C3.33333333,6.70291366 3.63095238,7 3.99952661,7 L4.57190196,7 C4.93983035,7 5.23809524,6.70035095 5.23809524,6.33643909 L5.23809524,4.2 L8.38405064,4.2 C8.75052935,4.2 9.04761905,3.90833333 9.04761905,3.52609049 L9.04761905,3.00724284 C9.04761905,2.6350529 8.7486921,2.33333333 8.38405064,2.33333333 L5.23809524,2.33333333 L5.23809524,0 L3.33333333,0 L3.33333333,2.33333333 L0,2.33333333 Z" id="Rectangle-2" fill="#FFFFFF" mask="url(#mask-2)"></path>
                <polygon id="Rectangle-36" fill="#DB1E36" mask="url(#mask-2)" points="0 2.8 3.80952381 2.8 3.80952381 2.33333333 3.80952381 0 4.76190476 0 4.76190476 2.33333333 4.76190476 2.8 8.57142857 2.8 8.57142857 3.73333333 4.76190476 3.73333333 4.76190476 4.2 4.76190476 6.53333333 3.80952381 6.53333333 3.80952381 4.2 3.80952381 3.73333333 0 3.73333333"></polygon>
            </g>
        </g>
    </g>
</svg>