<?xml version="1.0" encoding="UTF-8"?>
<svg width="20px" height="14px" viewBox="0 0 20 14" version="1.1" xmlns="http://www.w3.org/2000/svg" xmlns:xlink="http://www.w3.org/1999/xlink">
    <!-- Generator: Sketch 50.2 (55047) - http://www.bohemiancoding.com/sketch -->
    <title>WW</title>
    <desc>Created with Sketch.</desc>
    <defs>
        <rect id="path-1" x="0" y="0" width="20" height="14" rx="1"></rect>
    </defs>
    <g id="Page-1" stroke="none" stroke-width="1" fill="none" fill-rule="evenodd">
        <g id="Flags" transform="translate(-76.000000, -1180.000000)">
            <g id="WW" transform="translate(76.000000, 1180.000000)">
                <mask id="mask-2" fill="white">
                    <use xlink:href="#path-1"></use>
                </mask>
                <use id="Mask" fill="#FFFFFF" xlink:href="#path-1"></use>
                <rect id="Mask-Copy" fill="#19BFBF" mask="url(#mask-2)" x="0" y="0" width="20" height="14"></rect>
                <path d="M9.72463807,11.1914703 C9.8156824,11.1971281 9.90749897,11.2 10,11.2 C10.092501,11.2 10.1843176,11.1971281 10.2753619,11.1914703 C10.929338,10.4323998 11.348783,9.04099879 11.4183182,7.46666667 L8.58168179,7.46666667 C8.65121704,9.04099879 9.07066197,10.4323998 9.72463807,11.1914703 Z M8.41619813,10.9038842 C7.95186157,9.97706654 7.68059537,8.76962138 7.62835074,7.46666667 L5.74044228,7.46666667 C5.91724745,9.03408291 6.97418538,10.341541 8.41619813,10.9038842 Z M9.72463806,2.80852973 C9.07066197,3.56760022 8.65121704,4.95900121 8.58168179,6.53333333 L11.4183182,6.53333333 C11.348783,4.95900121 10.929338,3.56760022 10.2753619,2.80852973 C10.1843176,2.80287192 10.092501,2.8 10,2.8 C9.90749897,2.8 9.8156824,2.80287192 9.72463806,2.80852973 Z M8.41619812,3.09611578 C6.97418538,3.65845899 5.91724745,4.9659171 5.74044228,6.53333333 L7.62835074,6.53333333 C7.68059537,5.23037862 7.95186157,4.02293346 8.41619812,3.09611578 Z M11.5838019,10.9038842 C13.0258146,10.341541 14.0827525,9.03408291 14.2595577,7.46666667 L12.3716493,7.46666667 C12.3194046,8.76962138 12.0481384,9.97706654 11.5838019,10.9038842 Z M11.5838019,3.09611578 C12.0481384,4.02293346 12.3194046,5.23037862 12.3716493,6.53333333 L14.2595577,6.53333333 C14.0827525,4.9659171 13.0258146,3.65845899 11.5838019,3.09611578 Z M10,12.1333333 C7.10707988,12.1333333 4.76190476,9.83506172 4.76190476,7 C4.76190476,4.16493828 7.10707988,1.86666667 10,1.86666667 C12.8929201,1.86666667 15.2380952,4.16493828 15.2380952,7 C15.2380952,9.83506172 12.8929201,12.1333333 10,12.1333333 Z" id="Oval-143" fill="#FFFFFF" mask="url(#mask-2)"></path>
            </g>
        </g>
    </g>
</svg>