<svg xmlns="http://www.w3.org/2000/svg" xmlns:xlink="http://www.w3.org/1999/xlink" width="46" height="44" viewBox="0 0 46 44"><defs><path id="hynja" d="M978 2068.813v-4.957c0-2.13 1.421-3.856 3.174-3.856h32.652c1.753 0 3.174 1.726 3.174 3.856v26.438c0 2.13-1.421 3.855-3.174 3.855h-32.652c-1.753 0-3.174-1.726-3.174-3.855v-4.407z"/><path id="hynjb" d="M971.5 2071.443v-4.957c0-2.13 1.563-3.856 3.492-3.856h35.916c1.929 0 3.492 1.726 3.492 3.856v26.438c0 2.13-1.563 3.855-3.492 3.855h-35.916c-1.929 0-3.492-1.726-3.492-3.855v-4.407z"/><path id="hynjc" d="M1006.785 2097.04c-.133.75-.317 2.993 1.366 6.103.087.16.075.383-.03.567-.104.185-.282.297-.453.286a7.07 7.07 0 0 1-1.02-.172c-1.801-.413-5.351-1.7-8.972-5.678-.354-.057 11.344-2.036 9.11-1.107z"/><path id="hynjg" d="M978 2083.31c0-.906.728-1.64 1.625-1.64s1.625.734 1.625 1.64c0 .906-.728 1.64-1.625 1.64a1.633 1.633 0 0 1-1.625-1.64z"/><path id="hynjh" d="M987.1 2083.31c0-.906.728-1.64 1.625-1.64s1.625.734 1.625 1.64c0 .906-.728 1.64-1.625 1.64a1.633 1.633 0 0 1-1.625-1.64z"/><path id="hynji" d="M996.2 2083.31c0-.906.728-1.64 1.625-1.64s1.625.734 1.625 1.64c0 .906-.728 1.64-1.625 1.64a1.633 1.633 0 0 1-1.625-1.64z"/><clipPath id="hynjd"><use fill="#fff" xlink:href="#hynja"/></clipPath><clipPath id="hynje"><use fill="#fff" xlink:href="#hynjb"/></clipPath><clipPath id="hynjf"><use fill="#fff" xlink:href="#hynjc"/></clipPath></defs><g><g transform="translate(-971 -2060)"><g><use fill="#fff" xlink:href="#hynja"/><use fill="#fff" fill-opacity="0" stroke="#f50" stroke-miterlimit="50" stroke-width="2" clip-path="url(&quot;#hynjd&quot;)" xlink:href="#hynja"/></g><g><use fill="#fff" xlink:href="#hynjb"/><use fill="#fff" fill-opacity="0" stroke="#f50" stroke-miterlimit="50" stroke-width="2" clip-path="url(&quot;#hynje&quot;)" xlink:href="#hynjb"/></g><g><use fill="#fff" xlink:href="#hynjc"/><use fill="#fff" fill-opacity="0" stroke="#f50" stroke-miterlimit="50" stroke-width="2" clip-path="url(&quot;#hynjf&quot;)" xlink:href="#hynjc"/></g><g><use fill="#fff" fill-opacity="0" stroke="#f50" stroke-miterlimit="50" xlink:href="#hynjg"/></g><g><use fill="#fff" fill-opacity="0" stroke="#f50" stroke-miterlimit="50" xlink:href="#hynjh"/></g><g><use fill="#fff" fill-opacity="0" stroke="#f50" stroke-miterlimit="50" xlink:href="#hynji"/></g></g></g></svg>