<?xml version="1.0" encoding="utf-8"?>
<!-- Generator: Adobe Illustrator 21.1.0, SVG Export Plug-In . SVG Version: 6.00 Build 0)  -->
<svg version="1.1" id="Layer_1" xmlns="http://www.w3.org/2000/svg" xmlns:xlink="http://www.w3.org/1999/xlink" x="0px" y="0px"
	 viewBox="0 0 138 34" style="enable-background:new 0 0 138 34;" xml:space="preserve">
<style type="text/css">
	.st0{enable-background:new    ;}
	.st1{fill:#FFFFFF;}
	.st2{opacity:0.5;enable-background:new    ;}
	.st3{opacity:0.8;fill:#FFFFFF;}
</style>
<title>Group 25</title>
<desc>Created with Sketch.</desc>
<g>
	<g class="st0">
		<path class="st1" d="M113.6,24.9c0,1.6-0.3,2.8-1,3.8c-0.7,0.9-1.6,1.4-2.8,1.4c-1.4,0-2.5-0.5-3.2-1.5v5.2h-1.1v-14h1l0.1,1.4
			c0.7-1.1,1.8-1.6,3.2-1.6c1.2,0,2.2,0.5,2.9,1.4c0.7,0.9,1,2.2,1,3.8V24.9z M112.5,24.7c0-1.3-0.3-2.3-0.8-3.1s-1.3-1.1-2.2-1.1
			c-0.7,0-1.3,0.2-1.8,0.5c-0.5,0.3-0.9,0.8-1.1,1.4v4.9c0.3,0.6,0.7,1,1.2,1.3s1.1,0.5,1.8,0.5c0.9,0,1.7-0.4,2.2-1.1
			C112.3,27.2,112.5,26.1,112.5,24.7z"/>
		<path class="st1" d="M117.4,29.8h-1.1V15.4h1.1V29.8z"/>
		<path class="st1" d="M126.8,29.8c-0.1-0.3-0.2-0.8-0.2-1.4c-0.4,0.5-0.9,0.9-1.5,1.2s-1.3,0.4-1.9,0.4c-1,0-1.8-0.3-2.4-0.8
			c-0.6-0.5-0.9-1.2-0.9-2.1c0-1,0.4-1.8,1.2-2.3c0.8-0.6,2-0.9,3.4-0.9h2v-1.2c0-0.7-0.2-1.3-0.7-1.7c-0.4-0.4-1.1-0.6-2-0.6
			c-0.8,0-1.4,0.2-1.9,0.6c-0.5,0.4-0.8,0.9-0.8,1.4l-1.1,0c0-0.8,0.4-1.5,1.1-2.1s1.7-0.9,2.8-0.9c1.1,0,2,0.3,2.7,0.8
			c0.7,0.6,1,1.4,1,2.4v4.8c0,1,0.1,1.7,0.3,2.2v0.1H126.8z M123.3,29c0.8,0,1.4-0.2,2-0.5c0.6-0.4,1-0.8,1.3-1.5v-2.2h-2
			c-1.1,0-2,0.2-2.6,0.6c-0.6,0.4-0.9,0.9-0.9,1.6c0,0.6,0.2,1,0.6,1.4S122.6,29,123.3,29z"/>
		<path class="st1" d="M133.8,28.2l3-8.5h1.2l-4.3,11.9l-0.2,0.5c-0.6,1.2-1.4,1.8-2.6,1.8c-0.3,0-0.6,0-0.9-0.1l0-0.9l0.6,0.1
			c0.6,0,1-0.1,1.3-0.4c0.3-0.3,0.6-0.7,0.9-1.4l0.5-1.4l-3.8-10.1h1.2L133.8,28.2z"/>
	</g>
	<g class="st2">
		<path class="st1" d="M43.4,9.8V1.3h2.4c0.7,0,1.4,0.2,2,0.5s1,0.8,1.3,1.4s0.5,1.3,0.5,2.1v0.5c0,0.8-0.2,1.5-0.5,2.1
			S48.4,9,47.8,9.3s-1.2,0.5-2,0.5H43.4z M44.5,2.2v6.7h1.2c0.9,0,1.5-0.3,2-0.8c0.5-0.5,0.7-1.3,0.7-2.3V5.3c0-1-0.2-1.7-0.7-2.3
			c-0.5-0.5-1.1-0.8-1.9-0.8H44.5z"/>
		<path class="st1" d="M51.8,6.6c0-0.6,0.1-1.2,0.4-1.7s0.6-0.9,1-1.1s0.9-0.4,1.5-0.4c0.9,0,1.6,0.3,2.1,0.9s0.8,1.4,0.8,2.4v0.1
			c0,0.6-0.1,1.2-0.4,1.7s-0.6,0.9-1,1.1s-0.9,0.4-1.5,0.4c-0.9,0-1.6-0.3-2.1-0.9S51.8,7.7,51.8,6.6L51.8,6.6z M52.9,6.7
			c0,0.7,0.2,1.3,0.5,1.7s0.8,0.6,1.3,0.6c0.6,0,1-0.2,1.3-0.6s0.5-1,0.5-1.8c0-0.7-0.2-1.3-0.5-1.7s-0.8-0.6-1.3-0.6
			c-0.5,0-1,0.2-1.3,0.6S52.9,5.9,52.9,6.7z"/>
		<path class="st1" d="M65.5,8.3l1.2-4.8h1.1L66,9.8h-0.9L63.5,5L62,9.8h-0.9l-1.8-6.3h1.1l1.2,4.7l1.5-4.7H64L65.5,8.3z"/>
		<path class="st1" d="M70.9,3.5l0,0.8c0.5-0.6,1.1-0.9,1.9-0.9c1.3,0,2,0.8,2,2.3v4.2h-1.1V5.6c0-0.5-0.1-0.8-0.3-1s-0.5-0.3-1-0.3
			c-0.4,0-0.7,0.1-0.9,0.3S71.1,5,70.9,5.3v4.5h-1.1V3.5H70.9z"/>
		<path class="st1" d="M78.6,9.8h-1.1v-9h1.1V9.8z"/>
		<path class="st1" d="M81,6.6c0-0.6,0.1-1.2,0.4-1.7s0.6-0.9,1-1.1s0.9-0.4,1.5-0.4c0.9,0,1.6,0.3,2.1,0.9s0.8,1.4,0.8,2.4v0.1
			c0,0.6-0.1,1.2-0.4,1.7s-0.6,0.9-1,1.1s-0.9,0.4-1.5,0.4c-0.9,0-1.6-0.3-2.1-0.9S81,7.7,81,6.6L81,6.6z M82.1,6.7
			c0,0.7,0.2,1.3,0.5,1.7s0.8,0.6,1.3,0.6c0.6,0,1-0.2,1.3-0.6s0.5-1,0.5-1.8c0-0.7-0.2-1.3-0.5-1.7s-0.8-0.6-1.3-0.6
			c-0.5,0-1,0.2-1.3,0.6S82.1,5.9,82.1,6.7z"/>
		<path class="st1" d="M93,9.8c-0.1-0.1-0.1-0.3-0.2-0.7c-0.5,0.5-1.1,0.8-1.8,0.8c-0.6,0-1.1-0.2-1.5-0.5s-0.6-0.8-0.6-1.3
			c0-0.7,0.3-1.2,0.8-1.5S90.9,6,91.8,6h1.1V5.5c0-0.4-0.1-0.7-0.3-0.9s-0.6-0.3-1-0.3c-0.4,0-0.7,0.1-1,0.3S90.2,5,90.2,5.2h-1.1
			c0-0.3,0.1-0.6,0.3-0.9s0.5-0.5,0.9-0.7s0.8-0.3,1.3-0.3c0.7,0,1.3,0.2,1.7,0.5s0.6,0.9,0.6,1.5v2.9c0,0.6,0.1,1,0.2,1.4v0.1H93z
			 M91.2,9c0.3,0,0.7-0.1,1-0.3s0.5-0.4,0.7-0.7V6.7H92c-1.3,0-2,0.4-2,1.2c0,0.3,0.1,0.6,0.3,0.8S90.9,9,91.2,9z"/>
		<path class="st1" d="M96.3,6.6c0-1,0.2-1.8,0.7-2.3s1.1-0.9,1.8-0.9c0.7,0,1.3,0.3,1.8,0.8V0.8h1.1v9h-1l-0.1-0.7
			c-0.4,0.5-1,0.8-1.8,0.8c-0.7,0-1.3-0.3-1.8-0.9S96.3,7.7,96.3,6.6L96.3,6.6z M97.4,6.7c0,0.7,0.1,1.3,0.4,1.7S98.6,9,99.1,9
			c0.7,0,1.2-0.3,1.5-0.9V5.2c-0.3-0.6-0.8-0.9-1.5-0.9c-0.5,0-0.9,0.2-1.2,0.6S97.4,5.9,97.4,6.7z"/>
		<path class="st1" d="M108,6.6c0-0.6,0.1-1.2,0.4-1.7s0.6-0.9,1-1.1s0.9-0.4,1.5-0.4c0.9,0,1.6,0.3,2.1,0.9s0.8,1.4,0.8,2.4v0.1
			c0,0.6-0.1,1.2-0.4,1.7s-0.6,0.9-1,1.1s-0.9,0.4-1.5,0.4c-0.9,0-1.6-0.3-2.1-0.9S108,7.7,108,6.6L108,6.6z M109.1,6.7
			c0,0.7,0.2,1.3,0.5,1.7s0.8,0.6,1.3,0.6c0.6,0,1-0.2,1.3-0.6s0.5-1,0.5-1.8c0-0.7-0.2-1.3-0.5-1.7s-0.8-0.6-1.3-0.6
			c-0.5,0-1,0.2-1.3,0.6S109.1,5.9,109.1,6.7z"/>
		<path class="st1" d="M117.1,3.5l0,0.8c0.5-0.6,1.1-0.9,1.9-0.9c1.3,0,2,0.8,2,2.3v4.2H120V5.6c0-0.5-0.1-0.8-0.3-1s-0.5-0.3-1-0.3
			c-0.4,0-0.7,0.1-0.9,0.3s-0.5,0.4-0.6,0.7v4.5h-1.1V3.5H117.1z"/>
	</g>
	<path class="st3" d="M0,29.8V2.2c0-1,0.6-1.8,1.4-2.2l16.2,16L1.4,32C0.6,31.6,0,30.8,0,29.8z M22.4,21.3l-17.6,10l13.9-13.6
		L22.4,21.3z M27.9,14.1c0.6,0.4,1,1.1,1,1.9c0,0.8-0.4,1.4-0.9,1.9L24.1,20L20,16l4.1-4L27.9,14.1z M4.8,0.8l17.6,10l-3.7,3.6
		L4.8,0.8z"/>
	<g>
		<path id="XMLID_10_" class="st1" d="M49.5,22.5v1.9H54c-0.1,1.1-0.5,1.9-1,2.4c-0.7,0.7-1.7,1.4-3.5,1.4c-2.8,0-5-2.3-5-5.1
			s2.2-5.1,5-5.1c1.5,0,2.6,0.6,3.4,1.4l1.3-1.3c-1.1-1.1-2.6-1.9-4.8-1.9c-3.8,0-7.1,3.1-7.1,7s3.2,7,7.1,7c2.1,0,3.6-0.7,4.9-2
			c1.3-1.3,1.6-3,1.6-4.5c0-0.4,0-0.9-0.1-1.2H49.5z"/>
		<path id="XMLID_24_" class="st1" d="M61.7,21c-2.5,0-4.5,1.9-4.5,4.5c0,2.6,2,4.5,4.5,4.5s4.5-1.9,4.5-4.5
			C66.2,22.9,64.2,21,61.7,21z M61.7,28.2c-1.4,0-2.5-1.1-2.5-2.7c0-1.6,1.2-2.7,2.5-2.7s2.5,1.1,2.5,2.7
			C64.2,27.1,63.1,28.2,61.7,28.2z"/>
		<path id="XMLID_21_" class="st1" d="M83.8,22L83.8,22c-0.5-0.5-1.4-1-2.4-1c-2.2,0-4.2,2-4.2,4.5c0,2.5,2,4.5,4.2,4.5
			c1.1,0,1.9-0.5,2.4-1h0.1v0.6c0,1.7-0.9,2.6-2.4,2.6c-1.2,0-2-0.9-2.3-1.6l-1.7,0.7c0.5,1.2,1.8,2.7,4,2.7c2.3,0,4.3-1.4,4.3-4.7
			v-8.1h-1.9V22z M81.6,28.2c-1.4,0-2.4-1.2-2.4-2.7c0-1.6,1-2.7,2.4-2.7c1.3,0,2.4,1.2,2.4,2.7C84,27.1,82.9,28.2,81.6,28.2z"/>
		<path id="XMLID_18_" class="st1" d="M71.8,21c-2.5,0-4.5,1.9-4.5,4.5c0,2.6,2,4.5,4.5,4.5c2.5,0,4.5-1.9,4.5-4.5
			C76.3,22.9,74.2,21,71.8,21z M71.8,28.2c-1.4,0-2.5-1.1-2.5-2.7c0-1.6,1.2-2.7,2.5-2.7c1.4,0,2.5,1.1,2.5,2.7
			C74.3,27.1,73.1,28.2,71.8,28.2z"/>
		<path id="XMLID_3_" class="st1" d="M87.2,16.4h1.9V30h-1.9V16.4z"/>
		<path id="XMLID_14_" class="st1" d="M95.2,28.2c-1,0-1.7-0.5-2.2-1.4l6-2.5l-0.2-0.5c-0.4-1-1.5-2.9-3.8-2.9
			c-2.3,0-4.2,1.8-4.2,4.5c0,2.5,1.9,4.5,4.5,4.5c2.1,0,3.3-1.3,3.7-2l-1.5-1C96.9,27.7,96.2,28.2,95.2,28.2L95.2,28.2z M95,22.7
			c0.8,0,1.5,0.4,1.7,1l-4.1,1.7C92.7,23.4,94,22.7,95,22.7z"/>
	</g>
</g>
</svg>
