<svg xmlns="http://www.w3.org/2000/svg" xmlns:xlink="http://www.w3.org/1999/xlink" width="114" height="48" viewBox="0 0 114 48"><defs><path id="n9kza" d="M103 72.88h17.357v19.99H103z"/><path id="n9kzd" d="M106.249 77.169c0-.067.09-.093.125-.035l9.652 15.727h4.33V72.87h-3.26v15.61c0 .068-.09.094-.125.036l-9.646-15.646H103v19.991h3.249z"/><path id="n9kzb" d="M103 120.139h113.686V72.88H103z"/><path id="n9kzf" d="M127.23 75.676h49.405V72.88H127.23z"/><path id="n9kzg" d="M127.23 92.866h49.405V90.07H127.23z"/><path id="n9kzh" d="M127.23 84.266h49.405V81.47H127.23z"/><path id="n9kzi" d="M198.978 72.88h-3.535l-4.631 7.562-4.632-7.562h-3.646l6.221 9.626-6.645 10.364h3.508l5.056-8.177 5.016 8.177h3.768l-6.742-10.31z"/><path id="n9kzj" d="M201.63 72.88v2.804h5.893V92.87h3.275V75.683h5.892V72.88z"/><path id="n9kzk" d="M113.533 115.458a.068.068 0 0 1-.129 0l-5.433-15.888h-4.881v19.99h3.175v-16.294c0-.075.106-.094.131-.021l5.618 16.315h2.91l5.618-16.315c.025-.073.13-.054.13.021v16.294h3.176V99.57h-4.881z"/><path id="n9kzl" d="M175.74 119.56h3.275V99.57h-3.275z"/><path id="n9kzm" d="M189.595 99.57h-3.275v19.99h11.758v-2.802h-8.483z"/><path id="n9kzn" d="M205.335 110.597h8.24v-2.823h-8.24v-5.442h8.328V99.57H202.06v19.991h11.69v-2.776h-8.415z"/><path id="n9kzo" d="M166.787 109.172c1.746.523 3.302 2.577 3.302 4.55 0 3.402-2.366 5.838-5.877 5.838h-8.662V99.57h7.86c3.326 0 5.836 1.968 5.836 5.545 0 1.592-1.056 3.286-2.467 3.926-.065.029-.06.11.008.131zm-7.962-1.06h4.233c1.594 0 2.89-1.24 2.89-2.997 0-1.756-1.296-2.745-2.89-2.745h-4.233zm5.03 8.638c1.613 0 2.925-1.318 2.925-3.034 0-1.714-1.312-3.03-2.925-3.03h-5.03v6.064z"/><path id="n9kzp" d="M139.782 99.05c-6.326 0-10.742 4.282-10.742 10.544 0 6.261 4.416 10.544 10.742 10.544 6.225 0 10.743-4.383 10.743-10.544 0-6.161-4.518-10.544-10.743-10.544m0 18.201c-4.517 0-7.39-3.2-7.39-7.657s2.873-7.658 7.39-7.658c4.517 0 7.391 3.2 7.391 7.658 0 4.457-2.874 7.657-7.39 7.657"/><clipPath id="n9kzc"><use xlink:href="#n9kza"/></clipPath><clipPath id="n9kze"><use xlink:href="#n9kzb"/></clipPath></defs><g><g opacity=".9" transform="translate(-103 -73)"><g opacity=".9"><g opacity=".9"/><g clip-path="url(#n9kzc)" opacity=".9"><use fill="#fefefe" xlink:href="#n9kzd"/></g></g><g opacity=".9"/><g clip-path="url(#n9kze)" opacity=".9"><use fill="#fefefe" xlink:href="#n9kzf"/></g><g clip-path="url(#n9kze)" opacity=".9"><use fill="#fefefe" xlink:href="#n9kzg"/></g><g clip-path="url(#n9kze)" opacity=".9"><use fill="#fefefe" xlink:href="#n9kzh"/></g><g clip-path="url(#n9kze)" opacity=".9"><use fill="#fefefe" xlink:href="#n9kzi"/></g><g clip-path="url(#n9kze)" opacity=".9"><use fill="#fefefe" xlink:href="#n9kzj"/></g><g clip-path="url(#n9kze)" opacity=".9"><use fill="#fefefe" xlink:href="#n9kzk"/></g><g clip-path="url(#n9kze)" opacity=".9"><use fill="#fefefe" xlink:href="#n9kzl"/></g><g clip-path="url(#n9kze)" opacity=".9"><use fill="#fefefe" xlink:href="#n9kzm"/></g><g clip-path="url(#n9kze)" opacity=".9"><use fill="#fefefe" xlink:href="#n9kzn"/></g><g clip-path="url(#n9kze)" opacity=".9"><use fill="#fefefe" xlink:href="#n9kzo"/></g><g clip-path="url(#n9kze)" opacity=".9"><use fill="#fefefe" xlink:href="#n9kzp"/></g></g></g></svg>