<?xml version="1.0" encoding="utf-8"?>
<!-- Generator: Adobe Illustrator 19.1.0, SVG Export Plug-In . SVG Version: 6.00 Build 0)  -->
<svg version="1.1" id="Layer_1" xmlns="http://www.w3.org/2000/svg" xmlns:xlink="http://www.w3.org/1999/xlink" x="0px" y="0px"
	 viewBox="0 0 63 23" style="enable-background:new 0 0 63 23;" xml:space="preserve">
<g>
	<path d="M24.6,5.8c-4.2,0-7.1,3.6-7.1,8.5c0,4.8,3.1,8.5,7.3,8.5c2.6,0,4.6-0.9,6.5-2.7l0.1-0.1l-0.8-0.9l-0.1,0.1
		c-1.7,1.6-3.4,2.4-5.7,2.4c-3.6,0-6-3.1-6-7.3l0-0.2h4.2c2.8,0,6.2,0,8.1,0h0.6v-0.5C31.6,9,28.8,5.8,24.6,5.8z M24.6,7.1
		c3.3,0,5.6,2.2,5.8,5.7c-2,0-5,0-7.5,0h-4.1C19.2,9.2,21.5,7.1,24.6,7.1z"/>
	<path d="M4,5.7H0v17h1.3V7H4c1.5,0,3.2,0.1,3.7,0.2c2.4,0.6,3.3,2,3.6,3.7c0.1,0.6,0.3,1.5,0.3,3.7v8H13v-8c0-2.3-0.2-3.4-0.3-4.1
		C12.2,8.5,11.1,6.6,8,6C7.4,5.8,5.6,5.7,4,5.7z"/>
	<path d="M60.6,21.3c-3.6,0-6.3-1.7-6.3-6.1v-8H60V5.7h-5.7V0.2H53v15c0,5.1,2.9,7.5,8,7.5h2v-1.4H60.6z"/>
	<polygon points="47.7,5.7 41.9,13.3 36.2,5.7 34.5,5.7 41.1,14.3 34.4,22.7 36,22.7 41.9,15.3 47.7,22.7 49.3,22.7 42.7,14.3 
		49.3,5.7 	"/>
</g>
</svg>
