<svg xmlns="http://www.w3.org/2000/svg" xmlns:xlink="http://www.w3.org/1999/xlink" width="278" height="25" viewBox="0 0 278 25"><defs><path id="k0zfa" d="M50.706 51h-4.981L33.502 31.875h-.136l.085 1.068a72.54 72.54 0 0 1 .238 5.581V51H30V27h4.93l12.188 19.026h.103c-.023-.252-.068-1.168-.136-2.75a90.907 90.907 0 0 1-.103-3.702V27h3.724z"/><path id="k0zfb" d="M56.75 50.999h58.667V47.57H56.75z"/><path id="k0zfc" d="M56.75 30.429h58.667V27H56.75z"/><path id="k0zfd" d="M56.75 40.719h58.667V37.29H56.75z"/><path id="k0zfe" d="M141.296 51h-4.498l-5.986-9.817L124.777 51h-4.187l7.932-12.443L121.097 27h4.35l5.529 9.078L136.504 27h4.22l-7.475 11.622z"/><path id="k0zff" d="M154.91 51h-3.941V30.365h-7.089V27h18.118v3.365h-7.089z"/><path id="k0zfg" d="M187.858 51.138l-7.285-20.16h-.137c.195 2.995.292 5.802.292 8.421v11.739H177V27h5.79l6.974 19.2h.103L197.05 27h5.806v24.138h-3.95V39.2c0-1.2.03-2.763.094-4.69.062-1.925.117-3.092.163-3.5h-.138l-7.541 20.127z"/><path id="k0zfh" d="M238.19 27h7.138c3.312 0 5.705.485 7.18 1.453 1.474.969 2.212 2.499 2.212 4.59 0 1.409-.362 2.581-1.086 3.516-.724.936-1.765 1.525-3.125 1.767v.165c1.689.32 2.93.95 3.725 1.89.795.942 1.193 2.216 1.193 3.823 0 2.168-.754 3.865-2.262 5.093-1.507 1.227-3.604 1.84-6.29 1.84h-8.685zm3.931 9.972h3.783c1.645 0 2.845-.26 3.602-.784.757-.523 1.135-1.412 1.135-2.666 0-1.134-.409-1.954-1.225-2.46-.818-.507-2.114-.76-3.89-.76h-3.405zm0 3.203v7.654h4.177c1.646 0 2.887-.317 3.726-.95.84-.634 1.258-1.634 1.258-3 0-1.257-.427-2.188-1.283-2.794-.855-.607-2.154-.91-3.898-.91z"/><path id="k0zfi" d="M262.32 51.138h3.447V27h-3.447z"/><path id="k0zfj" d="M274.39 51.138V27h4.081v20.753h10.57v3.385z"/><path id="k0zfk" d="M308 51.138h-13.79V27H308v3.335h-9.805v6.57h9.188v3.304h-9.188v7.577H308z"/><path id="k0zfl" d="M220.958 52c-7.128 0-12.928-5.608-12.928-12.5 0-6.893 5.8-12.5 12.928-12.5 7.127 0 12.927 5.607 12.927 12.5 0 6.892-5.8 12.5-12.927 12.5m0-21.423c-5.09 0-9.228 4-9.228 8.917 0 4.918 4.139 8.918 9.228 8.918 5.089 0 9.227-4 9.227-8.918 0-4.916-4.139-8.917-9.227-8.917"/></defs><g><g transform="translate(-30 -27)"><g><g><use fill="#fff" xlink:href="#k0zfa"/></g><g><use fill="#fff" xlink:href="#k0zfb"/></g><g><use fill="#fff" xlink:href="#k0zfc"/></g><g><use fill="#fff" xlink:href="#k0zfd"/></g><g><use fill="#fff" xlink:href="#k0zfe"/></g><g><use fill="#fff" xlink:href="#k0zff"/></g></g><g><g><use fill="#fff" xlink:href="#k0zfg"/></g><g><use fill="#fff" xlink:href="#k0zfh"/></g><g><use fill="#fff" xlink:href="#k0zfi"/></g><g><use fill="#fff" xlink:href="#k0zfj"/></g><g><use fill="#fff" xlink:href="#k0zfk"/></g><g><use fill="#fff" xlink:href="#k0zfl"/></g></g></g></g></svg>