<svg xmlns="http://www.w3.org/2000/svg" xmlns:xlink="http://www.w3.org/1999/xlink" width="65" height="53" viewBox="0 0 65 53"><defs><path id="ssvua" d="M672.36 2069.72c0-4.153 3.358-7.52 7.5-7.52 4.142 0 7.5 3.367 7.5 7.52s-3.358 7.52-7.5 7.52c-4.142 0-7.5-3.367-7.5-7.52z"/><path id="ssvub" d="M667.36 2069.725c0-7.265 5.876-13.155 13.125-13.155s13.125 5.89 13.125 13.155-5.876 13.155-13.125 13.155-13.125-5.89-13.125-13.155z"/><path id="ssvuc" d="M660.48 2069.72c0-10.725 8.674-19.42 19.375-19.42 10.7 0 19.375 8.695 19.375 19.42 0 10.725-8.674 19.42-19.375 19.42-10.7 0-19.375-8.695-19.375-19.42z"/><path id="ssvud" d="M644.76 2062.38a5.67 5.67 0 0 1 5.67-5.67h16.42a5.67 5.67 0 0 1 5.67 5.67v34.73a5.67 5.67 0 0 1-5.67 5.67h-16.42a5.67 5.67 0 0 1-5.67-5.67z"/><path id="ssvue" d="M646.71 2093.29a2.09 2.09 0 1 1 4.18 0 2.09 2.09 0 0 1-4.18 0z"/><path id="ssvuf" d="M693.615 2045.25l-13.745 25.056 28.756 24.438 17.492-35.078z"/><clipPath id="ssvuh"><use fill="#fff" xlink:href="#ssvua"/></clipPath><clipPath id="ssvui"><use fill="#fff" xlink:href="#ssvub"/></clipPath><clipPath id="ssvuj"><use fill="#fff" xlink:href="#ssvuc"/></clipPath><clipPath id="ssvuk"><use fill="#fff" xlink:href="#ssvud"/></clipPath><clipPath id="ssvul"><use fill="#fff" xlink:href="#ssvue"/></clipPath><clipPath id="ssvug"><use xlink:href="#ssvuf"/></clipPath></defs><g><g transform="translate(-635 -2052)"><g transform="rotate(3 703 2069.5)"/><g clip-path="url(#ssvug)" transform="rotate(3 680 2070)"><use fill="#fff" fill-opacity="0" stroke="#f50" stroke-miterlimit="50" stroke-width="2" clip-path="url(&quot;#ssvuh&quot;)" xlink:href="#ssvua"/></g><g clip-path="url(#ssvug)" transform="rotate(3 680.5 2069.5)"><use fill="#fff" fill-opacity="0" stroke="#f50" stroke-miterlimit="50" stroke-width="2" clip-path="url(&quot;#ssvui&quot;)" xlink:href="#ssvub"/></g><g clip-path="url(#ssvug)" transform="rotate(3 680 2070)"><use fill="#fff" fill-opacity="0" stroke="#f50" stroke-miterlimit="50" stroke-width="2" clip-path="url(&quot;#ssvuj&quot;)" xlink:href="#ssvuc"/></g></g><g transform="rotate(37 3407.39 105.093)"><use fill="#fff" fill-opacity="0" stroke="#f50" stroke-miterlimit="50" stroke-width="2" clip-path="url(&quot;#ssvuk&quot;)" xlink:href="#ssvud"/></g><g transform="rotate(37 3397.39 118.593)"><use fill="#fff" fill-opacity="0" stroke="#f50" stroke-miterlimit="50" stroke-width="2" clip-path="url(&quot;#ssvul&quot;)" xlink:href="#ssvue"/></g></g></svg>