<?xml version="1.0" encoding="UTF-8"?>
<svg width="20px" height="14px" viewBox="0 0 20 14" version="1.1" xmlns="http://www.w3.org/2000/svg" xmlns:xlink="http://www.w3.org/1999/xlink">
    <!-- Generator: Sketch 50.2 (55047) - http://www.bohemiancoding.com/sketch -->
    <title>AL</title>
    <desc>Created with Sketch.</desc>
    <defs>
        <rect id="path-1" x="0" y="0" width="20" height="13.6363636" rx="1"></rect>
    </defs>
    <g id="Page-1" stroke="none" stroke-width="1" fill="none" fill-rule="evenodd">
        <g id="Flags" transform="translate(-76.000000, -28.000000)">
            <g id="AL" transform="translate(76.000000, 28.000000)">
                <mask id="mask-2" fill="white">
                    <use xlink:href="#path-1"></use>
                </mask>
                <g id="Mask"></g>
                <rect id="Mask" fill="#EE343C" mask="url(#mask-2)" x="0" y="0" width="20" height="13.6363636"></rect>
                <path d="M9.05507769,3.18893779 C8.78796566,2.93396722 8.32259042,2.88562428 8.00681932,3.08656953 L7.7074664,3.27706684 C7.39564132,3.47550098 7.40770612,3.76276883 7.74553571,3.92400568 L8.44494048,4.2578125 C8.77779066,4.41667282 9.04761905,4.85323126 9.04761905,5.20613237 L9.04761905,4.79386763 C9.04761905,5.15874992 8.74627976,5.45454545 8.37583269,5.45454545 L8.76702445,5.45454545 C8.39600709,5.45454545 7.83038911,5.32814026 7.49255952,5.16690341 L6.79315476,4.83309659 C6.46030458,4.67423628 5.96958705,4.75630327 5.71428571,5 L5.71428571,5 C5.45129298,5.25103852 5.50294422,5.58095065 5.84077381,5.7421875 L6.54017857,6.07599432 C6.87302876,6.23485463 6.89401899,6.52198792 6.57824789,6.72293316 L6.27889497,6.91343047 C5.96706989,7.11186462 6.00623721,7.32846347 6.36489142,7.39693382 L7.44463239,7.60306618 C7.803952,7.67166356 7.84622374,7.90554437 7.55450476,8.11438864 L6.73120953,8.70379318 C6.43257075,8.91759139 6.49181548,9.09090909 6.86226254,9.09090909 L6.47107079,9.09090909 C6.84208815,9.09090909 7.44047619,9.01988636 7.78772263,8.93702074 L8.40275356,8.79025199 C8.75890293,8.7052618 8.88172695,8.87389096 8.66024926,9.19100675 L8.48260789,9.44535689 C8.26866946,9.75167782 8.39820135,10 8.75933738,10 L8.85971024,10 C9.22648215,10 9.62479728,10.2891922 9.74517595,10.633913 L9.77863357,10.7297234 C9.90089087,11.0798239 10.1009878,11.0744442 10.2213664,10.7297234 L10.254824,10.633913 C10.3770814,10.2838125 10.7791537,10 11.1402898,10 L11.2406626,10 C11.6074345,10 11.7388698,9.76247267 11.5173921,9.44535689 L11.3397507,9.19100675 C11.1258123,8.88468582 11.25,8.70738636 11.5972464,8.79025199 L12.2122774,8.93702074 C12.5684267,9.02201093 13.1584821,9.09090909 13.5289292,9.09090909 L13.1377375,9.09090909 C13.5087548,9.09090909 13.5605095,8.91263745 13.2687905,8.70379318 L12.4454952,8.11438864 C12.1468565,7.90059042 12.1967134,7.67153653 12.5553676,7.60306618 L13.6351086,7.39693382 C13.9944282,7.32833644 14.0368761,7.11437572 13.721105,6.91343047 L13.4217521,6.72293316 C13.109927,6.52449902 13.1219918,6.23723117 13.4598214,6.07599432 L14.1592262,5.7421875 C14.4920764,5.58332718 14.5410156,5.24369673 14.2857143,5 L14.2857143,5 C14.0227215,4.74896148 13.5446748,4.67185974 13.2068452,4.83309659 L12.5074405,5.16690341 C12.1745903,5.32576372 11.6034226,5.45454545 11.2329756,5.45454545 L11.6241673,5.45454545 C11.2531499,5.45454545 10.952381,5.14676874 10.952381,4.79386763 L10.952381,5.20613237 C10.952381,4.84125008 11.2165179,4.4193892 11.5570286,4.2568727 L12.8571429,3.63636364 L11.9931807,3.08656953 C11.6813556,2.88813538 11.2177808,2.92848197 10.9449223,3.18893779 L10.4836491,3.62924402 C10.2165371,3.8842146 9.78920937,3.88969985 9.51635088,3.62924402 L9.05507769,3.18893779 Z" id="Line" fill="#262626" mask="url(#mask-2)"></path>
            </g>
        </g>
    </g>
</svg>