<?xml version="1.0" encoding="UTF-8"?>
<svg width="20px" height="14px" viewBox="0 0 20 14" version="1.1" xmlns="http://www.w3.org/2000/svg" xmlns:xlink="http://www.w3.org/1999/xlink">
    <!-- Generator: Sketch 50.2 (55047) - http://www.bohemiancoding.com/sketch -->
    <title>AN</title>
    <desc>Created with Sketch.</desc>
    <defs>
        <rect id="path-1" x="0" y="0" width="20" height="14" rx="1"></rect>
    </defs>
    <g id="Page-1" stroke="none" stroke-width="1" fill="none" fill-rule="evenodd">
        <g id="Flags" transform="translate(-652.000000, -28.000000)">
            <g id="AN" transform="translate(652.000000, 28.000000)">
                <mask id="mask-2" fill="white">
                    <use xlink:href="#path-1"></use>
                </mask>
                <rect stroke="#F5F5F5" stroke-width="0.5" x="0.25" y="0.25" width="19.5" height="13.5" rx="1"></rect>
                <rect id="Mask" fill="#D6182D" mask="url(#mask-2)" x="7.61904762" y="0" width="4.76190476" height="14"></rect>
                <rect id="Mask" fill="#1425A2" mask="url(#mask-2)" x="0" y="4.66666667" width="20" height="4.66666667"></rect>
                <polygon id="Star-2" fill="#FFFFFF" mask="url(#mask-2)" points="8.0952381 8.16666667 7.75852058 8.2633165 7.85714286 7.93333333 7.75852058 7.60335017 8.0952381 7.7 8.43195561 7.60335017 8.33333333 7.93333333 8.43195561 8.2633165"></polygon>
                <polygon id="Star-2" fill="#FFFFFF" mask="url(#mask-2)" points="11.9047619 8.16666667 11.5680444 8.2633165 11.6666667 7.93333333 11.5680444 7.60335017 11.9047619 7.7 12.2414794 7.60335017 12.1428571 7.93333333 12.2414794 8.2633165"></polygon>
                <polygon id="Star-2" fill="#FFFFFF" mask="url(#mask-2)" points="6.19047619 7.23333333 5.85375868 7.32998316 5.95238095 7 5.85375868 6.67001684 6.19047619 6.76666667 6.52719371 6.67001684 6.42857143 7 6.52719371 7.32998316"></polygon>
                <polygon id="Star-2" fill="#FFFFFF" mask="url(#mask-2)" points="13.8095238 7.23333333 13.4728063 7.32998316 13.5714286 7 13.4728063 6.67001684 13.8095238 6.76666667 14.1462413 6.67001684 14.047619 7 14.1462413 7.32998316"></polygon>
                <polygon id="Star-2" fill="#FFFFFF" mask="url(#mask-2)" points="10 6.3 9.66328249 6.39664983 9.76190476 6.06666667 9.66328249 5.7366835 10 5.83333333 10.3367175 5.7366835 10.2380952 6.06666667 10.3367175 6.39664983"></polygon>
            </g>
        </g>
    </g>
</svg>