<?xml version="1.0" encoding="UTF-8"?>
<svg width="20px" height="14px" viewBox="0 0 20 14" version="1.1" xmlns="http://www.w3.org/2000/svg" xmlns:xlink="http://www.w3.org/1999/xlink">
    <!-- Generator: Sketch 50.2 (55047) - http://www.bohemiancoding.com/sketch -->
    <title>BB</title>
    <desc>Created with Sketch.</desc>
    <defs>
        <rect id="path-1" x="0" y="0" width="20" height="14" rx="1"></rect>
        <linearGradient x1="50%" y1="0%" x2="50%" y2="100%" id="linearGradient-3">
            <stop stop-color="#1132C7" offset="0%"></stop>
            <stop stop-color="#0522A5" offset="100%"></stop>
        </linearGradient>
    </defs>
    <g id="Page-1" stroke="none" stroke-width="1" fill="none" fill-rule="evenodd">
        <g id="Flags" transform="translate(-124.000000, -76.000000)">
            <g id="BB" transform="translate(124.000000, 76.000000)">
                <mask id="mask-2" fill="white">
                    <use xlink:href="#path-1"></use>
                </mask>
                <use id="Mask" fill="#FFFFFF" xlink:href="#path-1"></use>
                <rect id="Mask-Copy" fill="url(#linearGradient-3)" mask="url(#mask-2)" x="0" y="0" width="20" height="14"></rect>
                <rect id="Mask" fill="#08379D" mask="url(#mask-2)" x="9.52380952" y="0" width="10.4761905" height="14"></rect>
                <rect id="Rectangle-2" fill="#08379D" mask="url(#mask-2)" x="0" y="0" width="6.66666667" height="14"></rect>
                <rect id="Rectangle-2-Copy" fill="#FFCC50" mask="url(#mask-2)" x="6.66666667" y="0" width="6.66666667" height="14"></rect>
                <path d="M9.83183182,4.46993408 C9.93528668,4.32085361 10.1052765,4.32919922 10.1990891,4.46993408 L10.7724453,5.33006592 C10.871821,5.47914639 10.8008993,5.60000001 10.6286766,5.60000002 L10.5617995,5.60000002 C10.3830226,5.60000003 10.2537173,5.75309655 10.2712014,5.92444004 L10.4430844,7.60889334 C10.4613684,7.7880766 10.6268601,7.93333333 10.8017113,7.93333333 L10.6268601,7.93333333 C10.8066403,7.93333333 11.0628255,7.82626034 11.1904762,7.70250651 L11.1904762,7.70250651 C11.3219726,7.57502438 11.4285714,7.32506307 11.4285714,7.13291512 L11.4285714,6.8720979 C11.4285714,6.6850034 11.3181269,6.42509766 11.1904762,6.3 L11.1904762,6.3 C11.0589798,6.17113356 11.0945806,6.02021478 11.2694273,5.96309822 L12.0639061,5.70356849 C12.2390059,5.64636921 12.3522216,5.75309655 12.3200665,5.92444004 L12.0039546,7.60889334 C11.9703283,7.7880766 11.8370478,8.03321635 11.7032509,8.1592673 L11.1921988,8.6407327 C11.0597511,8.76551258 10.8017113,8.86666667 10.6268601,8.86666667 L10.8017113,8.86666667 C10.6219311,8.86666667 10.4761905,9.0125 10.4761905,9.20362142 L10.4761905,9.46304525 C10.4761905,9.64914022 10.327381,9.8 10.1430938,9.8 L9.85690616,9.8 C9.67294197,9.8 9.52380952,9.65416667 9.52380952,9.46304525 L9.52380952,9.20362142 C9.52380952,9.01752645 9.37313988,8.86666667 9.19828869,8.86666667 L9.37313988,8.86666667 C9.19335969,8.86666667 8.9456976,8.76678365 8.80729312,8.63114726 L8.33556402,8.16885274 C8.20283568,8.03877896 8.06399391,7.78023682 8.02902585,7.60889334 L7.68525986,5.92444004 C7.64869185,5.74525677 7.76124727,5.64645192 7.93609392,5.70356849 L8.73057275,5.96309822 C8.90567258,6.02029749 8.93717448,6.17490234 8.80952381,6.3 L8.80952381,6.3 C8.67802744,6.42886644 8.57142857,6.67994995 8.57142857,6.8720979 L8.57142857,7.13291512 C8.57142857,7.32000962 8.68187314,7.57875268 8.80952381,7.70250651 L8.80952381,7.70250651 C8.94102018,7.82998864 9.19828869,7.93333333 9.37313988,7.93333333 L9.19828869,7.93333333 C9.37806888,7.93333333 9.53943162,7.78023682 9.55691565,7.60889333 L9.72879864,5.92444 C9.74708265,5.74525674 9.61042313,5.6 9.43820045,5.6 L9.37132336,5.6 C9.1925464,5.6 9.13727725,5.47080078 9.23494065,5.33006592 L9.83183182,4.46993408 Z" id="Line" fill="#262626" mask="url(#mask-2)"></path>
            </g>
        </g>
    </g>
</svg>