<?xml version="1.0" encoding="UTF-8"?>
<svg width="20px" height="14px" viewBox="0 0 20 14" version="1.1" xmlns="http://www.w3.org/2000/svg" xmlns:xlink="http://www.w3.org/1999/xlink">
    <!-- Generator: Sketch 50.2 (55047) - http://www.bohemiancoding.com/sketch -->
    <title>BI</title>
    <desc>Created with Sketch.</desc>
    <defs>
        <rect id="path-1" x="0" y="0" width="20" height="14" rx="1"></rect>
    </defs>
    <g id="Page-1" stroke="none" stroke-width="1" fill="none" fill-rule="evenodd">
        <g id="Flags" transform="translate(-172.000000, -76.000000)">
            <g id="BI" transform="translate(172.000000, 76.000000)">
                <mask id="mask-2" fill="white">
                    <use xlink:href="#path-1"></use>
                </mask>
                <use id="Mask" fill="#FFFFFF" xlink:href="#path-1"></use>
                <rect id="Mask-Copy" fill="#E4233B" mask="url(#mask-2)" x="0" y="0" width="20" height="14"></rect>
                <polygon id="Rectangle-253" fill="#34CD4E" mask="url(#mask-2)" points="0 0 8.57142857 7 0 14"></polygon>
                <polygon id="Rectangle-253" fill="#34CD4E" mask="url(#mask-2)" transform="translate(15.714286, 7.000000) scale(-1, 1) translate(-15.714286, -7.000000) " points="11.4285714 0 20 7 11.4285714 14"></polygon>
                <path d="M7.90357812,4.46014217 C8.47623726,4.00561781 9.20567197,3.73333333 10,3.73333333 C10.794328,3.73333333 11.5237627,4.00561781 12.0964219,4.46014217 L20.9267007,-1.49595612 L21.9705275,0.0515806865 L13.1701319,5.98752244 C13.2760669,6.30628997 13.3333333,6.64659109 13.3333333,7 C13.3333333,7.35340891 13.2760669,7.69371003 13.1701319,8.01247756 L21.9705275,13.9484193 L20.9267007,15.4959561 L12.0964219,9.53985783 C11.5237627,9.99438219 10.794328,10.2666667 10,10.2666667 C9.20567197,10.2666667 8.47623726,9.99438219 7.90357812,9.53985783 L-0.926700721,15.4959561 L-1.97052747,13.9484193 L6.82986808,8.01247756 C6.72393306,7.69371003 6.66666667,7.35340891 6.66666667,7 C6.66666667,6.64659109 6.72393306,6.30628997 6.82986808,5.98752244 L-1.97052747,0.0515806865 L-0.926700721,-1.49595612 L7.90357812,4.46014217 Z" id="Rectangle-2" fill="#FFFFFF" mask="url(#mask-2)"></path>
                <path d="M10,6.06666667 L9.32656497,6.25996633 L9.52380952,5.6 L9.32656497,4.94003367 L10,5.13333333 L10.673435,4.94003367 L10.4761905,5.6 L10.673435,6.25996633 L10,6.06666667 Z M8.57142857,8.4 L7.89799354,8.59329966 L8.0952381,7.93333333 L7.89799354,7.273367 L8.57142857,7.46666667 L9.2448636,7.273367 L9.04761905,7.93333333 L9.2448636,8.59329966 L8.57142857,8.4 Z M11.4285714,8.4 L10.7551364,8.59329966 L10.952381,7.93333333 L10.7551364,7.273367 L11.4285714,7.46666667 L12.1020065,7.273367 L11.9047619,7.93333333 L12.1020065,8.59329966 L11.4285714,8.4 Z" id="Star-2" fill="#DF2239" mask="url(#mask-2)"></path>
            </g>
        </g>
    </g>
</svg>