<?xml version="1.0" encoding="UTF-8"?>
<svg width="20px" height="14px" viewBox="0 0 20 14" version="1.1" xmlns="http://www.w3.org/2000/svg" xmlns:xlink="http://www.w3.org/1999/xlink">
    <!-- Generator: Sketch 50.2 (55047) - http://www.bohemiancoding.com/sketch -->
    <title>CAF</title>
    <desc>Created with Sketch.</desc>
    <defs>
        <rect id="path-1" x="0" y="0" width="20" height="14" rx="1"></rect>
    </defs>
    <g id="Page-1" stroke="none" stroke-width="1" fill="none" fill-rule="evenodd">
        <g id="Flags" transform="translate(-220.000000, -1180.000000)">
            <g id="CAF" transform="translate(220.000000, 1180.000000)">
                <mask id="mask-2" fill="white">
                    <use xlink:href="#path-1"></use>
                </mask>
                <use id="Mask" fill="#FFFFFF" xlink:href="#path-1"></use>
                <rect id="Mask-Copy" fill="#19BFBF" mask="url(#mask-2)" x="0" y="0" width="20" height="14"></rect>
                <path d="M5.76891082,4.05452894 C5.73874221,3.8771375 5.81669399,3.63297323 5.94784691,3.50444336 L7.38548642,2.09555664 C7.51447871,1.9691442 7.77192979,1.86666667 7.95038132,1.86666667 L8.71628534,1.86666667 C8.89927589,1.86666667 9.11383129,1.99644267 9.19828869,2.16197917 L9.37313988,2.5046875 C9.45635243,2.66778409 9.673273,2.8 9.85559373,2.8 L11.0967872,2.8 C11.2800266,2.8 11.4974744,2.93504982 11.5814536,3.09964905 L12.7042607,5.30035095 C12.7886952,5.46584255 13.010025,5.6 13.1884766,5.6 L13.9543806,5.6 C14.1373711,5.6 14.1919817,5.72247721 14.0870775,5.859552 L13.0557796,7.20711466 C12.9460756,7.35046128 12.7909306,7.59644267 12.7064732,7.76197917 L12.531622,8.1046875 C12.4484095,8.26778409 12.3809524,8.54583333 12.3809524,8.73695475 L12.3809524,8.99637858 C12.3809524,9.18247355 12.3147401,9.46310933 12.2302827,9.62864583 L12.0554315,9.97135417 C11.972219,10.1344508 11.8385497,10.3964427 11.7540923,10.5619792 L11.5792411,10.9046875 C11.4960285,11.0677841 11.3623592,11.329776 11.2779018,11.4953125 L11.1030506,11.8380208 C11.019838,12.0011174 10.8035714,12.1333333 10.6192843,12.1333333 L10.3330966,12.1333333 C10.1491324,12.1333333 9.93378775,12.0035573 9.84933036,11.8380208 L9.67447917,11.4953125 C9.59126662,11.3322159 9.52380952,11.0494598 9.52380952,10.8678078 L9.52380952,8.73219218 C9.52380952,8.54872751 9.41336496,8.29176432 9.28571429,8.16666667 L9.28571429,8.16666667 C9.15421792,8.03780023 8.99665833,7.78350881 8.93717448,7.6086263 L8.68187314,6.85804036 C8.62087629,6.67870962 8.41520764,6.53333333 8.24036734,6.53333333 L6.52153742,6.53333333 C6.33869735,6.53333333 6.16487412,6.38279317 6.13585109,6.21213773 L5.76891082,4.05452894 Z" id="Rectangle-1072" fill="#FFFFFF" mask="url(#mask-2)"></path>
                <path d="M13.3333333,9.65848185 C13.3333333,9.47890728 13.4821429,9.33333333 13.66643,9.33333333 L13.9526176,9.33333333 C14.1365818,9.33333333 14.2857143,9.47916667 14.2857143,9.67028809 L14.2857143,9.92971191 C14.2857143,10.1158069 14.219502,10.3964427 14.1350446,10.5619792 L13.9601935,10.9046875 C13.8769809,11.0677841 13.6588542,11.2 13.484003,11.2 L13.6588542,11.2 C13.479074,11.2 13.3333333,11.0535258 13.3333333,10.8748515 L13.3333333,9.65848185 Z" id="Rectangle-1073" fill="#FFFFFF" mask="url(#mask-2)"></path>
            </g>
        </g>
    </g>
</svg>