<?xml version="1.0" encoding="UTF-8"?>
<svg width="20px" height="14px" viewBox="0 0 20 14" version="1.1" xmlns="http://www.w3.org/2000/svg" xmlns:xlink="http://www.w3.org/1999/xlink">
    <!-- Generator: Sketch 50.2 (55047) - http://www.bohemiancoding.com/sketch -->
    <title>CAS</title>
    <desc>Created with Sketch.</desc>
    <defs>
        <rect id="path-1" x="0" y="0" width="20" height="14" rx="1"></rect>
    </defs>
    <g id="Page-1" stroke="none" stroke-width="1" fill="none" fill-rule="evenodd">
        <g id="Flags" transform="translate(-316.000000, -1180.000000)">
            <g id="CAS" transform="translate(316.000000, 1180.000000)">
                <mask id="mask-2" fill="white">
                    <use xlink:href="#path-1"></use>
                </mask>
                <use id="Mask" fill="#FFFFFF" xlink:href="#path-1"></use>
                <rect id="Mask-Copy" fill="#19BFBF" mask="url(#mask-2)" x="0" y="0" width="20" height="14"></rect>
                <path d="M4.10714286,6.21249997 C3.9427724,6.13195844 3.87573605,5.93689063 3.96019345,5.77135414 L4.13504464,5.42864581 C4.21825719,5.26554922 4.23475356,4.98350879 4.17526972,4.80862628 L3.91996838,4.05804036 C3.85897153,3.87870962 3.9419483,3.79822133 4.1108631,3.88098958 L4.46056548,4.05234374 C4.62699058,4.13389203 4.91136824,4.16338144 5.09368897,4.11871286 L6.33488246,3.81462046 C6.51812182,3.76972682 6.81613014,3.69671478 6.99845087,3.6520462 L8.23964437,3.3479538 C8.42288372,3.30306015 8.68352617,3.15681102 8.80732809,3.03548514 L9.76410048,2.09784819 C9.89438419,1.97017016 10.1562209,1.86666667 10.3310612,1.86666667 L12.0498912,1.86666667 C12.2327312,1.86666667 12.3809524,2.0125 12.3809524,2.20362142 L12.3809524,2.46304525 C12.3809524,2.64914022 12.2705078,2.90823568 12.1428571,3.03333333 C12.0113608,3.16219978 12.0558789,3.28012981 12.2324282,3.29585876 L16.8151908,3.70414124 C16.9961559,3.72026359 17.0766449,3.86310933 16.9921875,4.02864583 L16.8173363,4.37135417 C16.7341238,4.53445076 16.5137845,4.66666667 16.335333,4.66666667 L15.5694289,4.66666667 C15.3864384,4.66666667 15.1361738,4.76654968 14.9977693,4.90218608 L14.5260402,5.36448059 C14.3933119,5.49455437 14.4279139,5.64645189 14.6027606,5.70356846 L15.3972394,5.96309821 C15.5723392,6.02029749 15.780498,6.19644267 15.8649554,6.36197917 L16.0398065,6.7046875 C16.1230191,6.86778409 16.0580517,7.064888 15.8891369,7.14765625 L15.5394345,7.31901042 C15.3730094,7.40055871 15.3043075,7.59644267 15.3887649,7.76197917 L15.5636161,8.1046875 C15.6468286,8.26778409 15.5636161,8.4 15.3887649,8.4 L15.5636161,8.4 C15.3838359,8.4 15.171883,8.27022399 15.0874256,8.10468749 L14.9125744,7.76197914 C14.8293619,7.59888255 14.6599833,7.56654965 14.5215788,7.70218604 L14.0498497,8.16448056 C13.9171214,8.29455433 13.9199684,8.50823564 14.047619,8.6333333 C14.1791154,8.76219974 14.2857143,9.01249997 14.2857143,9.20362139 L14.2857143,9.46304521 C14.2857143,9.64914018 14.1532898,9.86488797 13.984375,9.94765622 L13.6346726,10.1190104 C13.4682475,10.2005587 13.1845238,10.2666666 13.0002367,10.2666666 L12.714049,10.2666666 C12.5300848,10.2666666 12.2705078,10.3749023 12.1428571,10.5 C12.0113608,10.6288664 12.0152065,10.841569 12.1428571,10.9666666 C12.2743535,11.0955331 12.3809524,11.3458334 12.3809524,11.5369549 L12.3809524,11.7963788 C12.3809524,11.9824739 12.2485279,12.0684457 12.0796131,11.9856775 L11.7299107,11.8143233 C11.5634856,11.732775 11.32665,11.566784 11.1882455,11.4311476 L10.7165164,10.9688528 C10.5837881,10.838779 10.4099782,10.6035573 10.3255208,10.4380208 L10.1506696,10.0953125 C10.0674571,9.93221588 9.94327636,9.93897291 9.87549282,10.1050426 L9.17212622,11.8282911 C9.10336281,11.9967615 8.8969494,12.1333337 8.72209821,12.1333337 L8.8969494,12.1333337 C8.71716921,12.1333337 8.48353794,12.0041345 8.38779994,11.8633996 L7.80267624,11.0032675 C7.70126095,10.8541869 7.61904762,10.5875 7.61904762,10.3963785 L7.61904762,10.1369547 C7.61904762,9.95085975 7.46958414,9.76338142 7.28726341,9.71871284 L6.04606991,9.41462043 C5.86283056,9.36972679 5.71428571,9.48098955 5.71428571,9.67248125 L5.71428571,9.46085202 C5.71428571,9.64815826 5.8467102,9.86488797 6.015625,9.94765622 L6.36532738,10.1190104 C6.53175247,10.2005587 6.5562221,10.3749022 6.42857143,10.4999998 C6.29707506,10.6288661 6.08855474,10.833216 5.95015026,10.9688524 L5.47842116,11.4311471 C5.34569282,11.561221 5.10567075,11.6017787 4.93675595,11.5190104 L4.58705357,11.3476563 C4.42062848,11.266108 4.23475356,11.0501755 4.17526972,10.875293 L3.91996838,10.124707 C3.85897152,9.94537626 3.80952381,9.65234372 3.80952381,9.46085202 L3.80952381,9.67248125 C3.80952381,9.48517501 3.91996838,9.22509763 4.04761905,9.09999998 C4.17911541,8.97113355 4.14351463,8.82021478 3.96866798,8.76309821 L3.17418916,8.50356846 C2.99908932,8.44636918 2.85714286,8.25416667 2.85714286,8.06304526 L2.85714286,7.80362144 C2.85714286,7.61752648 3.01002503,7.4666667 3.18847656,7.46666669 L3.95438058,7.46666668 C4.13737113,7.46666667 4.41813878,7.53155466 4.58705359,7.61432291 L4.93675599,7.78567706 C5.10318109,7.86722535 5.30430754,7.8035573 5.38876494,7.6380208 L5.56361613,7.29531247 C5.64682867,7.13221588 5.57729999,6.93287693 5.41666671,6.85416663 L4.10714286,6.21249997 Z M10,12.1333333 C9.73700726,12.1333333 9.52380952,11.9243995 9.52380952,11.6666667 C9.52380952,11.4089338 9.73700726,11.2 10,11.2 C10.2629927,11.2 10.4761905,11.4089338 10.4761905,11.6666667 C10.4761905,11.9243995 10.2629927,12.1333333 10,12.1333333 Z M7.14285714,7.46666667 C7.40584988,7.46666667 7.61904762,7.25773288 7.61904762,7 C7.61904762,6.74226712 7.40584988,6.53333333 7.14285714,6.53333333 C6.8798644,6.53333333 6.66666667,6.74226712 6.66666667,7 C6.66666667,7.25773288 6.8798644,7.46666667 7.14285714,7.46666667 Z M16.1904762,9.33333333 L16.1904762,8.73695475 C16.1904762,8.55085978 16.3392857,8.4 16.5235728,8.4 L16.8097605,8.4 C16.9937247,8.4 17.0104326,8.464888 16.8415179,8.54765625 L16.1904762,8.86666667 L16.6666667,9.33333333 L16.3411458,9.97135417 C16.2579333,10.1344508 16.0416667,10.2666667 15.8573796,10.2666667 L15.5711919,10.2666667 C15.3872277,10.2666667 15.3400167,10.1667837 15.4784212,10.0311473 L16.1904762,9.33333333 Z" id="Rectangle-1078" fill="#FFFFFF" mask="url(#mask-2)"></path>
            </g>
        </g>
    </g>
</svg>