<?xml version="1.0" encoding="UTF-8"?>
<svg width="20px" height="14px" viewBox="0 0 20 14" version="1.1" xmlns="http://www.w3.org/2000/svg" xmlns:xlink="http://www.w3.org/1999/xlink">
    <!-- Generator: Sketch 50.2 (55047) - http://www.bohemiancoding.com/sketch -->
    <title>COC</title>
    <desc>Created with Sketch.</desc>
    <defs>
        <rect id="path-1" x="0" y="0" width="20" height="14" rx="1"></rect>
        <linearGradient x1="50%" y1="0%" x2="50%" y2="100%" id="linearGradient-3">
            <stop stop-color="#19BFBF" offset="0%"></stop>
            <stop stop-color="#10ACAC" offset="100%"></stop>
        </linearGradient>
    </defs>
    <g id="Page-1" stroke="none" stroke-width="1" fill="none" fill-rule="evenodd">
        <g id="Flags" transform="translate(-364.000000, -1180.000000)">
            <g id="COC" transform="translate(364.000000, 1180.000000)">
                <mask id="mask-2" fill="white">
                    <use xlink:href="#path-1"></use>
                </mask>
                <use id="Mask" fill="#FFFFFF" xlink:href="#path-1"></use>
                <rect id="Mask-Copy" fill="url(#linearGradient-3)" mask="url(#mask-2)" x="0" y="0" width="20" height="14"></rect>
                <path d="M9.25896044,2.52799733 C9.40523249,2.42048738 9.67447906,2.33333333 9.84933025,2.33333333 L9.67447906,2.33333333 C9.85425926,2.33333333 10.0662121,2.46310933 10.1506695,2.62864583 L10.3255207,2.97135417 C10.4087333,3.13445076 10.6290725,3.26666667 10.8075241,3.26666667 L11.5734281,3.26666667 C11.7564186,3.26666667 11.970974,3.13689067 12.0554314,2.97135417 L12.2302826,2.62864583 C12.3134952,2.46554924 12.2705077,2.22509766 12.1428571,2.1 C12.0113607,1.97113356 12.0535714,1.86666667 12.2378585,1.86666667 L12.5240462,1.86666667 C12.7080104,1.86666667 12.933949,1.9921168 13.0323137,2.15277913 L14.1105433,3.91388753 C14.2072875,4.07190309 14.3675594,4.3203125 14.4753137,4.47871132 L16.0008766,6.72128868 C16.1055895,6.87521669 16.1904761,7.1464742 16.1904761,7.32514852 L16.190476,8.54151815 C16.190476,8.72109272 16.1086308,8.98697917 16.0008765,9.14537799 L14.4753136,11.3879553 C14.3706007,11.5418834 14.1362506,11.6666667 13.9539299,11.6666667 L12.7127364,11.6666667 C12.529497,11.6666667 12.2581843,11.5664063 12.1172803,11.4513346 L9.78748121,9.54866536 C9.64185925,9.42974077 9.37434586,9.33333333 9.19202513,9.33333333 L7.95083163,9.33333333 C7.76759228,9.33333333 7.4812415,9.40085824 7.31328311,9.48315786 L5.06766899,10.5835088 C4.89880002,10.6662546 4.65998324,10.6334503 4.52157877,10.4978139 L4.04984973,10.0355194 C3.9171214,9.90544563 3.80952383,9.65017548 3.80952383,9.47529297 L3.80952383,8.72470703 C3.80952383,8.54537629 3.72163319,8.27080078 3.62589518,8.13006592 L3.04077141,7.26993408 C2.93935611,7.12085361 2.92563566,6.86575394 3.00595231,6.70833333 L3.66071429,5.425 C3.74289953,5.26391695 3.94650961,5.0662103 4.10714288,4.9875 L5.41666669,4.34583333 C5.58103715,4.26529181 5.8637492,4.16338145 6.04606992,4.11871287 L7.28726333,3.81462046 C7.47050268,3.76972682 7.74402426,3.64147542 7.8838965,3.53866933 L9.25896044,2.52799733 Z M12.8571429,12.1333333 L13.8095238,12.1333333 L13.5714285,12.3666667 C13.4399322,12.4955331 13.2228888,12.4917643 13.0952381,12.3666667 L12.8571429,12.1333333 Z" id="Rectangle-1078" fill="#FFFFFF" mask="url(#mask-2)"></path>
            </g>
        </g>
    </g>
</svg>