<?xml version="1.0" encoding="UTF-8"?>
<svg width="20px" height="14px" viewBox="0 0 20 14" version="1.1" xmlns="http://www.w3.org/2000/svg" xmlns:xlink="http://www.w3.org/1999/xlink">
    <!-- Generator: Sketch 50.2 (55047) - http://www.bohemiancoding.com/sketch -->
    <title>CSA</title>
    <desc>Created with Sketch.</desc>
    <defs>
        <rect id="path-1" x="0" y="0" width="20" height="14" rx="1"></rect>
    </defs>
    <g id="Page-1" stroke="none" stroke-width="1" fill="none" fill-rule="evenodd">
        <g id="Flags" transform="translate(-172.000000, -1180.000000)">
            <g id="CSA" transform="translate(172.000000, 1180.000000)">
                <mask id="mask-2" fill="white">
                    <use xlink:href="#path-1"></use>
                </mask>
                <use id="Mask" fill="#FFFFFF" xlink:href="#path-1"></use>
                <rect id="Mask-Copy" fill="#19BFBF" mask="url(#mask-2)" x="0" y="0" width="20" height="14"></rect>
                <path d="M7.14285714,11.5369548 C7.14285714,11.3508598 7.18022301,11.0535258 7.22580319,10.8748515 L7.53610157,9.65848185 C7.58191141,9.47890728 7.65641349,9.18685913 7.70199367,9.00818481 L8.01229204,7.79181519 C8.05810188,7.61224062 8.04427737,7.31684214 7.98479353,7.14195964 L7.72949219,6.3913737 C7.66849534,6.21204296 7.48662313,6.00177867 7.31770833,5.91901042 L6.96800595,5.74765625 C6.80158086,5.66610795 6.66666667,5.4535258 6.66666667,5.27485148 L6.66666667,4.05848185 C6.66666667,3.87890728 6.73287891,3.60355733 6.81733631,3.43802083 L6.9921875,3.0953125 C7.07540005,2.93221591 7.20906939,2.670224 7.29352679,2.5046875 L7.46837798,2.16197917 C7.55159052,1.99888258 7.77266003,1.86666667 7.94679823,1.86666667 L10.1484399,1.86666667 C10.3294515,1.86666667 10.4761905,2.0125 10.4761905,2.20362142 L10.4761905,2.46304525 C10.4761905,2.64914022 10.625,2.8 10.8092871,2.8 L11.0954748,2.8 C11.279439,2.8 11.4285714,2.94583333 11.4285714,3.13695475 L11.4285714,3.39637858 C11.4285714,3.58247355 11.5655572,3.80045636 11.7261905,3.87916667 L13.0357143,4.52083333 C13.2000847,4.60137486 13.3333333,4.8125 13.3333333,5.00362142 L13.3333333,5.26304525 C13.3333333,5.44914022 13.2671211,5.729776 13.1826637,5.8953125 L13.0078125,6.23802083 C12.9246,6.40111742 12.7253069,6.61946615 12.5816999,6.71328939 L11.7040144,7.28671061 C11.5518914,7.3860976 11.3600785,7.60091273 11.2797619,7.75833333 L10.625,9.04166667 C10.5428148,9.20274972 10.3443545,9.41946615 10.2007475,9.51328939 L9.32306199,10.0867106 C9.17093905,10.1860976 8.97912616,10.4009127 8.89880952,10.5583333 L8.24404762,11.8416667 C8.16186239,12.0027497 7.94642857,12.1333333 7.76214145,12.1333333 L7.47595378,12.1333333 C7.29198959,12.1333333 7.14285714,11.9875 7.14285714,11.7963786 L7.14285714,11.5369548 Z" id="Rectangle-1068" fill="#FFFFFF" mask="url(#mask-2)"></path>
            </g>
        </g>
    </g>
</svg>