<?xml version="1.0" encoding="UTF-8"?>
<svg width="20px" height="14px" viewBox="0 0 20 14" version="1.1" xmlns="http://www.w3.org/2000/svg" xmlns:xlink="http://www.w3.org/1999/xlink">
    <!-- Generator: Sketch 50.2 (55047) - http://www.bohemiancoding.com/sketch -->
    <title>DZ</title>
    <desc>Created with Sketch.</desc>
    <defs>
        <rect id="path-1" x="0" y="0" width="20" height="14" rx="1"></rect>
    </defs>
    <g id="Page-1" stroke="none" stroke-width="1" fill="none" fill-rule="evenodd">
        <g id="Flags" transform="translate(-220.000000, -172.000000)">
            <g id="DZ" transform="translate(220.000000, 172.000000)">
                <mask id="mask-2" fill="white">
                    <use xlink:href="#path-1"></use>
                </mask>
                <rect stroke="#F5F5F5" stroke-width="0.5" x="0.25" y="0.25" width="19.5" height="13.5" rx="1"></rect>
                <rect id="Rectangle-2" fill="#048345" mask="url(#mask-2)" x="0" y="0" width="10.4761905" height="14"></rect>
                <polygon id="Star-8" fill="#E81B42" mask="url(#mask-2)" points="12.3809524 7.72800003 11.2613614 8.51016506 11.6744532 7.22496438 10.5694162 6.42316828 11.9443119 6.4110356 12.3809524 5.13333333 12.8175929 6.4110356 14.1924886 6.42316828 13.0874515 7.22496438 13.5005433 8.51016506"></polygon>
                <path d="M12.6285716,3.933067 C12.1220529,3.69678731 11.5491127,3.56363636 10.9423767,3.56363636 C8.87995177,3.56363636 7.208026,5.10214877 7.208026,7 C7.208026,8.89785123 8.87995177,10.4363636 10.9423767,10.4363636 C11.5491127,10.4363636 12.1220529,10.3032127 12.6285716,10.066933 C11.8942173,10.7697281 10.9072889,11.2 9.8220715,11.2 C7.55340406,11.2 5.71428571,9.31959595 5.71428571,7 C5.71428571,4.68040405 7.55340406,2.8 9.8220715,2.8 C10.9072889,2.8 11.8942173,3.23027188 12.6285716,3.933067 Z" id="Oval-3" fill="#E81B42" mask="url(#mask-2)"></path>
            </g>
        </g>
    </g>
</svg>