<?xml version="1.0" encoding="UTF-8"?>
<svg width="20px" height="14px" viewBox="0 0 20 14" version="1.1" xmlns="http://www.w3.org/2000/svg" xmlns:xlink="http://www.w3.org/1999/xlink">
    <!-- Generator: Sketch 50.2 (55047) - http://www.bohemiancoding.com/sketch -->
    <title>EU</title>
    <desc>Created with Sketch.</desc>
    <defs>
        <rect id="path-1" x="0" y="0" width="20" height="14" rx="1"></rect>
    </defs>
    <g id="Page-1" stroke="none" stroke-width="1" fill="none" fill-rule="evenodd">
        <g id="Flags" transform="translate(-28.000000, -1180.000000)">
            <g id="EU" transform="translate(28.000000, 1180.000000)">
                <mask id="mask-2" fill="white">
                    <use xlink:href="#path-1"></use>
                </mask>
                <use id="Mask" fill="#FFFFFF" xlink:href="#path-1"></use>
                <rect id="Mask-Copy" fill="#043CAE" mask="url(#mask-2)" x="0" y="0" width="20" height="14"></rect>
                <path d="M10,2.8 L9.32656497,2.99329966 L9.52380952,2.33333333 L9.32656497,1.673367 L10,1.86666667 L10.673435,1.673367 L10.4761905,2.33333333 L10.673435,2.99329966 L10,2.8 Z M10,12.1333333 L9.32656497,12.326633 L9.52380952,11.6666667 L9.32656497,11.0067003 L10,11.2 L10.673435,11.0067003 L10.4761905,11.6666667 L10.673435,12.326633 L10,12.1333333 Z M14.7619048,7.46666667 L14.0884697,7.65996633 L14.2857143,7 L14.0884697,6.34003367 L14.7619048,6.53333333 L15.4353398,6.34003367 L15.2380952,7 L15.4353398,7.65996633 L14.7619048,7.46666667 Z M5.23809524,7.46666667 L4.56466021,7.65996633 L4.76190476,7 L4.56466021,6.34003367 L5.23809524,6.53333333 L5.91153027,6.34003367 L5.71428571,7 L5.91153027,7.65996633 L5.23809524,7.46666667 Z M14.1239305,5.13333333 L13.4504955,5.326633 L13.64774,4.66666667 L13.4504955,4.00670034 L14.1239305,4.2 L14.7973655,4.00670034 L14.600121,4.66666667 L14.7973655,5.326633 L14.1239305,5.13333333 Z M5.87606951,9.8 L5.20263448,9.99329966 L5.39987903,9.33333333 L5.20263448,8.673367 L5.87606951,8.86666667 L6.54950454,8.673367 L6.35225998,9.33333333 L6.54950454,9.99329966 L5.87606951,9.8 Z M12.3809524,3.42521478 L11.7075174,3.61851444 L11.9047619,2.95854812 L11.7075174,2.29858179 L12.3809524,2.49188145 L13.0543874,2.29858179 L12.8571429,2.95854812 L13.0543874,3.61851444 L12.3809524,3.42521478 Z M7.61904762,11.5081186 L6.94561259,11.7014182 L7.14285714,11.0414519 L6.94561259,10.3814856 L7.61904762,10.5747852 L8.29248265,10.3814856 L8.0952381,11.0414519 L8.29248265,11.7014182 L7.61904762,11.5081186 Z M14.1239305,9.8 L13.4504955,9.99329966 L13.64774,9.33333333 L13.4504955,8.673367 L14.1239305,8.86666667 L14.7973655,8.673367 L14.600121,9.33333333 L14.7973655,9.99329966 L14.1239305,9.8 Z M5.87606951,5.13333333 L5.20263448,5.326633 L5.39987903,4.66666667 L5.20263448,4.00670034 L5.87606951,4.2 L6.54950454,4.00670034 L6.35225998,4.66666667 L6.54950454,5.326633 L5.87606951,5.13333333 Z M12.3809524,11.5081186 L11.7075174,11.7014182 L11.9047619,11.0414519 L11.7075174,10.3814856 L12.3809524,10.5747852 L13.0543874,10.3814856 L12.8571429,11.0414519 L13.0543874,11.7014182 L12.3809524,11.5081186 Z M7.61904762,3.42521478 L6.94561259,3.61851444 L7.14285714,2.95854812 L6.94561259,2.29858179 L7.61904762,2.49188145 L8.29248265,2.29858179 L8.0952381,2.95854812 L8.29248265,3.61851444 L7.61904762,3.42521478 Z" id="Star-2" fill="#FFD429" mask="url(#mask-2)"></path>
            </g>
        </g>
    </g>
</svg>