<?xml version="1.0" encoding="UTF-8"?>
<svg width="20px" height="14px" viewBox="0 0 20 14" version="1.1" xmlns="http://www.w3.org/2000/svg" xmlns:xlink="http://www.w3.org/1999/xlink">
    <!-- Generator: Sketch 50.2 (55047) - http://www.bohemiancoding.com/sketch -->
    <title>FJ</title>
    <desc>Created with Sketch.</desc>
    <defs>
        <rect id="path-1" x="0" y="0" width="20" height="14" rx="1"></rect>
        <linearGradient x1="50%" y1="0%" x2="50%" y2="100%" id="linearGradient-3">
            <stop stop-color="#042C90" offset="0%"></stop>
            <stop stop-color="#00247E" offset="100%"></stop>
        </linearGradient>
        <path d="M0,3.26666667 L0,0 L4.76190476,0 L4.76190476,3.26666667 C4.76190476,5.6 2.38095238,6.53333333 2.38095238,6.53333333 C2.38095238,6.53333333 0,5.6 0,3.26666667 Z" id="path-4"></path>
        <linearGradient x1="50%" y1="0%" x2="50%" y2="100%" id="linearGradient-6">
            <stop stop-color="#FFFFFF" offset="0%"></stop>
            <stop stop-color="#F0F0F0" offset="100%"></stop>
        </linearGradient>
    </defs>
    <g id="Page-1" stroke="none" stroke-width="1" fill="none" fill-rule="evenodd">
        <g id="Flags" transform="translate(-172.000000, -268.000000)">
            <g id="FJ" transform="translate(172.000000, 268.000000)">
                <mask id="mask-2" fill="white">
                    <use xlink:href="#path-1"></use>
                </mask>
                <use id="Mask" fill="#FFFFFF" xlink:href="#path-1"></use>
                <rect id="Mask-Copy" fill="#79CFF6" mask="url(#mask-2)" x="0" y="0" width="20" height="14"></rect>
                <rect id="Rectangle-1115" fill="url(#linearGradient-3)" mask="url(#mask-2)" x="0" y="0" width="8.57142857" height="6.53333333"></rect>
                <g id="Rectangle-1105" mask="url(#mask-2)">
                    <g transform="translate(12.380952, 3.733333)">
                        <mask id="mask-5" fill="white">
                            <use xlink:href="#path-4"></use>
                        </mask>
                        <use id="Mask" stroke="none" fill="#FFFFFF" fill-rule="evenodd" xlink:href="#path-4"></use>
                        <path d="M0.952380952,2.33333333 C0.689388214,2.33333333 0.476190476,2.12439955 0.476190476,1.86666667 C0.476190476,1.60893378 0.689388214,1.4 0.952380952,1.4 C1.21537369,1.4 1.42857143,1.60893378 1.42857143,1.86666667 C1.42857143,2.12439955 1.21537369,2.33333333 0.952380952,2.33333333 Z M3.80952381,2.33333333 C3.54653107,2.33333333 3.33333333,2.12439955 3.33333333,1.86666667 C3.33333333,1.60893378 3.54653107,1.4 3.80952381,1.4 C4.07251655,1.4 4.28571429,1.60893378 4.28571429,1.86666667 C4.28571429,2.12439955 4.07251655,2.33333333 3.80952381,2.33333333 Z" id="Oval-177" stroke="none" fill="#2A915C" fill-rule="evenodd" mask="url(#mask-5)"></path>
                        <polygon id="Rectangle-1106" stroke="none" fill="#EB1D43" fill-rule="evenodd" mask="url(#mask-5)" points="8.17124146e-14 0 4.76190476 0 4.76190476 0.933333333 2.85714286 0.933333333 2.85714286 2.8 4.76190476 2.8 4.76190476 3.73333333 2.85714286 3.73333333 2.85714286 6.53333333 1.9047619 6.53333333 1.9047619 3.73333333 8.17124146e-14 3.73333333 8.17124146e-14 2.8 1.9047619 2.8 1.9047619 0.933333333 8.17124146e-14 0.933333333"></polygon>
                    </g>
                </g>
                <path d="M3,2.95532874 L-0.915073896,-0.333333333 L0.476190476,-0.333333333 L0.667344591,-0.273077307 L3.91459789,2 L4.66793439,2 L8.9047619,-0.595056854 L8.9047619,0.127518717 C8.9047619,0.421467598 8.72682548,0.764774019 8.48980203,0.930690433 L5.57142857,2.97355185 L5.57142857,3.57800459 L8.52426486,6.05838707 C8.84929214,6.33141 8.77573053,6.74252531 8.42075893,6.84361001 L8.42075893,6.86666667 C8.39087827,6.86666667 8.35964744,6.86507231 8.32747058,6.86201742 C8.30142189,6.86507582 8.27422353,6.86666667 8.24590774,6.86666667 L8.24590774,6.85151409 C8.03044514,6.8168783 7.78962448,6.72628899 7.63130332,6.61546418 L4.65683068,4.53333333 L3.90349418,4.53333333 L-0.333333333,7.12839019 L-0.333333333,5.89311481 L3,3.55978148 L3,2.95532874 Z" id="Rectangle-36" stroke="#FFFFFF" stroke-width="0.666666667" fill="#DB1E36" mask="url(#mask-2)"></path>
                <path d="M0,2.33333333 L0,4.2 L3.33333333,4.2 L3.33333333,6.33643909 C3.33333333,6.70291366 3.63095238,7 3.99952661,7 L4.57190196,7 C4.93983035,7 5.23809524,6.70035095 5.23809524,6.33643909 L5.23809524,4.2 L8.38405064,4.2 C8.75052935,4.2 9.04761905,3.90833333 9.04761905,3.52609049 L9.04761905,3.00724284 C9.04761905,2.6350529 8.7486921,2.33333333 8.38405064,2.33333333 L5.23809524,2.33333333 L5.23809524,0 L3.33333333,0 L3.33333333,2.33333333 L0,2.33333333 Z" id="Rectangle-2" fill="url(#linearGradient-6)" mask="url(#mask-2)"></path>
                <polygon id="Rectangle-36" fill="#DB1E36" mask="url(#mask-2)" points="0 2.8 3.80952381 2.8 3.80952381 2.33333333 3.80952381 0 4.76190476 0 4.76190476 2.33333333 4.76190476 2.8 8.57142857 2.8 8.57142857 3.73333333 4.76190476 3.73333333 4.76190476 4.2 4.76190476 6.53333333 3.80952381 6.53333333 3.80952381 4.2 3.80952381 3.73333333 0 3.73333333"></polygon>
            </g>
        </g>
    </g>
</svg>