<?xml version="1.0" encoding="UTF-8"?>
<svg width="20px" height="14px" viewBox="0 0 20 14" version="1.1" xmlns="http://www.w3.org/2000/svg" xmlns:xlink="http://www.w3.org/1999/xlink">
    <!-- Generator: Sketch 50.2 (55047) - http://www.bohemiancoding.com/sketch -->
    <title>GI</title>
    <desc>Created with Sketch.</desc>
    <defs>
        <rect id="path-1" x="0" y="0" width="20" height="14" rx="1"></rect>
    </defs>
    <g id="Page-1" stroke="none" stroke-width="1" fill="none" fill-rule="evenodd">
        <g id="Flags" transform="translate(-652.000000, -316.000000)">
            <g id="GI" transform="translate(652.000000, 316.000000)">
                <mask id="mask-2" fill="white">
                    <use xlink:href="#path-1"></use>
                </mask>
                <rect stroke="#F5F5F5" stroke-width="0.5" x="0.25" y="0.25" width="19.5" height="13.5" rx="1"></rect>
                <rect id="Rectangle-2" fill="#E34F4F" mask="url(#mask-2)" x="0" y="9.33333333" width="20" height="4.66666667"></rect>
                <rect id="Rectangle-2" fill="#E34F4F" mask="url(#mask-2)" x="6.66666667" y="5.6" width="5.71428571" height="3.73333333"></rect>
                <rect id="Rectangle-2" fill="#181A1A" mask="url(#mask-2)" x="7.61904762" y="8.4" width="1" height="1"></rect>
                <rect id="Rectangle-2" fill="#181A1A" mask="url(#mask-2)" x="10.4761905" y="8.4" width="1" height="1"></rect>
                <rect id="Rectangle-2" fill="#181A1A" mask="url(#mask-2)" x="6.66666667" y="4.66666667" width="1" height="1"></rect>
                <rect id="Rectangle-2" fill="#181A1A" mask="url(#mask-2)" x="9.52380952" y="4.66666667" width="1" height="1"></rect>
                <rect id="Rectangle-2" fill="#181A1A" mask="url(#mask-2)" x="8.57142857" y="4.66666667" width="1" height="1"></rect>
                <rect id="Rectangle-2" fill="#181A1A" mask="url(#mask-2)" x="11.4285714" y="4.66666667" width="1" height="1"></rect>
                <rect id="Rectangle-2" fill="#E34F4F" mask="url(#mask-2)" x="6.66666667" y="3.73333333" width="1" height="1"></rect>
                <rect id="Rectangle-2" fill="#E34F4F" mask="url(#mask-2)" x="9.52380952" y="3.73333333" width="1" height="1"></rect>
                <rect id="Rectangle-2" fill="#E34F4F" mask="url(#mask-2)" x="8.57142857" y="3.73333333" width="1" height="1"></rect>
                <rect id="Rectangle-2" fill="#E34F4F" mask="url(#mask-2)" x="11.4285714" y="3.73333333" width="1" height="1"></rect>
            </g>
        </g>
    </g>
</svg>