<?xml version="1.0" encoding="UTF-8"?>
<svg width="20px" height="14px" viewBox="0 0 20 14" version="1.1" xmlns="http://www.w3.org/2000/svg" xmlns:xlink="http://www.w3.org/1999/xlink">
    <!-- Generator: Sketch 50.2 (55047) - http://www.bohemiancoding.com/sketch -->
    <title>IQ</title>
    <desc>Created with Sketch.</desc>
    <defs>
        <rect id="path-1" x="0" y="0" width="20" height="14" rx="1"></rect>
    </defs>
    <g id="Page-1" stroke="none" stroke-width="1" fill="none" fill-rule="evenodd">
        <g id="Flags" transform="translate(-220.000000, -412.000000)">
            <g id="IQ" transform="translate(220.000000, 412.000000)">
                <mask id="mask-2" fill="white">
                    <use xlink:href="#path-1"></use>
                </mask>
                <rect stroke="#F5F5F5" stroke-width="0.5" x="0.25" y="0.25" width="19.5" height="13.5" rx="1"></rect>
                <rect id="Rectangle-2" fill="#DF1E35" mask="url(#mask-2)" x="0" y="0" width="20" height="4.66666667"></rect>
                <rect id="Rectangle-2" fill="#262626" mask="url(#mask-2)" x="0" y="9.33333333" width="20" height="4.66666667"></rect>
                <path d="M13.3333333,5.93219218 C13.3333333,5.74872751 13.4657578,5.664888 13.6346726,5.74765625 L13.984375,5.91901042 C14.1508001,6.00055871 14.2857143,6.21976318 14.2857143,6.39110667 L14.2857143,8.07556 C14.2857143,8.25474326 14.1369048,8.4 13.9526176,8.4 L13.66643,8.4 C13.4824658,8.4 13.3333333,8.24945984 13.3333333,8.06780782 L13.3333333,5.93219218 Z" id="Rectangle-213" fill="#0F7A40" mask="url(#mask-2)"></path>
                <path d="M7.61904762,5.93219218 C7.61904762,5.74872751 7.75147211,5.664888 7.9203869,5.74765625 L8.27008929,5.91901042 C8.43651438,6.00055871 8.57142857,6.21976318 8.57142857,6.39110667 L8.57142857,8.07556 C8.57142857,8.25474326 8.42261905,8.4 8.23833193,8.4 L7.95214426,8.4 C7.76818006,8.4 7.61904762,8.24945984 7.61904762,8.06780782 L7.61904762,5.93219218 Z" id="Rectangle-213" fill="#0F7A40" mask="url(#mask-2)"></path>
                <path d="M11.4285714,6.39110667 C11.4285714,6.2119234 11.5609959,6.00177867 11.7299107,5.91901042 L12.0796131,5.74765625 C12.2460382,5.66610795 12.3809524,5.75054016 12.3809524,5.93219218 L12.3809524,8.06780782 C12.3809524,8.25127249 12.2321429,8.4 12.0478557,8.4 L11.7616681,8.4 C11.5777039,8.4 11.4285714,8.24690348 11.4285714,8.07556 L11.4285714,6.39110667 Z" id="Rectangle-213" fill="#0F7A40" mask="url(#mask-2)"></path>
                <path d="M9.52380952,7.32470703 C9.52380952,7.14537629 9.65623401,6.935112 9.82514881,6.85234375 L10.1748512,6.68098958 C10.3412763,6.59944129 10.4761905,6.68569773 10.4761905,6.86346858 L10.4761905,7.50846545 L11.9047619,7.50846544 L11.9047619,8.39999997 L10.8075242,8.39999999 C10.6245336,8.4 10.327381,8.4 10.1430938,8.4 L9.85690616,8.4 C9.67294197,8.4 9.52380952,8.25017548 9.52380952,8.07529297 L9.52380952,7.32470703 Z" id="Rectangle-213" fill="#0F7A40" mask="url(#mask-2)"></path>
                <path d="M5.71428571,7.32470703 C5.71428571,7.14537629 5.84671021,6.935112 6.015625,6.85234375 L6.36532738,6.68098958 C6.53175247,6.59944129 6.66666667,6.68569773 6.66666667,6.86346858 L6.66666667,7.50846545 L8.0952381,7.50846544 L8.0952381,8.39999997 L6.99800037,8.39999999 C6.81500982,8.4 6.51785714,8.4 6.33357003,8.4 L6.04738235,8.4 C5.86341816,8.4 5.71428571,8.25017548 5.71428571,8.07529297 L5.71428571,7.32470703 Z" id="Rectangle-213" fill="#0F7A40" mask="url(#mask-2)"></path>
            </g>
        </g>
    </g>
</svg>