<?xml version="1.0" encoding="UTF-8"?>
<svg width="20px" height="14px" viewBox="0 0 20 14" version="1.1" xmlns="http://www.w3.org/2000/svg" xmlns:xlink="http://www.w3.org/1999/xlink">
    <!-- Generator: Sketch 50.2 (55047) - http://www.bohemiancoding.com/sketch -->
    <title>JE</title>
    <desc>Created with Sketch.</desc>
    <defs>
        <rect id="path-1" x="0" y="0" width="20" height="14" rx="1"></rect>
        <path d="M0.476190476,2.68333333 L0.476190476,2.26207286 C0.476190476,1.52823028 1.08211699,0.933333333 1.80438905,0.933333333 L2.00513476,0.933333333 C2.73867858,0.933333333 3.33333333,1.52708333 3.33333333,2.26207286 C3.33333333,2.26207286 3.33333333,1.93333333 3.33333333,2.68333333 C3.33333333,3.93333333 1.9047619,4.43333333 1.9047619,4.43333333 C1.9047619,4.43333333 0.476190476,3.93333333 0.476190476,2.68333333 Z" id="path-3"></path>
    </defs>
    <g id="Page-1" stroke="none" stroke-width="1" fill="none" fill-rule="evenodd">
        <g id="Flags" transform="translate(-172.000000, -460.000000)">
            <g id="JE" transform="translate(172.000000, 460.000000)">
                <mask id="mask-2" fill="white">
                    <use xlink:href="#path-1"></use>
                </mask>
                <rect stroke="#F5F5F5" stroke-width="0.5" x="0.25" y="0.25" width="19.5" height="13.5" rx="1"></rect>
                <rect id="Rectangle-1278" fill="#E3243B" mask="url(#mask-2)" transform="translate(10.470734, 7.331241) rotate(-55.000000) translate(-10.470734, -7.331241) " x="9.51835296" y="-9.93542561" width="1.9047619" height="34.5333333"></rect>
                <rect id="Rectangle-1278" fill="#E3243B" mask="url(#mask-2)" transform="translate(10.470734, 7.331241) scale(-1, 1) rotate(-55.000000) translate(-10.470734, -7.331241) " x="9.51835296" y="-9.93542561" width="1.9047619" height="34.5333333"></rect>
                <g id="Group" mask="url(#mask-2)">
                    <g transform="translate(8.571429, 0.933333)">
                        <path d="M1.13753885,0.933333333 L1.1998967,0.897492104 L0.49503149,0.498606712 L1.4063469,0.598328057 L1.27821505,0 L1.9047619,0.498606712 L2.53130875,0 L2.40317694,0.598328057 L3.31449232,0.498606725 L2.60962711,0.897492104 L2.67198496,0.933333333 L1.13753885,0.933333333 Z" id="Star-1" stroke="none" fill="#FAEF32" fill-rule="evenodd"></path>
                        <mask id="mask-4" fill="white">
                            <use xlink:href="#path-3"></use>
                        </mask>
                        <use id="Mask" stroke="none" fill="#E3243B" fill-rule="evenodd" xlink:href="#path-3"></use>
                        <rect id="Rectangle-1281" stroke="none" fill="#FAEF32" fill-rule="evenodd" mask="url(#mask-4)" x="1.66666667" y="3.73333333" width="1" height="1" rx="0.5"></rect>
                        <rect id="Rectangle-1281" stroke="none" fill="#FAEF32" fill-rule="evenodd" mask="url(#mask-4)" x="0.952380952" y="2.8" width="1.9047619" height="1" rx="0.5"></rect>
                        <rect id="Rectangle-1281" stroke="none" fill="#FAEF32" fill-rule="evenodd" mask="url(#mask-4)" x="0.952380952" y="1.86666667" width="1.9047619" height="1" rx="0.5"></rect>
                    </g>
                </g>
            </g>
        </g>
    </g>
</svg>