<?xml version="1.0" encoding="UTF-8"?>
<svg width="20px" height="14px" viewBox="0 0 20 14" version="1.1" xmlns="http://www.w3.org/2000/svg" xmlns:xlink="http://www.w3.org/1999/xlink">
    <!-- Generator: Sketch 50.2 (55047) - http://www.bohemiancoding.com/sketch -->
    <title>KP</title>
    <desc>Created with Sketch.</desc>
    <defs>
        <rect id="path-1" x="0" y="0" width="20" height="14" rx="1"></rect>
    </defs>
    <g id="Page-1" stroke="none" stroke-width="1" fill="none" fill-rule="evenodd">
        <g id="Flags" transform="translate(-364.000000, -508.000000)">
            <g id="KP" transform="translate(364.000000, 508.000000)">
                <mask id="mask-2" fill="white">
                    <use xlink:href="#path-1"></use>
                </mask>
                <use id="Mask" fill="#FFFFFF" xlink:href="#path-1"></use>
                <rect id="Rectangle-2" fill="#1461B6" mask="url(#mask-2)" x="0" y="0" width="20" height="2.8"></rect>
                <rect id="Rectangle-2" fill="#1461B6" mask="url(#mask-2)" x="0" y="11.2" width="20" height="2.8"></rect>
                <rect id="Rectangle-2" fill="#FFFFFF" mask="url(#mask-2)" x="0" y="2.8" width="20" height="8.4"></rect>
                <rect id="Rectangle-2-Copy-4" fill="#F53846" mask="url(#mask-2)" x="0" y="3.73333333" width="20" height="6.53333333"></rect>
                <path d="M7.14285714,9.33333333 C5.82789345,9.33333333 4.76190476,8.28866442 4.76190476,7 C4.76190476,5.71133558 5.82789345,4.66666667 7.14285714,4.66666667 C8.45782083,4.66666667 9.52380952,5.71133558 9.52380952,7 C9.52380952,8.28866442 8.45782083,9.33333333 7.14285714,9.33333333 Z M7.14285714,7.93630494 L8.54234584,8.88770632 L8.05150909,7.28933414 L9.40727742,6.27896035 L7.70443493,6.24251339 L7.14285714,4.66666667 L6.58127935,6.24251339 L4.87843687,6.27896035 L6.23420519,7.28933414 L5.74336845,8.88770632 L7.14285714,7.93630494 Z" id="Oval-12" fill="#FFFFFF" mask="url(#mask-2)"></path>
            </g>
        </g>
    </g>
</svg>