<?xml version="1.0" encoding="UTF-8"?>
<svg width="20px" height="14px" viewBox="0 0 20 14" version="1.1" xmlns="http://www.w3.org/2000/svg" xmlns:xlink="http://www.w3.org/1999/xlink">
    <!-- Generator: Sketch 50.2 (55047) - http://www.bohemiancoding.com/sketch -->
    <title>LS</title>
    <desc>Created with Sketch.</desc>
    <defs>
        <rect id="path-1" x="0" y="0" width="20" height="14" rx="1"></rect>
    </defs>
    <g id="Page-1" stroke="none" stroke-width="1" fill="none" fill-rule="evenodd">
        <g id="Flags" transform="translate(-268.000000, -556.000000)">
            <g id="LS" transform="translate(268.000000, 556.000000)">
                <mask id="mask-2" fill="white">
                    <use xlink:href="#path-1"></use>
                </mask>
                <rect stroke="#F5F5F5" stroke-width="0.5" x="0.25" y="0.25" width="19.5" height="13.5" rx="1"></rect>
                <rect id="Rectangle-2" fill="#0C33B8" mask="url(#mask-2)" x="0" y="0" width="20" height="4.66666667"></rect>
                <rect id="Rectangle-2" fill="#1DB158" mask="url(#mask-2)" x="0" y="9.33333333" width="20" height="4.66666667"></rect>
                <path d="M9.52380953,6.99999999 L9.78419713,6.23446045 C9.90338176,5.88405762 10.0963643,5.88331088 10.2158029,6.23446042 L10.4761905,6.99999995 L11.2449428,8.13006591 C11.3463581,8.27914639 11.3155692,8.48997803 11.1551339,8.5898112 C11.1551339,8.5898112 10.952381,8.86666667 10,8.86666667 C9.04761905,8.86666667 8.84486607,8.5898112 8.84486607,8.5898112 C8.69385071,8.48498137 8.6593192,8.27080078 8.7550572,8.13006592 L9.52380953,6.99999999 Z" id="Rectangle-328" fill="#262626" mask="url(#mask-2)"></path>
                <ellipse id="Oval-17" stroke="#262626" stroke-width="0.666666667" mask="url(#mask-2)" cx="10" cy="6.06666667" rx="1" ry="1"></ellipse>
            </g>
        </g>
    </g>
</svg>