<?xml version="1.0" encoding="UTF-8"?>
<svg width="20px" height="14px" viewBox="0 0 20 14" version="1.1" xmlns="http://www.w3.org/2000/svg" xmlns:xlink="http://www.w3.org/1999/xlink">
    <!-- Generator: Sketch 50.2 (55047) - http://www.bohemiancoding.com/sketch -->
    <title>ME</title>
    <desc>Created with Sketch.</desc>
    <defs>
        <rect id="path-1" x="0" y="0" width="20" height="14" rx="1"></rect>
    </defs>
    <g id="Page-1" stroke="none" stroke-width="1" fill="none" fill-rule="evenodd">
        <g id="Flags" transform="translate(-556.000000, -604.000000)">
            <g id="ME" transform="translate(556.000000, 604.000000)">
                <mask id="mask-2" fill="white">
                    <use xlink:href="#path-1"></use>
                </mask>
                <use id="Mask" fill="#FFFFFF" xlink:href="#path-1"></use>
                <rect id="Mask-Copy" fill="#E6BE53" mask="url(#mask-2)" x="0" y="0" width="20" height="14"></rect>
                <rect id="Rectangle-2" fill="#E01826" mask="url(#mask-2)" x="0.952380952" y="0.933333333" width="18.0952381" height="12.1333333" rx="1"></rect>
                <path d="M9.52915737,4.67190755 C9.78919657,4.92674597 10.2158029,4.92184652 10.4708426,4.67190755 L10.0053478,5.12809245 C10.265387,4.87325403 10.6875547,4.45952975 10.952381,4.2 C11.2153737,3.94226712 11.6888137,3.86085205 12.0263209,4.02623056 L11.7832029,3.90710278 C12.1133308,4.06886545 12.1651495,4.41148682 11.9101097,4.66142578 L12.3756045,4.20524089 C12.1155653,4.46007931 11.6933977,4.87380358 11.4285714,5.13333333 C11.1655787,5.39106622 11.0875643,5.86495934 11.2566557,6.19637858 L11.1242966,5.93695475 C11.292343,6.26632555 11.4285714,6.83152262 11.4285714,7 L11.4285714,6.53333333 C11.4285714,6.79106622 11.6888137,6.87248128 12.0263209,6.70710278 L11.7832029,6.82623056 C12.1133308,6.66446789 12.1651495,6.32184652 11.9101097,6.07190755 L12.3756045,6.52809245 C12.1155653,6.27325403 12.1205648,5.85517985 12.3756045,5.60524089 L11.9101097,6.06142578 C12.170149,5.80658736 12.5161357,5.33504066 12.6852272,5.00362142 L12.5528681,5.26304525 C12.7209144,4.93367445 12.9315476,4.375 13.0236912,4.01379725 L13.166785,3.45286942 C13.2587671,3.09229959 13.5200941,3.04403407 13.7388833,3.32991867 L14.3563548,4.136748 C14.5803338,4.429414 14.7619048,4.95833333 14.7619048,5.34057617 L14.7619048,5.85942383 C14.7619048,6.23161377 14.6267214,6.79829267 14.45763,7.12971191 L14.5899891,6.87028809 C14.4219427,7.19965888 14.0743501,7.67380358 13.8095238,7.93333333 C13.5465311,8.19106622 13.0730911,8.52751872 12.7355839,8.69289722 L12.9787018,8.57376944 C12.6485739,8.73553211 12.0796131,8.86666667 11.709166,8.86666667 L12.1003578,8.86666667 C11.7293404,8.86666667 11.6888137,8.99418538 12.0263209,9.15956389 L11.7832029,9.04043611 C12.1133308,9.20219878 12.5967553,9.54482015 12.851795,9.79475911 L12.3863002,9.33857422 C12.6463394,9.59341264 13.0729457,9.58851318 13.3279855,9.33857422 L12.8624907,9.79475911 C13.1225299,9.53992069 13.5491362,9.54482015 13.804176,9.79475911 L13.3386812,9.33857422 C13.5987204,9.59341264 13.6743405,10.0649593 13.505249,10.3963786 L13.6376081,10.1369548 C13.4695618,10.4663255 13.031994,10.7333333 12.661547,10.7333333 L13.0527387,10.7333333 C12.6817214,10.7333333 12.1207101,10.6058146 11.7832029,10.4404361 L12.0263209,10.5595639 C11.696193,10.3978012 11.2933881,10.0017073 11.1242966,9.67028809 L11.2566557,9.92971191 C11.0886094,9.60034112 10.7365781,9.54482015 10.4815383,9.79475911 L10.9470331,9.33857422 C10.6869939,9.59341264 10.6420826,10.0438614 10.8525966,10.3533171 L11.0521653,10.6466829 C11.2600486,10.9522715 11.1797333,11.3625743 10.8639622,11.568878 L10.5646093,11.7644553 C10.2527842,11.968181 9.75116185,11.9707591 9.43539074,11.7644553 L9.13603783,11.568878 C8.82421275,11.3651523 8.73732067,10.9561386 8.94783474,10.6466829 L9.14740335,10.3533171 C9.35528674,10.0477285 9.30800665,9.58851318 9.05296689,9.33857422 L9.51846168,9.79475911 C9.25842248,9.53992069 8.91243571,9.59829267 8.74334426,9.92971191 L8.87570336,9.67028809 C8.70765703,9.99965888 8.31118629,10.3941854 7.97367913,10.5595639 L8.21679706,10.4404361 C7.88666916,10.6021988 7.31770833,10.7333333 6.94726127,10.7333333 L7.33845302,10.7333333 C6.96743566,10.7333333 6.53148333,10.468374 6.36239188,10.1369548 L6.49475098,10.3963786 C6.32670465,10.0670078 6.40627906,9.58851318 6.66131882,9.33857422 L6.19582403,9.79475911 C6.45586324,9.53992069 6.88246954,9.54482015 7.1375093,9.79475911 L6.67201451,9.33857422 C6.93205372,9.59341264 7.35866002,9.58851318 7.61369978,9.33857422 L7.14820499,9.79475911 C7.40824419,9.53992069 7.8792899,9.20581462 8.21679706,9.04043611 L7.97367913,9.15956389 C8.30380703,8.99780122 8.27008929,8.86666667 7.89964222,8.86666667 L8.29083397,8.86666667 C7.91981661,8.86666667 7.35880534,8.73914795 7.02129818,8.57376944 L7.2644161,8.69289722 C6.93428821,8.53113455 6.45530247,8.19286308 6.19047619,7.93333333 C5.92748345,7.67560045 5.57910238,7.20170733 5.41001093,6.87028809 L5.54237002,7.12971191 C5.3743237,6.80034112 5.23809524,6.24166667 5.23809524,5.85942383 L5.23809524,5.34057617 C5.23809524,4.96838623 5.424856,4.4226326 5.64364524,4.136748 L6.26111666,3.32991867 C6.48509575,3.03725267 6.74107143,3.09166667 6.83321499,3.45286942 L6.97630882,4.01379725 C7.06829092,4.37436707 7.27804048,4.931626 7.44713193,5.26304525 L7.31477283,5.00362142 C7.48281916,5.33299221 7.83485049,5.81148682 8.08989025,6.06142578 L7.62439546,5.60524089 C7.88443467,5.86007931 7.87943522,6.27815348 7.62439546,6.52809245 L8.08989025,6.07190755 C7.82985105,6.32674597 7.8792899,6.66085205 8.21679706,6.82623056 L7.97367913,6.70710278 C8.30380703,6.86886545 8.57142857,6.70181071 8.57142857,6.53333333 L8.57142857,7 C8.57142857,6.74226712 8.70661191,6.268374 8.87570336,5.93695475 L8.74334426,6.19637858 C8.91139059,5.86700779 8.83625485,5.39286308 8.57142857,5.13333333 C8.30843583,4.87560045 7.87943522,4.45517985 7.62439546,4.20524089 L8.08989025,4.66142578 C7.82985105,4.40658736 7.8792899,4.07248128 8.21679706,3.90710278 L7.97367913,4.02623056 C8.30380703,3.86446789 8.78279277,3.94047025 9.04761905,4.2 C9.31061179,4.45773288 9.7396124,4.87815348 9.99465216,5.12809245 L9.52915737,4.67190755 Z M9.04761905,3.26666667 C8.78462631,3.00893378 8.84687151,2.71002197 9.20217923,2.59395479 L9.36924934,2.53937855 C9.71760331,2.42558292 10.2754429,2.42331136 10.6307507,2.53937855 L10.7978208,2.59395479 C11.1461747,2.70775042 11.2172072,3.00713692 10.952381,3.26666667 C10.6893882,3.52439955 10.1748512,3.73333333 9.80440412,3.73333333 L10.1955959,3.73333333 C9.82457852,3.73333333 9.31244532,3.52619642 9.04761905,3.26666667 Z" id="Line" fill="#E6BE53" mask="url(#mask-2)"></path>
                <path d="M9.04761905,8.19543008 C9.04761905,8.56614381 9.15002732,8.59673258 9.30450372,8.24853102 C9.30450372,8.24853102 9.52380953,7.46666667 10,7.46666667 C10.4761905,7.46666667 10.7033666,8.26481578 10.7033666,8.26481578 C10.8408934,8.59720884 10.952381,8.56093163 10.952381,8.20109456 C10.952381,8.20109456 10.952381,8.26811976 10.952381,7.93333333 C10.952381,7.16013468 10.5259855,6.53333333 10,6.53333333 C9.47401452,6.53333333 9.04761905,7.16013468 9.04761905,7.93333333 L9.04761905,8.19543008 Z" id="Oval-205" fill="#215F90" mask="url(#mask-2)"></path>
            </g>
        </g>
    </g>
</svg>