<?xml version="1.0" encoding="UTF-8"?>
<svg width="20px" height="14px" viewBox="0 0 20 14" version="1.1" xmlns="http://www.w3.org/2000/svg" xmlns:xlink="http://www.w3.org/1999/xlink">
    <!-- Generator: Sketch 50.2 (55047) - http://www.bohemiancoding.com/sketch -->
    <title>MN</title>
    <desc>Created with Sketch.</desc>
    <defs>
        <rect id="path-1" x="0" y="0" width="20" height="14" rx="1"></rect>
        <linearGradient x1="50%" y1="0%" x2="50%" y2="100%" id="linearGradient-3">
            <stop stop-color="#F8D246" offset="0%"></stop>
            <stop stop-color="#F9CE2F" offset="100%"></stop>
        </linearGradient>
    </defs>
    <g id="Page-1" stroke="none" stroke-width="1" fill="none" fill-rule="evenodd">
        <g id="Flags" transform="translate(-364.000000, -604.000000)">
            <g id="MN" transform="translate(364.000000, 604.000000)">
                <mask id="mask-2" fill="white">
                    <use xlink:href="#path-1"></use>
                </mask>
                <use id="Mask" fill="#FFFFFF" xlink:href="#path-1"></use>
                <rect id="Rectangle-2-Copy" fill="#146BBC" mask="url(#mask-2)" x="6.66666667" y="0" width="6.66666667" height="14"></rect>
                <rect id="Rectangle-2" fill="#E43642" mask="url(#mask-2)" x="0" y="0" width="6.66666667" height="14"></rect>
                <rect id="Rectangle-2" fill="#E43642" mask="url(#mask-2)" x="13.3333333" y="0" width="6.66666667" height="14"></rect>
                <path d="M3.80952381,8.4 L4.76190476,8.4 L4.76190476,11.2 L3.80952381,11.2 L3.80952381,8.4 Z M1.9047619,8.4 L2.85714286,8.4 L2.85714286,11.2 L1.9047619,11.2 L1.9047619,8.4 Z M2.85714286,10.2666667 L3.80952381,10.2666667 L3.33333333,11.2 L2.85714286,10.2666667 Z M2.85714286,8.4 L3.80952381,8.4 L3.33333333,9.33333333 L2.85714286,8.4 Z M2.85714286,7.46666667 L3.33333333,7 L3.80952381,7.46666667 L2.85714286,7.46666667 Z M3.33333333,8.4 C3.0703406,8.4 2.85714286,8.19106622 2.85714286,7.93333333 C2.85714286,7.67560045 3.0703406,7.46666667 3.33333333,7.46666667 C3.59632607,7.46666667 3.80952381,7.67560045 3.80952381,7.93333333 C3.80952381,8.19106622 3.59632607,8.4 3.33333333,8.4 Z M3.33333333,10.2666667 C3.0703406,10.2666667 2.85714286,10.0577329 2.85714286,9.8 C2.85714286,9.54226712 3.0703406,9.33333333 3.33333333,9.33333333 C3.59632607,9.33333333 3.80952381,9.54226712 3.80952381,9.8 C3.80952381,10.0577329 3.59632607,10.2666667 3.33333333,10.2666667 Z" id="Rectangle-1611" fill="url(#linearGradient-3)" mask="url(#mask-2)"></path>
            </g>
        </g>
    </g>
</svg>