<?xml version="1.0" encoding="UTF-8"?>
<svg width="20px" height="14px" viewBox="0 0 20 14" version="1.1" xmlns="http://www.w3.org/2000/svg" xmlns:xlink="http://www.w3.org/1999/xlink">
    <!-- Generator: Sketch 50.2 (55047) - http://www.bohemiancoding.com/sketch -->
    <title>OM</title>
    <desc>Created with Sketch.</desc>
    <defs>
        <rect id="path-1" x="0" y="0" width="20" height="14" rx="1"></rect>
    </defs>
    <g id="Page-1" stroke="none" stroke-width="1" fill="none" fill-rule="evenodd">
        <g id="Flags" transform="translate(-28.000000, -700.000000)">
            <g id="OM" transform="translate(28.000000, 700.000000)">
                <mask id="mask-2" fill="white">
                    <use xlink:href="#path-1"></use>
                </mask>
                <rect stroke="#F5F5F5" stroke-width="0.5" x="0.25" y="0.25" width="19.5" height="13.5" rx="1"></rect>
                <rect id="Rectangle-2" fill="#138E16" mask="url(#mask-2)" x="0" y="9.33333333" width="20" height="4.66666667"></rect>
                <polygon id="Rectangle-2" fill="#ED2B35" mask="url(#mask-2)" points="0 14 6.66666667 14 6.66666667 9.33333333 20 9.33333333 20 4.66666667 6.66666667 4.66666667 6.66666667 0 0 0"></polygon>
                <polygon id="Star-32" fill="#FFFFFF" mask="url(#mask-2)" points="3.33333333 3.29823059 2.50688812 4.48180855 2.93585133 3.11064169 1.47632779 3.21537241 2.83768138 2.68913326 1.84413051 1.63615237 3.11274746 2.35110975 3.33333333 0.933333333 3.5539192 2.35110975 4.82253616 1.63615237 3.82898528 2.68913326 5.19033888 3.21537241 3.73081534 3.11064169 4.15977855 4.48180855"></polygon>
            </g>
        </g>
    </g>
</svg>