<?xml version="1.0" encoding="UTF-8"?>
<svg width="20px" height="14px" viewBox="0 0 20 14" version="1.1" xmlns="http://www.w3.org/2000/svg" xmlns:xlink="http://www.w3.org/1999/xlink">
    <!-- Generator: Sketch 50.2 (55047) - http://www.bohemiancoding.com/sketch -->
    <title>PG</title>
    <desc>Created with Sketch.</desc>
    <defs>
        <rect id="path-1" x="0" y="0" width="20" height="14" rx="1"></rect>
    </defs>
    <g id="Page-1" stroke="none" stroke-width="1" fill="none" fill-rule="evenodd">
        <g id="Flags" transform="translate(-316.000000, -748.000000)">
            <g id="PG" transform="translate(316.000000, 748.000000)">
                <mask id="mask-2" fill="white">
                    <use xlink:href="#path-1"></use>
                </mask>
                <use id="Mask" fill="#FFFFFF" xlink:href="#path-1"></use>
                <rect id="Mask-Copy" fill="#262626" mask="url(#mask-2)" x="0" y="0" width="20" height="14"></rect>
                <polygon id="Mask" fill="#E8283F" mask="url(#mask-2)" points="0 0 20 0 20 14"></polygon>
                <polygon id="Star-2" fill="#FFFFFF" mask="url(#mask-2)" points="4.76190476 11.6666667 4.08846973 11.8599663 4.28571429 11.2 4.08846973 10.5400337 4.76190476 10.7333333 5.43533979 10.5400337 5.23809524 11.2 5.43533979 11.8599663"></polygon>
                <polygon id="Star-2" fill="#FFFFFF" mask="url(#mask-2)" points="4.76190476 6.06666667 4.08846973 6.25996633 4.28571429 5.6 4.08846973 4.94003367 4.76190476 5.13333333 5.43533979 4.94003367 5.23809524 5.6 5.43533979 6.25996633"></polygon>
                <polygon id="Star-2" fill="#FFFFFF" mask="url(#mask-2)" points="2.38095238 8.4 1.70751735 8.59329966 1.9047619 7.93333333 1.70751735 7.273367 2.38095238 7.46666667 3.05438741 7.273367 2.85714286 7.93333333 3.05438741 8.59329966"></polygon>
                <polygon id="Star-2" fill="#FFFFFF" mask="url(#mask-2)" points="6.66666667 7.93333333 5.99323164 8.126633 6.19047619 7.46666667 5.99323164 6.80670034 6.66666667 7 7.3401017 6.80670034 7.14285714 7.46666667 7.3401017 8.126633"></polygon>
                <path d="M13.4723162,6.48589895 C13.358302,6.41885862 13.2658753,6.26093879 13.2658753,6.13459698 L13.2658753,5.27449381 C13.2658753,5.14751542 13.1726533,5.07503164 13.031587,5.12111328 L12.4900111,5.29802808 C12.3606172,5.34029674 12.1625007,5.34410971 12.0214345,5.29802808 L11.4798586,5.12111328 C11.3504647,5.07884462 11.3360872,4.99135511 11.4520111,4.92319186 L12.7227169,4.17601684 C12.8367311,4.10897652 12.8980838,3.96327196 12.8510617,3.82502706 L12.6705364,3.29428265 C12.6274051,3.16747667 12.6856624,3.09513266 12.8267286,3.14121429 L13.3683045,3.31812909 C13.4976984,3.36039775 13.656903,3.30595663 13.7264574,3.19235121 L14.4888809,1.94705952 C14.5572894,1.83532565 14.6438194,1.83610509 14.6908415,1.97434999 L14.8713668,2.5050944 C14.9144981,2.63190038 14.9183889,2.82605459 14.8713668,2.96429949 L14.6908415,3.49504389 C14.6477102,3.62184988 14.718432,3.72464643 14.8473522,3.72464643 L15.7250085,3.72464639 C15.8545783,3.72464638 16.0139256,3.81335302 16.0834799,3.92695845 L16.8459035,5.17225019 C16.914312,5.28398406 16.8593031,5.39621338 16.7356724,5.42044501 L15.5202761,5.65866268 C15.3909886,5.68400302 15.2640875,5.81280102 15.2393613,5.93395916 L14.9962821,7.1250476 C14.9704246,7.25174931 14.858946,7.30123735 14.7430221,7.23307408 L13.4723162,6.48589895 L13.4723162,6.48589895 Z" id="Rectangle-419" fill="#FFD84E" mask="url(#mask-2)"></path>
            </g>
        </g>
    </g>
</svg>