<?xml version="1.0" encoding="UTF-8"?>
<svg width="20px" height="14px" viewBox="0 0 20 14" version="1.1" xmlns="http://www.w3.org/2000/svg" xmlns:xlink="http://www.w3.org/1999/xlink">
    <!-- Generator: Sketch 50.2 (55047) - http://www.bohemiancoding.com/sketch -->
    <title>PK</title>
    <desc>Created with Sketch.</desc>
    <defs>
        <rect id="path-1" x="0" y="0" width="20" height="14" rx="1"></rect>
    </defs>
    <g id="Page-1" stroke="none" stroke-width="1" fill="none" fill-rule="evenodd">
        <g id="Flags" transform="translate(-28.000000, -748.000000)">
            <g id="PK" transform="translate(28.000000, 748.000000)">
                <mask id="mask-2" fill="white">
                    <use xlink:href="#path-1"></use>
                </mask>
                <rect stroke="#F5F5F5" stroke-width="0.5" x="0.25" y="0.25" width="19.5" height="13.5" rx="1"></rect>
                <path d="M5.71428571,0 L20,0 L20,14 L5.71428571,14 L5.71428571,0 Z" id="Combined-Shape" fill="#0A632F" mask="url(#mask-2)"></path>
                <g id="Star-8-+-Oval-3" mask="url(#mask-2)" fill="#FFFFFF">
                    <g transform="translate(13.193860, 6.835008) rotate(-45.000000) translate(-13.193860, -6.835008) translate(8.551003, 2.285008)" id="Star-8">
                        <path d="M6.77046871,7.6113859 C6.07397847,8.16690226 5.19779766,8.49787161 4.24601204,8.49787161 C1.97734459,8.49787161 0.138226249,6.61746756 0.138226249,4.29787161 C0.138226249,1.97827566 1.97734459,0.0978716093 4.24601204,0.0978716093 C5.19779766,0.0978716093 6.07397847,0.428840961 6.77046871,0.98435732 C6.45424151,0.904279722 6.12121827,0.861507973 5.77733887,0.861507973 C3.71491392,0.861507973 2.04298815,2.40002038 2.04298815,4.29787161 C2.04298815,6.19572284 3.71491392,7.73423525 5.77733887,7.73423525 C6.12121827,7.73423525 6.45424151,7.6914635 6.77046871,7.6113859 L6.77046871,7.6113859 Z M6.80489292,5.02587164 L5.68530196,5.80803667 L6.09839376,4.52283599 L4.99335669,3.72103989 L6.36825243,3.70890721 L6.80489292,2.43120494 L7.24153341,3.70890721 L8.61642914,3.72103989 L7.51139207,4.52283599 L7.92448387,5.80803667 L6.80489292,5.02587164 L6.80489292,5.02587164 Z"></path>
                    </g>
                </g>
            </g>
        </g>
    </g>
</svg>