<?xml version="1.0" encoding="UTF-8"?>
<svg width="20px" height="14px" viewBox="0 0 20 14" version="1.1" xmlns="http://www.w3.org/2000/svg" xmlns:xlink="http://www.w3.org/1999/xlink">
    <!-- Generator: Sketch 50.2 (55047) - http://www.bohemiancoding.com/sketch -->
    <title>TJ</title>
    <desc>Created with Sketch.</desc>
    <defs>
        <rect id="path-1" x="0" y="0" width="20" height="14" rx="1"></rect>
    </defs>
    <g id="Page-1" stroke="none" stroke-width="1" fill="none" fill-rule="evenodd">
        <g id="Flags" transform="translate(-172.000000, -940.000000)">
            <g id="TJ" transform="translate(172.000000, 940.000000)">
                <mask id="mask-2" fill="white">
                    <use xlink:href="#path-1"></use>
                </mask>
                <rect stroke="#F5F5F5" stroke-width="0.5" x="0.25" y="0.25" width="19.5" height="13.5" rx="1"></rect>
                <rect id="Rectangle-2" fill="#D9101C" mask="url(#mask-2)" x="0" y="0" width="20" height="4.66666667"></rect>
                <rect id="Rectangle-2" fill="#0F7811" mask="url(#mask-2)" x="0" y="9.33333333" width="20" height="4.66666667"></rect>
                <path d="M9.58667466,7.46666667 C9.54667803,7.26370036 9.52380952,7.0844107 9.52380952,7 C9.52380952,6.74226712 9.73700726,6.53333333 10,6.53333333 C10.2629927,6.53333333 10.4761905,6.74226712 10.4761905,7 C10.4761905,7.0844107 10.453322,7.26370036 10.4133253,7.46666667 L10.9567724,7.46666667 C11.2173398,7.46666667 11.4285714,7.68313802 11.4285714,7.93333333 C11.4285714,8.19106622 11.2230928,8.4 10.9567724,8.4 L9.0432276,8.4 C8.78266019,8.4 8.57142857,8.18352865 8.57142857,7.93333333 C8.57142857,7.67560045 8.77690724,7.46666667 9.0432276,7.46666667 L9.58667466,7.46666667 Z M9.04761905,6.53333333 C8.78462631,6.53333333 8.57142857,6.32439955 8.57142857,6.06666667 C8.57142857,5.80893378 8.78462631,5.6 9.04761905,5.6 C9.31061179,5.6 9.52380952,5.80893378 9.52380952,6.06666667 C9.52380952,6.32439955 9.31061179,6.53333333 9.04761905,6.53333333 Z M10.952381,6.53333333 C10.6893882,6.53333333 10.4761905,6.32439955 10.4761905,6.06666667 C10.4761905,5.80893378 10.6893882,5.6 10.952381,5.6 C11.2153737,5.6 11.4285714,5.80893378 11.4285714,6.06666667 C11.4285714,6.32439955 11.2153737,6.53333333 10.952381,6.53333333 Z M12.8571429,7.46666667 C12.5941501,7.46666667 12.3809524,7.25773288 12.3809524,7 C12.3809524,6.74226712 12.5941501,6.53333333 12.8571429,6.53333333 C13.1201356,6.53333333 13.3333333,6.74226712 13.3333333,7 C13.3333333,7.25773288 13.1201356,7.46666667 12.8571429,7.46666667 Z M7.14285714,7.46666667 C6.8798644,7.46666667 6.66666667,7.25773288 6.66666667,7 C6.66666667,6.74226712 6.8798644,6.53333333 7.14285714,6.53333333 C7.40584988,6.53333333 7.61904762,6.74226712 7.61904762,7 C7.61904762,7.25773288 7.40584988,7.46666667 7.14285714,7.46666667 Z" id="Oval-36" fill="#FAD14E" mask="url(#mask-2)"></path>
            </g>
        </g>
    </g>
</svg>