<?xml version="1.0" encoding="UTF-8"?>
<svg width="20px" height="14px" viewBox="0 0 20 14" version="1.1" xmlns="http://www.w3.org/2000/svg" xmlns:xlink="http://www.w3.org/1999/xlink">
    <!-- Generator: Sketch 50.2 (55047) - http://www.bohemiancoding.com/sketch -->
    <title>UZ</title>
    <desc>Created with Sketch.</desc>
    <defs>
        <rect id="path-1" x="0" y="0" width="20" height="14" rx="1"></rect>
    </defs>
    <g id="Page-1" stroke="none" stroke-width="1" fill="none" fill-rule="evenodd">
        <g id="Flags" transform="translate(-220.000000, -988.000000)">
            <g id="UZ" transform="translate(220.000000, 988.000000)">
                <mask id="mask-2" fill="white">
                    <use xlink:href="#path-1"></use>
                </mask>
                <rect stroke="#F5F5F5" stroke-width="0.5" x="0.25" y="0.25" width="19.5" height="13.5" rx="1"></rect>
                <rect id="Rectangle-2" fill="#04AAC8" mask="url(#mask-2)" x="0" y="0" width="20" height="4.66666667"></rect>
                <rect id="Rectangle-2" fill="#23C840" mask="url(#mask-2)" x="0" y="9.33333333" width="20" height="4.66666667"></rect>
                <path d="M4.12720851,1.16923263 C4.10090301,1.16753097 4.07436402,1.16666667 4.04761905,1.16666667 C3.3901372,1.16666667 2.85714286,1.68900113 2.85714286,2.33333333 C2.85714286,2.97766554 3.3901372,3.5 4.04761905,3.5 C4.07436402,3.5 4.10090301,3.4991357 4.12720851,3.49743404 C3.90016433,3.64643384 3.62710417,3.73333333 3.33333333,3.73333333 C2.54435512,3.73333333 1.9047619,3.10653198 1.9047619,2.33333333 C1.9047619,1.56013468 2.54435512,0.933333333 3.33333333,0.933333333 C3.62710417,0.933333333 3.90016433,1.02023283 4.12720851,1.16923263 Z M5.23809524,3.73333333 C4.9751025,3.73333333 4.76190476,3.52439955 4.76190476,3.26666667 C4.76190476,3.00893378 4.9751025,2.8 5.23809524,2.8 C5.50108798,2.8 5.71428571,3.00893378 5.71428571,3.26666667 C5.71428571,3.52439955 5.50108798,3.73333333 5.23809524,3.73333333 Z M7.14285714,1.86666667 C6.8798644,1.86666667 6.66666667,1.65773288 6.66666667,1.4 C6.66666667,1.14226712 6.8798644,0.933333333 7.14285714,0.933333333 C7.40584988,0.933333333 7.61904762,1.14226712 7.61904762,1.4 C7.61904762,1.65773288 7.40584988,1.86666667 7.14285714,1.86666667 Z M9.04761905,1.86666667 C8.78462631,1.86666667 8.57142857,1.65773288 8.57142857,1.4 C8.57142857,1.14226712 8.78462631,0.933333333 9.04761905,0.933333333 C9.31061179,0.933333333 9.52380952,1.14226712 9.52380952,1.4 C9.52380952,1.65773288 9.31061179,1.86666667 9.04761905,1.86666667 Z M9.04761905,3.73333333 C8.78462631,3.73333333 8.57142857,3.52439955 8.57142857,3.26666667 C8.57142857,3.00893378 8.78462631,2.8 9.04761905,2.8 C9.31061179,2.8 9.52380952,3.00893378 9.52380952,3.26666667 C9.52380952,3.52439955 9.31061179,3.73333333 9.04761905,3.73333333 Z M7.14285714,3.73333333 C6.8798644,3.73333333 6.66666667,3.52439955 6.66666667,3.26666667 C6.66666667,3.00893378 6.8798644,2.8 7.14285714,2.8 C7.40584988,2.8 7.61904762,3.00893378 7.61904762,3.26666667 C7.61904762,3.52439955 7.40584988,3.73333333 7.14285714,3.73333333 Z" id="Oval-68" fill="#FFFFFF" mask="url(#mask-2)"></path>
            </g>
        </g>
    </g>
</svg>