<?xml version="1.0" encoding="UTF-8"?>
<svg width="20px" height="14px" viewBox="0 0 20 14" version="1.1" xmlns="http://www.w3.org/2000/svg" xmlns:xlink="http://www.w3.org/1999/xlink">
    <!-- Generator: Sketch 50.2 (55047) - http://www.bohemiancoding.com/sketch -->
    <title>ZW</title>
    <desc>Created with Sketch.</desc>
    <defs>
        <rect id="path-1" x="0" y="0" width="20" height="14" rx="1"></rect>
        <linearGradient x1="50%" y1="0%" x2="50%" y2="100%" id="linearGradient-3">
            <stop stop-color="#F12F1F" offset="0%"></stop>
            <stop stop-color="#DE2010" offset="100%"></stop>
        </linearGradient>
    </defs>
    <g id="Page-1" stroke="none" stroke-width="1" fill="none" fill-rule="evenodd">
        <g id="Flags" transform="translate(-76.000000, -1132.000000)">
            <g id="ZW" transform="translate(76.000000, 1132.000000)">
                <mask id="mask-2" fill="white">
                    <use xlink:href="#path-1"></use>
                </mask>
                <use id="Mask" fill="#FFFFFF" xlink:href="#path-1"></use>
                <rect id="Rectangle-2" fill="#369D0C" mask="url(#mask-2)" x="0" y="0" width="20" height="1.86666667"></rect>
                <rect id="Rectangle-2" fill="#369D0C" mask="url(#mask-2)" x="0" y="12.1333333" width="20" height="1.86666667"></rect>
                <rect id="Rectangle-2" fill="#369D0C" mask="url(#mask-2)" x="0" y="3.73333333" width="20" height="1.86666667"></rect>
                <rect id="Rectangle-2" fill="#369D0C" mask="url(#mask-2)" x="0" y="8.4" width="20" height="1.86666667"></rect>
                <rect id="Rectangle-2" fill="#262626" mask="url(#mask-2)" x="0" y="5.6" width="20" height="2.8"></rect>
                <rect id="Rectangle-2" fill="#FFD40E" mask="url(#mask-2)" x="0" y="1.86666667" width="20" height="1.86666667"></rect>
                <rect id="Rectangle-2" fill="#FFD40E" mask="url(#mask-2)" x="0" y="10.2666667" width="20" height="1.86666667"></rect>
                <path d="M-0.285714286,13.3333333 L-0.218646727,13.3333333 L8.39813332,7 L-0.218646727,0.666666667 L-0.285714286,0.666666667 L-0.285714286,13.3333333 Z M-0.285714286,13.4270391 L-0.394824411,13.4628239 L-0.285714286,13.382628 L-0.285714286,13.4270391 Z M-0.285714286,0.617372011 L-0.394824411,0.537176069 L-0.285714286,0.572960927 L-0.285714286,0.617372011 Z" id="Rectangle-83" stroke="#262626" stroke-width="1.33333333" fill="#FFFFFF" mask="url(#mask-2)"></path>
                <polygon id="Star-8" fill="url(#linearGradient-3)" mask="url(#mask-2)" points="2.85714286 7.91000004 1.45765416 8.88770632 1.97401891 7.28120548 0.59272258 6.27896035 2.31134224 6.26379451 2.85714286 4.66666667 3.40294347 6.26379451 5.12156313 6.27896035 3.7402668 7.28120548 4.25663155 8.88770632"></polygon>
            </g>
        </g>
    </g>
</svg>