<?xml version="1.0" encoding="utf-8"?>
<!-- Generator: Adobe Illustrator 21.1.0, SVG Export Plug-In . SVG Version: 6.00 Build 0)  -->
<svg version="1.1" id="Layer_1" xmlns="http://www.w3.org/2000/svg" xmlns:xlink="http://www.w3.org/1999/xlink" x="0px" y="0px"
	 viewBox="0 0 24 24" style="enable-background:new 0 0 24 24;" xml:space="preserve">
<style type="text/css">
	.st0{fill:#ff5500;}
</style>
<g>
	<path class="st0" d="M12,0C5.4,0,0,5.4,0,12c0,6.6,5.4,12,12,12c6.6,0,12-5.4,12-12C24,5.4,18.6,0,12,0z M12,23
		C5.9,23,1,18.1,1,12S5.9,1,12,1s11,4.9,11,11S18.1,23,12,23z"/>
	<polygon class="st0" points="11,16 11,17 13,17 13,16 13,15 11,15 		"/>
	<polygon class="st0" points="11,8 11,9 11,10 11,11 11,12 11,13 11,14 13,14 13,13 13,12 13,11 13,10 13,9 13,8 13,7 11,7 		"/>
	<path class="st0" d="M12,0C5.4,0,0,5.4,0,12c0,6.6,5.4,12,12,12c6.6,0,12-5.4,12-12C24,5.4,18.6,0,12,0z M12,23
		C5.9,23,1,18.1,1,12S5.9,1,12,1s11,4.9,11,11S18.1,23,12,23z"/>
	<polygon class="st0" points="11,16 11,17 13,17 13,16 13,15 11,15 		"/>
	<polygon class="st0" points="11,8 11,9 11,10 11,11 11,12 11,13 11,14 13,14 13,13 13,12 13,11 13,10 13,9 13,8 13,7 11,7 		"/>
</g>
</svg>
