<?xml version="1.0" encoding="UTF-8"?>
<svg width="8px" height="12px" viewBox="0 0 8 12" version="1.1" xmlns="http://www.w3.org/2000/svg" xmlns:xlink="http://www.w3.org/1999/xlink">
    <!-- Generator: Sketch 52.5 (67469) - http://www.bohemiancoding.com/sketch -->
    <title>Combined Shape</title>
    <desc>Created with Sketch.</desc>
    <g id="Page-1" stroke="none" stroke-width="1" fill="none" fill-rule="evenodd">
        <path d="M3.57354688,0.691067272 C3.67819549,0.573819595 3.8304771,0.5 4.0000002,0.5 C4.1695233,0.5 4.32180491,0.573819594 4.42645352,0.691067269 L7.85331074,4.49868641 C8.06443016,4.73326354 8.04541393,5.09457198 7.81083679,5.3056914 C7.57625966,5.51681081 7.21495122,5.49779458 7.00383181,5.26321745 L4.57142871,2.56054735 L4.57142871,10.499999 C4.57142871,10.8155902 4.31559145,11.0714275 4.0000002,11.0714275 C3.68440895,11.0714275 3.42857169,10.8155902 3.42857169,10.499999 L3.42857169,2.56054735 L0.996168595,5.26321745 C0.785049177,5.49779458 0.423740736,5.51681081 0.189163605,5.3056914 C-0.0454135257,5.09457198 -0.0644297594,4.73326354 0.146689658,4.49868641 L3.57354688,0.691067269 Z" id="Combined-Shape" fill="#A6AAB5" fill-rule="nonzero" transform="translate(4.000000, 5.785714) rotate(180.000000) translate(-4.000000, -5.785714) "></path>
    </g>
</svg>