<?xml version="1.0" encoding="utf-8"?>
<!-- Generator: Adobe Illustrator 21.1.0, SVG Export Plug-In . SVG Version: 6.00 Build 0)  -->
<svg version="1.1" id="Layer_1" xmlns="http://www.w3.org/2000/svg" xmlns:xlink="http://www.w3.org/1999/xlink" x="0px" y="0px"
	 viewBox="0 0 18 19" style="enable-background:new 0 0 18 19;" xml:space="preserve">
<style type="text/css">
	.st0{fill:#FFFFFF;}
	.st1{opacity:0.5;fill:#FFFFFF;}
</style>
<title>Group 9</title>
<desc>Created with Sketch.</desc>
<g>
	<path class="st0" d="M17,14.3c-1.3-1.6-2-3.6-2.1-5.7c0-3.4-1.7-6.1-4.2-6.9c-0.2-0.8-0.9-1.3-1.8-1.3S7.3,0.9,7.1,1.7
		C4.5,2.5,2.9,5.2,2.9,8.6c-0.1,2.1-0.8,4.1-2.1,5.7c-0.2,0.3-0.2,0.8,0,1.1S1.3,16,1.7,16h14.5c0.4,0,0.8-0.2,0.9-0.6
		C17.3,15.1,17.3,14.7,17,14.3z M16.2,15H1.7l-0.1-0.1c1.4-1.8,2.2-4,2.3-6.3c0-2.3,1-5.3,3.8-6l0.3-0.1l0-0.4
		c0-0.4,0.4-0.8,0.9-0.8s0.8,0.3,0.9,0.8l0,0.4l0.3,0.1C13,3.3,14,6.3,14,8.6v0C14.1,10.9,14.9,13.1,16.2,15l0.5-0.4L16.2,15z"/>
	<path class="st1" d="M8.9,19c1.1,0,2-0.9,2-2h-4C6.9,18.1,7.8,19,8.9,19z"/>
</g>
</svg>
