<?xml version="1.0" encoding="utf-8"?>
<!-- Generator: Adobe Illustrator 21.1.0, SVG Export Plug-In . SVG Version: 6.00 Build 0)  -->
<svg version="1.1" id="Layer_1" xmlns="http://www.w3.org/2000/svg" xmlns:xlink="http://www.w3.org/1999/xlink" x="0px" y="0px"
	 viewBox="0 0 14 15" style="enable-background:new 0 0 14 15;" xml:space="preserve">
<style type="text/css">
	.st0{opacity:0.2;}
</style>
<title>delete copy</title>
<desc>Created with Sketch.</desc>
<path class="st0" d="M13,2H9.8L9.1,0.6C8.9,0.2,8.6,0,8.2,0H5.8C5.4,0,5.1,0.2,4.9,0.6L4.2,2H1C0.4,2,0,2.4,0,3v1.9c0,0.6,0.4,1,1,1
	h0.3l1.5,8.4C2.9,14.7,3.2,15,3.7,15h6.6c0.4,0,0.8-0.3,0.9-0.8l1.5-8.4H13c0.6,0,1-0.3,1-0.9V3C14,2.4,13.6,2,13,2z M5.8,1h2.4
	l0.5,1H5.3L5.8,1z M10.2,14H3.8L2.3,5.9h9.4L10.2,14z M13,5H1V3h2.7h6.6H13V5z"/>
</svg>
