<svg xmlns="http://www.w3.org/2000/svg" xmlns:xlink="http://www.w3.org/1999/xlink" width="14" height="15" viewBox="0 0 14 15"><defs><path id="a0wpa" d="M22 391h14v12.99H22z"/><path id="a0wpd" d="M35 391a1 1 0 0 1 1 1v2c0 .55-.45.86-1 .86h-.3l-1.5 8.38a.9.9 0 0 1-.88.75h-6.64a.9.9 0 0 1-.89-.75l-1.5-8.38H23a1 1 0 0 1-1-1V392a1 1 0 0 1 1-1zm-1.31 3.87h-9.37l1.44 8.12h6.48zM35 392H23v2h12z"/><path id="a0wpb" d="M25.69 389h6.62v3h-6.62z"/><path id="a0wpf" d="M32.3 392H25.7l1.22-2.45a1 1 0 0 1 .9-.55h2.38a1 1 0 0 1 .9.55zm-5-1h3.39l-.5-1h-2.38z"/><clipPath id="a0wpc"><use xlink:href="#a0wpa"/></clipPath><clipPath id="a0wpe"><use xlink:href="#a0wpb"/></clipPath></defs><g><g transform="translate(-22 -389)"><g><g/><g clip-path="url(#a0wpc)" fill="currentColor"><use xlink:href="#a0wpd"/></g><g/><g clip-path="url(#a0wpe)" fill="currentColor"><use xlink:href="#a0wpf"/></g></g><g/></g></g></svg>