<svg xmlns="http://www.w3.org/2000/svg" xmlns:xlink="http://www.w3.org/1999/xlink" width="32" height="32" viewBox="0 0 32 32"><defs><path id="8kjba" d="M145 188c0-8.837 7.163-16 16-16s16 7.163 16 16-7.163 16-16 16-16-7.163-16-16z"/><path id="8kjbb" d="M157 194s-3.518 1.878-4 2c-.002.14-.61-.033-1-1 .043.348 0 .185 0 0v-12c0-1.123.895-2 2-2h14c1.105 0 2 .877 2 2v9c0 .86-.895 1.738-2 2 0-.262-11 0-11 0zm-4 1l4-2s11-.255 11 0c.552-.255 1-.692 1-1v-9c0-.563-.448-1-1-1h-14c-.552 0-1 .437-1 1v12z"/><path id="8kjbc" d="M160 188a1 1 0 1 1 2 0 1 1 0 0 1-2 0z"/><path id="8kjbd" d="M164 188a1 1 0 1 1 2 0 1 1 0 0 1-2 0z"/><path id="8kjbe" d="M156 188a1 1 0 1 1 2 0 1 1 0 0 1-2 0z"/></defs><g><g transform="translate(-145 -172)"><g><use fill="#1e1c60" xlink:href="#8kjba"/></g><g><use fill="#fff" xlink:href="#8kjbb"/></g><g><use fill="#798199" xlink:href="#8kjbc"/></g><g><use fill="#798199" xlink:href="#8kjbd"/></g><g><use fill="#798199" xlink:href="#8kjbe"/></g></g></g></svg>