<?xml version="1.0" encoding="UTF-8"?>
<svg width="32px" height="32px" viewBox="0 0 32 32" version="1.1" xmlns="http://www.w3.org/2000/svg" xmlns:xlink="http://www.w3.org/1999/xlink">
    <!-- Generator: Sketch 52.6 (67491) - http://www.bohemiancoding.com/sketch -->
    <title>chat_orange</title>
    <desc>Created with Sketch.</desc>
    <g id="комменты-илье" stroke="none" stroke-width="1" fill="none" fill-rule="evenodd">
        <g id="chat_orange">
            <circle id="Oval-5-Copy" fill="#FF5500" cx="16" cy="16" r="16"></circle>
            <path d="M8,23 L12,21 L23,21 C23.5522847,20.7453977 24,20.3080451 24,20 L24,11 C24,10.4373526 23.5522847,10 23,10 L9,10 C8.44771525,10 8,10.4373526 8,11 L8,23 Z M12,22 L8,24 C7.99841563,24.1393245 7.39029355,23.9665637 7,23 C7.0426419,23.3477319 7,23.1851833 7,23 L7,11 C7,9.8774023 7.8954305,9 9,9 L23,9 C24.1045695,9 25,9.8774023 25,11 L25,20 C25,20.8608614 24.1045695,21.7382637 23,22 L12,22 Z" id="Path" fill="#FFFFFF" fill-rule="nonzero"></path>
            <circle id="Oval-Copy" fill-opacity="0.54" fill="#FFFFFF" fill-rule="nonzero" cx="16" cy="16" r="1"></circle>
            <circle id="Oval-Copy-2" fill-opacity="0.54" fill="#FFFFFF" fill-rule="nonzero" cx="20" cy="16" r="1"></circle>
            <circle id="Oval" fill-opacity="0.54" fill="#FFFFFF" fill-rule="nonzero" cx="12" cy="16" r="1"></circle>
        </g>
    </g>
</svg>