<?xml version="1.0" encoding="utf-8"?>
<!-- Generator: Adobe Illustrator 21.1.0, SVG Export Plug-In . SVG Version: 6.00 Build 0)  -->
<svg version="1.1" id="Layer_1" xmlns="http://www.w3.org/2000/svg" xmlns:xlink="http://www.w3.org/1999/xlink" x="0px" y="0px"
	 viewBox="0 0 18 17" style="enable-background:new 0 0 18 17;" xml:space="preserve">
<style type="text/css">
	.st0{fill:url(#SVGID_1_);}
</style>
<linearGradient id="SVGID_1_" gradientUnits="userSpaceOnUse" x1="0.5606" y1="-3.308960e-03" x2="17.0606" y2="16.6217">
	<stop  offset="0" style="stop-color:#003CFF"/>
	<stop  offset="1" style="stop-color:#148CFF"/>
</linearGradient>
<path class="st0" d="M9.7,8.5L17.2,1c0.2-0.2,0.2-0.5,0-0.7s-0.5-0.2-0.7,0L9,7.8L1.5,0.3C1.3,0.1,1,0.1,0.8,0.3S0.6,0.8,0.8,1
	l7.5,7.5L0.8,16c-0.2,0.2-0.2,0.5,0,0.7c0.1,0.1,0.2,0.1,0.4,0.1s0.3,0,0.4-0.1L9,9.2l7.5,7.5c0.1,0.1,0.2,0.1,0.4,0.1
	s0.3,0,0.4-0.1c0.2-0.2,0.2-0.5,0-0.7L9.7,8.5z"/>
</svg>
