<?xml version="1.0" encoding="utf-8"?>
<!-- Generator: Adobe Illustrator 22.1.0, SVG Export Plug-In . SVG Version: 6.00 Build 0)  -->
<svg version="1.1" id="Layer_1" xmlns="http://www.w3.org/2000/svg" xmlns:xlink="http://www.w3.org/1999/xlink" x="0px" y="0px"
	 viewBox="0 0 45 45" style="enable-background:new 0 0 45 45;" xml:space="preserve">
<style type="text/css">
	.st0{fill:url(#SVGID_1_);}
</style>
<linearGradient id="SVGID_1_" gradientUnits="userSpaceOnUse" x1="31.2118" y1="22.4265" x2="13.7512" y2="22.4265">
	<stop  offset="0" style="stop-color:#FF00AD"/>
	<stop  offset="1" style="stop-color:#FF0000"/>
</linearGradient>
<path class="st0" d="M23.5,22.4L44.2,1.7c0.3-0.3,0.3-0.8,0-1.1s-0.8-0.3-1.1,0L22.4,21.4L1.7,0.7C1.5,0.4,1,0.4,0.7,0.7
	s-0.3,0.8,0,1.1l20.7,20.7L0.7,43.1c-0.3,0.3-0.3,0.8,0,1.1c0.1,0.1,0.3,0.2,0.5,0.2s0.4-0.1,0.5-0.2l20.7-20.7l20.7,20.7
	c0.1,0.1,0.3,0.2,0.5,0.2s0.4-0.1,0.5-0.2c0.3-0.3,0.3-0.8,0-1.1L23.5,22.4z"/>
</svg>
