<?xml version="1.0" encoding="UTF-8"?>
<svg width="32px" height="32px" viewBox="0 0 32 32" version="1.1" xmlns="http://www.w3.org/2000/svg" xmlns:xlink="http://www.w3.org/1999/xlink">
    <!-- Generator: Sketch 52.6 (67491) - http://www.bohemiancoding.com/sketch -->
    <title>bell_orange</title>
    <desc>Created with Sketch.</desc>
    <g id="комменты-илье" stroke="none" stroke-width="1" fill="none" fill-rule="evenodd">
        <g id="bell_orange">
            <circle id="Oval-5" fill="#FF5500" cx="16" cy="16" r="16"></circle>
            <path d="M23.8249673,20.2887628 C24.0420603,20.6285232 24.0583332,21.0592182 23.8674973,21.4144036 C23.6766614,21.769589 23.30861,21.9936272 22.89758,22 L8.09162479,21.9999374 C7.68859318,21.9936272 7.3205418,21.769589 7.12970589,21.4144036 C6.93886998,21.0592182 6.95514288,20.6285232 7.20161574,20.2474492 C8.51377893,18.5835645 9.25692345,16.5419895 9.32128352,14.4392125 C9.32128352,11.0569504 10.9327476,8.23758165 13.6653439,7.37645844 C13.8975857,6.57503745 14.6359191,6 15.4986016,6 C16.3612841,6 17.0996175,6.57503745 17.3318592,7.37645844 C20.0623031,8.23690334 21.6733802,11.05251 21.6759167,14.4312208 C21.742058,16.5468721 22.4850286,18.5856037 23.8249673,20.2887628 Z M20.6539143,14.4548039 L20.6536766,14.4392125 C20.6536766,11.3551243 19.1780031,8.88671666 16.7656899,8.27849236 L16.4144856,8.18994208 L16.3815935,7.82910766 C16.3399561,7.37233394 15.9570874,7.02265148 15.4986016,7.02265148 C15.0401157,7.02265148 14.6572471,7.37233394 14.6156096,7.82910766 L14.5827176,8.18994208 L14.2315132,8.27849236 C11.8192001,8.88671666 10.3435265,11.3551243 10.3432889,14.4548039 C10.2720112,16.7922277 9.45201993,19.0449171 8.033549,20.8395465 C8.01605842,20.8669201 8.01474736,20.90162 8.03012248,20.9302363 C8.0454976,20.9588526 8.07515048,20.9769027 8.0996232,20.9773485 L22.8895815,20.9774111 C22.9220527,20.9769027 22.9517056,20.9588526 22.9670807,20.9302363 C22.9824558,20.90162 22.9811447,20.8669201 22.9930341,20.8808601 C21.5451832,19.0449171 20.7251919,16.7922277 20.6539143,14.4548039 Z" id="Shape" fill="#FFFFFF" fill-rule="nonzero"></path>
            <path d="M14,23 C14,24.1045695 14.8954305,25 16,25 C17.1045695,25 18,24.1045695 18,23" id="Oval-2" fill-opacity="0.543478261" fill="#FFFFFF"></path>
        </g>
    </g>
</svg>