<svg xmlns="http://www.w3.org/2000/svg" xmlns:xlink="http://www.w3.org/1999/xlink" width="32" height="32" viewBox="0 0 32 32"><defs><path id="83yea" d="M97 188c0-8.837 7.163-16 16-16s16 7.163 16 16-7.163 16-16 16-16-7.163-16-16z"/><path id="83yeb" d="M117.654 186.46v-.015c0-3.087-1.476-5.557-3.888-6.166l-.352-.088-.032-.361a.887.887 0 0 0-1.766 0l-.033.36-.351.09c-2.413.608-3.888 3.078-3.889 6.18a10.871 10.871 0 0 1-2.31 6.39.09.09 0 0 0-.003.09c.015.029.045.047.07.047h14.79a.09.09 0 0 0 .077-.047c.015-.028.014-.063.026-.05a10.927 10.927 0 0 1-2.34-6.43zm3.171 5.829a1.113 1.113 0 0 1-.927 1.711h-14.806a1.112 1.112 0 0 1-.962-.586c-.191-.355-.175-.785.072-1.167a9.882 9.882 0 0 0 2.12-5.808c0-3.382 1.61-6.201 4.343-7.063a1.91 1.91 0 0 1 3.667 0c2.73.86 4.341 3.677 4.344 7.055a9.95 9.95 0 0 0 2.149 5.858z"/><path id="83yec" d="M111 195a2 2 0 1 0 4 0"/></defs><g><g transform="translate(-97 -172)"><use fill="#1e1c60" xlink:href="#83yea"/></g><g transform="translate(-97 -172)"><use fill="#fff" xlink:href="#83yeb"/></g><g transform="translate(-97 -172)"><use fill="#798199" xlink:href="#83yec"/></g></g></svg>