<svg xmlns="http://www.w3.org/2000/svg" xmlns:xlink="http://www.w3.org/1999/xlink" width="26" height="34" viewBox="0 0 26 34"><defs><path id="mbkra" d="M103 423h15.598a2 2 0 0 1 1.461.634l6.402 6.846a2 2 0 0 1 .539 1.366V455a2 2 0 0 1-2 2h-22a2 2 0 0 1-2-2v-30a2 2 0 0 1 2-2zm0 1a1 1 0 0 0-1 1v30a1 1 0 0 0 1 1h22a1 1 0 0 0 1-1v-23.154a1 1 0 0 0-.27-.683l-6.401-6.846a1 1 0 0 0-.73-.317z"/><path id="mbkrb" d="M127 433h-7c-1.092 0-2-.93-2-2v-8l1 1s.014 6.922 0 7c.014.496.468.96 1 1 .027-.04 6 0 6 0zm-1-1l1 1h-7c-1.092 0-2-.93-2-2v-8l1 1s.014 6.922 0 7c.014.496.468.96 1 1 .027-.04 6 0 6 0z"/></defs><g><g transform="translate(-101 -423)"><g><g><g><text fill="#f50" style="line-height:12.6px" dominant-baseline="text-before-edge" font-family="'Roboto','Roboto-Regular'" font-size="10" transform="translate(105 442)"><tspan>PDF</tspan></text></g></g><g><use fill="#f50" xlink:href="#mbkra"/></g><g><use fill="#f50" xlink:href="#mbkrb"/></g></g></g></g></svg>