<?xml version="1.0" encoding="UTF-8"?>
<svg width="21px" height="21px" viewBox="0 0 21 21" version="1.1" xmlns="http://www.w3.org/2000/svg" xmlns:xlink="http://www.w3.org/1999/xlink">
    <!-- Generator: Sketch 52.5 (67469) - http://www.bohemiancoding.com/sketch -->
    <title>Group 4</title>
    <desc>Created with Sketch.</desc>
    <g id="Page-1" stroke="none" stroke-width="1" fill="none" fill-rule="evenodd">
        <g id="Group-4" transform="translate(-1.480048, -1.480048)">
            <rect id="Rectangle" x="0" y="0" width="24" height="24"></rect>
            <path d="M17.5800267,4.0036072 L16.5558243,5.12091891 C15.2503816,4.25462491 13.6841215,3.75 12,3.75 C7.44365081,3.75 3.75,7.44365081 3.75,12 C3.75,16.5563492 7.44365081,20.25 12,20.25 C14.0385718,20.25 15.9044496,19.5106095 17.3440859,18.2853763 L18.3433661,19.40457 C16.6382541,20.8666742 14.4222829,21.75 12,21.75 C6.61522369,21.75 2.25,17.3847763 2.25,12 C2.25,6.61522369 6.61522369,2.25 12,2.25 C14.0752851,2.25 15.9991339,2.89837564 17.5800267,4.0036072 Z" id="Combined-Shape" fill="#151443" fill-rule="nonzero"></path>
        </g>
    </g>
</svg>