<?xml version="1.0" encoding="UTF-8"?>
<svg width="25px" height="22px" viewBox="0 0 25 22" version="1.1" xmlns="http://www.w3.org/2000/svg" xmlns:xlink="http://www.w3.org/1999/xlink">
    <!-- Generator: Sketch 52.6 (67491) - http://www.bohemiancoding.com/sketch -->
    <title>telegramm</title>
    <desc>Created with Sketch.</desc>
    <g id="Page-2" stroke="none" stroke-width="1" fill="none" fill-rule="evenodd">
        <path d="M0.437306749,10.5189516 L6.14214227,12.6858254 L8.35026337,19.9126856 C8.49155143,20.3755399 9.04770811,20.5466221 9.41685618,20.2394804 L12.5968279,17.6012695 C12.9301587,17.3248671 13.4049427,17.3110932 13.7532937,17.5684304 L19.4888297,21.8061805 C19.8837265,22.0982886 20.4431843,21.8780737 20.542218,21.3924588 L24.7438047,0.824710779 C24.8519165,0.294246626 24.3397473,-0.148282762 23.8434234,0.0470718324 L0.430621975,9.23873226 C-0.147157059,9.46549813 -0.142122847,10.2979808 0.437306749,10.5189516 Z M7.72144796,11.9886415 L18.8691038,4.90708484 C19.069451,4.78018925 19.2755743,5.05959784 19.1035298,5.22419614 L9.9034833,14.0447585 C9.58010573,14.3552314 9.37150698,14.7707272 9.31242601,15.221713 L8.99903279,17.6171544 C8.95752758,17.9369891 8.52192916,17.9687343 8.43636076,17.6591976 L7.23105936,13.2910447 C7.09301122,12.7928242 7.29418359,12.2606457 7.72144796,11.9886415 Z" id="telegramm" fill="#FF5500"></path>
    </g>
</svg>