<svg xmlns="http://www.w3.org/2000/svg" xmlns:xlink="http://www.w3.org/1999/xlink" width="25" height="22" viewBox="0 0 25 22"><defs><path id="1bdba" d="M1028.721 1878.989l11.148-7.082c.2-.127.407.153.235.317l-9.2 8.82c-.324.311-.532.727-.592 1.178l-.313 2.395c-.041.32-.477.352-.563.042l-1.205-4.368a1.175 1.175 0 0 1 .49-1.302zm-7.284-1.47l5.705 2.167 2.208 7.227a.667.667 0 0 0 1.067.326l3.18-2.638a.936.936 0 0 1 1.156-.033l5.736 4.238a.67.67 0 0 0 1.053-.414l4.202-20.567c.108-.53-.404-.973-.9-.778l-23.413 9.192c-.578.226-.573 1.059.006 1.28z"/></defs><g><g transform="translate(-1021 -1867)"><use fill="#798199" xlink:href="#1bdba"/></g></g></svg>