<?xml version="1.0" encoding="UTF-8"?>
<svg width="24px" height="26px" viewBox="0 0 24 26" version="1.1" xmlns="http://www.w3.org/2000/svg" xmlns:xlink="http://www.w3.org/1999/xlink">
    <!-- Generator: Sketch 52.5 (67469) - http://www.bohemiancoding.com/sketch -->
    <title>Combined Shape</title>
    <desc>Created with Sketch.</desc>
    <g id="Page-1" stroke="none" stroke-width="1" fill="none" fill-rule="evenodd">
        <g id="Main-Copy-28" transform="translate(-987.000000, -1864.000000)" fill="#798199">
            <path d="M992.79068,1889.1875 C992.79068,1889.1875 992.774468,1886.53488 992.79068,1885.18052 C992.795892,1884.75349 992.61929,1884.55485 992.266087,1884.39343 C991.709647,1884.13813 990.842852,1883.92518 990.324048,1883.60291 C988.887496,1882.70992 988.068759,1881.35156 987.606121,1879.76021 C987.010887,1877.71321 986.900294,1875.61527 987.075737,1873.50531 C987.166644,1872.41426 987.325296,1871.32494 987.5239,1870.2482 C987.968589,1867.83543 989.434671,1866.24122 991.617583,1865.24978 C992.993917,1864.62469 994.444945,1864.32474 995.939979,1864.14385 C998.000717,1863.89427 1000.04756,1863.987 1002.08514,1864.28696 C1003.83146,1864.54455 1005.54884,1864.94181 1007.04735,1865.96245 C1008.28182,1866.80334 1009.07219,1867.96823 1009.47635,1869.39529 C1010.19433,1871.93114 1010.27945,1874.51564 1010.04321,1877.12533 C1009.90424,1878.66172 1009.53425,1880.12885 1008.84463,1881.51184 C1008.2025,1882.79922 1007.16779,1883.64069 1005.86441,1884.17877 C1004.35837,1884.80042 1002.76027,1884.95555 1001.13843,1885.04313 C999.901066,1885.11011 998.661959,1885.1559 997.422853,1885.18052 C996.938212,1885.19025 996.868151,1885.3574 996.564743,1885.68482 C995.656837,1886.66596 993.013604,1889.1875 993.013604,1889.1875 L992.79068,1889.1875 Z M1002.05057,1873.73125 C1002.05057,1872.14413 1000.75363,1870.86196 999.159454,1870.86196 C998.841874,1870.86196 998.584425,1871.12145 998.584425,1871.44154 C998.584425,1871.76164 998.841874,1872.02112 999.159454,1872.02112 C1000.1234,1872.02112 1000.90051,1872.78939 1000.90051,1873.73125 C1000.90051,1874.05134 1001.15796,1874.31083 1001.47554,1874.31083 C1001.79312,1874.31083 1002.05057,1874.05134 1002.05057,1873.73125 Z M1003.72424,1874.40229 C1003.76647,1874.1558 1003.78763,1873.90469 1003.78763,1873.64939 C1003.78763,1871.15898 1001.75012,1869.14468 999.242254,1869.14468 C998.98625,1869.14468 998.733528,1869.16549 998.486205,1869.2069 C998.172918,1869.25935 997.961136,1869.55785 998.013176,1869.87362 C998.065217,1870.18938 998.361373,1870.40284 998.674659,1870.35039 C998.85939,1870.31946 999.049083,1870.30384 999.242254,1870.30384 C1001.11989,1870.30384 1002.63758,1871.80424 1002.63758,1873.64939 C1002.63758,1873.83887 1002.62197,1874.024 1002.59095,1874.20506 C1002.53692,1874.52049 1002.74681,1874.82034 1003.05976,1874.8748 C1003.37271,1874.92927 1003.67021,1874.71771 1003.72424,1874.40229 Z M1005.36925,1875.00651 C1005.47225,1874.55692 1005.5247,1874.09522 1005.5247,1873.62707 C1005.5247,1870.20074 1002.71941,1867.4274 999.264836,1867.4274 C998.793771,1867.4274 998.329183,1867.47898 997.876704,1867.5803 C997.566683,1867.64971 997.371194,1867.9593 997.440067,1868.27178 C997.508941,1868.58425 997.816095,1868.78129 998.126117,1868.71187 C998.496854,1868.62886 998.877811,1868.58657 999.264836,1868.58657 C1002.08917,1868.58657 1004.37464,1870.846 1004.37464,1873.62707 C1004.37464,1874.00723 1004.33214,1874.38144 1004.24868,1874.7457 C1004.17723,1875.05758 1004.37015,1875.3688 1004.67959,1875.44082 C1004.98902,1875.51284 1005.2978,1875.31839 1005.36925,1875.00651 Z M991.053151,1870.93645 C991.08326,1871.12363 991.079207,1871.32455 991.149848,1871.49456 C991.493208,1872.32687 991.793141,1873.18437 992.223933,1873.97202 C994.315359,1877.79526 997.477975,1880.45532 1001.5126,1882.14284 C1001.99319,1882.34433 1002.49114,1882.38669 1002.97868,1882.1852 C1003.64629,1881.90929 1004.21315,1881.48569 1004.59183,1880.87377 C1005.11006,1880.03631 1005.11759,1879.45472 1004.26527,1878.83593 C1003.70593,1878.43008 1003.15586,1878.01164 1002.59016,1877.6138 C1001.72915,1877.00875 1000.79635,1876.90342 1000.15305,1877.96412 C1000.12063,1878.01736 1000.07083,1878.06144 1000.02683,1878.1078 C999.697944,1878.4524 999.293787,1878.53884 998.863574,1878.36368 C997.231891,1877.69966 995.97194,1876.62923 995.211105,1875.03445 C994.76468,1874.09739 994.888011,1873.62685 995.725277,1873.00405 C995.807498,1872.9428 995.887403,1872.87869 995.963254,1872.81 C996.330354,1872.47914 996.42763,1872.08473 996.211655,1871.63996 C995.718907,1870.62505 995.065192,1869.72061 994.238349,1868.9404 C993.938995,1868.65819 993.582897,1868.51737 993.179898,1868.60553 C992.126078,1868.83507 991.082681,1869.59125 991.053151,1870.93645 Z" id="Combined-Shape"></path>
        </g>
    </g>
</svg>