<?xml version="1.0" encoding="UTF-8"?>
<svg width="24px" height="26px" viewBox="0 0 24 26" version="1.1" xmlns="http://www.w3.org/2000/svg" xmlns:xlink="http://www.w3.org/1999/xlink">
    <!-- Generator: Sketch 52.6 (67491) - http://www.bohemiancoding.com/sketch -->
    <title>viber</title>
    <desc>Created with Sketch.</desc>
    <g id="Page-2" stroke="none" stroke-width="1" fill="none" fill-rule="evenodd">
        <path d="M5.79068041,25.1875 C5.79068041,25.1875 5.7744678,22.5348764 5.79068041,21.1805158 C5.7958916,20.7534857 5.61929001,20.5548538 5.26608684,20.3934296 C4.70964708,20.1381274 3.84285174,19.9251848 3.32404838,19.6029088 C1.88749579,18.7099238 1.06875924,17.3515561 0.606120984,15.7602109 C0.0108867773,13.7132144 -0.0997063486,11.6152719 0.0757371967,9.50530852 C0.166643588,8.41426395 0.325295507,7.32493666 0.523899916,6.24820275 C0.968588507,3.83542581 2.4346712,2.24121851 4.61758264,1.24977612 C5.99391699,0.624686577 7.44494512,0.324735185 8.9399789,0.143848468 C11.0007168,-0.105729408 13.0475581,-0.012996344 15.0851352,0.286955048 C16.8314643,0.544546892 18.5488424,0.941810759 20.0473503,1.96244689 C21.2818243,2.80334115 22.0721888,3.96822872 22.4763459,5.39528753 C23.1943327,7.93113614 23.2794489,10.515641 23.0432081,13.1253326 C22.9042429,14.6617248 22.5342481,16.1288535 21.8446333,17.5118355 C21.2024984,18.7992223 20.1677868,19.640689 18.8644092,20.1787697 C17.358374,20.8004247 15.7602743,20.9555522 14.1384348,21.0431334 C12.9010657,21.1101073 11.6619594,21.1559014 10.4228532,21.1805158 C9.93821214,21.190247 9.86815053,21.3573955 9.56474321,21.6848233 C8.65683734,22.6659621 6.01360372,25.1875 6.01360372,25.1875 L5.79068041,25.1875 Z M15.0505684,9.73124745 C15.0505684,8.14412747 13.7536288,6.86196052 12.1594536,6.86196052 C11.8418742,6.86196052 11.5844253,7.12144806 11.5844253,7.44154217 C11.5844253,7.76163628 11.8418742,8.02112382 12.1594536,8.02112382 C13.1233959,8.02112382 13.9005117,8.78938795 13.9005117,9.73124745 C13.9005117,10.0513416 14.1579607,10.3108291 14.47554,10.3108291 C14.7931194,10.3108291 15.0505684,10.0513416 15.0505684,9.73124745 Z M16.7242417,10.4022867 C16.7664661,10.1558015 16.7876332,9.90468939 16.7876332,9.64939049 C16.7876332,7.15898177 14.750125,5.14468156 12.2422537,5.14468156 C11.9862498,5.14468156 11.7335277,5.16548819 11.4862049,5.20689641 C11.1729183,5.25934867 10.9611363,5.55784962 11.0131765,5.87361693 C11.0652167,6.18938425 11.3613725,6.40284327 11.6746591,6.35039101 C11.85939,6.31946229 12.0490828,6.30384486 12.2422537,6.30384486 C14.1198921,6.30384486 15.6375765,7.80424225 15.6375765,9.64939049 C15.6375765,9.83886684 15.6219712,10.0239972 15.5909539,10.2050609 C15.5369194,10.5204877 15.7468108,10.8203422 16.0597596,10.8748046 C16.3727084,10.929267 16.6702072,10.7177135 16.7242417,10.4022867 Z M18.3692515,11.0065051 C18.4722542,10.5569184 18.524698,10.0952157 18.524698,9.62706586 C18.524698,6.20074011 15.7194071,3.4274026 12.2648356,3.4274026 C11.7937709,3.4274026 11.3291827,3.4789788 10.8767043,3.58029589 C10.5666831,3.64971455 10.3711941,3.95930138 10.4400674,4.27177744 C10.5089407,4.5842535 10.8160954,4.78129045 11.1261166,4.71187179 C11.4968536,4.62885789 11.8778115,4.58656589 12.2648356,4.58656589 C15.0891743,4.58656589 17.3746413,6.84600059 17.3746413,9.62706586 C17.3746413,10.0072309 17.3321354,10.381443 17.2486833,10.7456951 C17.1772284,11.0575817 17.3701505,11.3688001 17.6795869,11.4408208 C17.9890233,11.5128414 18.2977966,11.3183917 18.3692515,11.0065051 Z M4.05315121,6.93644694 C4.08326034,7.12363035 4.07920718,7.32455198 4.14984782,7.4945626 C4.49320763,8.32687047 4.79314082,9.1843651 5.22393289,9.97202372 C7.31535892,13.7952591 10.4779749,16.4553242 14.5125974,18.142837 C14.9931854,18.3443311 15.4911439,18.3866906 15.9786801,18.1851966 C16.646292,17.9092871 17.2131542,17.4856916 17.5918343,16.8737679 C18.1100586,16.0363082 18.1175859,15.454723 17.2652661,14.8359302 C16.7059313,14.4300799 16.1558607,14.0116363 15.5901566,13.6138 C14.7291515,13.0087453 13.7963477,12.9034189 13.1530547,13.9641249 C13.1206295,14.0173605 13.0708336,14.0614374 13.026828,14.1078039 C12.6979437,14.4524045 12.2937866,14.5388409 11.8635736,14.3636785 C10.2318907,13.6996639 8.97193972,12.6292267 8.21110534,11.034447 C7.76467968,10.0973851 7.88801128,9.62685065 8.72527652,9.00405081 C8.80749758,8.94280119 8.88740257,8.87868945 8.9632544,8.80999829 C9.33035409,8.47913587 9.42762972,8.08473414 9.21165466,7.63995889 C8.71890728,6.62504702 8.06519189,5.72061343 7.23834904,4.94039636 C6.93899488,4.65819018 6.58289659,4.51737331 6.17989756,4.60552696 C5.12607824,4.83506992 4.08268131,5.59124509 4.05315121,6.93644694 Z" id="viber" fill="#FF5500"></path>
    </g>
</svg>