<?xml version="1.0" encoding="UTF-8"?>
<svg width="26px" height="26px" viewBox="0 0 26 26" version="1.1" xmlns="http://www.w3.org/2000/svg" xmlns:xlink="http://www.w3.org/1999/xlink">
    <!-- Generator: Sketch 52.6 (67491) - http://www.bohemiancoding.com/sketch -->
    <title>WhatsApp</title>
    <desc>Created with Sketch.</desc>
    <g id="Page-2" stroke="none" stroke-width="1" fill="none" fill-rule="evenodd">
        <path d="M21.7473198,3.65985617 C24.0745114,6.01896414 25.3557047,9.1553867 25.3557047,12.490317 C25.35261,19.3722675 19.8224353,24.971231 13.0286037,24.971231 L13.0234459,24.971231 C10.9603327,24.9701862 8.93229253,24.4467526 7.13222631,23.4521243 L0.597315436,25.1875 L2.34580382,18.7192815 C1.26679565,16.8271891 0.699439537,14.6791262 0.700471093,12.4798692 C0.703565763,5.59896352 6.23374054,3.19744231e-14 13.0275721,3.19744231e-14 C16.3254585,0.00104477767 19.4201282,1.3007482 21.7473198,3.65985617 Z M18.3827464,15.1029372 C18.0743109,14.9472653 16.5599859,14.1918911 16.278371,14.0884581 C15.9957245,13.9839803 15.7904447,13.9327862 15.5851649,14.24413 C15.3798852,14.5565185 14.7898348,15.2586091 14.610344,15.4665198 C14.4308531,15.6744306 14.2513623,15.70055 13.9429269,15.5448782 C13.6344915,15.3892063 12.642134,15.0590565 11.4661595,13.9965177 C10.5501373,13.1700985 9.93223493,12.148306 9.75274408,11.8359174 C9.57325324,11.5235289 9.73314451,11.3553197 9.88787799,11.1996478 C10.0261066,11.0596476 10.1963134,10.8350204 10.3500153,10.6532291 C10.5037173,10.4714378 10.5552951,10.3408406 10.6584508,10.1329298 C10.7616064,9.92501909 10.7100286,9.742183 10.6326618,9.58651113 C10.5552951,9.43083926 9.93945582,7.89501609 9.68259824,7.27128382 C9.43296155,6.66322322 9.17816707,6.74576065 8.98939222,6.73635765 C8.80990138,6.72695465 8.60462162,6.72590988 8.39934186,6.72590988 C8.1940621,6.72590988 7.85983778,6.8042682 7.57822283,7.11665672 C7.29660789,7.42904525 6.50024621,8.18337472 6.50024621,9.71815311 C6.50024621,11.2529315 7.60401175,12.7365158 7.75771367,12.9444266 C7.9114156,13.1523373 9.92914026,16.302342 13.0196837,17.6532395 C13.754152,17.9739862 14.328729,18.1662253 14.775393,18.3104046 C15.512956,18.5475692 16.1844993,18.5141363 16.7157509,18.4336884 C17.3078644,18.3438375 18.5385114,17.6793589 18.7943374,16.9511489 C19.051195,16.2229389 19.051195,15.5981618 18.9738283,15.4686094 C18.8964615,15.3369674 18.6911818,15.2586091 18.3827464,15.1029372 Z" id="WhatsApp" fill="#FF5500" fill-rule="nonzero"></path>
    </g>
</svg>