<svg xmlns="http://www.w3.org/2000/svg" xmlns:xlink="http://www.w3.org/1999/xlink" width="26" height="26" viewBox="0 0 26 26"><defs><path id="ru9sa" d="M1083.358 1876.49c-.003 6.882-5.533 12.481-12.327 12.481h-.005a12.197 12.197 0 0 1-5.891-1.519l-6.535 1.736 1.748-6.469a12.573 12.573 0 0 1-1.645-6.24c.003-6.88 5.533-12.479 12.327-12.479 3.298.001 6.393 1.3 8.72 3.66a12.494 12.494 0 0 1 3.608 8.83zm-6.973 2.606c-.308-.156-1.822-.91-2.104-1.014-.283-.104-.488-.155-.693.156-.205.312-.795 1.013-.975 1.221-.18.208-.359.234-.667.078-.309-.155-1.301-.485-2.477-1.547-.916-.825-1.534-1.846-1.714-2.158-.18-.313-.02-.48.136-.636.138-.14.308-.364.462-.546.153-.182.205-.312.308-.52.103-.208.052-.39-.026-.546-.077-.155-.693-1.69-.95-2.313-.25-.608-.504-.525-.693-.535-.18-.009-.385-.01-.59-.01-.205 0-.54.078-.821.39-.282.312-1.078 1.066-1.078 2.6 0 1.533 1.104 3.015 1.257 3.223.154.208 2.172 3.355 5.262 4.705.735.32 1.31.513 1.756.657.738.237 1.41.203 1.94.123.593-.09 1.823-.754 2.079-1.482.257-.727.257-1.351.18-1.48-.078-.132-.283-.21-.592-.366z"/></defs><g><g transform="translate(-1058 -1864)"><use fill="#798199" xlink:href="#ru9sa"/></g></g></svg>